<?xml version="1.0" encoding="UTF-8" standalone="no"?>
<svg
   xmlns:dc="http://purl.org/dc/elements/1.1/"
   xmlns:cc="http://creativecommons.org/ns#"
   xmlns:rdf="http://www.w3.org/1999/02/22-rdf-syntax-ns#"
   xmlns:svg="http://www.w3.org/2000/svg"
   xmlns="http://www.w3.org/2000/svg"
   xmlns:sodipodi="http://sodipodi.sourceforge.net/DTD/sodipodi-0.dtd"
   xmlns:inkscape="http://www.inkscape.org/namespaces/inkscape"
   width="210mm"
   height="297mm"
   viewBox="0 0 210 297"
   version="1.1"
   id="svg8"
   sodipodi:docname="B.svg"
   inkscape:version="1.0.2 (e86c870879, 2021-01-15)">
  <sodipodi:namedview
     pagecolor="#ffffff"
     bordercolor="#666666"
     borderopacity="1"
     objecttolerance="10"
     gridtolerance="10"
     guidetolerance="10"
     inkscape:pageopacity="0"
     inkscape:pageshadow="2"
     inkscape:window-width="1280"
     inkscape:window-height="960"
     id="namedview8"
     showgrid="false"
     inkscape:zoom="11.716498"
     inkscape:cx="3.438994"
     inkscape:cy="1.1171912"
     inkscape:window-x="0"
     inkscape:window-y="27"
     inkscape:window-maximized="1"
     inkscape:current-layer="svg8" />
  <defs
     id="defs2" />
  <metadata
     id="metadata5">
    <rdf:RDF>
      <cc:Work
         rdf:about="">
        <dc:format>image/svg+xml</dc:format>
        <dc:type
           rdf:resource="http://purl.org/dc/dcmitype/StillImage" />
        <dc:title />
      </cc:Work>
    </rdf:RDF>
  </metadata>
  <g
     id="layer1">
    <g
       aria-label="B"
       id="text835"
       style="font-style:normal;font-weight:normal;font-size:10.5833px;line-height:125%;font-family:Sans;letter-spacing:0px;word-spacing:0px;fill:#000000;fill-opacity:1;stroke:none;stroke-width:0.264583px;stroke-linecap:butt;stroke-linejoin:miter;stroke-opacity:1">
      <path
         d="m -0.01033175,-0.39935332 q 0.21945263,0 0.3327963,-0.0964627 0.11334366,-0.0964627 0.11334366,-0.28456495 0,-0.18569069 -0.11334366,-0.28215334 -0.11334367,-0.098874 -0.3327963,-0.098874 H -0.5239956 v 0.76205528 z M 0.02101862,1.1754002 q 0.27974182,0 0.41961273,-0.1181668 0.14228247,-0.11816682 0.14228247,-0.35691199 0,-0.23392204 -0.13987091,-0.34967727 -0.1398709,-0.1181668 -0.42202429,-0.1181668 H -0.5239956 V 1.1754002 Z m 0.86334112,-1.2950117 q 0.29903436,0.08681642 0.46302096,0.32073846 0.1639866,0.23392203 0.1639866,0.57395303 0,0.52089851 -0.3520889,0.77652471 Q 0.80718959,1.8072308 0.08854251,1.8072308 H -1.452449 v -3.6004701 h 1.3938859 q 0.74999745,0 1.0852053,0.2266874 0.3376195,0.2266873 0.3376195,0.72588175 0,0.26286085 -0.12299,0.44855154 -0.1229899,0.18327912 -0.35691196,0.27250711 z"
         style="font-style:normal;font-variant:normal;font-weight:bold;font-stretch:normal;font-size:4.93889px;font-family:Sans;-inkscape-font-specification:'Sans Bold';stroke-width:0.264583px"
         id="path833" />
    </g>
  </g>
</svg>
