G04 #@! TF.GenerationSoftware,KiCad,Pcbnew,5.1.10-88a1d61d58~90~ubuntu20.04.1*
G04 #@! TF.CreationDate,2021-08-31T10:35:56+02:00*
G04 #@! TF.ProjectId,piconsole,7069636f-6e73-46f6-9c65-2e6b69636164,rev?*
G04 #@! TF.SameCoordinates,Original*
G04 #@! TF.FileFunction,Copper,L2,Bot*
G04 #@! TF.FilePolarity,Positive*
%FSLAX46Y46*%
G04 Gerber Fmt 4.6, Leading zero omitted, Abs format (unit mm)*
G04 Created by KiCad (PCBNEW 5.1.10-88a1d61d58~90~ubuntu20.04.1) date 2021-08-31 10:35:56*
%MOMM*%
%LPD*%
G01*
G04 APERTURE LIST*
G04 #@! TA.AperFunction,ComponentPad*
%ADD10C,1.700000*%
G04 #@! TD*
G04 #@! TA.AperFunction,ComponentPad*
%ADD11R,1.700000X1.700000*%
G04 #@! TD*
G04 #@! TA.AperFunction,ComponentPad*
%ADD12C,2.000000*%
G04 #@! TD*
G04 #@! TA.AperFunction,SMDPad,CuDef*
%ADD13R,2.700000X1.700000*%
G04 #@! TD*
G04 #@! TA.AperFunction,ComponentPad*
%ADD14O,3.740000X2.720000*%
G04 #@! TD*
G04 #@! TA.AperFunction,ComponentPad*
%ADD15C,1.800000*%
G04 #@! TD*
G04 #@! TA.AperFunction,ComponentPad*
%ADD16R,1.800000X1.800000*%
G04 #@! TD*
G04 #@! TA.AperFunction,ComponentPad*
%ADD17R,1.624000X1.624000*%
G04 #@! TD*
G04 #@! TA.AperFunction,ComponentPad*
%ADD18C,1.624000*%
G04 #@! TD*
G04 #@! TA.AperFunction,ComponentPad*
%ADD19C,1.524000*%
G04 #@! TD*
G04 #@! TA.AperFunction,ComponentPad*
%ADD20R,2.000000X2.000000*%
G04 #@! TD*
G04 #@! TA.AperFunction,ComponentPad*
%ADD21R,2.200000X2.200000*%
G04 #@! TD*
G04 #@! TA.AperFunction,ComponentPad*
%ADD22O,2.200000X2.200000*%
G04 #@! TD*
G04 #@! TA.AperFunction,ComponentPad*
%ADD23O,1.700000X1.700000*%
G04 #@! TD*
G04 #@! TA.AperFunction,ComponentPad*
%ADD24C,1.600000*%
G04 #@! TD*
G04 #@! TA.AperFunction,ComponentPad*
%ADD25O,1.600000X1.600000*%
G04 #@! TD*
G04 #@! TA.AperFunction,ComponentPad*
%ADD26R,1.600000X1.600000*%
G04 #@! TD*
G04 #@! TA.AperFunction,ViaPad*
%ADD27C,0.800000*%
G04 #@! TD*
G04 #@! TA.AperFunction,Conductor*
%ADD28C,0.300000*%
G04 #@! TD*
G04 #@! TA.AperFunction,Conductor*
%ADD29C,0.250000*%
G04 #@! TD*
G04 #@! TA.AperFunction,Conductor*
%ADD30C,0.254000*%
G04 #@! TD*
G04 #@! TA.AperFunction,Conductor*
%ADD31C,0.100000*%
G04 #@! TD*
G04 APERTURE END LIST*
D10*
X138432500Y-64026000D03*
X135892500Y-64026000D03*
X133352500Y-64026000D03*
D11*
X123192500Y-64026000D03*
D10*
X125732500Y-64026000D03*
X128272500Y-64026000D03*
X130810000Y-64026000D03*
D12*
X134135000Y-128270000D03*
X134135000Y-132770000D03*
X127635000Y-128270000D03*
X127635000Y-132770000D03*
D13*
X100330000Y-71755000D03*
X100330000Y-67945000D03*
D14*
X149345000Y-118505000D03*
X149345000Y-108905000D03*
D15*
X156845000Y-111205000D03*
X156845000Y-113705000D03*
D16*
X156845000Y-116205000D03*
D17*
X98425000Y-83820000D03*
D18*
X100965000Y-83820000D03*
X103505000Y-83820000D03*
X106045000Y-83820000D03*
X108585000Y-83820000D03*
X111125000Y-83820000D03*
X113665000Y-83820000D03*
X116205000Y-83820000D03*
X118745000Y-83820000D03*
X121285000Y-83820000D03*
X123825000Y-83820000D03*
X126365000Y-83820000D03*
X128905000Y-83820000D03*
X131445000Y-83820000D03*
X133985000Y-83820000D03*
X136525000Y-83820000D03*
X139065000Y-83820000D03*
X141605000Y-83820000D03*
X144145000Y-83820000D03*
X146685000Y-83820000D03*
X146685000Y-101600000D03*
X144145000Y-101600000D03*
X141605000Y-101600000D03*
X139065000Y-101600000D03*
X136525000Y-101600000D03*
X133985000Y-101600000D03*
X131445000Y-101600000D03*
X128905000Y-101600000D03*
X126365000Y-101600000D03*
X123825000Y-101600000D03*
X121285000Y-101600000D03*
X118745000Y-101600000D03*
X116205000Y-101600000D03*
X113665000Y-101600000D03*
X111125000Y-101600000D03*
X108585000Y-101600000D03*
X106045000Y-101600000D03*
X103505000Y-101600000D03*
X100965000Y-101600000D03*
X98425000Y-101600000D03*
D19*
X146685000Y-128905000D03*
X141605000Y-128905000D03*
D20*
X153035000Y-95885000D03*
D12*
X160635000Y-95885000D03*
D16*
X155575000Y-63500000D03*
D15*
X158115000Y-63500000D03*
D16*
X155575000Y-71755000D03*
D15*
X158115000Y-71755000D03*
X158115000Y-79930000D03*
D16*
X155575000Y-79930000D03*
X155575000Y-88265000D03*
D15*
X158115000Y-88265000D03*
D21*
X113665000Y-73660000D03*
D22*
X121285000Y-73660000D03*
D11*
X108204000Y-65405000D03*
D23*
X105664000Y-65405000D03*
X108204000Y-67945000D03*
X105664000Y-67945000D03*
X108204000Y-70485000D03*
X105664000Y-70485000D03*
X108204000Y-73025000D03*
X105664000Y-73025000D03*
X108204000Y-75565000D03*
X105664000Y-75565000D03*
X108204000Y-78105000D03*
X105664000Y-78105000D03*
D24*
X139065000Y-73660000D03*
D25*
X149225000Y-73660000D03*
D24*
X125730000Y-78740000D03*
D25*
X135890000Y-78740000D03*
X122555000Y-78740000D03*
D24*
X112395000Y-78740000D03*
X125730000Y-73660000D03*
D25*
X135890000Y-73660000D03*
X149225000Y-78740000D03*
D24*
X139065000Y-78740000D03*
X132080000Y-107315000D03*
X129080000Y-107315000D03*
D19*
X112891051Y-112108949D03*
X109298949Y-115701051D03*
X109298949Y-129901051D03*
X112891051Y-126308949D03*
X105791051Y-119208949D03*
X102198949Y-122801051D03*
X116398949Y-122801051D03*
X119991051Y-119208949D03*
X151765000Y-128905000D03*
X156845000Y-128905000D03*
D26*
X108625000Y-60325000D03*
D24*
X111125000Y-60325000D03*
X113625000Y-60325000D03*
D27*
X144018000Y-70993000D03*
X120269000Y-91948000D03*
X133096000Y-97409000D03*
X123190000Y-105410000D03*
X141605000Y-93345000D03*
X126365000Y-110490000D03*
X140335000Y-120015000D03*
X128905000Y-76200000D03*
X127000000Y-116205000D03*
X138036167Y-102628832D03*
X130810000Y-113665000D03*
X114300000Y-105410000D03*
X127889000Y-104140000D03*
D28*
X141605000Y-83820000D02*
X141605000Y-81915000D01*
X130810000Y-110490000D02*
X140335000Y-120015000D01*
X126365000Y-110490000D02*
X130810000Y-110490000D01*
X128905000Y-81280000D02*
X126365000Y-83820000D01*
X128905000Y-76200000D02*
X128905000Y-81280000D01*
X106934000Y-76835000D02*
X105664000Y-78105000D01*
X110490000Y-76835000D02*
X106934000Y-76835000D01*
X113665000Y-73660000D02*
X110490000Y-76835000D01*
X113625000Y-60920000D02*
X113625000Y-60325000D01*
X121285000Y-68580000D02*
X113625000Y-60920000D01*
X121285000Y-73660000D02*
X121285000Y-68580000D01*
D29*
X106045000Y-62230000D02*
X109220000Y-62230000D01*
X109220000Y-62230000D02*
X111125000Y-60325000D01*
X100330000Y-67945000D02*
X106045000Y-62230000D01*
D28*
X104140000Y-66929000D02*
X105664000Y-65405000D01*
X104140000Y-78357002D02*
X104140000Y-66929000D01*
X104775000Y-78992002D02*
X104140000Y-78357002D01*
X104775000Y-97790000D02*
X104775000Y-78992002D01*
X108585000Y-101600000D02*
X104775000Y-97790000D01*
X111125000Y-103345002D02*
X111125000Y-101600000D01*
X123984998Y-116205000D02*
X111125000Y-103345002D01*
X127000000Y-116205000D02*
X123984998Y-116205000D01*
X154940000Y-114300000D02*
X156845000Y-116205000D01*
X154940000Y-90678000D02*
X154940000Y-114300000D01*
X153670000Y-89408000D02*
X154940000Y-90678000D01*
X153670000Y-83185000D02*
X153670000Y-89408000D01*
X149225000Y-78740000D02*
X153670000Y-83185000D01*
X120530001Y-108465001D02*
X113665000Y-101600000D01*
X130929999Y-108465001D02*
X120530001Y-108465001D01*
X132080000Y-107315000D02*
X130929999Y-108465001D01*
X137902999Y-102495664D02*
X138036167Y-102628832D01*
X137902999Y-101042239D02*
X137902999Y-102495664D01*
X137541000Y-100680240D02*
X137902999Y-101042239D01*
X140335000Y-84269762D02*
X137541000Y-87063762D01*
X140335000Y-80010000D02*
X140335000Y-84269762D01*
X137541000Y-87063762D02*
X137541000Y-100680240D01*
X139065000Y-78740000D02*
X140335000Y-80010000D01*
X121920000Y-107315000D02*
X116205000Y-101600000D01*
X129080000Y-107315000D02*
X121920000Y-107315000D01*
X122555000Y-113665000D02*
X114300000Y-105410000D01*
X130810000Y-113665000D02*
X122555000Y-113665000D01*
X112903000Y-67945000D02*
X108204000Y-67945000D01*
X117475000Y-72517000D02*
X112903000Y-67945000D01*
X117475000Y-97790000D02*
X117475000Y-72517000D01*
X121285000Y-101600000D02*
X117475000Y-97790000D01*
X136398000Y-99187000D02*
X133985000Y-101600000D01*
X136398000Y-85412762D02*
X136398000Y-99187000D01*
X135255000Y-84269762D02*
X136398000Y-85412762D01*
X133352500Y-78927738D02*
X135255000Y-80830238D01*
X135255000Y-80830238D02*
X135255000Y-84269762D01*
X133352500Y-64026000D02*
X133352500Y-78927738D01*
X136906000Y-101219000D02*
X136525000Y-101600000D01*
X137795000Y-84269762D02*
X136906000Y-85158762D01*
X137795000Y-78942998D02*
X137795000Y-84269762D01*
X134620000Y-75767998D02*
X137795000Y-78942998D01*
X134620000Y-63517498D02*
X134620000Y-75767998D01*
X133928501Y-62825999D02*
X134620000Y-63517498D01*
X132010001Y-62825999D02*
X133928501Y-62825999D01*
X136906000Y-85158762D02*
X136906000Y-101219000D01*
X130810000Y-64026000D02*
X132010001Y-62825999D01*
X140335000Y-102870000D02*
X139065000Y-101600000D01*
X129972511Y-62325989D02*
X140681991Y-62325989D01*
X148347011Y-79825767D02*
X148347011Y-84584873D01*
X128272500Y-64026000D02*
X129972511Y-62325989D01*
X140681991Y-62325989D02*
X147847001Y-69490999D01*
X147847001Y-69490999D02*
X147847001Y-79325757D01*
X147947011Y-84984873D02*
X147947011Y-102057751D01*
X147947011Y-102057751D02*
X147134762Y-102870000D01*
X147134762Y-102870000D02*
X140335000Y-102870000D01*
X147847001Y-79325757D02*
X148347011Y-79825767D01*
X148347011Y-84584873D02*
X147947011Y-84984873D01*
X146939000Y-98806000D02*
X144145000Y-101600000D01*
X146939000Y-85793762D02*
X146939000Y-98806000D01*
X146812000Y-81973238D02*
X145415000Y-83370238D01*
X146812000Y-79704998D02*
X146812000Y-81973238D01*
X139319000Y-72211998D02*
X146812000Y-79704998D01*
X145415000Y-84269762D02*
X146939000Y-85793762D01*
X145415000Y-83370238D02*
X145415000Y-84269762D01*
X139319000Y-64912500D02*
X139319000Y-72211998D01*
X138432500Y-64026000D02*
X139319000Y-64912500D01*
X147447000Y-100838000D02*
X146685000Y-101600000D01*
X147447000Y-84777762D02*
X147447000Y-100838000D01*
X147847001Y-84377761D02*
X147447000Y-84777762D01*
X147447000Y-79632878D02*
X147447000Y-82862238D01*
X139909999Y-72095877D02*
X147447000Y-79632878D01*
X139909999Y-63727497D02*
X139909999Y-72095877D01*
X139008501Y-62825999D02*
X139909999Y-63727497D01*
X147847001Y-83262239D02*
X147847001Y-84377761D01*
X137092501Y-62825999D02*
X139008501Y-62825999D01*
X147447000Y-82862238D02*
X147847001Y-83262239D01*
X135892500Y-64026000D02*
X137092501Y-62825999D01*
X111125000Y-83820000D02*
X111125000Y-83185000D01*
X130175000Y-87630000D02*
X133985000Y-83820000D01*
X130175000Y-102157761D02*
X130175000Y-87630000D01*
X130887239Y-102870000D02*
X130175000Y-102157761D01*
X151765000Y-128905000D02*
X151765000Y-117418341D01*
X151765000Y-117418341D02*
X137216659Y-102870000D01*
X137216659Y-102870000D02*
X130887239Y-102870000D01*
X127635000Y-90170000D02*
X121285000Y-83820000D01*
X127635000Y-102049762D02*
X127635000Y-90170000D01*
X128455238Y-102870000D02*
X127635000Y-102049762D01*
X129337002Y-102870000D02*
X128455238Y-102870000D01*
X141605000Y-115137998D02*
X129337002Y-102870000D01*
X141605000Y-128905000D02*
X141605000Y-115137998D01*
X123825000Y-102235000D02*
X123825000Y-101600000D01*
X125730000Y-104140000D02*
X123825000Y-102235000D01*
X127889000Y-104140000D02*
X125730000Y-104140000D01*
D30*
X160542023Y-58639837D02*
X160239837Y-58942023D01*
X160002412Y-59297355D01*
X159838870Y-59692179D01*
X159755497Y-60111323D01*
X159755497Y-60538677D01*
X159838870Y-60957821D01*
X160002412Y-61352645D01*
X160239837Y-61707977D01*
X160542023Y-62010163D01*
X160897355Y-62247588D01*
X161292179Y-62411130D01*
X161711323Y-62494503D01*
X162138677Y-62494503D01*
X162557821Y-62411130D01*
X162952645Y-62247588D01*
X163307977Y-62010163D01*
X163610163Y-61707977D01*
X163805000Y-61416382D01*
X163805001Y-134798619D01*
X163610163Y-134507023D01*
X163307977Y-134204837D01*
X162952645Y-133967412D01*
X162557821Y-133803870D01*
X162138677Y-133720497D01*
X161711323Y-133720497D01*
X161292179Y-133803870D01*
X160897355Y-133967412D01*
X160542023Y-134204837D01*
X160239837Y-134507023D01*
X160002412Y-134862355D01*
X159838870Y-135257179D01*
X159755497Y-135676323D01*
X159755497Y-136103677D01*
X159838870Y-136522821D01*
X160002412Y-136917645D01*
X160239837Y-137272977D01*
X160542023Y-137575163D01*
X160833617Y-137770000D01*
X100786383Y-137770000D01*
X101077977Y-137575163D01*
X101380163Y-137272977D01*
X101617588Y-136917645D01*
X101781130Y-136522821D01*
X101864503Y-136103677D01*
X101864503Y-135676323D01*
X101781130Y-135257179D01*
X101617588Y-134862355D01*
X101380163Y-134507023D01*
X101077977Y-134204837D01*
X100722645Y-133967412D01*
X100572967Y-133905413D01*
X126679192Y-133905413D01*
X126774956Y-134169814D01*
X127064571Y-134310704D01*
X127376108Y-134392384D01*
X127697595Y-134411718D01*
X128016675Y-134367961D01*
X128321088Y-134262795D01*
X128495044Y-134169814D01*
X128590808Y-133905413D01*
X133179192Y-133905413D01*
X133274956Y-134169814D01*
X133564571Y-134310704D01*
X133876108Y-134392384D01*
X134197595Y-134411718D01*
X134516675Y-134367961D01*
X134821088Y-134262795D01*
X134995044Y-134169814D01*
X135090808Y-133905413D01*
X134135000Y-132949605D01*
X133179192Y-133905413D01*
X128590808Y-133905413D01*
X127635000Y-132949605D01*
X126679192Y-133905413D01*
X100572967Y-133905413D01*
X100327821Y-133803870D01*
X99908677Y-133720497D01*
X99481323Y-133720497D01*
X99062179Y-133803870D01*
X98667355Y-133967412D01*
X98312023Y-134204837D01*
X98009837Y-134507023D01*
X97815000Y-134798617D01*
X97815000Y-132832595D01*
X125993282Y-132832595D01*
X126037039Y-133151675D01*
X126142205Y-133456088D01*
X126235186Y-133630044D01*
X126499587Y-133725808D01*
X127455395Y-132770000D01*
X127814605Y-132770000D01*
X128770413Y-133725808D01*
X129034814Y-133630044D01*
X129175704Y-133340429D01*
X129257384Y-133028892D01*
X129269189Y-132832595D01*
X132493282Y-132832595D01*
X132537039Y-133151675D01*
X132642205Y-133456088D01*
X132735186Y-133630044D01*
X132999587Y-133725808D01*
X133955395Y-132770000D01*
X134314605Y-132770000D01*
X135270413Y-133725808D01*
X135534814Y-133630044D01*
X135675704Y-133340429D01*
X135757384Y-133028892D01*
X135776718Y-132707405D01*
X135732961Y-132388325D01*
X135627795Y-132083912D01*
X135534814Y-131909956D01*
X135270413Y-131814192D01*
X134314605Y-132770000D01*
X133955395Y-132770000D01*
X132999587Y-131814192D01*
X132735186Y-131909956D01*
X132594296Y-132199571D01*
X132512616Y-132511108D01*
X132493282Y-132832595D01*
X129269189Y-132832595D01*
X129276718Y-132707405D01*
X129232961Y-132388325D01*
X129127795Y-132083912D01*
X129034814Y-131909956D01*
X128770413Y-131814192D01*
X127814605Y-132770000D01*
X127455395Y-132770000D01*
X126499587Y-131814192D01*
X126235186Y-131909956D01*
X126094296Y-132199571D01*
X126012616Y-132511108D01*
X125993282Y-132832595D01*
X97815000Y-132832595D01*
X97815000Y-131634587D01*
X126679192Y-131634587D01*
X127635000Y-132590395D01*
X128590808Y-131634587D01*
X133179192Y-131634587D01*
X134135000Y-132590395D01*
X135090808Y-131634587D01*
X134995044Y-131370186D01*
X134705429Y-131229296D01*
X134393892Y-131147616D01*
X134072405Y-131128282D01*
X133753325Y-131172039D01*
X133448912Y-131277205D01*
X133274956Y-131370186D01*
X133179192Y-131634587D01*
X128590808Y-131634587D01*
X128495044Y-131370186D01*
X128205429Y-131229296D01*
X127893892Y-131147616D01*
X127572405Y-131128282D01*
X127253325Y-131172039D01*
X126948912Y-131277205D01*
X126774956Y-131370186D01*
X126679192Y-131634587D01*
X97815000Y-131634587D01*
X97815000Y-130245183D01*
X107938026Y-130245183D01*
X108031313Y-130504074D01*
X108173314Y-130739791D01*
X108358573Y-130943275D01*
X108579970Y-131106707D01*
X108828997Y-131223807D01*
X108954817Y-131261974D01*
X109171949Y-131139566D01*
X109171949Y-130028051D01*
X109425949Y-130028051D01*
X109425949Y-131139566D01*
X109643081Y-131261974D01*
X109901972Y-131168687D01*
X110137689Y-131026686D01*
X110341173Y-130841427D01*
X110504605Y-130620030D01*
X110621705Y-130371003D01*
X110659872Y-130245183D01*
X110537464Y-130028051D01*
X109425949Y-130028051D01*
X109171949Y-130028051D01*
X108060434Y-130028051D01*
X107938026Y-130245183D01*
X97815000Y-130245183D01*
X97815000Y-129556919D01*
X107938026Y-129556919D01*
X108060434Y-129774051D01*
X109171949Y-129774051D01*
X109171949Y-128662536D01*
X109425949Y-128662536D01*
X109425949Y-129774051D01*
X110537464Y-129774051D01*
X110659872Y-129556919D01*
X110566585Y-129298028D01*
X110424584Y-129062311D01*
X110239325Y-128858827D01*
X110017928Y-128695395D01*
X109768901Y-128578295D01*
X109643081Y-128540128D01*
X109425949Y-128662536D01*
X109171949Y-128662536D01*
X108954817Y-128540128D01*
X108695926Y-128633415D01*
X108460209Y-128775416D01*
X108256725Y-128960675D01*
X108093293Y-129182072D01*
X107976193Y-129431099D01*
X107938026Y-129556919D01*
X97815000Y-129556919D01*
X97815000Y-128108967D01*
X126000000Y-128108967D01*
X126000000Y-128431033D01*
X126062832Y-128746912D01*
X126186082Y-129044463D01*
X126365013Y-129312252D01*
X126592748Y-129539987D01*
X126860537Y-129718918D01*
X127158088Y-129842168D01*
X127473967Y-129905000D01*
X127796033Y-129905000D01*
X128111912Y-129842168D01*
X128409463Y-129718918D01*
X128677252Y-129539987D01*
X128904987Y-129312252D01*
X129083918Y-129044463D01*
X129207168Y-128746912D01*
X129270000Y-128431033D01*
X129270000Y-128108967D01*
X132500000Y-128108967D01*
X132500000Y-128431033D01*
X132562832Y-128746912D01*
X132686082Y-129044463D01*
X132865013Y-129312252D01*
X133092748Y-129539987D01*
X133360537Y-129718918D01*
X133658088Y-129842168D01*
X133973967Y-129905000D01*
X134296033Y-129905000D01*
X134611912Y-129842168D01*
X134909463Y-129718918D01*
X135177252Y-129539987D01*
X135404987Y-129312252D01*
X135583918Y-129044463D01*
X135707168Y-128746912D01*
X135770000Y-128431033D01*
X135770000Y-128108967D01*
X135707168Y-127793088D01*
X135583918Y-127495537D01*
X135404987Y-127227748D01*
X135177252Y-127000013D01*
X134909463Y-126821082D01*
X134611912Y-126697832D01*
X134296033Y-126635000D01*
X133973967Y-126635000D01*
X133658088Y-126697832D01*
X133360537Y-126821082D01*
X133092748Y-127000013D01*
X132865013Y-127227748D01*
X132686082Y-127495537D01*
X132562832Y-127793088D01*
X132500000Y-128108967D01*
X129270000Y-128108967D01*
X129207168Y-127793088D01*
X129083918Y-127495537D01*
X128904987Y-127227748D01*
X128677252Y-127000013D01*
X128409463Y-126821082D01*
X128111912Y-126697832D01*
X127796033Y-126635000D01*
X127473967Y-126635000D01*
X127158088Y-126697832D01*
X126860537Y-126821082D01*
X126592748Y-127000013D01*
X126365013Y-127227748D01*
X126186082Y-127495537D01*
X126062832Y-127793088D01*
X126000000Y-128108967D01*
X97815000Y-128108967D01*
X97815000Y-126171357D01*
X111494051Y-126171357D01*
X111494051Y-126446541D01*
X111547737Y-126716439D01*
X111653046Y-126970676D01*
X111805931Y-127199484D01*
X112000516Y-127394069D01*
X112229324Y-127546954D01*
X112483561Y-127652263D01*
X112753459Y-127705949D01*
X113028643Y-127705949D01*
X113298541Y-127652263D01*
X113552778Y-127546954D01*
X113781586Y-127394069D01*
X113976171Y-127199484D01*
X114129056Y-126970676D01*
X114234365Y-126716439D01*
X114288051Y-126446541D01*
X114288051Y-126171357D01*
X114234365Y-125901459D01*
X114129056Y-125647222D01*
X113976171Y-125418414D01*
X113781586Y-125223829D01*
X113552778Y-125070944D01*
X113298541Y-124965635D01*
X113028643Y-124911949D01*
X112753459Y-124911949D01*
X112483561Y-124965635D01*
X112229324Y-125070944D01*
X112000516Y-125223829D01*
X111805931Y-125418414D01*
X111653046Y-125647222D01*
X111547737Y-125901459D01*
X111494051Y-126171357D01*
X97815000Y-126171357D01*
X97815000Y-123145183D01*
X100838026Y-123145183D01*
X100931313Y-123404074D01*
X101073314Y-123639791D01*
X101258573Y-123843275D01*
X101479970Y-124006707D01*
X101728997Y-124123807D01*
X101854817Y-124161974D01*
X102071949Y-124039566D01*
X102071949Y-122928051D01*
X102325949Y-122928051D01*
X102325949Y-124039566D01*
X102543081Y-124161974D01*
X102801972Y-124068687D01*
X103037689Y-123926686D01*
X103241173Y-123741427D01*
X103404605Y-123520030D01*
X103521705Y-123271003D01*
X103559872Y-123145183D01*
X115038026Y-123145183D01*
X115131313Y-123404074D01*
X115273314Y-123639791D01*
X115458573Y-123843275D01*
X115679970Y-124006707D01*
X115928997Y-124123807D01*
X116054817Y-124161974D01*
X116271949Y-124039566D01*
X116271949Y-122928051D01*
X116525949Y-122928051D01*
X116525949Y-124039566D01*
X116743081Y-124161974D01*
X117001972Y-124068687D01*
X117237689Y-123926686D01*
X117441173Y-123741427D01*
X117604605Y-123520030D01*
X117721705Y-123271003D01*
X117759872Y-123145183D01*
X117637464Y-122928051D01*
X116525949Y-122928051D01*
X116271949Y-122928051D01*
X115160434Y-122928051D01*
X115038026Y-123145183D01*
X103559872Y-123145183D01*
X103437464Y-122928051D01*
X102325949Y-122928051D01*
X102071949Y-122928051D01*
X100960434Y-122928051D01*
X100838026Y-123145183D01*
X97815000Y-123145183D01*
X97815000Y-122456919D01*
X100838026Y-122456919D01*
X100960434Y-122674051D01*
X102071949Y-122674051D01*
X102071949Y-121562536D01*
X102325949Y-121562536D01*
X102325949Y-122674051D01*
X103437464Y-122674051D01*
X103559872Y-122456919D01*
X115038026Y-122456919D01*
X115160434Y-122674051D01*
X116271949Y-122674051D01*
X116271949Y-121562536D01*
X116525949Y-121562536D01*
X116525949Y-122674051D01*
X117637464Y-122674051D01*
X117759872Y-122456919D01*
X117666585Y-122198028D01*
X117524584Y-121962311D01*
X117339325Y-121758827D01*
X117117928Y-121595395D01*
X116868901Y-121478295D01*
X116743081Y-121440128D01*
X116525949Y-121562536D01*
X116271949Y-121562536D01*
X116054817Y-121440128D01*
X115795926Y-121533415D01*
X115560209Y-121675416D01*
X115356725Y-121860675D01*
X115193293Y-122082072D01*
X115076193Y-122331099D01*
X115038026Y-122456919D01*
X103559872Y-122456919D01*
X103466585Y-122198028D01*
X103324584Y-121962311D01*
X103139325Y-121758827D01*
X102917928Y-121595395D01*
X102668901Y-121478295D01*
X102543081Y-121440128D01*
X102325949Y-121562536D01*
X102071949Y-121562536D01*
X101854817Y-121440128D01*
X101595926Y-121533415D01*
X101360209Y-121675416D01*
X101156725Y-121860675D01*
X100993293Y-122082072D01*
X100876193Y-122331099D01*
X100838026Y-122456919D01*
X97815000Y-122456919D01*
X97815000Y-119071357D01*
X104394051Y-119071357D01*
X104394051Y-119346541D01*
X104447737Y-119616439D01*
X104553046Y-119870676D01*
X104705931Y-120099484D01*
X104900516Y-120294069D01*
X105129324Y-120446954D01*
X105383561Y-120552263D01*
X105653459Y-120605949D01*
X105928643Y-120605949D01*
X106198541Y-120552263D01*
X106452778Y-120446954D01*
X106681586Y-120294069D01*
X106876171Y-120099484D01*
X107029056Y-119870676D01*
X107134365Y-119616439D01*
X107188051Y-119346541D01*
X107188051Y-119071357D01*
X118594051Y-119071357D01*
X118594051Y-119346541D01*
X118647737Y-119616439D01*
X118753046Y-119870676D01*
X118905931Y-120099484D01*
X119100516Y-120294069D01*
X119329324Y-120446954D01*
X119583561Y-120552263D01*
X119853459Y-120605949D01*
X120128643Y-120605949D01*
X120398541Y-120552263D01*
X120652778Y-120446954D01*
X120881586Y-120294069D01*
X121076171Y-120099484D01*
X121229056Y-119870676D01*
X121334365Y-119616439D01*
X121388051Y-119346541D01*
X121388051Y-119071357D01*
X121334365Y-118801459D01*
X121229056Y-118547222D01*
X121076171Y-118318414D01*
X120881586Y-118123829D01*
X120652778Y-117970944D01*
X120398541Y-117865635D01*
X120128643Y-117811949D01*
X119853459Y-117811949D01*
X119583561Y-117865635D01*
X119329324Y-117970944D01*
X119100516Y-118123829D01*
X118905931Y-118318414D01*
X118753046Y-118547222D01*
X118647737Y-118801459D01*
X118594051Y-119071357D01*
X107188051Y-119071357D01*
X107134365Y-118801459D01*
X107029056Y-118547222D01*
X106876171Y-118318414D01*
X106681586Y-118123829D01*
X106452778Y-117970944D01*
X106198541Y-117865635D01*
X105928643Y-117811949D01*
X105653459Y-117811949D01*
X105383561Y-117865635D01*
X105129324Y-117970944D01*
X104900516Y-118123829D01*
X104705931Y-118318414D01*
X104553046Y-118547222D01*
X104447737Y-118801459D01*
X104394051Y-119071357D01*
X97815000Y-119071357D01*
X97815000Y-116045183D01*
X107938026Y-116045183D01*
X108031313Y-116304074D01*
X108173314Y-116539791D01*
X108358573Y-116743275D01*
X108579970Y-116906707D01*
X108828997Y-117023807D01*
X108954817Y-117061974D01*
X109171949Y-116939566D01*
X109171949Y-115828051D01*
X109425949Y-115828051D01*
X109425949Y-116939566D01*
X109643081Y-117061974D01*
X109901972Y-116968687D01*
X110137689Y-116826686D01*
X110341173Y-116641427D01*
X110504605Y-116420030D01*
X110621705Y-116171003D01*
X110659872Y-116045183D01*
X110537464Y-115828051D01*
X109425949Y-115828051D01*
X109171949Y-115828051D01*
X108060434Y-115828051D01*
X107938026Y-116045183D01*
X97815000Y-116045183D01*
X97815000Y-115356919D01*
X107938026Y-115356919D01*
X108060434Y-115574051D01*
X109171949Y-115574051D01*
X109171949Y-114462536D01*
X109425949Y-114462536D01*
X109425949Y-115574051D01*
X110537464Y-115574051D01*
X110659872Y-115356919D01*
X110566585Y-115098028D01*
X110424584Y-114862311D01*
X110239325Y-114658827D01*
X110017928Y-114495395D01*
X109768901Y-114378295D01*
X109643081Y-114340128D01*
X109425949Y-114462536D01*
X109171949Y-114462536D01*
X108954817Y-114340128D01*
X108695926Y-114433415D01*
X108460209Y-114575416D01*
X108256725Y-114760675D01*
X108093293Y-114982072D01*
X107976193Y-115231099D01*
X107938026Y-115356919D01*
X97815000Y-115356919D01*
X97815000Y-111971357D01*
X111494051Y-111971357D01*
X111494051Y-112246541D01*
X111547737Y-112516439D01*
X111653046Y-112770676D01*
X111805931Y-112999484D01*
X112000516Y-113194069D01*
X112229324Y-113346954D01*
X112483561Y-113452263D01*
X112753459Y-113505949D01*
X113028643Y-113505949D01*
X113298541Y-113452263D01*
X113552778Y-113346954D01*
X113781586Y-113194069D01*
X113976171Y-112999484D01*
X114129056Y-112770676D01*
X114234365Y-112516439D01*
X114288051Y-112246541D01*
X114288051Y-111971357D01*
X114234365Y-111701459D01*
X114129056Y-111447222D01*
X113976171Y-111218414D01*
X113781586Y-111023829D01*
X113552778Y-110870944D01*
X113298541Y-110765635D01*
X113028643Y-110711949D01*
X112753459Y-110711949D01*
X112483561Y-110765635D01*
X112229324Y-110870944D01*
X112000516Y-111023829D01*
X111805931Y-111218414D01*
X111653046Y-111447222D01*
X111547737Y-111701459D01*
X111494051Y-111971357D01*
X97815000Y-111971357D01*
X97815000Y-102913550D01*
X98002926Y-102991392D01*
X98282483Y-103047000D01*
X98567517Y-103047000D01*
X98847074Y-102991392D01*
X99110411Y-102882314D01*
X99347408Y-102723958D01*
X99548958Y-102522408D01*
X99695000Y-102303840D01*
X99841042Y-102522408D01*
X100042592Y-102723958D01*
X100279589Y-102882314D01*
X100542926Y-102991392D01*
X100822483Y-103047000D01*
X101107517Y-103047000D01*
X101387074Y-102991392D01*
X101650411Y-102882314D01*
X101887408Y-102723958D01*
X102010096Y-102601270D01*
X102683335Y-102601270D01*
X102756371Y-102846464D01*
X103013928Y-102968564D01*
X103290358Y-103038071D01*
X103575036Y-103052314D01*
X103857023Y-103010744D01*
X104125482Y-102914961D01*
X104253629Y-102846464D01*
X104326665Y-102601270D01*
X103505000Y-101779605D01*
X102683335Y-102601270D01*
X102010096Y-102601270D01*
X102088958Y-102522408D01*
X102234775Y-102304177D01*
X102258536Y-102348629D01*
X102503730Y-102421665D01*
X103325395Y-101600000D01*
X102503730Y-100778335D01*
X102258536Y-100851371D01*
X102236347Y-100898176D01*
X102088958Y-100677592D01*
X102010096Y-100598730D01*
X102683335Y-100598730D01*
X103505000Y-101420395D01*
X104326665Y-100598730D01*
X104253629Y-100353536D01*
X103996072Y-100231436D01*
X103719642Y-100161929D01*
X103434964Y-100147686D01*
X103152977Y-100189256D01*
X102884518Y-100285039D01*
X102756371Y-100353536D01*
X102683335Y-100598730D01*
X102010096Y-100598730D01*
X101887408Y-100476042D01*
X101650411Y-100317686D01*
X101387074Y-100208608D01*
X101107517Y-100153000D01*
X100822483Y-100153000D01*
X100542926Y-100208608D01*
X100279589Y-100317686D01*
X100042592Y-100476042D01*
X99841042Y-100677592D01*
X99695000Y-100896160D01*
X99548958Y-100677592D01*
X99347408Y-100476042D01*
X99110411Y-100317686D01*
X98847074Y-100208608D01*
X98567517Y-100153000D01*
X98282483Y-100153000D01*
X98002926Y-100208608D01*
X97815000Y-100286450D01*
X97815000Y-85270072D01*
X99237000Y-85270072D01*
X99361482Y-85257812D01*
X99481180Y-85221502D01*
X99591494Y-85162537D01*
X99688185Y-85083185D01*
X99767537Y-84986494D01*
X99826502Y-84876180D01*
X99861021Y-84762387D01*
X100042592Y-84943958D01*
X100279589Y-85102314D01*
X100542926Y-85211392D01*
X100822483Y-85267000D01*
X101107517Y-85267000D01*
X101387074Y-85211392D01*
X101650411Y-85102314D01*
X101887408Y-84943958D01*
X102088958Y-84742408D01*
X102234775Y-84524177D01*
X102258536Y-84568629D01*
X102503730Y-84641665D01*
X103325395Y-83820000D01*
X102503730Y-82998335D01*
X102258536Y-83071371D01*
X102236347Y-83118176D01*
X102088958Y-82897592D01*
X101887408Y-82696042D01*
X101650411Y-82537686D01*
X101387074Y-82428608D01*
X101107517Y-82373000D01*
X100822483Y-82373000D01*
X100542926Y-82428608D01*
X100279589Y-82537686D01*
X100042592Y-82696042D01*
X99861021Y-82877613D01*
X99826502Y-82763820D01*
X99767537Y-82653506D01*
X99688185Y-82556815D01*
X99591494Y-82477463D01*
X99481180Y-82418498D01*
X99361482Y-82382188D01*
X99237000Y-82369928D01*
X97815000Y-82369928D01*
X97815000Y-72605000D01*
X98341928Y-72605000D01*
X98354188Y-72729482D01*
X98390498Y-72849180D01*
X98449463Y-72959494D01*
X98528815Y-73056185D01*
X98625506Y-73135537D01*
X98735820Y-73194502D01*
X98855518Y-73230812D01*
X98980000Y-73243072D01*
X100044250Y-73240000D01*
X100203000Y-73081250D01*
X100203000Y-71882000D01*
X100457000Y-71882000D01*
X100457000Y-73081250D01*
X100615750Y-73240000D01*
X101680000Y-73243072D01*
X101804482Y-73230812D01*
X101924180Y-73194502D01*
X102034494Y-73135537D01*
X102131185Y-73056185D01*
X102210537Y-72959494D01*
X102269502Y-72849180D01*
X102305812Y-72729482D01*
X102318072Y-72605000D01*
X102315000Y-72040750D01*
X102156250Y-71882000D01*
X100457000Y-71882000D01*
X100203000Y-71882000D01*
X98503750Y-71882000D01*
X98345000Y-72040750D01*
X98341928Y-72605000D01*
X97815000Y-72605000D01*
X97815000Y-70905000D01*
X98341928Y-70905000D01*
X98345000Y-71469250D01*
X98503750Y-71628000D01*
X100203000Y-71628000D01*
X100203000Y-70428750D01*
X100457000Y-70428750D01*
X100457000Y-71628000D01*
X102156250Y-71628000D01*
X102315000Y-71469250D01*
X102318072Y-70905000D01*
X102305812Y-70780518D01*
X102269502Y-70660820D01*
X102210537Y-70550506D01*
X102131185Y-70453815D01*
X102034494Y-70374463D01*
X101924180Y-70315498D01*
X101804482Y-70279188D01*
X101680000Y-70266928D01*
X100615750Y-70270000D01*
X100457000Y-70428750D01*
X100203000Y-70428750D01*
X100044250Y-70270000D01*
X98980000Y-70266928D01*
X98855518Y-70279188D01*
X98735820Y-70315498D01*
X98625506Y-70374463D01*
X98528815Y-70453815D01*
X98449463Y-70550506D01*
X98390498Y-70660820D01*
X98354188Y-70780518D01*
X98341928Y-70905000D01*
X97815000Y-70905000D01*
X97815000Y-67095000D01*
X98341928Y-67095000D01*
X98341928Y-68795000D01*
X98354188Y-68919482D01*
X98390498Y-69039180D01*
X98449463Y-69149494D01*
X98528815Y-69246185D01*
X98625506Y-69325537D01*
X98735820Y-69384502D01*
X98855518Y-69420812D01*
X98980000Y-69433072D01*
X101680000Y-69433072D01*
X101804482Y-69420812D01*
X101924180Y-69384502D01*
X102034494Y-69325537D01*
X102131185Y-69246185D01*
X102210537Y-69149494D01*
X102269502Y-69039180D01*
X102305812Y-68919482D01*
X102318072Y-68795000D01*
X102318072Y-67095000D01*
X102312399Y-67037402D01*
X104200836Y-65148966D01*
X104179000Y-65258740D01*
X104179000Y-65551260D01*
X104216925Y-65741918D01*
X103612185Y-66346658D01*
X103582237Y-66371236D01*
X103557659Y-66401184D01*
X103557655Y-66401188D01*
X103524690Y-66441356D01*
X103484139Y-66490767D01*
X103447949Y-66558475D01*
X103411246Y-66627141D01*
X103366359Y-66775114D01*
X103351203Y-66929000D01*
X103355001Y-66967563D01*
X103355000Y-78318449D01*
X103351203Y-78357002D01*
X103355000Y-78395555D01*
X103355000Y-78395562D01*
X103366359Y-78510888D01*
X103411246Y-78658861D01*
X103484138Y-78795234D01*
X103582236Y-78914766D01*
X103612190Y-78939349D01*
X103990001Y-79317160D01*
X103990001Y-82449909D01*
X103719642Y-82381929D01*
X103434964Y-82367686D01*
X103152977Y-82409256D01*
X102884518Y-82505039D01*
X102756371Y-82573536D01*
X102683335Y-82818730D01*
X103505000Y-83640395D01*
X103519143Y-83626253D01*
X103698748Y-83805858D01*
X103684605Y-83820000D01*
X103698748Y-83834143D01*
X103519143Y-84013748D01*
X103505000Y-83999605D01*
X102683335Y-84821270D01*
X102756371Y-85066464D01*
X103013928Y-85188564D01*
X103290358Y-85258071D01*
X103575036Y-85272314D01*
X103857023Y-85230744D01*
X103990001Y-85183299D01*
X103990000Y-97751447D01*
X103986203Y-97790000D01*
X103990000Y-97828553D01*
X103990000Y-97828560D01*
X104001359Y-97943886D01*
X104046246Y-98091859D01*
X104119138Y-98228232D01*
X104217236Y-98347764D01*
X104247190Y-98372347D01*
X106027843Y-100153000D01*
X105902483Y-100153000D01*
X105622926Y-100208608D01*
X105359589Y-100317686D01*
X105122592Y-100476042D01*
X104921042Y-100677592D01*
X104775225Y-100895823D01*
X104751464Y-100851371D01*
X104506270Y-100778335D01*
X103684605Y-101600000D01*
X104506270Y-102421665D01*
X104751464Y-102348629D01*
X104773653Y-102301824D01*
X104921042Y-102522408D01*
X105122592Y-102723958D01*
X105359589Y-102882314D01*
X105622926Y-102991392D01*
X105902483Y-103047000D01*
X106187517Y-103047000D01*
X106467074Y-102991392D01*
X106730411Y-102882314D01*
X106967408Y-102723958D01*
X107168958Y-102522408D01*
X107315000Y-102303840D01*
X107461042Y-102522408D01*
X107662592Y-102723958D01*
X107899589Y-102882314D01*
X108162926Y-102991392D01*
X108442483Y-103047000D01*
X108727517Y-103047000D01*
X109007074Y-102991392D01*
X109270411Y-102882314D01*
X109507408Y-102723958D01*
X109708958Y-102522408D01*
X109855000Y-102303840D01*
X110001042Y-102522408D01*
X110202592Y-102723958D01*
X110340000Y-102815771D01*
X110340000Y-103306449D01*
X110336203Y-103345002D01*
X110340000Y-103383555D01*
X110340000Y-103383562D01*
X110351359Y-103498888D01*
X110396246Y-103646861D01*
X110469138Y-103783234D01*
X110567236Y-103902766D01*
X110597190Y-103927349D01*
X123402651Y-116732810D01*
X123427234Y-116762764D01*
X123546765Y-116860862D01*
X123683138Y-116933754D01*
X123831111Y-116978642D01*
X123906024Y-116986020D01*
X123946437Y-116990000D01*
X123946442Y-116990000D01*
X123984998Y-116993797D01*
X124023554Y-116990000D01*
X126321289Y-116990000D01*
X126340226Y-117008937D01*
X126509744Y-117122205D01*
X126698102Y-117200226D01*
X126898061Y-117240000D01*
X127101939Y-117240000D01*
X127301898Y-117200226D01*
X127490256Y-117122205D01*
X127659774Y-117008937D01*
X127803937Y-116864774D01*
X127917205Y-116695256D01*
X127995226Y-116506898D01*
X128035000Y-116306939D01*
X128035000Y-116103061D01*
X127995226Y-115903102D01*
X127917205Y-115714744D01*
X127803937Y-115545226D01*
X127659774Y-115401063D01*
X127490256Y-115287795D01*
X127301898Y-115209774D01*
X127101939Y-115170000D01*
X126898061Y-115170000D01*
X126698102Y-115209774D01*
X126509744Y-115287795D01*
X126340226Y-115401063D01*
X126321289Y-115420000D01*
X124310155Y-115420000D01*
X123340155Y-114450000D01*
X130131289Y-114450000D01*
X130150226Y-114468937D01*
X130319744Y-114582205D01*
X130508102Y-114660226D01*
X130708061Y-114700000D01*
X130911939Y-114700000D01*
X131111898Y-114660226D01*
X131300256Y-114582205D01*
X131469774Y-114468937D01*
X131613937Y-114324774D01*
X131727205Y-114155256D01*
X131805226Y-113966898D01*
X131845000Y-113766939D01*
X131845000Y-113563061D01*
X131805226Y-113363102D01*
X131727205Y-113174744D01*
X131613937Y-113005226D01*
X131469774Y-112861063D01*
X131300256Y-112747795D01*
X131111898Y-112669774D01*
X130911939Y-112630000D01*
X130708061Y-112630000D01*
X130508102Y-112669774D01*
X130319744Y-112747795D01*
X130150226Y-112861063D01*
X130131289Y-112880000D01*
X122880158Y-112880000D01*
X115335000Y-105334843D01*
X115335000Y-105308061D01*
X115295226Y-105108102D01*
X115217205Y-104919744D01*
X115103937Y-104750226D01*
X114959774Y-104606063D01*
X114790256Y-104492795D01*
X114601898Y-104414774D01*
X114401939Y-104375000D01*
X114198061Y-104375000D01*
X113998102Y-104414774D01*
X113809744Y-104492795D01*
X113640226Y-104606063D01*
X113568222Y-104678067D01*
X111910000Y-103019845D01*
X111910000Y-102815771D01*
X112047408Y-102723958D01*
X112248958Y-102522408D01*
X112395000Y-102303840D01*
X112541042Y-102522408D01*
X112742592Y-102723958D01*
X112979589Y-102882314D01*
X113242926Y-102991392D01*
X113522483Y-103047000D01*
X113807517Y-103047000D01*
X113969602Y-103014759D01*
X119947654Y-108992811D01*
X119972237Y-109022765D01*
X120091768Y-109120863D01*
X120228141Y-109193755D01*
X120376114Y-109238643D01*
X120451027Y-109246021D01*
X120491440Y-109250001D01*
X120491445Y-109250001D01*
X120530001Y-109253798D01*
X120568557Y-109250001D01*
X130891446Y-109250001D01*
X130929999Y-109253798D01*
X130968552Y-109250001D01*
X130968560Y-109250001D01*
X131083886Y-109238642D01*
X131231859Y-109193755D01*
X131368232Y-109120863D01*
X131487763Y-109022765D01*
X131512346Y-108992811D01*
X131785604Y-108719554D01*
X131938665Y-108750000D01*
X132221335Y-108750000D01*
X132498574Y-108694853D01*
X132759727Y-108586680D01*
X132994759Y-108429637D01*
X133194637Y-108229759D01*
X133351637Y-107994792D01*
X140820001Y-115463157D01*
X140820001Y-119095618D01*
X140636898Y-119019774D01*
X140436939Y-118980000D01*
X140410158Y-118980000D01*
X131392347Y-109962190D01*
X131367764Y-109932236D01*
X131248233Y-109834138D01*
X131111860Y-109761246D01*
X130963887Y-109716359D01*
X130848561Y-109705000D01*
X130848553Y-109705000D01*
X130810000Y-109701203D01*
X130771447Y-109705000D01*
X127043711Y-109705000D01*
X127024774Y-109686063D01*
X126855256Y-109572795D01*
X126666898Y-109494774D01*
X126466939Y-109455000D01*
X126263061Y-109455000D01*
X126063102Y-109494774D01*
X125874744Y-109572795D01*
X125705226Y-109686063D01*
X125561063Y-109830226D01*
X125447795Y-109999744D01*
X125369774Y-110188102D01*
X125330000Y-110388061D01*
X125330000Y-110591939D01*
X125369774Y-110791898D01*
X125447795Y-110980256D01*
X125561063Y-111149774D01*
X125705226Y-111293937D01*
X125874744Y-111407205D01*
X126063102Y-111485226D01*
X126263061Y-111525000D01*
X126466939Y-111525000D01*
X126666898Y-111485226D01*
X126855256Y-111407205D01*
X127024774Y-111293937D01*
X127043711Y-111275000D01*
X130484843Y-111275000D01*
X139300000Y-120090158D01*
X139300000Y-120116939D01*
X139339774Y-120316898D01*
X139417795Y-120505256D01*
X139531063Y-120674774D01*
X139675226Y-120818937D01*
X139844744Y-120932205D01*
X140033102Y-121010226D01*
X140233061Y-121050000D01*
X140436939Y-121050000D01*
X140636898Y-121010226D01*
X140820001Y-120934382D01*
X140820000Y-127749364D01*
X140714465Y-127819880D01*
X140519880Y-128014465D01*
X140366995Y-128243273D01*
X140261686Y-128497510D01*
X140208000Y-128767408D01*
X140208000Y-129042592D01*
X140261686Y-129312490D01*
X140366995Y-129566727D01*
X140519880Y-129795535D01*
X140714465Y-129990120D01*
X140943273Y-130143005D01*
X141197510Y-130248314D01*
X141467408Y-130302000D01*
X141742592Y-130302000D01*
X142012490Y-130248314D01*
X142266727Y-130143005D01*
X142495535Y-129990120D01*
X142615090Y-129870565D01*
X145899040Y-129870565D01*
X145966020Y-130110656D01*
X146215048Y-130227756D01*
X146482135Y-130294023D01*
X146757017Y-130306910D01*
X147029133Y-130265922D01*
X147288023Y-130172636D01*
X147403980Y-130110656D01*
X147470960Y-129870565D01*
X146685000Y-129084605D01*
X145899040Y-129870565D01*
X142615090Y-129870565D01*
X142690120Y-129795535D01*
X142843005Y-129566727D01*
X142948314Y-129312490D01*
X143002000Y-129042592D01*
X143002000Y-128977017D01*
X145283090Y-128977017D01*
X145324078Y-129249133D01*
X145417364Y-129508023D01*
X145479344Y-129623980D01*
X145719435Y-129690960D01*
X146505395Y-128905000D01*
X146864605Y-128905000D01*
X147650565Y-129690960D01*
X147890656Y-129623980D01*
X148007756Y-129374952D01*
X148074023Y-129107865D01*
X148086910Y-128832983D01*
X148045922Y-128560867D01*
X147952636Y-128301977D01*
X147890656Y-128186020D01*
X147650565Y-128119040D01*
X146864605Y-128905000D01*
X146505395Y-128905000D01*
X145719435Y-128119040D01*
X145479344Y-128186020D01*
X145362244Y-128435048D01*
X145295977Y-128702135D01*
X145283090Y-128977017D01*
X143002000Y-128977017D01*
X143002000Y-128767408D01*
X142948314Y-128497510D01*
X142843005Y-128243273D01*
X142690120Y-128014465D01*
X142615090Y-127939435D01*
X145899040Y-127939435D01*
X146685000Y-128725395D01*
X147470960Y-127939435D01*
X147403980Y-127699344D01*
X147154952Y-127582244D01*
X146887865Y-127515977D01*
X146612983Y-127503090D01*
X146340867Y-127544078D01*
X146081977Y-127637364D01*
X145966020Y-127699344D01*
X145899040Y-127939435D01*
X142615090Y-127939435D01*
X142495535Y-127819880D01*
X142390000Y-127749364D01*
X142390000Y-115176550D01*
X142393797Y-115137997D01*
X142390000Y-115099444D01*
X142390000Y-115099437D01*
X142378641Y-114984111D01*
X142378023Y-114982072D01*
X142333754Y-114836138D01*
X142300788Y-114774463D01*
X142260862Y-114699765D01*
X142162764Y-114580234D01*
X142132816Y-114555656D01*
X131232159Y-103655000D01*
X136891502Y-103655000D01*
X149746501Y-116510000D01*
X148737002Y-116510000D01*
X148443912Y-116538867D01*
X148067853Y-116652943D01*
X147721275Y-116838193D01*
X147417497Y-117087497D01*
X147168193Y-117391275D01*
X146982943Y-117737853D01*
X146868867Y-118113912D01*
X146830348Y-118505000D01*
X146868867Y-118896088D01*
X146982943Y-119272147D01*
X147168193Y-119618725D01*
X147417497Y-119922503D01*
X147721275Y-120171807D01*
X148067853Y-120357057D01*
X148443912Y-120471133D01*
X148737002Y-120500000D01*
X149952998Y-120500000D01*
X150246088Y-120471133D01*
X150622147Y-120357057D01*
X150968725Y-120171807D01*
X150980001Y-120162553D01*
X150980000Y-127749364D01*
X150874465Y-127819880D01*
X150679880Y-128014465D01*
X150526995Y-128243273D01*
X150421686Y-128497510D01*
X150368000Y-128767408D01*
X150368000Y-129042592D01*
X150421686Y-129312490D01*
X150526995Y-129566727D01*
X150679880Y-129795535D01*
X150874465Y-129990120D01*
X151103273Y-130143005D01*
X151357510Y-130248314D01*
X151627408Y-130302000D01*
X151902592Y-130302000D01*
X152172490Y-130248314D01*
X152426727Y-130143005D01*
X152655535Y-129990120D01*
X152775090Y-129870565D01*
X156059040Y-129870565D01*
X156126020Y-130110656D01*
X156375048Y-130227756D01*
X156642135Y-130294023D01*
X156917017Y-130306910D01*
X157189133Y-130265922D01*
X157448023Y-130172636D01*
X157563980Y-130110656D01*
X157630960Y-129870565D01*
X156845000Y-129084605D01*
X156059040Y-129870565D01*
X152775090Y-129870565D01*
X152850120Y-129795535D01*
X153003005Y-129566727D01*
X153108314Y-129312490D01*
X153162000Y-129042592D01*
X153162000Y-128977017D01*
X155443090Y-128977017D01*
X155484078Y-129249133D01*
X155577364Y-129508023D01*
X155639344Y-129623980D01*
X155879435Y-129690960D01*
X156665395Y-128905000D01*
X157024605Y-128905000D01*
X157810565Y-129690960D01*
X158050656Y-129623980D01*
X158167756Y-129374952D01*
X158234023Y-129107865D01*
X158246910Y-128832983D01*
X158205922Y-128560867D01*
X158112636Y-128301977D01*
X158050656Y-128186020D01*
X157810565Y-128119040D01*
X157024605Y-128905000D01*
X156665395Y-128905000D01*
X155879435Y-128119040D01*
X155639344Y-128186020D01*
X155522244Y-128435048D01*
X155455977Y-128702135D01*
X155443090Y-128977017D01*
X153162000Y-128977017D01*
X153162000Y-128767408D01*
X153108314Y-128497510D01*
X153003005Y-128243273D01*
X152850120Y-128014465D01*
X152775090Y-127939435D01*
X156059040Y-127939435D01*
X156845000Y-128725395D01*
X157630960Y-127939435D01*
X157563980Y-127699344D01*
X157314952Y-127582244D01*
X157047865Y-127515977D01*
X156772983Y-127503090D01*
X156500867Y-127544078D01*
X156241977Y-127637364D01*
X156126020Y-127699344D01*
X156059040Y-127939435D01*
X152775090Y-127939435D01*
X152655535Y-127819880D01*
X152550000Y-127749364D01*
X152550000Y-117456893D01*
X152553797Y-117418340D01*
X152550000Y-117379787D01*
X152550000Y-117379780D01*
X152538641Y-117264454D01*
X152528033Y-117229482D01*
X152493754Y-117116481D01*
X152478262Y-117087497D01*
X152420862Y-116980108D01*
X152371450Y-116919900D01*
X152347345Y-116890528D01*
X152347342Y-116890525D01*
X152322764Y-116860577D01*
X152292816Y-116835999D01*
X144361817Y-108905000D01*
X146830348Y-108905000D01*
X146868867Y-109296088D01*
X146982943Y-109672147D01*
X147168193Y-110018725D01*
X147417497Y-110322503D01*
X147721275Y-110571807D01*
X148067853Y-110757057D01*
X148443912Y-110871133D01*
X148737002Y-110900000D01*
X149952998Y-110900000D01*
X150246088Y-110871133D01*
X150622147Y-110757057D01*
X150968725Y-110571807D01*
X151272503Y-110322503D01*
X151521807Y-110018725D01*
X151707057Y-109672147D01*
X151821133Y-109296088D01*
X151859652Y-108905000D01*
X151821133Y-108513912D01*
X151707057Y-108137853D01*
X151521807Y-107791275D01*
X151272503Y-107487497D01*
X150968725Y-107238193D01*
X150622147Y-107052943D01*
X150246088Y-106938867D01*
X149952998Y-106910000D01*
X148737002Y-106910000D01*
X148443912Y-106938867D01*
X148067853Y-107052943D01*
X147721275Y-107238193D01*
X147417497Y-107487497D01*
X147168193Y-107791275D01*
X146982943Y-108137853D01*
X146868867Y-108513912D01*
X146830348Y-108905000D01*
X144361817Y-108905000D01*
X138792763Y-103335947D01*
X138840104Y-103288606D01*
X138953372Y-103119088D01*
X138983232Y-103047000D01*
X139207517Y-103047000D01*
X139369601Y-103014759D01*
X139752658Y-103397815D01*
X139777236Y-103427764D01*
X139807184Y-103452342D01*
X139807187Y-103452345D01*
X139836559Y-103476450D01*
X139896767Y-103525862D01*
X140033140Y-103598754D01*
X140146672Y-103633194D01*
X140181112Y-103643641D01*
X140195490Y-103645057D01*
X140296439Y-103655000D01*
X140296446Y-103655000D01*
X140334999Y-103658797D01*
X140373552Y-103655000D01*
X147096209Y-103655000D01*
X147134762Y-103658797D01*
X147173315Y-103655000D01*
X147173323Y-103655000D01*
X147288649Y-103643641D01*
X147436622Y-103598754D01*
X147572995Y-103525862D01*
X147692526Y-103427764D01*
X147717109Y-103397810D01*
X148474821Y-102640098D01*
X148504775Y-102615515D01*
X148602873Y-102495984D01*
X148675765Y-102359611D01*
X148681050Y-102342188D01*
X148720653Y-102211638D01*
X148732006Y-102096359D01*
X148732011Y-102096312D01*
X148732011Y-102096307D01*
X148735808Y-102057751D01*
X148732011Y-102019195D01*
X148732011Y-98899061D01*
X148911853Y-99019228D01*
X149218504Y-99146246D01*
X149544042Y-99211000D01*
X149875958Y-99211000D01*
X150201496Y-99146246D01*
X150508147Y-99019228D01*
X150784125Y-98834825D01*
X151018825Y-98600125D01*
X151203228Y-98324147D01*
X151330246Y-98017496D01*
X151395000Y-97691958D01*
X151395000Y-97360042D01*
X151330246Y-97034504D01*
X151203228Y-96727853D01*
X151018825Y-96451875D01*
X150784125Y-96217175D01*
X150508147Y-96032772D01*
X150201496Y-95905754D01*
X149875958Y-95841000D01*
X149544042Y-95841000D01*
X149218504Y-95905754D01*
X148911853Y-96032772D01*
X148732011Y-96152939D01*
X148732011Y-85310030D01*
X148874821Y-85167220D01*
X148904775Y-85142637D01*
X149002873Y-85023106D01*
X149075765Y-84886733D01*
X149115276Y-84756482D01*
X149120652Y-84738761D01*
X149126045Y-84684008D01*
X149132011Y-84623434D01*
X149132011Y-84623427D01*
X149135808Y-84584874D01*
X149132011Y-84546321D01*
X149132011Y-80175000D01*
X149366335Y-80175000D01*
X149519397Y-80144554D01*
X152885000Y-83510158D01*
X152885001Y-89369437D01*
X152881203Y-89408000D01*
X152896359Y-89561886D01*
X152941246Y-89709859D01*
X152941247Y-89709860D01*
X153014139Y-89846233D01*
X153032118Y-89868140D01*
X153087655Y-89935812D01*
X153087659Y-89935816D01*
X153112237Y-89965764D01*
X153142185Y-89990342D01*
X154155000Y-91003158D01*
X154155000Y-94258747D01*
X154035000Y-94246928D01*
X152035000Y-94246928D01*
X151910518Y-94259188D01*
X151790820Y-94295498D01*
X151680506Y-94354463D01*
X151583815Y-94433815D01*
X151504463Y-94530506D01*
X151445498Y-94640820D01*
X151409188Y-94760518D01*
X151396928Y-94885000D01*
X151396928Y-96885000D01*
X151409188Y-97009482D01*
X151445498Y-97129180D01*
X151504463Y-97239494D01*
X151583815Y-97336185D01*
X151680506Y-97415537D01*
X151790820Y-97474502D01*
X151910518Y-97510812D01*
X152035000Y-97523072D01*
X154035000Y-97523072D01*
X154155000Y-97511253D01*
X154155001Y-114261437D01*
X154151203Y-114300000D01*
X154166359Y-114453886D01*
X154211246Y-114601859D01*
X154241696Y-114658827D01*
X154284139Y-114738233D01*
X154302557Y-114760675D01*
X154357655Y-114827812D01*
X154357659Y-114827816D01*
X154382237Y-114857764D01*
X154412185Y-114882342D01*
X155306928Y-115777085D01*
X155306928Y-117105000D01*
X155319188Y-117229482D01*
X155355498Y-117349180D01*
X155414463Y-117459494D01*
X155493815Y-117556185D01*
X155590506Y-117635537D01*
X155700820Y-117694502D01*
X155820518Y-117730812D01*
X155945000Y-117743072D01*
X157745000Y-117743072D01*
X157869482Y-117730812D01*
X157989180Y-117694502D01*
X158099494Y-117635537D01*
X158196185Y-117556185D01*
X158275537Y-117459494D01*
X158334502Y-117349180D01*
X158370812Y-117229482D01*
X158383072Y-117105000D01*
X158383072Y-115305000D01*
X158370812Y-115180518D01*
X158334502Y-115060820D01*
X158275537Y-114950506D01*
X158196185Y-114853815D01*
X158099494Y-114774463D01*
X157999697Y-114721120D01*
X158037312Y-114683505D01*
X158205299Y-114432095D01*
X158321011Y-114152743D01*
X158380000Y-113856184D01*
X158380000Y-113553816D01*
X158321011Y-113257257D01*
X158205299Y-112977905D01*
X158037312Y-112726495D01*
X157823505Y-112512688D01*
X157737169Y-112455000D01*
X157823505Y-112397312D01*
X158037312Y-112183505D01*
X158205299Y-111932095D01*
X158321011Y-111652743D01*
X158380000Y-111356184D01*
X158380000Y-111053816D01*
X158321011Y-110757257D01*
X158205299Y-110477905D01*
X158037312Y-110226495D01*
X157823505Y-110012688D01*
X157572095Y-109844701D01*
X157292743Y-109728989D01*
X156996184Y-109670000D01*
X156693816Y-109670000D01*
X156397257Y-109728989D01*
X156117905Y-109844701D01*
X155866495Y-110012688D01*
X155725000Y-110154183D01*
X155725000Y-97020413D01*
X159679192Y-97020413D01*
X159774956Y-97284814D01*
X160064571Y-97425704D01*
X160376108Y-97507384D01*
X160697595Y-97526718D01*
X161016675Y-97482961D01*
X161321088Y-97377795D01*
X161495044Y-97284814D01*
X161590808Y-97020413D01*
X160635000Y-96064605D01*
X159679192Y-97020413D01*
X155725000Y-97020413D01*
X155725000Y-95947595D01*
X158993282Y-95947595D01*
X159037039Y-96266675D01*
X159142205Y-96571088D01*
X159235186Y-96745044D01*
X159499587Y-96840808D01*
X160455395Y-95885000D01*
X160814605Y-95885000D01*
X161770413Y-96840808D01*
X162034814Y-96745044D01*
X162175704Y-96455429D01*
X162257384Y-96143892D01*
X162276718Y-95822405D01*
X162232961Y-95503325D01*
X162127795Y-95198912D01*
X162034814Y-95024956D01*
X161770413Y-94929192D01*
X160814605Y-95885000D01*
X160455395Y-95885000D01*
X159499587Y-94929192D01*
X159235186Y-95024956D01*
X159094296Y-95314571D01*
X159012616Y-95626108D01*
X158993282Y-95947595D01*
X155725000Y-95947595D01*
X155725000Y-94749587D01*
X159679192Y-94749587D01*
X160635000Y-95705395D01*
X161590808Y-94749587D01*
X161495044Y-94485186D01*
X161205429Y-94344296D01*
X160893892Y-94262616D01*
X160572405Y-94243282D01*
X160253325Y-94287039D01*
X159948912Y-94392205D01*
X159774956Y-94485186D01*
X159679192Y-94749587D01*
X155725000Y-94749587D01*
X155725000Y-90716552D01*
X155728797Y-90677999D01*
X155725000Y-90639446D01*
X155725000Y-90639439D01*
X155713641Y-90524113D01*
X155668754Y-90376140D01*
X155595862Y-90239767D01*
X155497764Y-90120236D01*
X155467817Y-90095659D01*
X155175230Y-89803072D01*
X156475000Y-89803072D01*
X156599482Y-89790812D01*
X156719180Y-89754502D01*
X156829494Y-89695537D01*
X156926185Y-89616185D01*
X157005537Y-89519494D01*
X157064502Y-89409180D01*
X157070056Y-89390873D01*
X157136495Y-89457312D01*
X157387905Y-89625299D01*
X157667257Y-89741011D01*
X157963816Y-89800000D01*
X158266184Y-89800000D01*
X158562743Y-89741011D01*
X158842095Y-89625299D01*
X159093505Y-89457312D01*
X159307312Y-89243505D01*
X159475299Y-88992095D01*
X159591011Y-88712743D01*
X159650000Y-88416184D01*
X159650000Y-88113816D01*
X159591011Y-87817257D01*
X159475299Y-87537905D01*
X159307312Y-87286495D01*
X159093505Y-87072688D01*
X158842095Y-86904701D01*
X158562743Y-86788989D01*
X158266184Y-86730000D01*
X157963816Y-86730000D01*
X157667257Y-86788989D01*
X157387905Y-86904701D01*
X157136495Y-87072688D01*
X157070056Y-87139127D01*
X157064502Y-87120820D01*
X157005537Y-87010506D01*
X156926185Y-86913815D01*
X156829494Y-86834463D01*
X156719180Y-86775498D01*
X156599482Y-86739188D01*
X156475000Y-86726928D01*
X154675000Y-86726928D01*
X154550518Y-86739188D01*
X154455000Y-86768163D01*
X154455000Y-83223552D01*
X154458797Y-83184999D01*
X154455000Y-83146446D01*
X154455000Y-83146439D01*
X154443641Y-83031113D01*
X154439095Y-83016125D01*
X154413577Y-82932006D01*
X154398754Y-82883140D01*
X154325862Y-82746767D01*
X154227764Y-82627236D01*
X154197817Y-82602659D01*
X150629554Y-79034397D01*
X150630428Y-79030000D01*
X154036928Y-79030000D01*
X154036928Y-80830000D01*
X154049188Y-80954482D01*
X154085498Y-81074180D01*
X154144463Y-81184494D01*
X154223815Y-81281185D01*
X154320506Y-81360537D01*
X154430820Y-81419502D01*
X154550518Y-81455812D01*
X154675000Y-81468072D01*
X156475000Y-81468072D01*
X156599482Y-81455812D01*
X156719180Y-81419502D01*
X156829494Y-81360537D01*
X156926185Y-81281185D01*
X157005537Y-81184494D01*
X157064502Y-81074180D01*
X157070056Y-81055873D01*
X157136495Y-81122312D01*
X157387905Y-81290299D01*
X157667257Y-81406011D01*
X157963816Y-81465000D01*
X158266184Y-81465000D01*
X158562743Y-81406011D01*
X158842095Y-81290299D01*
X159093505Y-81122312D01*
X159307312Y-80908505D01*
X159475299Y-80657095D01*
X159591011Y-80377743D01*
X159650000Y-80081184D01*
X159650000Y-79778816D01*
X159591011Y-79482257D01*
X159475299Y-79202905D01*
X159307312Y-78951495D01*
X159093505Y-78737688D01*
X158842095Y-78569701D01*
X158562743Y-78453989D01*
X158266184Y-78395000D01*
X157963816Y-78395000D01*
X157667257Y-78453989D01*
X157387905Y-78569701D01*
X157136495Y-78737688D01*
X157070056Y-78804127D01*
X157064502Y-78785820D01*
X157005537Y-78675506D01*
X156926185Y-78578815D01*
X156829494Y-78499463D01*
X156719180Y-78440498D01*
X156599482Y-78404188D01*
X156475000Y-78391928D01*
X154675000Y-78391928D01*
X154550518Y-78404188D01*
X154430820Y-78440498D01*
X154320506Y-78499463D01*
X154223815Y-78578815D01*
X154144463Y-78675506D01*
X154085498Y-78785820D01*
X154049188Y-78905518D01*
X154036928Y-79030000D01*
X150630428Y-79030000D01*
X150660000Y-78881335D01*
X150660000Y-78598665D01*
X150604853Y-78321426D01*
X150496680Y-78060273D01*
X150339637Y-77825241D01*
X150139759Y-77625363D01*
X149904727Y-77468320D01*
X149643574Y-77360147D01*
X149366335Y-77305000D01*
X149083665Y-77305000D01*
X148806426Y-77360147D01*
X148632001Y-77432396D01*
X148632001Y-74967604D01*
X148806426Y-75039853D01*
X149083665Y-75095000D01*
X149366335Y-75095000D01*
X149643574Y-75039853D01*
X149904727Y-74931680D01*
X150139759Y-74774637D01*
X150339637Y-74574759D01*
X150496680Y-74339727D01*
X150604853Y-74078574D01*
X150660000Y-73801335D01*
X150660000Y-73518665D01*
X150604853Y-73241426D01*
X150496680Y-72980273D01*
X150339637Y-72745241D01*
X150139759Y-72545363D01*
X149904727Y-72388320D01*
X149643574Y-72280147D01*
X149366335Y-72225000D01*
X149083665Y-72225000D01*
X148806426Y-72280147D01*
X148632001Y-72352396D01*
X148632001Y-70855000D01*
X154036928Y-70855000D01*
X154036928Y-72655000D01*
X154049188Y-72779482D01*
X154085498Y-72899180D01*
X154144463Y-73009494D01*
X154223815Y-73106185D01*
X154320506Y-73185537D01*
X154430820Y-73244502D01*
X154550518Y-73280812D01*
X154675000Y-73293072D01*
X156475000Y-73293072D01*
X156599482Y-73280812D01*
X156719180Y-73244502D01*
X156829494Y-73185537D01*
X156926185Y-73106185D01*
X157005537Y-73009494D01*
X157064502Y-72899180D01*
X157070056Y-72880873D01*
X157136495Y-72947312D01*
X157387905Y-73115299D01*
X157667257Y-73231011D01*
X157963816Y-73290000D01*
X158266184Y-73290000D01*
X158562743Y-73231011D01*
X158842095Y-73115299D01*
X159093505Y-72947312D01*
X159307312Y-72733505D01*
X159475299Y-72482095D01*
X159591011Y-72202743D01*
X159650000Y-71906184D01*
X159650000Y-71603816D01*
X159591011Y-71307257D01*
X159475299Y-71027905D01*
X159307312Y-70776495D01*
X159093505Y-70562688D01*
X158842095Y-70394701D01*
X158562743Y-70278989D01*
X158266184Y-70220000D01*
X157963816Y-70220000D01*
X157667257Y-70278989D01*
X157387905Y-70394701D01*
X157136495Y-70562688D01*
X157070056Y-70629127D01*
X157064502Y-70610820D01*
X157005537Y-70500506D01*
X156926185Y-70403815D01*
X156829494Y-70324463D01*
X156719180Y-70265498D01*
X156599482Y-70229188D01*
X156475000Y-70216928D01*
X154675000Y-70216928D01*
X154550518Y-70229188D01*
X154430820Y-70265498D01*
X154320506Y-70324463D01*
X154223815Y-70403815D01*
X154144463Y-70500506D01*
X154085498Y-70610820D01*
X154049188Y-70730518D01*
X154036928Y-70855000D01*
X148632001Y-70855000D01*
X148632001Y-69529551D01*
X148635798Y-69490998D01*
X148632001Y-69452445D01*
X148632001Y-69452438D01*
X148620642Y-69337112D01*
X148575755Y-69189139D01*
X148502863Y-69052766D01*
X148404765Y-68933235D01*
X148374818Y-68908658D01*
X143826202Y-64360042D01*
X148025000Y-64360042D01*
X148025000Y-64691958D01*
X148089754Y-65017496D01*
X148216772Y-65324147D01*
X148401175Y-65600125D01*
X148635875Y-65834825D01*
X148911853Y-66019228D01*
X149218504Y-66146246D01*
X149544042Y-66211000D01*
X149875958Y-66211000D01*
X150201496Y-66146246D01*
X150508147Y-66019228D01*
X150784125Y-65834825D01*
X151018825Y-65600125D01*
X151203228Y-65324147D01*
X151330246Y-65017496D01*
X151395000Y-64691958D01*
X151395000Y-64360042D01*
X151330246Y-64034504D01*
X151203228Y-63727853D01*
X151018825Y-63451875D01*
X150784125Y-63217175D01*
X150508147Y-63032772D01*
X150201496Y-62905754D01*
X149875958Y-62841000D01*
X149544042Y-62841000D01*
X149218504Y-62905754D01*
X148911853Y-63032772D01*
X148635875Y-63217175D01*
X148401175Y-63451875D01*
X148216772Y-63727853D01*
X148089754Y-64034504D01*
X148025000Y-64360042D01*
X143826202Y-64360042D01*
X142066160Y-62600000D01*
X154036928Y-62600000D01*
X154036928Y-64400000D01*
X154049188Y-64524482D01*
X154085498Y-64644180D01*
X154144463Y-64754494D01*
X154223815Y-64851185D01*
X154320506Y-64930537D01*
X154430820Y-64989502D01*
X154550518Y-65025812D01*
X154675000Y-65038072D01*
X156475000Y-65038072D01*
X156599482Y-65025812D01*
X156719180Y-64989502D01*
X156829494Y-64930537D01*
X156926185Y-64851185D01*
X157005537Y-64754494D01*
X157064502Y-64644180D01*
X157070056Y-64625873D01*
X157136495Y-64692312D01*
X157387905Y-64860299D01*
X157667257Y-64976011D01*
X157963816Y-65035000D01*
X158266184Y-65035000D01*
X158562743Y-64976011D01*
X158842095Y-64860299D01*
X159093505Y-64692312D01*
X159307312Y-64478505D01*
X159475299Y-64227095D01*
X159591011Y-63947743D01*
X159650000Y-63651184D01*
X159650000Y-63348816D01*
X159591011Y-63052257D01*
X159475299Y-62772905D01*
X159307312Y-62521495D01*
X159093505Y-62307688D01*
X158842095Y-62139701D01*
X158562743Y-62023989D01*
X158266184Y-61965000D01*
X157963816Y-61965000D01*
X157667257Y-62023989D01*
X157387905Y-62139701D01*
X157136495Y-62307688D01*
X157070056Y-62374127D01*
X157064502Y-62355820D01*
X157005537Y-62245506D01*
X156926185Y-62148815D01*
X156829494Y-62069463D01*
X156719180Y-62010498D01*
X156599482Y-61974188D01*
X156475000Y-61961928D01*
X154675000Y-61961928D01*
X154550518Y-61974188D01*
X154430820Y-62010498D01*
X154320506Y-62069463D01*
X154223815Y-62148815D01*
X154144463Y-62245506D01*
X154085498Y-62355820D01*
X154049188Y-62475518D01*
X154036928Y-62600000D01*
X142066160Y-62600000D01*
X141264338Y-61798179D01*
X141239755Y-61768225D01*
X141120224Y-61670127D01*
X140983851Y-61597235D01*
X140835878Y-61552348D01*
X140720552Y-61540989D01*
X140720544Y-61540989D01*
X140681991Y-61537192D01*
X140643438Y-61540989D01*
X130011067Y-61540989D01*
X129972511Y-61537192D01*
X129933955Y-61540989D01*
X129933950Y-61540989D01*
X129893537Y-61544969D01*
X129818624Y-61552347D01*
X129677933Y-61595026D01*
X129670651Y-61597235D01*
X129534278Y-61670127D01*
X129414747Y-61768225D01*
X129390164Y-61798179D01*
X128609418Y-62578925D01*
X128418760Y-62541000D01*
X128126240Y-62541000D01*
X127839342Y-62598068D01*
X127569089Y-62710010D01*
X127325868Y-62872525D01*
X127119025Y-63079368D01*
X127002500Y-63253760D01*
X126885975Y-63079368D01*
X126679132Y-62872525D01*
X126435911Y-62710010D01*
X126165658Y-62598068D01*
X125878760Y-62541000D01*
X125586240Y-62541000D01*
X125299342Y-62598068D01*
X125029089Y-62710010D01*
X124785868Y-62872525D01*
X124654013Y-63004380D01*
X124632002Y-62931820D01*
X124573037Y-62821506D01*
X124493685Y-62724815D01*
X124396994Y-62645463D01*
X124286680Y-62586498D01*
X124166982Y-62550188D01*
X124042500Y-62537928D01*
X123478250Y-62541000D01*
X123319500Y-62699750D01*
X123319500Y-63899000D01*
X123339500Y-63899000D01*
X123339500Y-64153000D01*
X123319500Y-64153000D01*
X123319500Y-65352250D01*
X123478250Y-65511000D01*
X124042500Y-65514072D01*
X124166982Y-65501812D01*
X124286680Y-65465502D01*
X124396994Y-65406537D01*
X124493685Y-65327185D01*
X124573037Y-65230494D01*
X124632002Y-65120180D01*
X124654013Y-65047620D01*
X124785868Y-65179475D01*
X125029089Y-65341990D01*
X125299342Y-65453932D01*
X125586240Y-65511000D01*
X125878760Y-65511000D01*
X126165658Y-65453932D01*
X126435911Y-65341990D01*
X126679132Y-65179475D01*
X126885975Y-64972632D01*
X127002500Y-64798240D01*
X127119025Y-64972632D01*
X127325868Y-65179475D01*
X127569089Y-65341990D01*
X127839342Y-65453932D01*
X128126240Y-65511000D01*
X128418760Y-65511000D01*
X128705658Y-65453932D01*
X128975911Y-65341990D01*
X129219132Y-65179475D01*
X129425975Y-64972632D01*
X129541250Y-64800111D01*
X129656525Y-64972632D01*
X129863368Y-65179475D01*
X130106589Y-65341990D01*
X130376842Y-65453932D01*
X130663740Y-65511000D01*
X130956260Y-65511000D01*
X131243158Y-65453932D01*
X131513411Y-65341990D01*
X131756632Y-65179475D01*
X131963475Y-64972632D01*
X132081250Y-64796369D01*
X132199025Y-64972632D01*
X132405868Y-65179475D01*
X132567500Y-65287474D01*
X132567500Y-68547390D01*
X132507200Y-68457144D01*
X132202856Y-68152800D01*
X131844985Y-67913678D01*
X131447341Y-67748969D01*
X131025204Y-67665000D01*
X130594796Y-67665000D01*
X130172659Y-67748969D01*
X129775015Y-67913678D01*
X129417144Y-68152800D01*
X129112800Y-68457144D01*
X128873678Y-68815015D01*
X128708969Y-69212659D01*
X128625000Y-69634796D01*
X128625000Y-70065204D01*
X128708969Y-70487341D01*
X128873678Y-70884985D01*
X129112800Y-71242856D01*
X129417144Y-71547200D01*
X129775015Y-71786322D01*
X130172659Y-71951031D01*
X130594796Y-72035000D01*
X131025204Y-72035000D01*
X131447341Y-71951031D01*
X131844985Y-71786322D01*
X132202856Y-71547200D01*
X132507200Y-71242856D01*
X132567500Y-71152610D01*
X132567501Y-78889175D01*
X132563703Y-78927738D01*
X132578859Y-79081624D01*
X132623746Y-79229597D01*
X132651353Y-79281246D01*
X132696639Y-79365971D01*
X132737190Y-79415382D01*
X132770155Y-79455550D01*
X132770159Y-79455554D01*
X132794737Y-79485502D01*
X132824685Y-79510080D01*
X134470000Y-81155396D01*
X134470000Y-82454673D01*
X134407074Y-82428608D01*
X134127517Y-82373000D01*
X133842483Y-82373000D01*
X133562926Y-82428608D01*
X133299589Y-82537686D01*
X133062592Y-82696042D01*
X132861042Y-82897592D01*
X132715000Y-83116160D01*
X132568958Y-82897592D01*
X132367408Y-82696042D01*
X132130411Y-82537686D01*
X131867074Y-82428608D01*
X131587517Y-82373000D01*
X131302483Y-82373000D01*
X131022926Y-82428608D01*
X130759589Y-82537686D01*
X130522592Y-82696042D01*
X130321042Y-82897592D01*
X130175225Y-83115823D01*
X130151464Y-83071371D01*
X129906270Y-82998335D01*
X129084605Y-83820000D01*
X129906270Y-84641665D01*
X130151464Y-84568629D01*
X130173653Y-84521824D01*
X130321042Y-84742408D01*
X130522592Y-84943958D01*
X130759589Y-85102314D01*
X131022926Y-85211392D01*
X131302483Y-85267000D01*
X131427843Y-85267000D01*
X129647185Y-87047658D01*
X129617237Y-87072236D01*
X129592659Y-87102184D01*
X129592655Y-87102188D01*
X129559690Y-87142356D01*
X129519139Y-87191767D01*
X129480177Y-87264660D01*
X129446246Y-87328141D01*
X129401359Y-87476114D01*
X129386203Y-87630000D01*
X129390001Y-87668563D01*
X129390000Y-100229909D01*
X129119642Y-100161929D01*
X128834964Y-100147686D01*
X128552977Y-100189256D01*
X128420000Y-100236701D01*
X128420000Y-90208552D01*
X128423797Y-90169999D01*
X128420000Y-90131446D01*
X128420000Y-90131439D01*
X128408641Y-90016113D01*
X128363754Y-89868140D01*
X128290862Y-89731767D01*
X128192764Y-89612236D01*
X128162816Y-89587658D01*
X123842157Y-85267000D01*
X123967517Y-85267000D01*
X124247074Y-85211392D01*
X124510411Y-85102314D01*
X124747408Y-84943958D01*
X124948958Y-84742408D01*
X125095000Y-84523840D01*
X125241042Y-84742408D01*
X125442592Y-84943958D01*
X125679589Y-85102314D01*
X125942926Y-85211392D01*
X126222483Y-85267000D01*
X126507517Y-85267000D01*
X126787074Y-85211392D01*
X127050411Y-85102314D01*
X127287408Y-84943958D01*
X127410096Y-84821270D01*
X128083335Y-84821270D01*
X128156371Y-85066464D01*
X128413928Y-85188564D01*
X128690358Y-85258071D01*
X128975036Y-85272314D01*
X129257023Y-85230744D01*
X129525482Y-85134961D01*
X129653629Y-85066464D01*
X129726665Y-84821270D01*
X128905000Y-83999605D01*
X128083335Y-84821270D01*
X127410096Y-84821270D01*
X127488958Y-84742408D01*
X127634775Y-84524177D01*
X127658536Y-84568629D01*
X127903730Y-84641665D01*
X128725395Y-83820000D01*
X128711253Y-83805858D01*
X128890858Y-83626253D01*
X128905000Y-83640395D01*
X129726665Y-82818730D01*
X129653629Y-82573536D01*
X129396072Y-82451436D01*
X129119642Y-82381929D01*
X128923064Y-82372094D01*
X129432816Y-81862342D01*
X129462764Y-81837764D01*
X129560862Y-81718233D01*
X129633754Y-81581860D01*
X129678641Y-81433887D01*
X129690000Y-81318561D01*
X129690000Y-81318554D01*
X129693797Y-81280001D01*
X129690000Y-81241448D01*
X129690000Y-76878711D01*
X129708937Y-76859774D01*
X129822205Y-76690256D01*
X129900226Y-76501898D01*
X129940000Y-76301939D01*
X129940000Y-76098061D01*
X129900226Y-75898102D01*
X129822205Y-75709744D01*
X129708937Y-75540226D01*
X129564774Y-75396063D01*
X129395256Y-75282795D01*
X129206898Y-75204774D01*
X129006939Y-75165000D01*
X128803061Y-75165000D01*
X128603102Y-75204774D01*
X128414744Y-75282795D01*
X128245226Y-75396063D01*
X128101063Y-75540226D01*
X127987795Y-75709744D01*
X127909774Y-75898102D01*
X127870000Y-76098061D01*
X127870000Y-76301939D01*
X127909774Y-76501898D01*
X127987795Y-76690256D01*
X128101063Y-76859774D01*
X128120000Y-76878711D01*
X128120001Y-80954841D01*
X126669602Y-82405241D01*
X126507517Y-82373000D01*
X126222483Y-82373000D01*
X125942926Y-82428608D01*
X125679589Y-82537686D01*
X125442592Y-82696042D01*
X125241042Y-82897592D01*
X125095000Y-83116160D01*
X124948958Y-82897592D01*
X124747408Y-82696042D01*
X124510411Y-82537686D01*
X124247074Y-82428608D01*
X123967517Y-82373000D01*
X123682483Y-82373000D01*
X123402926Y-82428608D01*
X123139589Y-82537686D01*
X122902592Y-82696042D01*
X122701042Y-82897592D01*
X122555000Y-83116160D01*
X122408958Y-82897592D01*
X122207408Y-82696042D01*
X121970411Y-82537686D01*
X121707074Y-82428608D01*
X121427517Y-82373000D01*
X121142483Y-82373000D01*
X120862926Y-82428608D01*
X120599589Y-82537686D01*
X120362592Y-82696042D01*
X120161042Y-82897592D01*
X120015000Y-83116160D01*
X119868958Y-82897592D01*
X119667408Y-82696042D01*
X119430411Y-82537686D01*
X119167074Y-82428608D01*
X118887517Y-82373000D01*
X118602483Y-82373000D01*
X118322926Y-82428608D01*
X118260000Y-82454673D01*
X118260000Y-78598665D01*
X121120000Y-78598665D01*
X121120000Y-78881335D01*
X121175147Y-79158574D01*
X121283320Y-79419727D01*
X121440363Y-79654759D01*
X121640241Y-79854637D01*
X121875273Y-80011680D01*
X122136426Y-80119853D01*
X122413665Y-80175000D01*
X122696335Y-80175000D01*
X122973574Y-80119853D01*
X123234727Y-80011680D01*
X123469759Y-79854637D01*
X123591694Y-79732702D01*
X124916903Y-79732702D01*
X124988486Y-79976671D01*
X125243996Y-80097571D01*
X125518184Y-80166300D01*
X125800512Y-80180217D01*
X126080130Y-80138787D01*
X126346292Y-80043603D01*
X126471514Y-79976671D01*
X126543097Y-79732702D01*
X125730000Y-78919605D01*
X124916903Y-79732702D01*
X123591694Y-79732702D01*
X123669637Y-79654759D01*
X123826680Y-79419727D01*
X123934853Y-79158574D01*
X123990000Y-78881335D01*
X123990000Y-78810512D01*
X124289783Y-78810512D01*
X124331213Y-79090130D01*
X124426397Y-79356292D01*
X124493329Y-79481514D01*
X124737298Y-79553097D01*
X125550395Y-78740000D01*
X125909605Y-78740000D01*
X126722702Y-79553097D01*
X126966671Y-79481514D01*
X127087571Y-79226004D01*
X127156300Y-78951816D01*
X127170217Y-78669488D01*
X127128787Y-78389870D01*
X127033603Y-78123708D01*
X126966671Y-77998486D01*
X126722702Y-77926903D01*
X125909605Y-78740000D01*
X125550395Y-78740000D01*
X124737298Y-77926903D01*
X124493329Y-77998486D01*
X124372429Y-78253996D01*
X124303700Y-78528184D01*
X124289783Y-78810512D01*
X123990000Y-78810512D01*
X123990000Y-78598665D01*
X123934853Y-78321426D01*
X123826680Y-78060273D01*
X123669637Y-77825241D01*
X123591694Y-77747298D01*
X124916903Y-77747298D01*
X125730000Y-78560395D01*
X126543097Y-77747298D01*
X126471514Y-77503329D01*
X126216004Y-77382429D01*
X125941816Y-77313700D01*
X125659488Y-77299783D01*
X125379870Y-77341213D01*
X125113708Y-77436397D01*
X124988486Y-77503329D01*
X124916903Y-77747298D01*
X123591694Y-77747298D01*
X123469759Y-77625363D01*
X123234727Y-77468320D01*
X122973574Y-77360147D01*
X122696335Y-77305000D01*
X122413665Y-77305000D01*
X122136426Y-77360147D01*
X121875273Y-77468320D01*
X121640241Y-77625363D01*
X121440363Y-77825241D01*
X121283320Y-78060273D01*
X121175147Y-78321426D01*
X121120000Y-78598665D01*
X118260000Y-78598665D01*
X118260000Y-72555552D01*
X118263797Y-72516999D01*
X118260000Y-72478446D01*
X118260000Y-72478439D01*
X118248641Y-72363113D01*
X118203754Y-72215140D01*
X118130862Y-72078767D01*
X118081450Y-72018559D01*
X118057345Y-71989187D01*
X118057342Y-71989184D01*
X118032764Y-71959236D01*
X118002816Y-71934658D01*
X113485347Y-67417190D01*
X113460764Y-67387236D01*
X113341233Y-67289138D01*
X113204860Y-67216246D01*
X113056887Y-67171359D01*
X112941561Y-67160000D01*
X112941553Y-67160000D01*
X112903000Y-67156203D01*
X112864447Y-67160000D01*
X109465474Y-67160000D01*
X109357475Y-66998368D01*
X109225620Y-66866513D01*
X109298180Y-66844502D01*
X109408494Y-66785537D01*
X109505185Y-66706185D01*
X109584537Y-66609494D01*
X109643502Y-66499180D01*
X109679812Y-66379482D01*
X109692072Y-66255000D01*
X109689000Y-65690750D01*
X109530250Y-65532000D01*
X108331000Y-65532000D01*
X108331000Y-65552000D01*
X108077000Y-65552000D01*
X108077000Y-65532000D01*
X108057000Y-65532000D01*
X108057000Y-65278000D01*
X108077000Y-65278000D01*
X108077000Y-64078750D01*
X108331000Y-64078750D01*
X108331000Y-65278000D01*
X109530250Y-65278000D01*
X109689000Y-65119250D01*
X109692072Y-64555000D01*
X109679812Y-64430518D01*
X109658434Y-64360042D01*
X110225000Y-64360042D01*
X110225000Y-64691958D01*
X110289754Y-65017496D01*
X110416772Y-65324147D01*
X110601175Y-65600125D01*
X110835875Y-65834825D01*
X111111853Y-66019228D01*
X111418504Y-66146246D01*
X111744042Y-66211000D01*
X112075958Y-66211000D01*
X112401496Y-66146246D01*
X112708147Y-66019228D01*
X112984125Y-65834825D01*
X113218825Y-65600125D01*
X113403228Y-65324147D01*
X113530246Y-65017496D01*
X113595000Y-64691958D01*
X113595000Y-64360042D01*
X113530246Y-64034504D01*
X113403228Y-63727853D01*
X113218825Y-63451875D01*
X112984125Y-63217175D01*
X112708147Y-63032772D01*
X112401496Y-62905754D01*
X112075958Y-62841000D01*
X111744042Y-62841000D01*
X111418504Y-62905754D01*
X111111853Y-63032772D01*
X110835875Y-63217175D01*
X110601175Y-63451875D01*
X110416772Y-63727853D01*
X110289754Y-64034504D01*
X110225000Y-64360042D01*
X109658434Y-64360042D01*
X109643502Y-64310820D01*
X109584537Y-64200506D01*
X109505185Y-64103815D01*
X109408494Y-64024463D01*
X109298180Y-63965498D01*
X109178482Y-63929188D01*
X109054000Y-63916928D01*
X108489750Y-63920000D01*
X108331000Y-64078750D01*
X108077000Y-64078750D01*
X107918250Y-63920000D01*
X107354000Y-63916928D01*
X107229518Y-63929188D01*
X107109820Y-63965498D01*
X106999506Y-64024463D01*
X106902815Y-64103815D01*
X106823463Y-64200506D01*
X106764498Y-64310820D01*
X106742487Y-64383380D01*
X106610632Y-64251525D01*
X106367411Y-64089010D01*
X106097158Y-63977068D01*
X105810260Y-63920000D01*
X105517740Y-63920000D01*
X105407966Y-63941836D01*
X106359802Y-62990000D01*
X109182678Y-62990000D01*
X109220000Y-62993676D01*
X109257322Y-62990000D01*
X109257333Y-62990000D01*
X109368986Y-62979003D01*
X109512247Y-62935546D01*
X109644276Y-62864974D01*
X109760001Y-62770001D01*
X109783804Y-62740997D01*
X110801114Y-61723688D01*
X110983665Y-61760000D01*
X111266335Y-61760000D01*
X111543574Y-61704853D01*
X111804727Y-61596680D01*
X112039759Y-61439637D01*
X112239637Y-61239759D01*
X112375000Y-61037173D01*
X112510363Y-61239759D01*
X112710241Y-61439637D01*
X112945273Y-61596680D01*
X113206426Y-61704853D01*
X113322856Y-61728013D01*
X120500001Y-68905158D01*
X120500000Y-72107207D01*
X120463169Y-72122463D01*
X120179002Y-72312337D01*
X119937337Y-72554002D01*
X119747463Y-72838169D01*
X119616675Y-73153919D01*
X119550000Y-73489117D01*
X119550000Y-73830883D01*
X119616675Y-74166081D01*
X119747463Y-74481831D01*
X119937337Y-74765998D01*
X120179002Y-75007663D01*
X120463169Y-75197537D01*
X120778919Y-75328325D01*
X121114117Y-75395000D01*
X121455883Y-75395000D01*
X121791081Y-75328325D01*
X122106831Y-75197537D01*
X122390998Y-75007663D01*
X122632663Y-74765998D01*
X122708364Y-74652702D01*
X124916903Y-74652702D01*
X124988486Y-74896671D01*
X125243996Y-75017571D01*
X125518184Y-75086300D01*
X125800512Y-75100217D01*
X126080130Y-75058787D01*
X126346292Y-74963603D01*
X126471514Y-74896671D01*
X126543097Y-74652702D01*
X125730000Y-73839605D01*
X124916903Y-74652702D01*
X122708364Y-74652702D01*
X122822537Y-74481831D01*
X122953325Y-74166081D01*
X123020000Y-73830883D01*
X123020000Y-73730512D01*
X124289783Y-73730512D01*
X124331213Y-74010130D01*
X124426397Y-74276292D01*
X124493329Y-74401514D01*
X124737298Y-74473097D01*
X125550395Y-73660000D01*
X125909605Y-73660000D01*
X126722702Y-74473097D01*
X126966671Y-74401514D01*
X127087571Y-74146004D01*
X127156300Y-73871816D01*
X127170217Y-73589488D01*
X127128787Y-73309870D01*
X127033603Y-73043708D01*
X126966671Y-72918486D01*
X126722702Y-72846903D01*
X125909605Y-73660000D01*
X125550395Y-73660000D01*
X124737298Y-72846903D01*
X124493329Y-72918486D01*
X124372429Y-73173996D01*
X124303700Y-73448184D01*
X124289783Y-73730512D01*
X123020000Y-73730512D01*
X123020000Y-73489117D01*
X122953325Y-73153919D01*
X122822537Y-72838169D01*
X122708365Y-72667298D01*
X124916903Y-72667298D01*
X125730000Y-73480395D01*
X126543097Y-72667298D01*
X126471514Y-72423329D01*
X126216004Y-72302429D01*
X125941816Y-72233700D01*
X125659488Y-72219783D01*
X125379870Y-72261213D01*
X125113708Y-72356397D01*
X124988486Y-72423329D01*
X124916903Y-72667298D01*
X122708365Y-72667298D01*
X122632663Y-72554002D01*
X122390998Y-72312337D01*
X122106831Y-72122463D01*
X122070000Y-72107207D01*
X122070000Y-68618556D01*
X122073797Y-68580000D01*
X122070000Y-68541444D01*
X122070000Y-68541439D01*
X122063241Y-68472812D01*
X122058642Y-68426113D01*
X122013754Y-68278140D01*
X121940862Y-68141767D01*
X121842764Y-68022236D01*
X121812810Y-67997653D01*
X120517828Y-66702671D01*
X120801496Y-66646246D01*
X121108147Y-66519228D01*
X121384125Y-66334825D01*
X121618825Y-66100125D01*
X121803228Y-65824147D01*
X121930246Y-65517496D01*
X121957326Y-65381358D01*
X121988006Y-65406537D01*
X122098320Y-65465502D01*
X122218018Y-65501812D01*
X122342500Y-65514072D01*
X122906750Y-65511000D01*
X123065500Y-65352250D01*
X123065500Y-64153000D01*
X121866250Y-64153000D01*
X121798489Y-64220761D01*
X121618825Y-63951875D01*
X121384125Y-63717175D01*
X121108147Y-63532772D01*
X120801496Y-63405754D01*
X120475958Y-63341000D01*
X120144042Y-63341000D01*
X119818504Y-63405754D01*
X119511853Y-63532772D01*
X119235875Y-63717175D01*
X119001175Y-63951875D01*
X118816772Y-64227853D01*
X118689754Y-64534504D01*
X118633329Y-64818172D01*
X116991157Y-63176000D01*
X121704428Y-63176000D01*
X121707500Y-63740250D01*
X121866250Y-63899000D01*
X123065500Y-63899000D01*
X123065500Y-62699750D01*
X122906750Y-62541000D01*
X122342500Y-62537928D01*
X122218018Y-62550188D01*
X122098320Y-62586498D01*
X121988006Y-62645463D01*
X121891315Y-62724815D01*
X121811963Y-62821506D01*
X121752998Y-62931820D01*
X121716688Y-63051518D01*
X121704428Y-63176000D01*
X116991157Y-63176000D01*
X114865920Y-61050763D01*
X114896680Y-61004727D01*
X115004853Y-60743574D01*
X115060000Y-60466335D01*
X115060000Y-60183665D01*
X115004853Y-59906426D01*
X114896680Y-59645273D01*
X114739637Y-59410241D01*
X114539759Y-59210363D01*
X114304727Y-59053320D01*
X114043574Y-58945147D01*
X113766335Y-58890000D01*
X113483665Y-58890000D01*
X113206426Y-58945147D01*
X112945273Y-59053320D01*
X112710241Y-59210363D01*
X112510363Y-59410241D01*
X112375000Y-59612827D01*
X112239637Y-59410241D01*
X112039759Y-59210363D01*
X111804727Y-59053320D01*
X111543574Y-58945147D01*
X111266335Y-58890000D01*
X110983665Y-58890000D01*
X110706426Y-58945147D01*
X110445273Y-59053320D01*
X110210241Y-59210363D01*
X110043661Y-59376943D01*
X110014502Y-59280820D01*
X109955537Y-59170506D01*
X109876185Y-59073815D01*
X109779494Y-58994463D01*
X109669180Y-58935498D01*
X109549482Y-58899188D01*
X109425000Y-58886928D01*
X107825000Y-58886928D01*
X107700518Y-58899188D01*
X107580820Y-58935498D01*
X107470506Y-58994463D01*
X107373815Y-59073815D01*
X107294463Y-59170506D01*
X107235498Y-59280820D01*
X107199188Y-59400518D01*
X107186928Y-59525000D01*
X107186928Y-61125000D01*
X107199188Y-61249482D01*
X107235498Y-61369180D01*
X107289388Y-61470000D01*
X106082333Y-61470000D01*
X106045000Y-61466323D01*
X106007667Y-61470000D01*
X105896014Y-61480997D01*
X105752753Y-61524454D01*
X105620724Y-61595026D01*
X105504999Y-61689999D01*
X105481201Y-61718997D01*
X100743271Y-66456928D01*
X98980000Y-66456928D01*
X98855518Y-66469188D01*
X98735820Y-66505498D01*
X98625506Y-66564463D01*
X98528815Y-66643815D01*
X98449463Y-66740506D01*
X98390498Y-66850820D01*
X98354188Y-66970518D01*
X98341928Y-67095000D01*
X97815000Y-67095000D01*
X97815000Y-61416383D01*
X98009837Y-61707977D01*
X98312023Y-62010163D01*
X98667355Y-62247588D01*
X99062179Y-62411130D01*
X99481323Y-62494503D01*
X99908677Y-62494503D01*
X100327821Y-62411130D01*
X100722645Y-62247588D01*
X101077977Y-62010163D01*
X101380163Y-61707977D01*
X101617588Y-61352645D01*
X101781130Y-60957821D01*
X101864503Y-60538677D01*
X101864503Y-60111323D01*
X101781130Y-59692179D01*
X101617588Y-59297355D01*
X101380163Y-58942023D01*
X101077977Y-58639837D01*
X100786383Y-58445000D01*
X160833617Y-58445000D01*
X160542023Y-58639837D01*
G04 #@! TA.AperFunction,Conductor*
D31*
G36*
X160542023Y-58639837D02*
G01*
X160239837Y-58942023D01*
X160002412Y-59297355D01*
X159838870Y-59692179D01*
X159755497Y-60111323D01*
X159755497Y-60538677D01*
X159838870Y-60957821D01*
X160002412Y-61352645D01*
X160239837Y-61707977D01*
X160542023Y-62010163D01*
X160897355Y-62247588D01*
X161292179Y-62411130D01*
X161711323Y-62494503D01*
X162138677Y-62494503D01*
X162557821Y-62411130D01*
X162952645Y-62247588D01*
X163307977Y-62010163D01*
X163610163Y-61707977D01*
X163805000Y-61416382D01*
X163805001Y-134798619D01*
X163610163Y-134507023D01*
X163307977Y-134204837D01*
X162952645Y-133967412D01*
X162557821Y-133803870D01*
X162138677Y-133720497D01*
X161711323Y-133720497D01*
X161292179Y-133803870D01*
X160897355Y-133967412D01*
X160542023Y-134204837D01*
X160239837Y-134507023D01*
X160002412Y-134862355D01*
X159838870Y-135257179D01*
X159755497Y-135676323D01*
X159755497Y-136103677D01*
X159838870Y-136522821D01*
X160002412Y-136917645D01*
X160239837Y-137272977D01*
X160542023Y-137575163D01*
X160833617Y-137770000D01*
X100786383Y-137770000D01*
X101077977Y-137575163D01*
X101380163Y-137272977D01*
X101617588Y-136917645D01*
X101781130Y-136522821D01*
X101864503Y-136103677D01*
X101864503Y-135676323D01*
X101781130Y-135257179D01*
X101617588Y-134862355D01*
X101380163Y-134507023D01*
X101077977Y-134204837D01*
X100722645Y-133967412D01*
X100572967Y-133905413D01*
X126679192Y-133905413D01*
X126774956Y-134169814D01*
X127064571Y-134310704D01*
X127376108Y-134392384D01*
X127697595Y-134411718D01*
X128016675Y-134367961D01*
X128321088Y-134262795D01*
X128495044Y-134169814D01*
X128590808Y-133905413D01*
X133179192Y-133905413D01*
X133274956Y-134169814D01*
X133564571Y-134310704D01*
X133876108Y-134392384D01*
X134197595Y-134411718D01*
X134516675Y-134367961D01*
X134821088Y-134262795D01*
X134995044Y-134169814D01*
X135090808Y-133905413D01*
X134135000Y-132949605D01*
X133179192Y-133905413D01*
X128590808Y-133905413D01*
X127635000Y-132949605D01*
X126679192Y-133905413D01*
X100572967Y-133905413D01*
X100327821Y-133803870D01*
X99908677Y-133720497D01*
X99481323Y-133720497D01*
X99062179Y-133803870D01*
X98667355Y-133967412D01*
X98312023Y-134204837D01*
X98009837Y-134507023D01*
X97815000Y-134798617D01*
X97815000Y-132832595D01*
X125993282Y-132832595D01*
X126037039Y-133151675D01*
X126142205Y-133456088D01*
X126235186Y-133630044D01*
X126499587Y-133725808D01*
X127455395Y-132770000D01*
X127814605Y-132770000D01*
X128770413Y-133725808D01*
X129034814Y-133630044D01*
X129175704Y-133340429D01*
X129257384Y-133028892D01*
X129269189Y-132832595D01*
X132493282Y-132832595D01*
X132537039Y-133151675D01*
X132642205Y-133456088D01*
X132735186Y-133630044D01*
X132999587Y-133725808D01*
X133955395Y-132770000D01*
X134314605Y-132770000D01*
X135270413Y-133725808D01*
X135534814Y-133630044D01*
X135675704Y-133340429D01*
X135757384Y-133028892D01*
X135776718Y-132707405D01*
X135732961Y-132388325D01*
X135627795Y-132083912D01*
X135534814Y-131909956D01*
X135270413Y-131814192D01*
X134314605Y-132770000D01*
X133955395Y-132770000D01*
X132999587Y-131814192D01*
X132735186Y-131909956D01*
X132594296Y-132199571D01*
X132512616Y-132511108D01*
X132493282Y-132832595D01*
X129269189Y-132832595D01*
X129276718Y-132707405D01*
X129232961Y-132388325D01*
X129127795Y-132083912D01*
X129034814Y-131909956D01*
X128770413Y-131814192D01*
X127814605Y-132770000D01*
X127455395Y-132770000D01*
X126499587Y-131814192D01*
X126235186Y-131909956D01*
X126094296Y-132199571D01*
X126012616Y-132511108D01*
X125993282Y-132832595D01*
X97815000Y-132832595D01*
X97815000Y-131634587D01*
X126679192Y-131634587D01*
X127635000Y-132590395D01*
X128590808Y-131634587D01*
X133179192Y-131634587D01*
X134135000Y-132590395D01*
X135090808Y-131634587D01*
X134995044Y-131370186D01*
X134705429Y-131229296D01*
X134393892Y-131147616D01*
X134072405Y-131128282D01*
X133753325Y-131172039D01*
X133448912Y-131277205D01*
X133274956Y-131370186D01*
X133179192Y-131634587D01*
X128590808Y-131634587D01*
X128495044Y-131370186D01*
X128205429Y-131229296D01*
X127893892Y-131147616D01*
X127572405Y-131128282D01*
X127253325Y-131172039D01*
X126948912Y-131277205D01*
X126774956Y-131370186D01*
X126679192Y-131634587D01*
X97815000Y-131634587D01*
X97815000Y-130245183D01*
X107938026Y-130245183D01*
X108031313Y-130504074D01*
X108173314Y-130739791D01*
X108358573Y-130943275D01*
X108579970Y-131106707D01*
X108828997Y-131223807D01*
X108954817Y-131261974D01*
X109171949Y-131139566D01*
X109171949Y-130028051D01*
X109425949Y-130028051D01*
X109425949Y-131139566D01*
X109643081Y-131261974D01*
X109901972Y-131168687D01*
X110137689Y-131026686D01*
X110341173Y-130841427D01*
X110504605Y-130620030D01*
X110621705Y-130371003D01*
X110659872Y-130245183D01*
X110537464Y-130028051D01*
X109425949Y-130028051D01*
X109171949Y-130028051D01*
X108060434Y-130028051D01*
X107938026Y-130245183D01*
X97815000Y-130245183D01*
X97815000Y-129556919D01*
X107938026Y-129556919D01*
X108060434Y-129774051D01*
X109171949Y-129774051D01*
X109171949Y-128662536D01*
X109425949Y-128662536D01*
X109425949Y-129774051D01*
X110537464Y-129774051D01*
X110659872Y-129556919D01*
X110566585Y-129298028D01*
X110424584Y-129062311D01*
X110239325Y-128858827D01*
X110017928Y-128695395D01*
X109768901Y-128578295D01*
X109643081Y-128540128D01*
X109425949Y-128662536D01*
X109171949Y-128662536D01*
X108954817Y-128540128D01*
X108695926Y-128633415D01*
X108460209Y-128775416D01*
X108256725Y-128960675D01*
X108093293Y-129182072D01*
X107976193Y-129431099D01*
X107938026Y-129556919D01*
X97815000Y-129556919D01*
X97815000Y-128108967D01*
X126000000Y-128108967D01*
X126000000Y-128431033D01*
X126062832Y-128746912D01*
X126186082Y-129044463D01*
X126365013Y-129312252D01*
X126592748Y-129539987D01*
X126860537Y-129718918D01*
X127158088Y-129842168D01*
X127473967Y-129905000D01*
X127796033Y-129905000D01*
X128111912Y-129842168D01*
X128409463Y-129718918D01*
X128677252Y-129539987D01*
X128904987Y-129312252D01*
X129083918Y-129044463D01*
X129207168Y-128746912D01*
X129270000Y-128431033D01*
X129270000Y-128108967D01*
X132500000Y-128108967D01*
X132500000Y-128431033D01*
X132562832Y-128746912D01*
X132686082Y-129044463D01*
X132865013Y-129312252D01*
X133092748Y-129539987D01*
X133360537Y-129718918D01*
X133658088Y-129842168D01*
X133973967Y-129905000D01*
X134296033Y-129905000D01*
X134611912Y-129842168D01*
X134909463Y-129718918D01*
X135177252Y-129539987D01*
X135404987Y-129312252D01*
X135583918Y-129044463D01*
X135707168Y-128746912D01*
X135770000Y-128431033D01*
X135770000Y-128108967D01*
X135707168Y-127793088D01*
X135583918Y-127495537D01*
X135404987Y-127227748D01*
X135177252Y-127000013D01*
X134909463Y-126821082D01*
X134611912Y-126697832D01*
X134296033Y-126635000D01*
X133973967Y-126635000D01*
X133658088Y-126697832D01*
X133360537Y-126821082D01*
X133092748Y-127000013D01*
X132865013Y-127227748D01*
X132686082Y-127495537D01*
X132562832Y-127793088D01*
X132500000Y-128108967D01*
X129270000Y-128108967D01*
X129207168Y-127793088D01*
X129083918Y-127495537D01*
X128904987Y-127227748D01*
X128677252Y-127000013D01*
X128409463Y-126821082D01*
X128111912Y-126697832D01*
X127796033Y-126635000D01*
X127473967Y-126635000D01*
X127158088Y-126697832D01*
X126860537Y-126821082D01*
X126592748Y-127000013D01*
X126365013Y-127227748D01*
X126186082Y-127495537D01*
X126062832Y-127793088D01*
X126000000Y-128108967D01*
X97815000Y-128108967D01*
X97815000Y-126171357D01*
X111494051Y-126171357D01*
X111494051Y-126446541D01*
X111547737Y-126716439D01*
X111653046Y-126970676D01*
X111805931Y-127199484D01*
X112000516Y-127394069D01*
X112229324Y-127546954D01*
X112483561Y-127652263D01*
X112753459Y-127705949D01*
X113028643Y-127705949D01*
X113298541Y-127652263D01*
X113552778Y-127546954D01*
X113781586Y-127394069D01*
X113976171Y-127199484D01*
X114129056Y-126970676D01*
X114234365Y-126716439D01*
X114288051Y-126446541D01*
X114288051Y-126171357D01*
X114234365Y-125901459D01*
X114129056Y-125647222D01*
X113976171Y-125418414D01*
X113781586Y-125223829D01*
X113552778Y-125070944D01*
X113298541Y-124965635D01*
X113028643Y-124911949D01*
X112753459Y-124911949D01*
X112483561Y-124965635D01*
X112229324Y-125070944D01*
X112000516Y-125223829D01*
X111805931Y-125418414D01*
X111653046Y-125647222D01*
X111547737Y-125901459D01*
X111494051Y-126171357D01*
X97815000Y-126171357D01*
X97815000Y-123145183D01*
X100838026Y-123145183D01*
X100931313Y-123404074D01*
X101073314Y-123639791D01*
X101258573Y-123843275D01*
X101479970Y-124006707D01*
X101728997Y-124123807D01*
X101854817Y-124161974D01*
X102071949Y-124039566D01*
X102071949Y-122928051D01*
X102325949Y-122928051D01*
X102325949Y-124039566D01*
X102543081Y-124161974D01*
X102801972Y-124068687D01*
X103037689Y-123926686D01*
X103241173Y-123741427D01*
X103404605Y-123520030D01*
X103521705Y-123271003D01*
X103559872Y-123145183D01*
X115038026Y-123145183D01*
X115131313Y-123404074D01*
X115273314Y-123639791D01*
X115458573Y-123843275D01*
X115679970Y-124006707D01*
X115928997Y-124123807D01*
X116054817Y-124161974D01*
X116271949Y-124039566D01*
X116271949Y-122928051D01*
X116525949Y-122928051D01*
X116525949Y-124039566D01*
X116743081Y-124161974D01*
X117001972Y-124068687D01*
X117237689Y-123926686D01*
X117441173Y-123741427D01*
X117604605Y-123520030D01*
X117721705Y-123271003D01*
X117759872Y-123145183D01*
X117637464Y-122928051D01*
X116525949Y-122928051D01*
X116271949Y-122928051D01*
X115160434Y-122928051D01*
X115038026Y-123145183D01*
X103559872Y-123145183D01*
X103437464Y-122928051D01*
X102325949Y-122928051D01*
X102071949Y-122928051D01*
X100960434Y-122928051D01*
X100838026Y-123145183D01*
X97815000Y-123145183D01*
X97815000Y-122456919D01*
X100838026Y-122456919D01*
X100960434Y-122674051D01*
X102071949Y-122674051D01*
X102071949Y-121562536D01*
X102325949Y-121562536D01*
X102325949Y-122674051D01*
X103437464Y-122674051D01*
X103559872Y-122456919D01*
X115038026Y-122456919D01*
X115160434Y-122674051D01*
X116271949Y-122674051D01*
X116271949Y-121562536D01*
X116525949Y-121562536D01*
X116525949Y-122674051D01*
X117637464Y-122674051D01*
X117759872Y-122456919D01*
X117666585Y-122198028D01*
X117524584Y-121962311D01*
X117339325Y-121758827D01*
X117117928Y-121595395D01*
X116868901Y-121478295D01*
X116743081Y-121440128D01*
X116525949Y-121562536D01*
X116271949Y-121562536D01*
X116054817Y-121440128D01*
X115795926Y-121533415D01*
X115560209Y-121675416D01*
X115356725Y-121860675D01*
X115193293Y-122082072D01*
X115076193Y-122331099D01*
X115038026Y-122456919D01*
X103559872Y-122456919D01*
X103466585Y-122198028D01*
X103324584Y-121962311D01*
X103139325Y-121758827D01*
X102917928Y-121595395D01*
X102668901Y-121478295D01*
X102543081Y-121440128D01*
X102325949Y-121562536D01*
X102071949Y-121562536D01*
X101854817Y-121440128D01*
X101595926Y-121533415D01*
X101360209Y-121675416D01*
X101156725Y-121860675D01*
X100993293Y-122082072D01*
X100876193Y-122331099D01*
X100838026Y-122456919D01*
X97815000Y-122456919D01*
X97815000Y-119071357D01*
X104394051Y-119071357D01*
X104394051Y-119346541D01*
X104447737Y-119616439D01*
X104553046Y-119870676D01*
X104705931Y-120099484D01*
X104900516Y-120294069D01*
X105129324Y-120446954D01*
X105383561Y-120552263D01*
X105653459Y-120605949D01*
X105928643Y-120605949D01*
X106198541Y-120552263D01*
X106452778Y-120446954D01*
X106681586Y-120294069D01*
X106876171Y-120099484D01*
X107029056Y-119870676D01*
X107134365Y-119616439D01*
X107188051Y-119346541D01*
X107188051Y-119071357D01*
X118594051Y-119071357D01*
X118594051Y-119346541D01*
X118647737Y-119616439D01*
X118753046Y-119870676D01*
X118905931Y-120099484D01*
X119100516Y-120294069D01*
X119329324Y-120446954D01*
X119583561Y-120552263D01*
X119853459Y-120605949D01*
X120128643Y-120605949D01*
X120398541Y-120552263D01*
X120652778Y-120446954D01*
X120881586Y-120294069D01*
X121076171Y-120099484D01*
X121229056Y-119870676D01*
X121334365Y-119616439D01*
X121388051Y-119346541D01*
X121388051Y-119071357D01*
X121334365Y-118801459D01*
X121229056Y-118547222D01*
X121076171Y-118318414D01*
X120881586Y-118123829D01*
X120652778Y-117970944D01*
X120398541Y-117865635D01*
X120128643Y-117811949D01*
X119853459Y-117811949D01*
X119583561Y-117865635D01*
X119329324Y-117970944D01*
X119100516Y-118123829D01*
X118905931Y-118318414D01*
X118753046Y-118547222D01*
X118647737Y-118801459D01*
X118594051Y-119071357D01*
X107188051Y-119071357D01*
X107134365Y-118801459D01*
X107029056Y-118547222D01*
X106876171Y-118318414D01*
X106681586Y-118123829D01*
X106452778Y-117970944D01*
X106198541Y-117865635D01*
X105928643Y-117811949D01*
X105653459Y-117811949D01*
X105383561Y-117865635D01*
X105129324Y-117970944D01*
X104900516Y-118123829D01*
X104705931Y-118318414D01*
X104553046Y-118547222D01*
X104447737Y-118801459D01*
X104394051Y-119071357D01*
X97815000Y-119071357D01*
X97815000Y-116045183D01*
X107938026Y-116045183D01*
X108031313Y-116304074D01*
X108173314Y-116539791D01*
X108358573Y-116743275D01*
X108579970Y-116906707D01*
X108828997Y-117023807D01*
X108954817Y-117061974D01*
X109171949Y-116939566D01*
X109171949Y-115828051D01*
X109425949Y-115828051D01*
X109425949Y-116939566D01*
X109643081Y-117061974D01*
X109901972Y-116968687D01*
X110137689Y-116826686D01*
X110341173Y-116641427D01*
X110504605Y-116420030D01*
X110621705Y-116171003D01*
X110659872Y-116045183D01*
X110537464Y-115828051D01*
X109425949Y-115828051D01*
X109171949Y-115828051D01*
X108060434Y-115828051D01*
X107938026Y-116045183D01*
X97815000Y-116045183D01*
X97815000Y-115356919D01*
X107938026Y-115356919D01*
X108060434Y-115574051D01*
X109171949Y-115574051D01*
X109171949Y-114462536D01*
X109425949Y-114462536D01*
X109425949Y-115574051D01*
X110537464Y-115574051D01*
X110659872Y-115356919D01*
X110566585Y-115098028D01*
X110424584Y-114862311D01*
X110239325Y-114658827D01*
X110017928Y-114495395D01*
X109768901Y-114378295D01*
X109643081Y-114340128D01*
X109425949Y-114462536D01*
X109171949Y-114462536D01*
X108954817Y-114340128D01*
X108695926Y-114433415D01*
X108460209Y-114575416D01*
X108256725Y-114760675D01*
X108093293Y-114982072D01*
X107976193Y-115231099D01*
X107938026Y-115356919D01*
X97815000Y-115356919D01*
X97815000Y-111971357D01*
X111494051Y-111971357D01*
X111494051Y-112246541D01*
X111547737Y-112516439D01*
X111653046Y-112770676D01*
X111805931Y-112999484D01*
X112000516Y-113194069D01*
X112229324Y-113346954D01*
X112483561Y-113452263D01*
X112753459Y-113505949D01*
X113028643Y-113505949D01*
X113298541Y-113452263D01*
X113552778Y-113346954D01*
X113781586Y-113194069D01*
X113976171Y-112999484D01*
X114129056Y-112770676D01*
X114234365Y-112516439D01*
X114288051Y-112246541D01*
X114288051Y-111971357D01*
X114234365Y-111701459D01*
X114129056Y-111447222D01*
X113976171Y-111218414D01*
X113781586Y-111023829D01*
X113552778Y-110870944D01*
X113298541Y-110765635D01*
X113028643Y-110711949D01*
X112753459Y-110711949D01*
X112483561Y-110765635D01*
X112229324Y-110870944D01*
X112000516Y-111023829D01*
X111805931Y-111218414D01*
X111653046Y-111447222D01*
X111547737Y-111701459D01*
X111494051Y-111971357D01*
X97815000Y-111971357D01*
X97815000Y-102913550D01*
X98002926Y-102991392D01*
X98282483Y-103047000D01*
X98567517Y-103047000D01*
X98847074Y-102991392D01*
X99110411Y-102882314D01*
X99347408Y-102723958D01*
X99548958Y-102522408D01*
X99695000Y-102303840D01*
X99841042Y-102522408D01*
X100042592Y-102723958D01*
X100279589Y-102882314D01*
X100542926Y-102991392D01*
X100822483Y-103047000D01*
X101107517Y-103047000D01*
X101387074Y-102991392D01*
X101650411Y-102882314D01*
X101887408Y-102723958D01*
X102010096Y-102601270D01*
X102683335Y-102601270D01*
X102756371Y-102846464D01*
X103013928Y-102968564D01*
X103290358Y-103038071D01*
X103575036Y-103052314D01*
X103857023Y-103010744D01*
X104125482Y-102914961D01*
X104253629Y-102846464D01*
X104326665Y-102601270D01*
X103505000Y-101779605D01*
X102683335Y-102601270D01*
X102010096Y-102601270D01*
X102088958Y-102522408D01*
X102234775Y-102304177D01*
X102258536Y-102348629D01*
X102503730Y-102421665D01*
X103325395Y-101600000D01*
X102503730Y-100778335D01*
X102258536Y-100851371D01*
X102236347Y-100898176D01*
X102088958Y-100677592D01*
X102010096Y-100598730D01*
X102683335Y-100598730D01*
X103505000Y-101420395D01*
X104326665Y-100598730D01*
X104253629Y-100353536D01*
X103996072Y-100231436D01*
X103719642Y-100161929D01*
X103434964Y-100147686D01*
X103152977Y-100189256D01*
X102884518Y-100285039D01*
X102756371Y-100353536D01*
X102683335Y-100598730D01*
X102010096Y-100598730D01*
X101887408Y-100476042D01*
X101650411Y-100317686D01*
X101387074Y-100208608D01*
X101107517Y-100153000D01*
X100822483Y-100153000D01*
X100542926Y-100208608D01*
X100279589Y-100317686D01*
X100042592Y-100476042D01*
X99841042Y-100677592D01*
X99695000Y-100896160D01*
X99548958Y-100677592D01*
X99347408Y-100476042D01*
X99110411Y-100317686D01*
X98847074Y-100208608D01*
X98567517Y-100153000D01*
X98282483Y-100153000D01*
X98002926Y-100208608D01*
X97815000Y-100286450D01*
X97815000Y-85270072D01*
X99237000Y-85270072D01*
X99361482Y-85257812D01*
X99481180Y-85221502D01*
X99591494Y-85162537D01*
X99688185Y-85083185D01*
X99767537Y-84986494D01*
X99826502Y-84876180D01*
X99861021Y-84762387D01*
X100042592Y-84943958D01*
X100279589Y-85102314D01*
X100542926Y-85211392D01*
X100822483Y-85267000D01*
X101107517Y-85267000D01*
X101387074Y-85211392D01*
X101650411Y-85102314D01*
X101887408Y-84943958D01*
X102088958Y-84742408D01*
X102234775Y-84524177D01*
X102258536Y-84568629D01*
X102503730Y-84641665D01*
X103325395Y-83820000D01*
X102503730Y-82998335D01*
X102258536Y-83071371D01*
X102236347Y-83118176D01*
X102088958Y-82897592D01*
X101887408Y-82696042D01*
X101650411Y-82537686D01*
X101387074Y-82428608D01*
X101107517Y-82373000D01*
X100822483Y-82373000D01*
X100542926Y-82428608D01*
X100279589Y-82537686D01*
X100042592Y-82696042D01*
X99861021Y-82877613D01*
X99826502Y-82763820D01*
X99767537Y-82653506D01*
X99688185Y-82556815D01*
X99591494Y-82477463D01*
X99481180Y-82418498D01*
X99361482Y-82382188D01*
X99237000Y-82369928D01*
X97815000Y-82369928D01*
X97815000Y-72605000D01*
X98341928Y-72605000D01*
X98354188Y-72729482D01*
X98390498Y-72849180D01*
X98449463Y-72959494D01*
X98528815Y-73056185D01*
X98625506Y-73135537D01*
X98735820Y-73194502D01*
X98855518Y-73230812D01*
X98980000Y-73243072D01*
X100044250Y-73240000D01*
X100203000Y-73081250D01*
X100203000Y-71882000D01*
X100457000Y-71882000D01*
X100457000Y-73081250D01*
X100615750Y-73240000D01*
X101680000Y-73243072D01*
X101804482Y-73230812D01*
X101924180Y-73194502D01*
X102034494Y-73135537D01*
X102131185Y-73056185D01*
X102210537Y-72959494D01*
X102269502Y-72849180D01*
X102305812Y-72729482D01*
X102318072Y-72605000D01*
X102315000Y-72040750D01*
X102156250Y-71882000D01*
X100457000Y-71882000D01*
X100203000Y-71882000D01*
X98503750Y-71882000D01*
X98345000Y-72040750D01*
X98341928Y-72605000D01*
X97815000Y-72605000D01*
X97815000Y-70905000D01*
X98341928Y-70905000D01*
X98345000Y-71469250D01*
X98503750Y-71628000D01*
X100203000Y-71628000D01*
X100203000Y-70428750D01*
X100457000Y-70428750D01*
X100457000Y-71628000D01*
X102156250Y-71628000D01*
X102315000Y-71469250D01*
X102318072Y-70905000D01*
X102305812Y-70780518D01*
X102269502Y-70660820D01*
X102210537Y-70550506D01*
X102131185Y-70453815D01*
X102034494Y-70374463D01*
X101924180Y-70315498D01*
X101804482Y-70279188D01*
X101680000Y-70266928D01*
X100615750Y-70270000D01*
X100457000Y-70428750D01*
X100203000Y-70428750D01*
X100044250Y-70270000D01*
X98980000Y-70266928D01*
X98855518Y-70279188D01*
X98735820Y-70315498D01*
X98625506Y-70374463D01*
X98528815Y-70453815D01*
X98449463Y-70550506D01*
X98390498Y-70660820D01*
X98354188Y-70780518D01*
X98341928Y-70905000D01*
X97815000Y-70905000D01*
X97815000Y-67095000D01*
X98341928Y-67095000D01*
X98341928Y-68795000D01*
X98354188Y-68919482D01*
X98390498Y-69039180D01*
X98449463Y-69149494D01*
X98528815Y-69246185D01*
X98625506Y-69325537D01*
X98735820Y-69384502D01*
X98855518Y-69420812D01*
X98980000Y-69433072D01*
X101680000Y-69433072D01*
X101804482Y-69420812D01*
X101924180Y-69384502D01*
X102034494Y-69325537D01*
X102131185Y-69246185D01*
X102210537Y-69149494D01*
X102269502Y-69039180D01*
X102305812Y-68919482D01*
X102318072Y-68795000D01*
X102318072Y-67095000D01*
X102312399Y-67037402D01*
X104200836Y-65148966D01*
X104179000Y-65258740D01*
X104179000Y-65551260D01*
X104216925Y-65741918D01*
X103612185Y-66346658D01*
X103582237Y-66371236D01*
X103557659Y-66401184D01*
X103557655Y-66401188D01*
X103524690Y-66441356D01*
X103484139Y-66490767D01*
X103447949Y-66558475D01*
X103411246Y-66627141D01*
X103366359Y-66775114D01*
X103351203Y-66929000D01*
X103355001Y-66967563D01*
X103355000Y-78318449D01*
X103351203Y-78357002D01*
X103355000Y-78395555D01*
X103355000Y-78395562D01*
X103366359Y-78510888D01*
X103411246Y-78658861D01*
X103484138Y-78795234D01*
X103582236Y-78914766D01*
X103612190Y-78939349D01*
X103990001Y-79317160D01*
X103990001Y-82449909D01*
X103719642Y-82381929D01*
X103434964Y-82367686D01*
X103152977Y-82409256D01*
X102884518Y-82505039D01*
X102756371Y-82573536D01*
X102683335Y-82818730D01*
X103505000Y-83640395D01*
X103519143Y-83626253D01*
X103698748Y-83805858D01*
X103684605Y-83820000D01*
X103698748Y-83834143D01*
X103519143Y-84013748D01*
X103505000Y-83999605D01*
X102683335Y-84821270D01*
X102756371Y-85066464D01*
X103013928Y-85188564D01*
X103290358Y-85258071D01*
X103575036Y-85272314D01*
X103857023Y-85230744D01*
X103990001Y-85183299D01*
X103990000Y-97751447D01*
X103986203Y-97790000D01*
X103990000Y-97828553D01*
X103990000Y-97828560D01*
X104001359Y-97943886D01*
X104046246Y-98091859D01*
X104119138Y-98228232D01*
X104217236Y-98347764D01*
X104247190Y-98372347D01*
X106027843Y-100153000D01*
X105902483Y-100153000D01*
X105622926Y-100208608D01*
X105359589Y-100317686D01*
X105122592Y-100476042D01*
X104921042Y-100677592D01*
X104775225Y-100895823D01*
X104751464Y-100851371D01*
X104506270Y-100778335D01*
X103684605Y-101600000D01*
X104506270Y-102421665D01*
X104751464Y-102348629D01*
X104773653Y-102301824D01*
X104921042Y-102522408D01*
X105122592Y-102723958D01*
X105359589Y-102882314D01*
X105622926Y-102991392D01*
X105902483Y-103047000D01*
X106187517Y-103047000D01*
X106467074Y-102991392D01*
X106730411Y-102882314D01*
X106967408Y-102723958D01*
X107168958Y-102522408D01*
X107315000Y-102303840D01*
X107461042Y-102522408D01*
X107662592Y-102723958D01*
X107899589Y-102882314D01*
X108162926Y-102991392D01*
X108442483Y-103047000D01*
X108727517Y-103047000D01*
X109007074Y-102991392D01*
X109270411Y-102882314D01*
X109507408Y-102723958D01*
X109708958Y-102522408D01*
X109855000Y-102303840D01*
X110001042Y-102522408D01*
X110202592Y-102723958D01*
X110340000Y-102815771D01*
X110340000Y-103306449D01*
X110336203Y-103345002D01*
X110340000Y-103383555D01*
X110340000Y-103383562D01*
X110351359Y-103498888D01*
X110396246Y-103646861D01*
X110469138Y-103783234D01*
X110567236Y-103902766D01*
X110597190Y-103927349D01*
X123402651Y-116732810D01*
X123427234Y-116762764D01*
X123546765Y-116860862D01*
X123683138Y-116933754D01*
X123831111Y-116978642D01*
X123906024Y-116986020D01*
X123946437Y-116990000D01*
X123946442Y-116990000D01*
X123984998Y-116993797D01*
X124023554Y-116990000D01*
X126321289Y-116990000D01*
X126340226Y-117008937D01*
X126509744Y-117122205D01*
X126698102Y-117200226D01*
X126898061Y-117240000D01*
X127101939Y-117240000D01*
X127301898Y-117200226D01*
X127490256Y-117122205D01*
X127659774Y-117008937D01*
X127803937Y-116864774D01*
X127917205Y-116695256D01*
X127995226Y-116506898D01*
X128035000Y-116306939D01*
X128035000Y-116103061D01*
X127995226Y-115903102D01*
X127917205Y-115714744D01*
X127803937Y-115545226D01*
X127659774Y-115401063D01*
X127490256Y-115287795D01*
X127301898Y-115209774D01*
X127101939Y-115170000D01*
X126898061Y-115170000D01*
X126698102Y-115209774D01*
X126509744Y-115287795D01*
X126340226Y-115401063D01*
X126321289Y-115420000D01*
X124310155Y-115420000D01*
X123340155Y-114450000D01*
X130131289Y-114450000D01*
X130150226Y-114468937D01*
X130319744Y-114582205D01*
X130508102Y-114660226D01*
X130708061Y-114700000D01*
X130911939Y-114700000D01*
X131111898Y-114660226D01*
X131300256Y-114582205D01*
X131469774Y-114468937D01*
X131613937Y-114324774D01*
X131727205Y-114155256D01*
X131805226Y-113966898D01*
X131845000Y-113766939D01*
X131845000Y-113563061D01*
X131805226Y-113363102D01*
X131727205Y-113174744D01*
X131613937Y-113005226D01*
X131469774Y-112861063D01*
X131300256Y-112747795D01*
X131111898Y-112669774D01*
X130911939Y-112630000D01*
X130708061Y-112630000D01*
X130508102Y-112669774D01*
X130319744Y-112747795D01*
X130150226Y-112861063D01*
X130131289Y-112880000D01*
X122880158Y-112880000D01*
X115335000Y-105334843D01*
X115335000Y-105308061D01*
X115295226Y-105108102D01*
X115217205Y-104919744D01*
X115103937Y-104750226D01*
X114959774Y-104606063D01*
X114790256Y-104492795D01*
X114601898Y-104414774D01*
X114401939Y-104375000D01*
X114198061Y-104375000D01*
X113998102Y-104414774D01*
X113809744Y-104492795D01*
X113640226Y-104606063D01*
X113568222Y-104678067D01*
X111910000Y-103019845D01*
X111910000Y-102815771D01*
X112047408Y-102723958D01*
X112248958Y-102522408D01*
X112395000Y-102303840D01*
X112541042Y-102522408D01*
X112742592Y-102723958D01*
X112979589Y-102882314D01*
X113242926Y-102991392D01*
X113522483Y-103047000D01*
X113807517Y-103047000D01*
X113969602Y-103014759D01*
X119947654Y-108992811D01*
X119972237Y-109022765D01*
X120091768Y-109120863D01*
X120228141Y-109193755D01*
X120376114Y-109238643D01*
X120451027Y-109246021D01*
X120491440Y-109250001D01*
X120491445Y-109250001D01*
X120530001Y-109253798D01*
X120568557Y-109250001D01*
X130891446Y-109250001D01*
X130929999Y-109253798D01*
X130968552Y-109250001D01*
X130968560Y-109250001D01*
X131083886Y-109238642D01*
X131231859Y-109193755D01*
X131368232Y-109120863D01*
X131487763Y-109022765D01*
X131512346Y-108992811D01*
X131785604Y-108719554D01*
X131938665Y-108750000D01*
X132221335Y-108750000D01*
X132498574Y-108694853D01*
X132759727Y-108586680D01*
X132994759Y-108429637D01*
X133194637Y-108229759D01*
X133351637Y-107994792D01*
X140820001Y-115463157D01*
X140820001Y-119095618D01*
X140636898Y-119019774D01*
X140436939Y-118980000D01*
X140410158Y-118980000D01*
X131392347Y-109962190D01*
X131367764Y-109932236D01*
X131248233Y-109834138D01*
X131111860Y-109761246D01*
X130963887Y-109716359D01*
X130848561Y-109705000D01*
X130848553Y-109705000D01*
X130810000Y-109701203D01*
X130771447Y-109705000D01*
X127043711Y-109705000D01*
X127024774Y-109686063D01*
X126855256Y-109572795D01*
X126666898Y-109494774D01*
X126466939Y-109455000D01*
X126263061Y-109455000D01*
X126063102Y-109494774D01*
X125874744Y-109572795D01*
X125705226Y-109686063D01*
X125561063Y-109830226D01*
X125447795Y-109999744D01*
X125369774Y-110188102D01*
X125330000Y-110388061D01*
X125330000Y-110591939D01*
X125369774Y-110791898D01*
X125447795Y-110980256D01*
X125561063Y-111149774D01*
X125705226Y-111293937D01*
X125874744Y-111407205D01*
X126063102Y-111485226D01*
X126263061Y-111525000D01*
X126466939Y-111525000D01*
X126666898Y-111485226D01*
X126855256Y-111407205D01*
X127024774Y-111293937D01*
X127043711Y-111275000D01*
X130484843Y-111275000D01*
X139300000Y-120090158D01*
X139300000Y-120116939D01*
X139339774Y-120316898D01*
X139417795Y-120505256D01*
X139531063Y-120674774D01*
X139675226Y-120818937D01*
X139844744Y-120932205D01*
X140033102Y-121010226D01*
X140233061Y-121050000D01*
X140436939Y-121050000D01*
X140636898Y-121010226D01*
X140820001Y-120934382D01*
X140820000Y-127749364D01*
X140714465Y-127819880D01*
X140519880Y-128014465D01*
X140366995Y-128243273D01*
X140261686Y-128497510D01*
X140208000Y-128767408D01*
X140208000Y-129042592D01*
X140261686Y-129312490D01*
X140366995Y-129566727D01*
X140519880Y-129795535D01*
X140714465Y-129990120D01*
X140943273Y-130143005D01*
X141197510Y-130248314D01*
X141467408Y-130302000D01*
X141742592Y-130302000D01*
X142012490Y-130248314D01*
X142266727Y-130143005D01*
X142495535Y-129990120D01*
X142615090Y-129870565D01*
X145899040Y-129870565D01*
X145966020Y-130110656D01*
X146215048Y-130227756D01*
X146482135Y-130294023D01*
X146757017Y-130306910D01*
X147029133Y-130265922D01*
X147288023Y-130172636D01*
X147403980Y-130110656D01*
X147470960Y-129870565D01*
X146685000Y-129084605D01*
X145899040Y-129870565D01*
X142615090Y-129870565D01*
X142690120Y-129795535D01*
X142843005Y-129566727D01*
X142948314Y-129312490D01*
X143002000Y-129042592D01*
X143002000Y-128977017D01*
X145283090Y-128977017D01*
X145324078Y-129249133D01*
X145417364Y-129508023D01*
X145479344Y-129623980D01*
X145719435Y-129690960D01*
X146505395Y-128905000D01*
X146864605Y-128905000D01*
X147650565Y-129690960D01*
X147890656Y-129623980D01*
X148007756Y-129374952D01*
X148074023Y-129107865D01*
X148086910Y-128832983D01*
X148045922Y-128560867D01*
X147952636Y-128301977D01*
X147890656Y-128186020D01*
X147650565Y-128119040D01*
X146864605Y-128905000D01*
X146505395Y-128905000D01*
X145719435Y-128119040D01*
X145479344Y-128186020D01*
X145362244Y-128435048D01*
X145295977Y-128702135D01*
X145283090Y-128977017D01*
X143002000Y-128977017D01*
X143002000Y-128767408D01*
X142948314Y-128497510D01*
X142843005Y-128243273D01*
X142690120Y-128014465D01*
X142615090Y-127939435D01*
X145899040Y-127939435D01*
X146685000Y-128725395D01*
X147470960Y-127939435D01*
X147403980Y-127699344D01*
X147154952Y-127582244D01*
X146887865Y-127515977D01*
X146612983Y-127503090D01*
X146340867Y-127544078D01*
X146081977Y-127637364D01*
X145966020Y-127699344D01*
X145899040Y-127939435D01*
X142615090Y-127939435D01*
X142495535Y-127819880D01*
X142390000Y-127749364D01*
X142390000Y-115176550D01*
X142393797Y-115137997D01*
X142390000Y-115099444D01*
X142390000Y-115099437D01*
X142378641Y-114984111D01*
X142378023Y-114982072D01*
X142333754Y-114836138D01*
X142300788Y-114774463D01*
X142260862Y-114699765D01*
X142162764Y-114580234D01*
X142132816Y-114555656D01*
X131232159Y-103655000D01*
X136891502Y-103655000D01*
X149746501Y-116510000D01*
X148737002Y-116510000D01*
X148443912Y-116538867D01*
X148067853Y-116652943D01*
X147721275Y-116838193D01*
X147417497Y-117087497D01*
X147168193Y-117391275D01*
X146982943Y-117737853D01*
X146868867Y-118113912D01*
X146830348Y-118505000D01*
X146868867Y-118896088D01*
X146982943Y-119272147D01*
X147168193Y-119618725D01*
X147417497Y-119922503D01*
X147721275Y-120171807D01*
X148067853Y-120357057D01*
X148443912Y-120471133D01*
X148737002Y-120500000D01*
X149952998Y-120500000D01*
X150246088Y-120471133D01*
X150622147Y-120357057D01*
X150968725Y-120171807D01*
X150980001Y-120162553D01*
X150980000Y-127749364D01*
X150874465Y-127819880D01*
X150679880Y-128014465D01*
X150526995Y-128243273D01*
X150421686Y-128497510D01*
X150368000Y-128767408D01*
X150368000Y-129042592D01*
X150421686Y-129312490D01*
X150526995Y-129566727D01*
X150679880Y-129795535D01*
X150874465Y-129990120D01*
X151103273Y-130143005D01*
X151357510Y-130248314D01*
X151627408Y-130302000D01*
X151902592Y-130302000D01*
X152172490Y-130248314D01*
X152426727Y-130143005D01*
X152655535Y-129990120D01*
X152775090Y-129870565D01*
X156059040Y-129870565D01*
X156126020Y-130110656D01*
X156375048Y-130227756D01*
X156642135Y-130294023D01*
X156917017Y-130306910D01*
X157189133Y-130265922D01*
X157448023Y-130172636D01*
X157563980Y-130110656D01*
X157630960Y-129870565D01*
X156845000Y-129084605D01*
X156059040Y-129870565D01*
X152775090Y-129870565D01*
X152850120Y-129795535D01*
X153003005Y-129566727D01*
X153108314Y-129312490D01*
X153162000Y-129042592D01*
X153162000Y-128977017D01*
X155443090Y-128977017D01*
X155484078Y-129249133D01*
X155577364Y-129508023D01*
X155639344Y-129623980D01*
X155879435Y-129690960D01*
X156665395Y-128905000D01*
X157024605Y-128905000D01*
X157810565Y-129690960D01*
X158050656Y-129623980D01*
X158167756Y-129374952D01*
X158234023Y-129107865D01*
X158246910Y-128832983D01*
X158205922Y-128560867D01*
X158112636Y-128301977D01*
X158050656Y-128186020D01*
X157810565Y-128119040D01*
X157024605Y-128905000D01*
X156665395Y-128905000D01*
X155879435Y-128119040D01*
X155639344Y-128186020D01*
X155522244Y-128435048D01*
X155455977Y-128702135D01*
X155443090Y-128977017D01*
X153162000Y-128977017D01*
X153162000Y-128767408D01*
X153108314Y-128497510D01*
X153003005Y-128243273D01*
X152850120Y-128014465D01*
X152775090Y-127939435D01*
X156059040Y-127939435D01*
X156845000Y-128725395D01*
X157630960Y-127939435D01*
X157563980Y-127699344D01*
X157314952Y-127582244D01*
X157047865Y-127515977D01*
X156772983Y-127503090D01*
X156500867Y-127544078D01*
X156241977Y-127637364D01*
X156126020Y-127699344D01*
X156059040Y-127939435D01*
X152775090Y-127939435D01*
X152655535Y-127819880D01*
X152550000Y-127749364D01*
X152550000Y-117456893D01*
X152553797Y-117418340D01*
X152550000Y-117379787D01*
X152550000Y-117379780D01*
X152538641Y-117264454D01*
X152528033Y-117229482D01*
X152493754Y-117116481D01*
X152478262Y-117087497D01*
X152420862Y-116980108D01*
X152371450Y-116919900D01*
X152347345Y-116890528D01*
X152347342Y-116890525D01*
X152322764Y-116860577D01*
X152292816Y-116835999D01*
X144361817Y-108905000D01*
X146830348Y-108905000D01*
X146868867Y-109296088D01*
X146982943Y-109672147D01*
X147168193Y-110018725D01*
X147417497Y-110322503D01*
X147721275Y-110571807D01*
X148067853Y-110757057D01*
X148443912Y-110871133D01*
X148737002Y-110900000D01*
X149952998Y-110900000D01*
X150246088Y-110871133D01*
X150622147Y-110757057D01*
X150968725Y-110571807D01*
X151272503Y-110322503D01*
X151521807Y-110018725D01*
X151707057Y-109672147D01*
X151821133Y-109296088D01*
X151859652Y-108905000D01*
X151821133Y-108513912D01*
X151707057Y-108137853D01*
X151521807Y-107791275D01*
X151272503Y-107487497D01*
X150968725Y-107238193D01*
X150622147Y-107052943D01*
X150246088Y-106938867D01*
X149952998Y-106910000D01*
X148737002Y-106910000D01*
X148443912Y-106938867D01*
X148067853Y-107052943D01*
X147721275Y-107238193D01*
X147417497Y-107487497D01*
X147168193Y-107791275D01*
X146982943Y-108137853D01*
X146868867Y-108513912D01*
X146830348Y-108905000D01*
X144361817Y-108905000D01*
X138792763Y-103335947D01*
X138840104Y-103288606D01*
X138953372Y-103119088D01*
X138983232Y-103047000D01*
X139207517Y-103047000D01*
X139369601Y-103014759D01*
X139752658Y-103397815D01*
X139777236Y-103427764D01*
X139807184Y-103452342D01*
X139807187Y-103452345D01*
X139836559Y-103476450D01*
X139896767Y-103525862D01*
X140033140Y-103598754D01*
X140146672Y-103633194D01*
X140181112Y-103643641D01*
X140195490Y-103645057D01*
X140296439Y-103655000D01*
X140296446Y-103655000D01*
X140334999Y-103658797D01*
X140373552Y-103655000D01*
X147096209Y-103655000D01*
X147134762Y-103658797D01*
X147173315Y-103655000D01*
X147173323Y-103655000D01*
X147288649Y-103643641D01*
X147436622Y-103598754D01*
X147572995Y-103525862D01*
X147692526Y-103427764D01*
X147717109Y-103397810D01*
X148474821Y-102640098D01*
X148504775Y-102615515D01*
X148602873Y-102495984D01*
X148675765Y-102359611D01*
X148681050Y-102342188D01*
X148720653Y-102211638D01*
X148732006Y-102096359D01*
X148732011Y-102096312D01*
X148732011Y-102096307D01*
X148735808Y-102057751D01*
X148732011Y-102019195D01*
X148732011Y-98899061D01*
X148911853Y-99019228D01*
X149218504Y-99146246D01*
X149544042Y-99211000D01*
X149875958Y-99211000D01*
X150201496Y-99146246D01*
X150508147Y-99019228D01*
X150784125Y-98834825D01*
X151018825Y-98600125D01*
X151203228Y-98324147D01*
X151330246Y-98017496D01*
X151395000Y-97691958D01*
X151395000Y-97360042D01*
X151330246Y-97034504D01*
X151203228Y-96727853D01*
X151018825Y-96451875D01*
X150784125Y-96217175D01*
X150508147Y-96032772D01*
X150201496Y-95905754D01*
X149875958Y-95841000D01*
X149544042Y-95841000D01*
X149218504Y-95905754D01*
X148911853Y-96032772D01*
X148732011Y-96152939D01*
X148732011Y-85310030D01*
X148874821Y-85167220D01*
X148904775Y-85142637D01*
X149002873Y-85023106D01*
X149075765Y-84886733D01*
X149115276Y-84756482D01*
X149120652Y-84738761D01*
X149126045Y-84684008D01*
X149132011Y-84623434D01*
X149132011Y-84623427D01*
X149135808Y-84584874D01*
X149132011Y-84546321D01*
X149132011Y-80175000D01*
X149366335Y-80175000D01*
X149519397Y-80144554D01*
X152885000Y-83510158D01*
X152885001Y-89369437D01*
X152881203Y-89408000D01*
X152896359Y-89561886D01*
X152941246Y-89709859D01*
X152941247Y-89709860D01*
X153014139Y-89846233D01*
X153032118Y-89868140D01*
X153087655Y-89935812D01*
X153087659Y-89935816D01*
X153112237Y-89965764D01*
X153142185Y-89990342D01*
X154155000Y-91003158D01*
X154155000Y-94258747D01*
X154035000Y-94246928D01*
X152035000Y-94246928D01*
X151910518Y-94259188D01*
X151790820Y-94295498D01*
X151680506Y-94354463D01*
X151583815Y-94433815D01*
X151504463Y-94530506D01*
X151445498Y-94640820D01*
X151409188Y-94760518D01*
X151396928Y-94885000D01*
X151396928Y-96885000D01*
X151409188Y-97009482D01*
X151445498Y-97129180D01*
X151504463Y-97239494D01*
X151583815Y-97336185D01*
X151680506Y-97415537D01*
X151790820Y-97474502D01*
X151910518Y-97510812D01*
X152035000Y-97523072D01*
X154035000Y-97523072D01*
X154155000Y-97511253D01*
X154155001Y-114261437D01*
X154151203Y-114300000D01*
X154166359Y-114453886D01*
X154211246Y-114601859D01*
X154241696Y-114658827D01*
X154284139Y-114738233D01*
X154302557Y-114760675D01*
X154357655Y-114827812D01*
X154357659Y-114827816D01*
X154382237Y-114857764D01*
X154412185Y-114882342D01*
X155306928Y-115777085D01*
X155306928Y-117105000D01*
X155319188Y-117229482D01*
X155355498Y-117349180D01*
X155414463Y-117459494D01*
X155493815Y-117556185D01*
X155590506Y-117635537D01*
X155700820Y-117694502D01*
X155820518Y-117730812D01*
X155945000Y-117743072D01*
X157745000Y-117743072D01*
X157869482Y-117730812D01*
X157989180Y-117694502D01*
X158099494Y-117635537D01*
X158196185Y-117556185D01*
X158275537Y-117459494D01*
X158334502Y-117349180D01*
X158370812Y-117229482D01*
X158383072Y-117105000D01*
X158383072Y-115305000D01*
X158370812Y-115180518D01*
X158334502Y-115060820D01*
X158275537Y-114950506D01*
X158196185Y-114853815D01*
X158099494Y-114774463D01*
X157999697Y-114721120D01*
X158037312Y-114683505D01*
X158205299Y-114432095D01*
X158321011Y-114152743D01*
X158380000Y-113856184D01*
X158380000Y-113553816D01*
X158321011Y-113257257D01*
X158205299Y-112977905D01*
X158037312Y-112726495D01*
X157823505Y-112512688D01*
X157737169Y-112455000D01*
X157823505Y-112397312D01*
X158037312Y-112183505D01*
X158205299Y-111932095D01*
X158321011Y-111652743D01*
X158380000Y-111356184D01*
X158380000Y-111053816D01*
X158321011Y-110757257D01*
X158205299Y-110477905D01*
X158037312Y-110226495D01*
X157823505Y-110012688D01*
X157572095Y-109844701D01*
X157292743Y-109728989D01*
X156996184Y-109670000D01*
X156693816Y-109670000D01*
X156397257Y-109728989D01*
X156117905Y-109844701D01*
X155866495Y-110012688D01*
X155725000Y-110154183D01*
X155725000Y-97020413D01*
X159679192Y-97020413D01*
X159774956Y-97284814D01*
X160064571Y-97425704D01*
X160376108Y-97507384D01*
X160697595Y-97526718D01*
X161016675Y-97482961D01*
X161321088Y-97377795D01*
X161495044Y-97284814D01*
X161590808Y-97020413D01*
X160635000Y-96064605D01*
X159679192Y-97020413D01*
X155725000Y-97020413D01*
X155725000Y-95947595D01*
X158993282Y-95947595D01*
X159037039Y-96266675D01*
X159142205Y-96571088D01*
X159235186Y-96745044D01*
X159499587Y-96840808D01*
X160455395Y-95885000D01*
X160814605Y-95885000D01*
X161770413Y-96840808D01*
X162034814Y-96745044D01*
X162175704Y-96455429D01*
X162257384Y-96143892D01*
X162276718Y-95822405D01*
X162232961Y-95503325D01*
X162127795Y-95198912D01*
X162034814Y-95024956D01*
X161770413Y-94929192D01*
X160814605Y-95885000D01*
X160455395Y-95885000D01*
X159499587Y-94929192D01*
X159235186Y-95024956D01*
X159094296Y-95314571D01*
X159012616Y-95626108D01*
X158993282Y-95947595D01*
X155725000Y-95947595D01*
X155725000Y-94749587D01*
X159679192Y-94749587D01*
X160635000Y-95705395D01*
X161590808Y-94749587D01*
X161495044Y-94485186D01*
X161205429Y-94344296D01*
X160893892Y-94262616D01*
X160572405Y-94243282D01*
X160253325Y-94287039D01*
X159948912Y-94392205D01*
X159774956Y-94485186D01*
X159679192Y-94749587D01*
X155725000Y-94749587D01*
X155725000Y-90716552D01*
X155728797Y-90677999D01*
X155725000Y-90639446D01*
X155725000Y-90639439D01*
X155713641Y-90524113D01*
X155668754Y-90376140D01*
X155595862Y-90239767D01*
X155497764Y-90120236D01*
X155467817Y-90095659D01*
X155175230Y-89803072D01*
X156475000Y-89803072D01*
X156599482Y-89790812D01*
X156719180Y-89754502D01*
X156829494Y-89695537D01*
X156926185Y-89616185D01*
X157005537Y-89519494D01*
X157064502Y-89409180D01*
X157070056Y-89390873D01*
X157136495Y-89457312D01*
X157387905Y-89625299D01*
X157667257Y-89741011D01*
X157963816Y-89800000D01*
X158266184Y-89800000D01*
X158562743Y-89741011D01*
X158842095Y-89625299D01*
X159093505Y-89457312D01*
X159307312Y-89243505D01*
X159475299Y-88992095D01*
X159591011Y-88712743D01*
X159650000Y-88416184D01*
X159650000Y-88113816D01*
X159591011Y-87817257D01*
X159475299Y-87537905D01*
X159307312Y-87286495D01*
X159093505Y-87072688D01*
X158842095Y-86904701D01*
X158562743Y-86788989D01*
X158266184Y-86730000D01*
X157963816Y-86730000D01*
X157667257Y-86788989D01*
X157387905Y-86904701D01*
X157136495Y-87072688D01*
X157070056Y-87139127D01*
X157064502Y-87120820D01*
X157005537Y-87010506D01*
X156926185Y-86913815D01*
X156829494Y-86834463D01*
X156719180Y-86775498D01*
X156599482Y-86739188D01*
X156475000Y-86726928D01*
X154675000Y-86726928D01*
X154550518Y-86739188D01*
X154455000Y-86768163D01*
X154455000Y-83223552D01*
X154458797Y-83184999D01*
X154455000Y-83146446D01*
X154455000Y-83146439D01*
X154443641Y-83031113D01*
X154439095Y-83016125D01*
X154413577Y-82932006D01*
X154398754Y-82883140D01*
X154325862Y-82746767D01*
X154227764Y-82627236D01*
X154197817Y-82602659D01*
X150629554Y-79034397D01*
X150630428Y-79030000D01*
X154036928Y-79030000D01*
X154036928Y-80830000D01*
X154049188Y-80954482D01*
X154085498Y-81074180D01*
X154144463Y-81184494D01*
X154223815Y-81281185D01*
X154320506Y-81360537D01*
X154430820Y-81419502D01*
X154550518Y-81455812D01*
X154675000Y-81468072D01*
X156475000Y-81468072D01*
X156599482Y-81455812D01*
X156719180Y-81419502D01*
X156829494Y-81360537D01*
X156926185Y-81281185D01*
X157005537Y-81184494D01*
X157064502Y-81074180D01*
X157070056Y-81055873D01*
X157136495Y-81122312D01*
X157387905Y-81290299D01*
X157667257Y-81406011D01*
X157963816Y-81465000D01*
X158266184Y-81465000D01*
X158562743Y-81406011D01*
X158842095Y-81290299D01*
X159093505Y-81122312D01*
X159307312Y-80908505D01*
X159475299Y-80657095D01*
X159591011Y-80377743D01*
X159650000Y-80081184D01*
X159650000Y-79778816D01*
X159591011Y-79482257D01*
X159475299Y-79202905D01*
X159307312Y-78951495D01*
X159093505Y-78737688D01*
X158842095Y-78569701D01*
X158562743Y-78453989D01*
X158266184Y-78395000D01*
X157963816Y-78395000D01*
X157667257Y-78453989D01*
X157387905Y-78569701D01*
X157136495Y-78737688D01*
X157070056Y-78804127D01*
X157064502Y-78785820D01*
X157005537Y-78675506D01*
X156926185Y-78578815D01*
X156829494Y-78499463D01*
X156719180Y-78440498D01*
X156599482Y-78404188D01*
X156475000Y-78391928D01*
X154675000Y-78391928D01*
X154550518Y-78404188D01*
X154430820Y-78440498D01*
X154320506Y-78499463D01*
X154223815Y-78578815D01*
X154144463Y-78675506D01*
X154085498Y-78785820D01*
X154049188Y-78905518D01*
X154036928Y-79030000D01*
X150630428Y-79030000D01*
X150660000Y-78881335D01*
X150660000Y-78598665D01*
X150604853Y-78321426D01*
X150496680Y-78060273D01*
X150339637Y-77825241D01*
X150139759Y-77625363D01*
X149904727Y-77468320D01*
X149643574Y-77360147D01*
X149366335Y-77305000D01*
X149083665Y-77305000D01*
X148806426Y-77360147D01*
X148632001Y-77432396D01*
X148632001Y-74967604D01*
X148806426Y-75039853D01*
X149083665Y-75095000D01*
X149366335Y-75095000D01*
X149643574Y-75039853D01*
X149904727Y-74931680D01*
X150139759Y-74774637D01*
X150339637Y-74574759D01*
X150496680Y-74339727D01*
X150604853Y-74078574D01*
X150660000Y-73801335D01*
X150660000Y-73518665D01*
X150604853Y-73241426D01*
X150496680Y-72980273D01*
X150339637Y-72745241D01*
X150139759Y-72545363D01*
X149904727Y-72388320D01*
X149643574Y-72280147D01*
X149366335Y-72225000D01*
X149083665Y-72225000D01*
X148806426Y-72280147D01*
X148632001Y-72352396D01*
X148632001Y-70855000D01*
X154036928Y-70855000D01*
X154036928Y-72655000D01*
X154049188Y-72779482D01*
X154085498Y-72899180D01*
X154144463Y-73009494D01*
X154223815Y-73106185D01*
X154320506Y-73185537D01*
X154430820Y-73244502D01*
X154550518Y-73280812D01*
X154675000Y-73293072D01*
X156475000Y-73293072D01*
X156599482Y-73280812D01*
X156719180Y-73244502D01*
X156829494Y-73185537D01*
X156926185Y-73106185D01*
X157005537Y-73009494D01*
X157064502Y-72899180D01*
X157070056Y-72880873D01*
X157136495Y-72947312D01*
X157387905Y-73115299D01*
X157667257Y-73231011D01*
X157963816Y-73290000D01*
X158266184Y-73290000D01*
X158562743Y-73231011D01*
X158842095Y-73115299D01*
X159093505Y-72947312D01*
X159307312Y-72733505D01*
X159475299Y-72482095D01*
X159591011Y-72202743D01*
X159650000Y-71906184D01*
X159650000Y-71603816D01*
X159591011Y-71307257D01*
X159475299Y-71027905D01*
X159307312Y-70776495D01*
X159093505Y-70562688D01*
X158842095Y-70394701D01*
X158562743Y-70278989D01*
X158266184Y-70220000D01*
X157963816Y-70220000D01*
X157667257Y-70278989D01*
X157387905Y-70394701D01*
X157136495Y-70562688D01*
X157070056Y-70629127D01*
X157064502Y-70610820D01*
X157005537Y-70500506D01*
X156926185Y-70403815D01*
X156829494Y-70324463D01*
X156719180Y-70265498D01*
X156599482Y-70229188D01*
X156475000Y-70216928D01*
X154675000Y-70216928D01*
X154550518Y-70229188D01*
X154430820Y-70265498D01*
X154320506Y-70324463D01*
X154223815Y-70403815D01*
X154144463Y-70500506D01*
X154085498Y-70610820D01*
X154049188Y-70730518D01*
X154036928Y-70855000D01*
X148632001Y-70855000D01*
X148632001Y-69529551D01*
X148635798Y-69490998D01*
X148632001Y-69452445D01*
X148632001Y-69452438D01*
X148620642Y-69337112D01*
X148575755Y-69189139D01*
X148502863Y-69052766D01*
X148404765Y-68933235D01*
X148374818Y-68908658D01*
X143826202Y-64360042D01*
X148025000Y-64360042D01*
X148025000Y-64691958D01*
X148089754Y-65017496D01*
X148216772Y-65324147D01*
X148401175Y-65600125D01*
X148635875Y-65834825D01*
X148911853Y-66019228D01*
X149218504Y-66146246D01*
X149544042Y-66211000D01*
X149875958Y-66211000D01*
X150201496Y-66146246D01*
X150508147Y-66019228D01*
X150784125Y-65834825D01*
X151018825Y-65600125D01*
X151203228Y-65324147D01*
X151330246Y-65017496D01*
X151395000Y-64691958D01*
X151395000Y-64360042D01*
X151330246Y-64034504D01*
X151203228Y-63727853D01*
X151018825Y-63451875D01*
X150784125Y-63217175D01*
X150508147Y-63032772D01*
X150201496Y-62905754D01*
X149875958Y-62841000D01*
X149544042Y-62841000D01*
X149218504Y-62905754D01*
X148911853Y-63032772D01*
X148635875Y-63217175D01*
X148401175Y-63451875D01*
X148216772Y-63727853D01*
X148089754Y-64034504D01*
X148025000Y-64360042D01*
X143826202Y-64360042D01*
X142066160Y-62600000D01*
X154036928Y-62600000D01*
X154036928Y-64400000D01*
X154049188Y-64524482D01*
X154085498Y-64644180D01*
X154144463Y-64754494D01*
X154223815Y-64851185D01*
X154320506Y-64930537D01*
X154430820Y-64989502D01*
X154550518Y-65025812D01*
X154675000Y-65038072D01*
X156475000Y-65038072D01*
X156599482Y-65025812D01*
X156719180Y-64989502D01*
X156829494Y-64930537D01*
X156926185Y-64851185D01*
X157005537Y-64754494D01*
X157064502Y-64644180D01*
X157070056Y-64625873D01*
X157136495Y-64692312D01*
X157387905Y-64860299D01*
X157667257Y-64976011D01*
X157963816Y-65035000D01*
X158266184Y-65035000D01*
X158562743Y-64976011D01*
X158842095Y-64860299D01*
X159093505Y-64692312D01*
X159307312Y-64478505D01*
X159475299Y-64227095D01*
X159591011Y-63947743D01*
X159650000Y-63651184D01*
X159650000Y-63348816D01*
X159591011Y-63052257D01*
X159475299Y-62772905D01*
X159307312Y-62521495D01*
X159093505Y-62307688D01*
X158842095Y-62139701D01*
X158562743Y-62023989D01*
X158266184Y-61965000D01*
X157963816Y-61965000D01*
X157667257Y-62023989D01*
X157387905Y-62139701D01*
X157136495Y-62307688D01*
X157070056Y-62374127D01*
X157064502Y-62355820D01*
X157005537Y-62245506D01*
X156926185Y-62148815D01*
X156829494Y-62069463D01*
X156719180Y-62010498D01*
X156599482Y-61974188D01*
X156475000Y-61961928D01*
X154675000Y-61961928D01*
X154550518Y-61974188D01*
X154430820Y-62010498D01*
X154320506Y-62069463D01*
X154223815Y-62148815D01*
X154144463Y-62245506D01*
X154085498Y-62355820D01*
X154049188Y-62475518D01*
X154036928Y-62600000D01*
X142066160Y-62600000D01*
X141264338Y-61798179D01*
X141239755Y-61768225D01*
X141120224Y-61670127D01*
X140983851Y-61597235D01*
X140835878Y-61552348D01*
X140720552Y-61540989D01*
X140720544Y-61540989D01*
X140681991Y-61537192D01*
X140643438Y-61540989D01*
X130011067Y-61540989D01*
X129972511Y-61537192D01*
X129933955Y-61540989D01*
X129933950Y-61540989D01*
X129893537Y-61544969D01*
X129818624Y-61552347D01*
X129677933Y-61595026D01*
X129670651Y-61597235D01*
X129534278Y-61670127D01*
X129414747Y-61768225D01*
X129390164Y-61798179D01*
X128609418Y-62578925D01*
X128418760Y-62541000D01*
X128126240Y-62541000D01*
X127839342Y-62598068D01*
X127569089Y-62710010D01*
X127325868Y-62872525D01*
X127119025Y-63079368D01*
X127002500Y-63253760D01*
X126885975Y-63079368D01*
X126679132Y-62872525D01*
X126435911Y-62710010D01*
X126165658Y-62598068D01*
X125878760Y-62541000D01*
X125586240Y-62541000D01*
X125299342Y-62598068D01*
X125029089Y-62710010D01*
X124785868Y-62872525D01*
X124654013Y-63004380D01*
X124632002Y-62931820D01*
X124573037Y-62821506D01*
X124493685Y-62724815D01*
X124396994Y-62645463D01*
X124286680Y-62586498D01*
X124166982Y-62550188D01*
X124042500Y-62537928D01*
X123478250Y-62541000D01*
X123319500Y-62699750D01*
X123319500Y-63899000D01*
X123339500Y-63899000D01*
X123339500Y-64153000D01*
X123319500Y-64153000D01*
X123319500Y-65352250D01*
X123478250Y-65511000D01*
X124042500Y-65514072D01*
X124166982Y-65501812D01*
X124286680Y-65465502D01*
X124396994Y-65406537D01*
X124493685Y-65327185D01*
X124573037Y-65230494D01*
X124632002Y-65120180D01*
X124654013Y-65047620D01*
X124785868Y-65179475D01*
X125029089Y-65341990D01*
X125299342Y-65453932D01*
X125586240Y-65511000D01*
X125878760Y-65511000D01*
X126165658Y-65453932D01*
X126435911Y-65341990D01*
X126679132Y-65179475D01*
X126885975Y-64972632D01*
X127002500Y-64798240D01*
X127119025Y-64972632D01*
X127325868Y-65179475D01*
X127569089Y-65341990D01*
X127839342Y-65453932D01*
X128126240Y-65511000D01*
X128418760Y-65511000D01*
X128705658Y-65453932D01*
X128975911Y-65341990D01*
X129219132Y-65179475D01*
X129425975Y-64972632D01*
X129541250Y-64800111D01*
X129656525Y-64972632D01*
X129863368Y-65179475D01*
X130106589Y-65341990D01*
X130376842Y-65453932D01*
X130663740Y-65511000D01*
X130956260Y-65511000D01*
X131243158Y-65453932D01*
X131513411Y-65341990D01*
X131756632Y-65179475D01*
X131963475Y-64972632D01*
X132081250Y-64796369D01*
X132199025Y-64972632D01*
X132405868Y-65179475D01*
X132567500Y-65287474D01*
X132567500Y-68547390D01*
X132507200Y-68457144D01*
X132202856Y-68152800D01*
X131844985Y-67913678D01*
X131447341Y-67748969D01*
X131025204Y-67665000D01*
X130594796Y-67665000D01*
X130172659Y-67748969D01*
X129775015Y-67913678D01*
X129417144Y-68152800D01*
X129112800Y-68457144D01*
X128873678Y-68815015D01*
X128708969Y-69212659D01*
X128625000Y-69634796D01*
X128625000Y-70065204D01*
X128708969Y-70487341D01*
X128873678Y-70884985D01*
X129112800Y-71242856D01*
X129417144Y-71547200D01*
X129775015Y-71786322D01*
X130172659Y-71951031D01*
X130594796Y-72035000D01*
X131025204Y-72035000D01*
X131447341Y-71951031D01*
X131844985Y-71786322D01*
X132202856Y-71547200D01*
X132507200Y-71242856D01*
X132567500Y-71152610D01*
X132567501Y-78889175D01*
X132563703Y-78927738D01*
X132578859Y-79081624D01*
X132623746Y-79229597D01*
X132651353Y-79281246D01*
X132696639Y-79365971D01*
X132737190Y-79415382D01*
X132770155Y-79455550D01*
X132770159Y-79455554D01*
X132794737Y-79485502D01*
X132824685Y-79510080D01*
X134470000Y-81155396D01*
X134470000Y-82454673D01*
X134407074Y-82428608D01*
X134127517Y-82373000D01*
X133842483Y-82373000D01*
X133562926Y-82428608D01*
X133299589Y-82537686D01*
X133062592Y-82696042D01*
X132861042Y-82897592D01*
X132715000Y-83116160D01*
X132568958Y-82897592D01*
X132367408Y-82696042D01*
X132130411Y-82537686D01*
X131867074Y-82428608D01*
X131587517Y-82373000D01*
X131302483Y-82373000D01*
X131022926Y-82428608D01*
X130759589Y-82537686D01*
X130522592Y-82696042D01*
X130321042Y-82897592D01*
X130175225Y-83115823D01*
X130151464Y-83071371D01*
X129906270Y-82998335D01*
X129084605Y-83820000D01*
X129906270Y-84641665D01*
X130151464Y-84568629D01*
X130173653Y-84521824D01*
X130321042Y-84742408D01*
X130522592Y-84943958D01*
X130759589Y-85102314D01*
X131022926Y-85211392D01*
X131302483Y-85267000D01*
X131427843Y-85267000D01*
X129647185Y-87047658D01*
X129617237Y-87072236D01*
X129592659Y-87102184D01*
X129592655Y-87102188D01*
X129559690Y-87142356D01*
X129519139Y-87191767D01*
X129480177Y-87264660D01*
X129446246Y-87328141D01*
X129401359Y-87476114D01*
X129386203Y-87630000D01*
X129390001Y-87668563D01*
X129390000Y-100229909D01*
X129119642Y-100161929D01*
X128834964Y-100147686D01*
X128552977Y-100189256D01*
X128420000Y-100236701D01*
X128420000Y-90208552D01*
X128423797Y-90169999D01*
X128420000Y-90131446D01*
X128420000Y-90131439D01*
X128408641Y-90016113D01*
X128363754Y-89868140D01*
X128290862Y-89731767D01*
X128192764Y-89612236D01*
X128162816Y-89587658D01*
X123842157Y-85267000D01*
X123967517Y-85267000D01*
X124247074Y-85211392D01*
X124510411Y-85102314D01*
X124747408Y-84943958D01*
X124948958Y-84742408D01*
X125095000Y-84523840D01*
X125241042Y-84742408D01*
X125442592Y-84943958D01*
X125679589Y-85102314D01*
X125942926Y-85211392D01*
X126222483Y-85267000D01*
X126507517Y-85267000D01*
X126787074Y-85211392D01*
X127050411Y-85102314D01*
X127287408Y-84943958D01*
X127410096Y-84821270D01*
X128083335Y-84821270D01*
X128156371Y-85066464D01*
X128413928Y-85188564D01*
X128690358Y-85258071D01*
X128975036Y-85272314D01*
X129257023Y-85230744D01*
X129525482Y-85134961D01*
X129653629Y-85066464D01*
X129726665Y-84821270D01*
X128905000Y-83999605D01*
X128083335Y-84821270D01*
X127410096Y-84821270D01*
X127488958Y-84742408D01*
X127634775Y-84524177D01*
X127658536Y-84568629D01*
X127903730Y-84641665D01*
X128725395Y-83820000D01*
X128711253Y-83805858D01*
X128890858Y-83626253D01*
X128905000Y-83640395D01*
X129726665Y-82818730D01*
X129653629Y-82573536D01*
X129396072Y-82451436D01*
X129119642Y-82381929D01*
X128923064Y-82372094D01*
X129432816Y-81862342D01*
X129462764Y-81837764D01*
X129560862Y-81718233D01*
X129633754Y-81581860D01*
X129678641Y-81433887D01*
X129690000Y-81318561D01*
X129690000Y-81318554D01*
X129693797Y-81280001D01*
X129690000Y-81241448D01*
X129690000Y-76878711D01*
X129708937Y-76859774D01*
X129822205Y-76690256D01*
X129900226Y-76501898D01*
X129940000Y-76301939D01*
X129940000Y-76098061D01*
X129900226Y-75898102D01*
X129822205Y-75709744D01*
X129708937Y-75540226D01*
X129564774Y-75396063D01*
X129395256Y-75282795D01*
X129206898Y-75204774D01*
X129006939Y-75165000D01*
X128803061Y-75165000D01*
X128603102Y-75204774D01*
X128414744Y-75282795D01*
X128245226Y-75396063D01*
X128101063Y-75540226D01*
X127987795Y-75709744D01*
X127909774Y-75898102D01*
X127870000Y-76098061D01*
X127870000Y-76301939D01*
X127909774Y-76501898D01*
X127987795Y-76690256D01*
X128101063Y-76859774D01*
X128120000Y-76878711D01*
X128120001Y-80954841D01*
X126669602Y-82405241D01*
X126507517Y-82373000D01*
X126222483Y-82373000D01*
X125942926Y-82428608D01*
X125679589Y-82537686D01*
X125442592Y-82696042D01*
X125241042Y-82897592D01*
X125095000Y-83116160D01*
X124948958Y-82897592D01*
X124747408Y-82696042D01*
X124510411Y-82537686D01*
X124247074Y-82428608D01*
X123967517Y-82373000D01*
X123682483Y-82373000D01*
X123402926Y-82428608D01*
X123139589Y-82537686D01*
X122902592Y-82696042D01*
X122701042Y-82897592D01*
X122555000Y-83116160D01*
X122408958Y-82897592D01*
X122207408Y-82696042D01*
X121970411Y-82537686D01*
X121707074Y-82428608D01*
X121427517Y-82373000D01*
X121142483Y-82373000D01*
X120862926Y-82428608D01*
X120599589Y-82537686D01*
X120362592Y-82696042D01*
X120161042Y-82897592D01*
X120015000Y-83116160D01*
X119868958Y-82897592D01*
X119667408Y-82696042D01*
X119430411Y-82537686D01*
X119167074Y-82428608D01*
X118887517Y-82373000D01*
X118602483Y-82373000D01*
X118322926Y-82428608D01*
X118260000Y-82454673D01*
X118260000Y-78598665D01*
X121120000Y-78598665D01*
X121120000Y-78881335D01*
X121175147Y-79158574D01*
X121283320Y-79419727D01*
X121440363Y-79654759D01*
X121640241Y-79854637D01*
X121875273Y-80011680D01*
X122136426Y-80119853D01*
X122413665Y-80175000D01*
X122696335Y-80175000D01*
X122973574Y-80119853D01*
X123234727Y-80011680D01*
X123469759Y-79854637D01*
X123591694Y-79732702D01*
X124916903Y-79732702D01*
X124988486Y-79976671D01*
X125243996Y-80097571D01*
X125518184Y-80166300D01*
X125800512Y-80180217D01*
X126080130Y-80138787D01*
X126346292Y-80043603D01*
X126471514Y-79976671D01*
X126543097Y-79732702D01*
X125730000Y-78919605D01*
X124916903Y-79732702D01*
X123591694Y-79732702D01*
X123669637Y-79654759D01*
X123826680Y-79419727D01*
X123934853Y-79158574D01*
X123990000Y-78881335D01*
X123990000Y-78810512D01*
X124289783Y-78810512D01*
X124331213Y-79090130D01*
X124426397Y-79356292D01*
X124493329Y-79481514D01*
X124737298Y-79553097D01*
X125550395Y-78740000D01*
X125909605Y-78740000D01*
X126722702Y-79553097D01*
X126966671Y-79481514D01*
X127087571Y-79226004D01*
X127156300Y-78951816D01*
X127170217Y-78669488D01*
X127128787Y-78389870D01*
X127033603Y-78123708D01*
X126966671Y-77998486D01*
X126722702Y-77926903D01*
X125909605Y-78740000D01*
X125550395Y-78740000D01*
X124737298Y-77926903D01*
X124493329Y-77998486D01*
X124372429Y-78253996D01*
X124303700Y-78528184D01*
X124289783Y-78810512D01*
X123990000Y-78810512D01*
X123990000Y-78598665D01*
X123934853Y-78321426D01*
X123826680Y-78060273D01*
X123669637Y-77825241D01*
X123591694Y-77747298D01*
X124916903Y-77747298D01*
X125730000Y-78560395D01*
X126543097Y-77747298D01*
X126471514Y-77503329D01*
X126216004Y-77382429D01*
X125941816Y-77313700D01*
X125659488Y-77299783D01*
X125379870Y-77341213D01*
X125113708Y-77436397D01*
X124988486Y-77503329D01*
X124916903Y-77747298D01*
X123591694Y-77747298D01*
X123469759Y-77625363D01*
X123234727Y-77468320D01*
X122973574Y-77360147D01*
X122696335Y-77305000D01*
X122413665Y-77305000D01*
X122136426Y-77360147D01*
X121875273Y-77468320D01*
X121640241Y-77625363D01*
X121440363Y-77825241D01*
X121283320Y-78060273D01*
X121175147Y-78321426D01*
X121120000Y-78598665D01*
X118260000Y-78598665D01*
X118260000Y-72555552D01*
X118263797Y-72516999D01*
X118260000Y-72478446D01*
X118260000Y-72478439D01*
X118248641Y-72363113D01*
X118203754Y-72215140D01*
X118130862Y-72078767D01*
X118081450Y-72018559D01*
X118057345Y-71989187D01*
X118057342Y-71989184D01*
X118032764Y-71959236D01*
X118002816Y-71934658D01*
X113485347Y-67417190D01*
X113460764Y-67387236D01*
X113341233Y-67289138D01*
X113204860Y-67216246D01*
X113056887Y-67171359D01*
X112941561Y-67160000D01*
X112941553Y-67160000D01*
X112903000Y-67156203D01*
X112864447Y-67160000D01*
X109465474Y-67160000D01*
X109357475Y-66998368D01*
X109225620Y-66866513D01*
X109298180Y-66844502D01*
X109408494Y-66785537D01*
X109505185Y-66706185D01*
X109584537Y-66609494D01*
X109643502Y-66499180D01*
X109679812Y-66379482D01*
X109692072Y-66255000D01*
X109689000Y-65690750D01*
X109530250Y-65532000D01*
X108331000Y-65532000D01*
X108331000Y-65552000D01*
X108077000Y-65552000D01*
X108077000Y-65532000D01*
X108057000Y-65532000D01*
X108057000Y-65278000D01*
X108077000Y-65278000D01*
X108077000Y-64078750D01*
X108331000Y-64078750D01*
X108331000Y-65278000D01*
X109530250Y-65278000D01*
X109689000Y-65119250D01*
X109692072Y-64555000D01*
X109679812Y-64430518D01*
X109658434Y-64360042D01*
X110225000Y-64360042D01*
X110225000Y-64691958D01*
X110289754Y-65017496D01*
X110416772Y-65324147D01*
X110601175Y-65600125D01*
X110835875Y-65834825D01*
X111111853Y-66019228D01*
X111418504Y-66146246D01*
X111744042Y-66211000D01*
X112075958Y-66211000D01*
X112401496Y-66146246D01*
X112708147Y-66019228D01*
X112984125Y-65834825D01*
X113218825Y-65600125D01*
X113403228Y-65324147D01*
X113530246Y-65017496D01*
X113595000Y-64691958D01*
X113595000Y-64360042D01*
X113530246Y-64034504D01*
X113403228Y-63727853D01*
X113218825Y-63451875D01*
X112984125Y-63217175D01*
X112708147Y-63032772D01*
X112401496Y-62905754D01*
X112075958Y-62841000D01*
X111744042Y-62841000D01*
X111418504Y-62905754D01*
X111111853Y-63032772D01*
X110835875Y-63217175D01*
X110601175Y-63451875D01*
X110416772Y-63727853D01*
X110289754Y-64034504D01*
X110225000Y-64360042D01*
X109658434Y-64360042D01*
X109643502Y-64310820D01*
X109584537Y-64200506D01*
X109505185Y-64103815D01*
X109408494Y-64024463D01*
X109298180Y-63965498D01*
X109178482Y-63929188D01*
X109054000Y-63916928D01*
X108489750Y-63920000D01*
X108331000Y-64078750D01*
X108077000Y-64078750D01*
X107918250Y-63920000D01*
X107354000Y-63916928D01*
X107229518Y-63929188D01*
X107109820Y-63965498D01*
X106999506Y-64024463D01*
X106902815Y-64103815D01*
X106823463Y-64200506D01*
X106764498Y-64310820D01*
X106742487Y-64383380D01*
X106610632Y-64251525D01*
X106367411Y-64089010D01*
X106097158Y-63977068D01*
X105810260Y-63920000D01*
X105517740Y-63920000D01*
X105407966Y-63941836D01*
X106359802Y-62990000D01*
X109182678Y-62990000D01*
X109220000Y-62993676D01*
X109257322Y-62990000D01*
X109257333Y-62990000D01*
X109368986Y-62979003D01*
X109512247Y-62935546D01*
X109644276Y-62864974D01*
X109760001Y-62770001D01*
X109783804Y-62740997D01*
X110801114Y-61723688D01*
X110983665Y-61760000D01*
X111266335Y-61760000D01*
X111543574Y-61704853D01*
X111804727Y-61596680D01*
X112039759Y-61439637D01*
X112239637Y-61239759D01*
X112375000Y-61037173D01*
X112510363Y-61239759D01*
X112710241Y-61439637D01*
X112945273Y-61596680D01*
X113206426Y-61704853D01*
X113322856Y-61728013D01*
X120500001Y-68905158D01*
X120500000Y-72107207D01*
X120463169Y-72122463D01*
X120179002Y-72312337D01*
X119937337Y-72554002D01*
X119747463Y-72838169D01*
X119616675Y-73153919D01*
X119550000Y-73489117D01*
X119550000Y-73830883D01*
X119616675Y-74166081D01*
X119747463Y-74481831D01*
X119937337Y-74765998D01*
X120179002Y-75007663D01*
X120463169Y-75197537D01*
X120778919Y-75328325D01*
X121114117Y-75395000D01*
X121455883Y-75395000D01*
X121791081Y-75328325D01*
X122106831Y-75197537D01*
X122390998Y-75007663D01*
X122632663Y-74765998D01*
X122708364Y-74652702D01*
X124916903Y-74652702D01*
X124988486Y-74896671D01*
X125243996Y-75017571D01*
X125518184Y-75086300D01*
X125800512Y-75100217D01*
X126080130Y-75058787D01*
X126346292Y-74963603D01*
X126471514Y-74896671D01*
X126543097Y-74652702D01*
X125730000Y-73839605D01*
X124916903Y-74652702D01*
X122708364Y-74652702D01*
X122822537Y-74481831D01*
X122953325Y-74166081D01*
X123020000Y-73830883D01*
X123020000Y-73730512D01*
X124289783Y-73730512D01*
X124331213Y-74010130D01*
X124426397Y-74276292D01*
X124493329Y-74401514D01*
X124737298Y-74473097D01*
X125550395Y-73660000D01*
X125909605Y-73660000D01*
X126722702Y-74473097D01*
X126966671Y-74401514D01*
X127087571Y-74146004D01*
X127156300Y-73871816D01*
X127170217Y-73589488D01*
X127128787Y-73309870D01*
X127033603Y-73043708D01*
X126966671Y-72918486D01*
X126722702Y-72846903D01*
X125909605Y-73660000D01*
X125550395Y-73660000D01*
X124737298Y-72846903D01*
X124493329Y-72918486D01*
X124372429Y-73173996D01*
X124303700Y-73448184D01*
X124289783Y-73730512D01*
X123020000Y-73730512D01*
X123020000Y-73489117D01*
X122953325Y-73153919D01*
X122822537Y-72838169D01*
X122708365Y-72667298D01*
X124916903Y-72667298D01*
X125730000Y-73480395D01*
X126543097Y-72667298D01*
X126471514Y-72423329D01*
X126216004Y-72302429D01*
X125941816Y-72233700D01*
X125659488Y-72219783D01*
X125379870Y-72261213D01*
X125113708Y-72356397D01*
X124988486Y-72423329D01*
X124916903Y-72667298D01*
X122708365Y-72667298D01*
X122632663Y-72554002D01*
X122390998Y-72312337D01*
X122106831Y-72122463D01*
X122070000Y-72107207D01*
X122070000Y-68618556D01*
X122073797Y-68580000D01*
X122070000Y-68541444D01*
X122070000Y-68541439D01*
X122063241Y-68472812D01*
X122058642Y-68426113D01*
X122013754Y-68278140D01*
X121940862Y-68141767D01*
X121842764Y-68022236D01*
X121812810Y-67997653D01*
X120517828Y-66702671D01*
X120801496Y-66646246D01*
X121108147Y-66519228D01*
X121384125Y-66334825D01*
X121618825Y-66100125D01*
X121803228Y-65824147D01*
X121930246Y-65517496D01*
X121957326Y-65381358D01*
X121988006Y-65406537D01*
X122098320Y-65465502D01*
X122218018Y-65501812D01*
X122342500Y-65514072D01*
X122906750Y-65511000D01*
X123065500Y-65352250D01*
X123065500Y-64153000D01*
X121866250Y-64153000D01*
X121798489Y-64220761D01*
X121618825Y-63951875D01*
X121384125Y-63717175D01*
X121108147Y-63532772D01*
X120801496Y-63405754D01*
X120475958Y-63341000D01*
X120144042Y-63341000D01*
X119818504Y-63405754D01*
X119511853Y-63532772D01*
X119235875Y-63717175D01*
X119001175Y-63951875D01*
X118816772Y-64227853D01*
X118689754Y-64534504D01*
X118633329Y-64818172D01*
X116991157Y-63176000D01*
X121704428Y-63176000D01*
X121707500Y-63740250D01*
X121866250Y-63899000D01*
X123065500Y-63899000D01*
X123065500Y-62699750D01*
X122906750Y-62541000D01*
X122342500Y-62537928D01*
X122218018Y-62550188D01*
X122098320Y-62586498D01*
X121988006Y-62645463D01*
X121891315Y-62724815D01*
X121811963Y-62821506D01*
X121752998Y-62931820D01*
X121716688Y-63051518D01*
X121704428Y-63176000D01*
X116991157Y-63176000D01*
X114865920Y-61050763D01*
X114896680Y-61004727D01*
X115004853Y-60743574D01*
X115060000Y-60466335D01*
X115060000Y-60183665D01*
X115004853Y-59906426D01*
X114896680Y-59645273D01*
X114739637Y-59410241D01*
X114539759Y-59210363D01*
X114304727Y-59053320D01*
X114043574Y-58945147D01*
X113766335Y-58890000D01*
X113483665Y-58890000D01*
X113206426Y-58945147D01*
X112945273Y-59053320D01*
X112710241Y-59210363D01*
X112510363Y-59410241D01*
X112375000Y-59612827D01*
X112239637Y-59410241D01*
X112039759Y-59210363D01*
X111804727Y-59053320D01*
X111543574Y-58945147D01*
X111266335Y-58890000D01*
X110983665Y-58890000D01*
X110706426Y-58945147D01*
X110445273Y-59053320D01*
X110210241Y-59210363D01*
X110043661Y-59376943D01*
X110014502Y-59280820D01*
X109955537Y-59170506D01*
X109876185Y-59073815D01*
X109779494Y-58994463D01*
X109669180Y-58935498D01*
X109549482Y-58899188D01*
X109425000Y-58886928D01*
X107825000Y-58886928D01*
X107700518Y-58899188D01*
X107580820Y-58935498D01*
X107470506Y-58994463D01*
X107373815Y-59073815D01*
X107294463Y-59170506D01*
X107235498Y-59280820D01*
X107199188Y-59400518D01*
X107186928Y-59525000D01*
X107186928Y-61125000D01*
X107199188Y-61249482D01*
X107235498Y-61369180D01*
X107289388Y-61470000D01*
X106082333Y-61470000D01*
X106045000Y-61466323D01*
X106007667Y-61470000D01*
X105896014Y-61480997D01*
X105752753Y-61524454D01*
X105620724Y-61595026D01*
X105504999Y-61689999D01*
X105481201Y-61718997D01*
X100743271Y-66456928D01*
X98980000Y-66456928D01*
X98855518Y-66469188D01*
X98735820Y-66505498D01*
X98625506Y-66564463D01*
X98528815Y-66643815D01*
X98449463Y-66740506D01*
X98390498Y-66850820D01*
X98354188Y-66970518D01*
X98341928Y-67095000D01*
X97815000Y-67095000D01*
X97815000Y-61416383D01*
X98009837Y-61707977D01*
X98312023Y-62010163D01*
X98667355Y-62247588D01*
X99062179Y-62411130D01*
X99481323Y-62494503D01*
X99908677Y-62494503D01*
X100327821Y-62411130D01*
X100722645Y-62247588D01*
X101077977Y-62010163D01*
X101380163Y-61707977D01*
X101617588Y-61352645D01*
X101781130Y-60957821D01*
X101864503Y-60538677D01*
X101864503Y-60111323D01*
X101781130Y-59692179D01*
X101617588Y-59297355D01*
X101380163Y-58942023D01*
X101077977Y-58639837D01*
X100786383Y-58445000D01*
X160833617Y-58445000D01*
X160542023Y-58639837D01*
G37*
G04 #@! TD.AperFunction*
D30*
X122701042Y-102522408D02*
X122902592Y-102723958D01*
X123139589Y-102882314D01*
X123402926Y-102991392D01*
X123488197Y-103008354D01*
X125147653Y-104667810D01*
X125172236Y-104697764D01*
X125291767Y-104795862D01*
X125397237Y-104852236D01*
X125428140Y-104868754D01*
X125576113Y-104913642D01*
X125651026Y-104921020D01*
X125691439Y-104925000D01*
X125691444Y-104925000D01*
X125730000Y-104928797D01*
X125768556Y-104925000D01*
X127210289Y-104925000D01*
X127229226Y-104943937D01*
X127398744Y-105057205D01*
X127587102Y-105135226D01*
X127787061Y-105175000D01*
X127990939Y-105175000D01*
X128190898Y-105135226D01*
X128379256Y-105057205D01*
X128548774Y-104943937D01*
X128692937Y-104799774D01*
X128806205Y-104630256D01*
X128884226Y-104441898D01*
X128924000Y-104241939D01*
X128924000Y-104038061D01*
X128884226Y-103838102D01*
X128808382Y-103655000D01*
X129011845Y-103655000D01*
X131400208Y-106043363D01*
X131165241Y-106200363D01*
X130965363Y-106400241D01*
X130808320Y-106635273D01*
X130700147Y-106896426D01*
X130645000Y-107173665D01*
X130645000Y-107456335D01*
X130675446Y-107609396D01*
X130604842Y-107680001D01*
X130470509Y-107680001D01*
X130515000Y-107456335D01*
X130515000Y-107173665D01*
X130459853Y-106896426D01*
X130351680Y-106635273D01*
X130194637Y-106400241D01*
X129994759Y-106200363D01*
X129759727Y-106043320D01*
X129498574Y-105935147D01*
X129221335Y-105880000D01*
X128938665Y-105880000D01*
X128661426Y-105935147D01*
X128400273Y-106043320D01*
X128165241Y-106200363D01*
X127965363Y-106400241D01*
X127878661Y-106530000D01*
X122245157Y-106530000D01*
X118762157Y-103047000D01*
X118887517Y-103047000D01*
X119167074Y-102991392D01*
X119430411Y-102882314D01*
X119667408Y-102723958D01*
X119868958Y-102522408D01*
X120015000Y-102303840D01*
X120161042Y-102522408D01*
X120362592Y-102723958D01*
X120599589Y-102882314D01*
X120862926Y-102991392D01*
X121142483Y-103047000D01*
X121427517Y-103047000D01*
X121707074Y-102991392D01*
X121970411Y-102882314D01*
X122207408Y-102723958D01*
X122408958Y-102522408D01*
X122555000Y-102303840D01*
X122701042Y-102522408D01*
G04 #@! TA.AperFunction,Conductor*
D31*
G36*
X122701042Y-102522408D02*
G01*
X122902592Y-102723958D01*
X123139589Y-102882314D01*
X123402926Y-102991392D01*
X123488197Y-103008354D01*
X125147653Y-104667810D01*
X125172236Y-104697764D01*
X125291767Y-104795862D01*
X125397237Y-104852236D01*
X125428140Y-104868754D01*
X125576113Y-104913642D01*
X125651026Y-104921020D01*
X125691439Y-104925000D01*
X125691444Y-104925000D01*
X125730000Y-104928797D01*
X125768556Y-104925000D01*
X127210289Y-104925000D01*
X127229226Y-104943937D01*
X127398744Y-105057205D01*
X127587102Y-105135226D01*
X127787061Y-105175000D01*
X127990939Y-105175000D01*
X128190898Y-105135226D01*
X128379256Y-105057205D01*
X128548774Y-104943937D01*
X128692937Y-104799774D01*
X128806205Y-104630256D01*
X128884226Y-104441898D01*
X128924000Y-104241939D01*
X128924000Y-104038061D01*
X128884226Y-103838102D01*
X128808382Y-103655000D01*
X129011845Y-103655000D01*
X131400208Y-106043363D01*
X131165241Y-106200363D01*
X130965363Y-106400241D01*
X130808320Y-106635273D01*
X130700147Y-106896426D01*
X130645000Y-107173665D01*
X130645000Y-107456335D01*
X130675446Y-107609396D01*
X130604842Y-107680001D01*
X130470509Y-107680001D01*
X130515000Y-107456335D01*
X130515000Y-107173665D01*
X130459853Y-106896426D01*
X130351680Y-106635273D01*
X130194637Y-106400241D01*
X129994759Y-106200363D01*
X129759727Y-106043320D01*
X129498574Y-105935147D01*
X129221335Y-105880000D01*
X128938665Y-105880000D01*
X128661426Y-105935147D01*
X128400273Y-106043320D01*
X128165241Y-106200363D01*
X127965363Y-106400241D01*
X127878661Y-106530000D01*
X122245157Y-106530000D01*
X118762157Y-103047000D01*
X118887517Y-103047000D01*
X119167074Y-102991392D01*
X119430411Y-102882314D01*
X119667408Y-102723958D01*
X119868958Y-102522408D01*
X120015000Y-102303840D01*
X120161042Y-102522408D01*
X120362592Y-102723958D01*
X120599589Y-102882314D01*
X120862926Y-102991392D01*
X121142483Y-103047000D01*
X121427517Y-103047000D01*
X121707074Y-102991392D01*
X121970411Y-102882314D01*
X122207408Y-102723958D01*
X122408958Y-102522408D01*
X122555000Y-102303840D01*
X122701042Y-102522408D01*
G37*
G04 #@! TD.AperFunction*
D30*
X137279025Y-64972632D02*
X137485868Y-65179475D01*
X137729089Y-65341990D01*
X137999342Y-65453932D01*
X138286240Y-65511000D01*
X138534000Y-65511000D01*
X138534001Y-72173435D01*
X138530203Y-72211998D01*
X138541168Y-72323332D01*
X138448708Y-72356397D01*
X138323486Y-72423329D01*
X138251903Y-72667298D01*
X139065000Y-73480395D01*
X139079143Y-73466253D01*
X139258748Y-73645858D01*
X139244605Y-73660000D01*
X140057702Y-74473097D01*
X140301671Y-74401514D01*
X140332726Y-74335882D01*
X146027000Y-80030156D01*
X146027001Y-81648079D01*
X145014435Y-82660646D01*
X144830411Y-82537686D01*
X144567074Y-82428608D01*
X144287517Y-82373000D01*
X144002483Y-82373000D01*
X143722926Y-82428608D01*
X143459589Y-82537686D01*
X143222592Y-82696042D01*
X143021042Y-82897592D01*
X142875225Y-83115823D01*
X142851464Y-83071371D01*
X142606270Y-82998335D01*
X141784605Y-83820000D01*
X142606270Y-84641665D01*
X142851464Y-84568629D01*
X142873653Y-84521824D01*
X143021042Y-84742408D01*
X143222592Y-84943958D01*
X143459589Y-85102314D01*
X143722926Y-85211392D01*
X144002483Y-85267000D01*
X144287517Y-85267000D01*
X144567074Y-85211392D01*
X144830411Y-85102314D01*
X145014435Y-84979354D01*
X146154000Y-86118920D01*
X146154001Y-98480842D01*
X144449602Y-100185241D01*
X144287517Y-100153000D01*
X144002483Y-100153000D01*
X143722926Y-100208608D01*
X143459589Y-100317686D01*
X143222592Y-100476042D01*
X143021042Y-100677592D01*
X142875225Y-100895823D01*
X142851464Y-100851371D01*
X142606270Y-100778335D01*
X141784605Y-101600000D01*
X141798748Y-101614143D01*
X141619143Y-101793748D01*
X141605000Y-101779605D01*
X141590858Y-101793748D01*
X141411253Y-101614143D01*
X141425395Y-101600000D01*
X140603730Y-100778335D01*
X140358536Y-100851371D01*
X140336347Y-100898176D01*
X140188958Y-100677592D01*
X140110096Y-100598730D01*
X140783335Y-100598730D01*
X141605000Y-101420395D01*
X142426665Y-100598730D01*
X142353629Y-100353536D01*
X142096072Y-100231436D01*
X141819642Y-100161929D01*
X141534964Y-100147686D01*
X141252977Y-100189256D01*
X140984518Y-100285039D01*
X140856371Y-100353536D01*
X140783335Y-100598730D01*
X140110096Y-100598730D01*
X139987408Y-100476042D01*
X139750411Y-100317686D01*
X139487074Y-100208608D01*
X139207517Y-100153000D01*
X138922483Y-100153000D01*
X138642926Y-100208608D01*
X138379589Y-100317686D01*
X138326000Y-100353493D01*
X138326000Y-87388919D01*
X139696358Y-86018561D01*
X139689754Y-86034504D01*
X139625000Y-86360042D01*
X139625000Y-86691958D01*
X139689754Y-87017496D01*
X139816772Y-87324147D01*
X140001175Y-87600125D01*
X140235875Y-87834825D01*
X140511853Y-88019228D01*
X140818504Y-88146246D01*
X141144042Y-88211000D01*
X141475958Y-88211000D01*
X141801496Y-88146246D01*
X142108147Y-88019228D01*
X142384125Y-87834825D01*
X142618825Y-87600125D01*
X142803228Y-87324147D01*
X142930246Y-87017496D01*
X142995000Y-86691958D01*
X142995000Y-86360042D01*
X142930246Y-86034504D01*
X142803228Y-85727853D01*
X142618825Y-85451875D01*
X142384125Y-85217175D01*
X142245261Y-85124389D01*
X142353629Y-85066464D01*
X142426665Y-84821270D01*
X141605000Y-83999605D01*
X141590858Y-84013748D01*
X141411253Y-83834143D01*
X141425395Y-83820000D01*
X141411253Y-83805858D01*
X141590858Y-83626253D01*
X141605000Y-83640395D01*
X142426665Y-82818730D01*
X142353629Y-82573536D01*
X142096072Y-82451436D01*
X141819642Y-82381929D01*
X141534964Y-82367686D01*
X141252977Y-82409256D01*
X141120000Y-82456701D01*
X141120000Y-80048552D01*
X141123797Y-80009999D01*
X141120000Y-79971446D01*
X141120000Y-79971439D01*
X141108641Y-79856113D01*
X141108194Y-79854637D01*
X141098194Y-79821672D01*
X141063754Y-79708140D01*
X140990862Y-79571767D01*
X140932589Y-79500762D01*
X140917345Y-79482187D01*
X140917342Y-79482184D01*
X140892764Y-79452236D01*
X140862817Y-79427659D01*
X140469554Y-79034396D01*
X140500000Y-78881335D01*
X140500000Y-78598665D01*
X140444853Y-78321426D01*
X140336680Y-78060273D01*
X140179637Y-77825241D01*
X139979759Y-77625363D01*
X139744727Y-77468320D01*
X139483574Y-77360147D01*
X139206335Y-77305000D01*
X138923665Y-77305000D01*
X138646426Y-77360147D01*
X138385273Y-77468320D01*
X138150241Y-77625363D01*
X137950363Y-77825241D01*
X137885090Y-77922930D01*
X135405000Y-75442841D01*
X135405000Y-75012338D01*
X135471426Y-75039853D01*
X135748665Y-75095000D01*
X136031335Y-75095000D01*
X136308574Y-75039853D01*
X136569727Y-74931680D01*
X136804759Y-74774637D01*
X136926694Y-74652702D01*
X138251903Y-74652702D01*
X138323486Y-74896671D01*
X138578996Y-75017571D01*
X138853184Y-75086300D01*
X139135512Y-75100217D01*
X139415130Y-75058787D01*
X139681292Y-74963603D01*
X139806514Y-74896671D01*
X139878097Y-74652702D01*
X139065000Y-73839605D01*
X138251903Y-74652702D01*
X136926694Y-74652702D01*
X137004637Y-74574759D01*
X137161680Y-74339727D01*
X137269853Y-74078574D01*
X137325000Y-73801335D01*
X137325000Y-73730512D01*
X137624783Y-73730512D01*
X137666213Y-74010130D01*
X137761397Y-74276292D01*
X137828329Y-74401514D01*
X138072298Y-74473097D01*
X138885395Y-73660000D01*
X138072298Y-72846903D01*
X137828329Y-72918486D01*
X137707429Y-73173996D01*
X137638700Y-73448184D01*
X137624783Y-73730512D01*
X137325000Y-73730512D01*
X137325000Y-73518665D01*
X137269853Y-73241426D01*
X137161680Y-72980273D01*
X137004637Y-72745241D01*
X136804759Y-72545363D01*
X136569727Y-72388320D01*
X136308574Y-72280147D01*
X136031335Y-72225000D01*
X135748665Y-72225000D01*
X135471426Y-72280147D01*
X135405000Y-72307662D01*
X135405000Y-65431423D01*
X135459342Y-65453932D01*
X135746240Y-65511000D01*
X136038760Y-65511000D01*
X136325658Y-65453932D01*
X136595911Y-65341990D01*
X136839132Y-65179475D01*
X137045975Y-64972632D01*
X137162500Y-64798240D01*
X137279025Y-64972632D01*
G04 #@! TA.AperFunction,Conductor*
D31*
G36*
X137279025Y-64972632D02*
G01*
X137485868Y-65179475D01*
X137729089Y-65341990D01*
X137999342Y-65453932D01*
X138286240Y-65511000D01*
X138534000Y-65511000D01*
X138534001Y-72173435D01*
X138530203Y-72211998D01*
X138541168Y-72323332D01*
X138448708Y-72356397D01*
X138323486Y-72423329D01*
X138251903Y-72667298D01*
X139065000Y-73480395D01*
X139079143Y-73466253D01*
X139258748Y-73645858D01*
X139244605Y-73660000D01*
X140057702Y-74473097D01*
X140301671Y-74401514D01*
X140332726Y-74335882D01*
X146027000Y-80030156D01*
X146027001Y-81648079D01*
X145014435Y-82660646D01*
X144830411Y-82537686D01*
X144567074Y-82428608D01*
X144287517Y-82373000D01*
X144002483Y-82373000D01*
X143722926Y-82428608D01*
X143459589Y-82537686D01*
X143222592Y-82696042D01*
X143021042Y-82897592D01*
X142875225Y-83115823D01*
X142851464Y-83071371D01*
X142606270Y-82998335D01*
X141784605Y-83820000D01*
X142606270Y-84641665D01*
X142851464Y-84568629D01*
X142873653Y-84521824D01*
X143021042Y-84742408D01*
X143222592Y-84943958D01*
X143459589Y-85102314D01*
X143722926Y-85211392D01*
X144002483Y-85267000D01*
X144287517Y-85267000D01*
X144567074Y-85211392D01*
X144830411Y-85102314D01*
X145014435Y-84979354D01*
X146154000Y-86118920D01*
X146154001Y-98480842D01*
X144449602Y-100185241D01*
X144287517Y-100153000D01*
X144002483Y-100153000D01*
X143722926Y-100208608D01*
X143459589Y-100317686D01*
X143222592Y-100476042D01*
X143021042Y-100677592D01*
X142875225Y-100895823D01*
X142851464Y-100851371D01*
X142606270Y-100778335D01*
X141784605Y-101600000D01*
X141798748Y-101614143D01*
X141619143Y-101793748D01*
X141605000Y-101779605D01*
X141590858Y-101793748D01*
X141411253Y-101614143D01*
X141425395Y-101600000D01*
X140603730Y-100778335D01*
X140358536Y-100851371D01*
X140336347Y-100898176D01*
X140188958Y-100677592D01*
X140110096Y-100598730D01*
X140783335Y-100598730D01*
X141605000Y-101420395D01*
X142426665Y-100598730D01*
X142353629Y-100353536D01*
X142096072Y-100231436D01*
X141819642Y-100161929D01*
X141534964Y-100147686D01*
X141252977Y-100189256D01*
X140984518Y-100285039D01*
X140856371Y-100353536D01*
X140783335Y-100598730D01*
X140110096Y-100598730D01*
X139987408Y-100476042D01*
X139750411Y-100317686D01*
X139487074Y-100208608D01*
X139207517Y-100153000D01*
X138922483Y-100153000D01*
X138642926Y-100208608D01*
X138379589Y-100317686D01*
X138326000Y-100353493D01*
X138326000Y-87388919D01*
X139696358Y-86018561D01*
X139689754Y-86034504D01*
X139625000Y-86360042D01*
X139625000Y-86691958D01*
X139689754Y-87017496D01*
X139816772Y-87324147D01*
X140001175Y-87600125D01*
X140235875Y-87834825D01*
X140511853Y-88019228D01*
X140818504Y-88146246D01*
X141144042Y-88211000D01*
X141475958Y-88211000D01*
X141801496Y-88146246D01*
X142108147Y-88019228D01*
X142384125Y-87834825D01*
X142618825Y-87600125D01*
X142803228Y-87324147D01*
X142930246Y-87017496D01*
X142995000Y-86691958D01*
X142995000Y-86360042D01*
X142930246Y-86034504D01*
X142803228Y-85727853D01*
X142618825Y-85451875D01*
X142384125Y-85217175D01*
X142245261Y-85124389D01*
X142353629Y-85066464D01*
X142426665Y-84821270D01*
X141605000Y-83999605D01*
X141590858Y-84013748D01*
X141411253Y-83834143D01*
X141425395Y-83820000D01*
X141411253Y-83805858D01*
X141590858Y-83626253D01*
X141605000Y-83640395D01*
X142426665Y-82818730D01*
X142353629Y-82573536D01*
X142096072Y-82451436D01*
X141819642Y-82381929D01*
X141534964Y-82367686D01*
X141252977Y-82409256D01*
X141120000Y-82456701D01*
X141120000Y-80048552D01*
X141123797Y-80009999D01*
X141120000Y-79971446D01*
X141120000Y-79971439D01*
X141108641Y-79856113D01*
X141108194Y-79854637D01*
X141098194Y-79821672D01*
X141063754Y-79708140D01*
X140990862Y-79571767D01*
X140932589Y-79500762D01*
X140917345Y-79482187D01*
X140917342Y-79482184D01*
X140892764Y-79452236D01*
X140862817Y-79427659D01*
X140469554Y-79034396D01*
X140500000Y-78881335D01*
X140500000Y-78598665D01*
X140444853Y-78321426D01*
X140336680Y-78060273D01*
X140179637Y-77825241D01*
X139979759Y-77625363D01*
X139744727Y-77468320D01*
X139483574Y-77360147D01*
X139206335Y-77305000D01*
X138923665Y-77305000D01*
X138646426Y-77360147D01*
X138385273Y-77468320D01*
X138150241Y-77625363D01*
X137950363Y-77825241D01*
X137885090Y-77922930D01*
X135405000Y-75442841D01*
X135405000Y-75012338D01*
X135471426Y-75039853D01*
X135748665Y-75095000D01*
X136031335Y-75095000D01*
X136308574Y-75039853D01*
X136569727Y-74931680D01*
X136804759Y-74774637D01*
X136926694Y-74652702D01*
X138251903Y-74652702D01*
X138323486Y-74896671D01*
X138578996Y-75017571D01*
X138853184Y-75086300D01*
X139135512Y-75100217D01*
X139415130Y-75058787D01*
X139681292Y-74963603D01*
X139806514Y-74896671D01*
X139878097Y-74652702D01*
X139065000Y-73839605D01*
X138251903Y-74652702D01*
X136926694Y-74652702D01*
X137004637Y-74574759D01*
X137161680Y-74339727D01*
X137269853Y-74078574D01*
X137325000Y-73801335D01*
X137325000Y-73730512D01*
X137624783Y-73730512D01*
X137666213Y-74010130D01*
X137761397Y-74276292D01*
X137828329Y-74401514D01*
X138072298Y-74473097D01*
X138885395Y-73660000D01*
X138072298Y-72846903D01*
X137828329Y-72918486D01*
X137707429Y-73173996D01*
X137638700Y-73448184D01*
X137624783Y-73730512D01*
X137325000Y-73730512D01*
X137325000Y-73518665D01*
X137269853Y-73241426D01*
X137161680Y-72980273D01*
X137004637Y-72745241D01*
X136804759Y-72545363D01*
X136569727Y-72388320D01*
X136308574Y-72280147D01*
X136031335Y-72225000D01*
X135748665Y-72225000D01*
X135471426Y-72280147D01*
X135405000Y-72307662D01*
X135405000Y-65431423D01*
X135459342Y-65453932D01*
X135746240Y-65511000D01*
X136038760Y-65511000D01*
X136325658Y-65453932D01*
X136595911Y-65341990D01*
X136839132Y-65179475D01*
X137045975Y-64972632D01*
X137162500Y-64798240D01*
X137279025Y-64972632D01*
G37*
G04 #@! TD.AperFunction*
D30*
X129098748Y-101585858D02*
X129084605Y-101600000D01*
X129098748Y-101614143D01*
X128919143Y-101793748D01*
X128905000Y-101779605D01*
X128890858Y-101793748D01*
X128711253Y-101614143D01*
X128725395Y-101600000D01*
X128711253Y-101585858D01*
X128890858Y-101406253D01*
X128905000Y-101420395D01*
X128919143Y-101406253D01*
X129098748Y-101585858D01*
G04 #@! TA.AperFunction,Conductor*
D31*
G36*
X129098748Y-101585858D02*
G01*
X129084605Y-101600000D01*
X129098748Y-101614143D01*
X128919143Y-101793748D01*
X128905000Y-101779605D01*
X128890858Y-101793748D01*
X128711253Y-101614143D01*
X128725395Y-101600000D01*
X128711253Y-101585858D01*
X128890858Y-101406253D01*
X128905000Y-101420395D01*
X128919143Y-101406253D01*
X129098748Y-101585858D01*
G37*
G04 #@! TD.AperFunction*
D30*
X119235875Y-85217175D02*
X119001175Y-85451875D01*
X118816772Y-85727853D01*
X118689754Y-86034504D01*
X118625000Y-86360042D01*
X118625000Y-86691958D01*
X118689754Y-87017496D01*
X118816772Y-87324147D01*
X119001175Y-87600125D01*
X119235875Y-87834825D01*
X119511853Y-88019228D01*
X119818504Y-88146246D01*
X120144042Y-88211000D01*
X120475958Y-88211000D01*
X120801496Y-88146246D01*
X121108147Y-88019228D01*
X121384125Y-87834825D01*
X121618825Y-87600125D01*
X121803228Y-87324147D01*
X121930246Y-87017496D01*
X121995000Y-86691958D01*
X121995000Y-86360042D01*
X121930246Y-86034504D01*
X121803228Y-85727853D01*
X121618825Y-85451875D01*
X121432883Y-85265933D01*
X121589602Y-85234759D01*
X126850001Y-90495159D01*
X126850000Y-100234673D01*
X126787074Y-100208608D01*
X126507517Y-100153000D01*
X126222483Y-100153000D01*
X125942926Y-100208608D01*
X125679589Y-100317686D01*
X125442592Y-100476042D01*
X125241042Y-100677592D01*
X125095000Y-100896160D01*
X124948958Y-100677592D01*
X124747408Y-100476042D01*
X124510411Y-100317686D01*
X124247074Y-100208608D01*
X123967517Y-100153000D01*
X123682483Y-100153000D01*
X123402926Y-100208608D01*
X123139589Y-100317686D01*
X122902592Y-100476042D01*
X122701042Y-100677592D01*
X122555000Y-100896160D01*
X122408958Y-100677592D01*
X122207408Y-100476042D01*
X121970411Y-100317686D01*
X121707074Y-100208608D01*
X121427517Y-100153000D01*
X121142483Y-100153000D01*
X120980398Y-100185241D01*
X118260000Y-97464843D01*
X118260000Y-85185327D01*
X118322926Y-85211392D01*
X118602483Y-85267000D01*
X118887517Y-85267000D01*
X119167074Y-85211392D01*
X119370859Y-85126981D01*
X119235875Y-85217175D01*
G04 #@! TA.AperFunction,Conductor*
D31*
G36*
X119235875Y-85217175D02*
G01*
X119001175Y-85451875D01*
X118816772Y-85727853D01*
X118689754Y-86034504D01*
X118625000Y-86360042D01*
X118625000Y-86691958D01*
X118689754Y-87017496D01*
X118816772Y-87324147D01*
X119001175Y-87600125D01*
X119235875Y-87834825D01*
X119511853Y-88019228D01*
X119818504Y-88146246D01*
X120144042Y-88211000D01*
X120475958Y-88211000D01*
X120801496Y-88146246D01*
X121108147Y-88019228D01*
X121384125Y-87834825D01*
X121618825Y-87600125D01*
X121803228Y-87324147D01*
X121930246Y-87017496D01*
X121995000Y-86691958D01*
X121995000Y-86360042D01*
X121930246Y-86034504D01*
X121803228Y-85727853D01*
X121618825Y-85451875D01*
X121432883Y-85265933D01*
X121589602Y-85234759D01*
X126850001Y-90495159D01*
X126850000Y-100234673D01*
X126787074Y-100208608D01*
X126507517Y-100153000D01*
X126222483Y-100153000D01*
X125942926Y-100208608D01*
X125679589Y-100317686D01*
X125442592Y-100476042D01*
X125241042Y-100677592D01*
X125095000Y-100896160D01*
X124948958Y-100677592D01*
X124747408Y-100476042D01*
X124510411Y-100317686D01*
X124247074Y-100208608D01*
X123967517Y-100153000D01*
X123682483Y-100153000D01*
X123402926Y-100208608D01*
X123139589Y-100317686D01*
X122902592Y-100476042D01*
X122701042Y-100677592D01*
X122555000Y-100896160D01*
X122408958Y-100677592D01*
X122207408Y-100476042D01*
X121970411Y-100317686D01*
X121707074Y-100208608D01*
X121427517Y-100153000D01*
X121142483Y-100153000D01*
X120980398Y-100185241D01*
X118260000Y-97464843D01*
X118260000Y-85185327D01*
X118322926Y-85211392D01*
X118602483Y-85267000D01*
X118887517Y-85267000D01*
X119167074Y-85211392D01*
X119370859Y-85126981D01*
X119235875Y-85217175D01*
G37*
G04 #@! TD.AperFunction*
D30*
X135613000Y-85737920D02*
X135613001Y-98861841D01*
X134289602Y-100185241D01*
X134127517Y-100153000D01*
X133842483Y-100153000D01*
X133562926Y-100208608D01*
X133299589Y-100317686D01*
X133062592Y-100476042D01*
X132861042Y-100677592D01*
X132715000Y-100896160D01*
X132568958Y-100677592D01*
X132367408Y-100476042D01*
X132130411Y-100317686D01*
X131867074Y-100208608D01*
X131587517Y-100153000D01*
X131302483Y-100153000D01*
X131022926Y-100208608D01*
X130960000Y-100234673D01*
X130960000Y-87955157D01*
X133680398Y-85234759D01*
X133842483Y-85267000D01*
X134127517Y-85267000D01*
X134407074Y-85211392D01*
X134670411Y-85102314D01*
X134854435Y-84979354D01*
X135613000Y-85737920D01*
G04 #@! TA.AperFunction,Conductor*
D31*
G36*
X135613000Y-85737920D02*
G01*
X135613001Y-98861841D01*
X134289602Y-100185241D01*
X134127517Y-100153000D01*
X133842483Y-100153000D01*
X133562926Y-100208608D01*
X133299589Y-100317686D01*
X133062592Y-100476042D01*
X132861042Y-100677592D01*
X132715000Y-100896160D01*
X132568958Y-100677592D01*
X132367408Y-100476042D01*
X132130411Y-100317686D01*
X131867074Y-100208608D01*
X131587517Y-100153000D01*
X131302483Y-100153000D01*
X131022926Y-100208608D01*
X130960000Y-100234673D01*
X130960000Y-87955157D01*
X133680398Y-85234759D01*
X133842483Y-85267000D01*
X134127517Y-85267000D01*
X134407074Y-85211392D01*
X134670411Y-85102314D01*
X134854435Y-84979354D01*
X135613000Y-85737920D01*
G37*
G04 #@! TD.AperFunction*
D30*
X116690001Y-72842159D02*
X116690001Y-82449909D01*
X116419642Y-82381929D01*
X116134964Y-82367686D01*
X115852977Y-82409256D01*
X115584518Y-82505039D01*
X115456371Y-82573536D01*
X115383335Y-82818730D01*
X116205000Y-83640395D01*
X116219143Y-83626253D01*
X116398748Y-83805858D01*
X116384605Y-83820000D01*
X116398748Y-83834143D01*
X116219143Y-84013748D01*
X116205000Y-83999605D01*
X115383335Y-84821270D01*
X115456371Y-85066464D01*
X115713928Y-85188564D01*
X115990358Y-85258071D01*
X116275036Y-85272314D01*
X116557023Y-85230744D01*
X116690000Y-85183299D01*
X116690000Y-97751447D01*
X116686203Y-97790000D01*
X116690000Y-97828553D01*
X116690000Y-97828560D01*
X116701359Y-97943886D01*
X116746246Y-98091859D01*
X116819138Y-98228232D01*
X116917236Y-98347764D01*
X116947190Y-98372347D01*
X118727843Y-100153000D01*
X118602483Y-100153000D01*
X118322926Y-100208608D01*
X118059589Y-100317686D01*
X117822592Y-100476042D01*
X117621042Y-100677592D01*
X117475000Y-100896160D01*
X117328958Y-100677592D01*
X117127408Y-100476042D01*
X116890411Y-100317686D01*
X116627074Y-100208608D01*
X116347517Y-100153000D01*
X116062483Y-100153000D01*
X115782926Y-100208608D01*
X115519589Y-100317686D01*
X115282592Y-100476042D01*
X115081042Y-100677592D01*
X114935000Y-100896160D01*
X114788958Y-100677592D01*
X114587408Y-100476042D01*
X114350411Y-100317686D01*
X114087074Y-100208608D01*
X113807517Y-100153000D01*
X113522483Y-100153000D01*
X113242926Y-100208608D01*
X112979589Y-100317686D01*
X112742592Y-100476042D01*
X112541042Y-100677592D01*
X112395000Y-100896160D01*
X112248958Y-100677592D01*
X112047408Y-100476042D01*
X111810411Y-100317686D01*
X111547074Y-100208608D01*
X111267517Y-100153000D01*
X110982483Y-100153000D01*
X110702926Y-100208608D01*
X110439589Y-100317686D01*
X110202592Y-100476042D01*
X110001042Y-100677592D01*
X109855000Y-100896160D01*
X109708958Y-100677592D01*
X109507408Y-100476042D01*
X109270411Y-100317686D01*
X109007074Y-100208608D01*
X108727517Y-100153000D01*
X108442483Y-100153000D01*
X108280398Y-100185241D01*
X105560000Y-97464843D01*
X105560000Y-97360042D01*
X110225000Y-97360042D01*
X110225000Y-97691958D01*
X110289754Y-98017496D01*
X110416772Y-98324147D01*
X110601175Y-98600125D01*
X110835875Y-98834825D01*
X111111853Y-99019228D01*
X111418504Y-99146246D01*
X111744042Y-99211000D01*
X112075958Y-99211000D01*
X112401496Y-99146246D01*
X112708147Y-99019228D01*
X112984125Y-98834825D01*
X113218825Y-98600125D01*
X113403228Y-98324147D01*
X113530246Y-98017496D01*
X113595000Y-97691958D01*
X113595000Y-97360042D01*
X113530246Y-97034504D01*
X113403228Y-96727853D01*
X113218825Y-96451875D01*
X112984125Y-96217175D01*
X112708147Y-96032772D01*
X112401496Y-95905754D01*
X112075958Y-95841000D01*
X111744042Y-95841000D01*
X111418504Y-95905754D01*
X111111853Y-96032772D01*
X110835875Y-96217175D01*
X110601175Y-96451875D01*
X110416772Y-96727853D01*
X110289754Y-97034504D01*
X110225000Y-97360042D01*
X105560000Y-97360042D01*
X105560000Y-85185327D01*
X105622926Y-85211392D01*
X105902483Y-85267000D01*
X106187517Y-85267000D01*
X106467074Y-85211392D01*
X106730411Y-85102314D01*
X106967408Y-84943958D01*
X107168958Y-84742408D01*
X107315000Y-84523840D01*
X107461042Y-84742408D01*
X107662592Y-84943958D01*
X107899589Y-85102314D01*
X108162926Y-85211392D01*
X108442483Y-85267000D01*
X108727517Y-85267000D01*
X109007074Y-85211392D01*
X109270411Y-85102314D01*
X109507408Y-84943958D01*
X109708958Y-84742408D01*
X109855000Y-84523840D01*
X110001042Y-84742408D01*
X110202592Y-84943958D01*
X110439589Y-85102314D01*
X110702926Y-85211392D01*
X110982483Y-85267000D01*
X111267517Y-85267000D01*
X111547074Y-85211392D01*
X111810411Y-85102314D01*
X112047408Y-84943958D01*
X112248958Y-84742408D01*
X112395000Y-84523840D01*
X112541042Y-84742408D01*
X112742592Y-84943958D01*
X112979589Y-85102314D01*
X113242926Y-85211392D01*
X113522483Y-85267000D01*
X113807517Y-85267000D01*
X114087074Y-85211392D01*
X114350411Y-85102314D01*
X114587408Y-84943958D01*
X114788958Y-84742408D01*
X114934775Y-84524177D01*
X114958536Y-84568629D01*
X115203730Y-84641665D01*
X116025395Y-83820000D01*
X115203730Y-82998335D01*
X114958536Y-83071371D01*
X114936347Y-83118176D01*
X114788958Y-82897592D01*
X114587408Y-82696042D01*
X114350411Y-82537686D01*
X114087074Y-82428608D01*
X113807517Y-82373000D01*
X113522483Y-82373000D01*
X113242926Y-82428608D01*
X112979589Y-82537686D01*
X112742592Y-82696042D01*
X112541042Y-82897592D01*
X112395000Y-83116160D01*
X112248958Y-82897592D01*
X112047408Y-82696042D01*
X111810411Y-82537686D01*
X111547074Y-82428608D01*
X111267517Y-82373000D01*
X110982483Y-82373000D01*
X110702926Y-82428608D01*
X110439589Y-82537686D01*
X110202592Y-82696042D01*
X110001042Y-82897592D01*
X109855000Y-83116160D01*
X109708958Y-82897592D01*
X109507408Y-82696042D01*
X109270411Y-82537686D01*
X109007074Y-82428608D01*
X108727517Y-82373000D01*
X108442483Y-82373000D01*
X108162926Y-82428608D01*
X107899589Y-82537686D01*
X107662592Y-82696042D01*
X107461042Y-82897592D01*
X107315000Y-83116160D01*
X107168958Y-82897592D01*
X106967408Y-82696042D01*
X106730411Y-82537686D01*
X106467074Y-82428608D01*
X106187517Y-82373000D01*
X105902483Y-82373000D01*
X105622926Y-82428608D01*
X105560000Y-82454673D01*
X105560000Y-79732702D01*
X111581903Y-79732702D01*
X111653486Y-79976671D01*
X111908996Y-80097571D01*
X112183184Y-80166300D01*
X112465512Y-80180217D01*
X112745130Y-80138787D01*
X113011292Y-80043603D01*
X113136514Y-79976671D01*
X113208097Y-79732702D01*
X112395000Y-78919605D01*
X111581903Y-79732702D01*
X105560000Y-79732702D01*
X105560000Y-79590000D01*
X105810260Y-79590000D01*
X106097158Y-79532932D01*
X106367411Y-79420990D01*
X106610632Y-79258475D01*
X106817475Y-79051632D01*
X106935100Y-78875594D01*
X107106412Y-79105269D01*
X107322645Y-79300178D01*
X107572748Y-79449157D01*
X107847109Y-79546481D01*
X108077000Y-79425814D01*
X108077000Y-78232000D01*
X108331000Y-78232000D01*
X108331000Y-79425814D01*
X108560891Y-79546481D01*
X108835252Y-79449157D01*
X109085355Y-79300178D01*
X109301588Y-79105269D01*
X109475641Y-78871920D01*
X109504890Y-78810512D01*
X110954783Y-78810512D01*
X110996213Y-79090130D01*
X111091397Y-79356292D01*
X111158329Y-79481514D01*
X111402298Y-79553097D01*
X112215395Y-78740000D01*
X112574605Y-78740000D01*
X113387702Y-79553097D01*
X113631671Y-79481514D01*
X113752571Y-79226004D01*
X113821300Y-78951816D01*
X113835217Y-78669488D01*
X113793787Y-78389870D01*
X113698603Y-78123708D01*
X113631671Y-77998486D01*
X113387702Y-77926903D01*
X112574605Y-78740000D01*
X112215395Y-78740000D01*
X111402298Y-77926903D01*
X111158329Y-77998486D01*
X111037429Y-78253996D01*
X110968700Y-78528184D01*
X110954783Y-78810512D01*
X109504890Y-78810512D01*
X109600825Y-78609099D01*
X109645476Y-78461890D01*
X109524155Y-78232000D01*
X108331000Y-78232000D01*
X108077000Y-78232000D01*
X108057000Y-78232000D01*
X108057000Y-77978000D01*
X108077000Y-77978000D01*
X108077000Y-77958000D01*
X108331000Y-77958000D01*
X108331000Y-77978000D01*
X109524155Y-77978000D01*
X109645476Y-77748110D01*
X109645230Y-77747298D01*
X111581903Y-77747298D01*
X112395000Y-78560395D01*
X113208097Y-77747298D01*
X113136514Y-77503329D01*
X112881004Y-77382429D01*
X112606816Y-77313700D01*
X112324488Y-77299783D01*
X112044870Y-77341213D01*
X111778708Y-77436397D01*
X111653486Y-77503329D01*
X111581903Y-77747298D01*
X109645230Y-77747298D01*
X109606618Y-77620000D01*
X110451447Y-77620000D01*
X110490000Y-77623797D01*
X110528553Y-77620000D01*
X110528561Y-77620000D01*
X110643887Y-77608641D01*
X110791860Y-77563754D01*
X110928233Y-77490862D01*
X111047764Y-77392764D01*
X111072347Y-77362810D01*
X113037086Y-75398072D01*
X114765000Y-75398072D01*
X114889482Y-75385812D01*
X115009180Y-75349502D01*
X115119494Y-75290537D01*
X115216185Y-75211185D01*
X115295537Y-75114494D01*
X115354502Y-75004180D01*
X115390812Y-74884482D01*
X115403072Y-74760000D01*
X115403072Y-72560000D01*
X115390812Y-72435518D01*
X115354502Y-72315820D01*
X115295537Y-72205506D01*
X115216185Y-72108815D01*
X115119494Y-72029463D01*
X115009180Y-71970498D01*
X114889482Y-71934188D01*
X114765000Y-71921928D01*
X112565000Y-71921928D01*
X112440518Y-71934188D01*
X112320820Y-71970498D01*
X112210506Y-72029463D01*
X112113815Y-72108815D01*
X112034463Y-72205506D01*
X111975498Y-72315820D01*
X111939188Y-72435518D01*
X111926928Y-72560000D01*
X111926928Y-74287914D01*
X110164843Y-76050000D01*
X109610458Y-76050000D01*
X109631932Y-75998158D01*
X109689000Y-75711260D01*
X109689000Y-75418740D01*
X109631932Y-75131842D01*
X109519990Y-74861589D01*
X109357475Y-74618368D01*
X109150632Y-74411525D01*
X108976240Y-74295000D01*
X109150632Y-74178475D01*
X109357475Y-73971632D01*
X109519990Y-73728411D01*
X109631932Y-73458158D01*
X109689000Y-73171260D01*
X109689000Y-72878740D01*
X109631932Y-72591842D01*
X109519990Y-72321589D01*
X109357475Y-72078368D01*
X109150632Y-71871525D01*
X108976240Y-71755000D01*
X109150632Y-71638475D01*
X109357475Y-71431632D01*
X109519990Y-71188411D01*
X109631932Y-70918158D01*
X109689000Y-70631260D01*
X109689000Y-70338740D01*
X109631932Y-70051842D01*
X109519990Y-69781589D01*
X109357475Y-69538368D01*
X109150632Y-69331525D01*
X108976240Y-69215000D01*
X109150632Y-69098475D01*
X109357475Y-68891632D01*
X109465474Y-68730000D01*
X112577843Y-68730000D01*
X116690001Y-72842159D01*
G04 #@! TA.AperFunction,Conductor*
D31*
G36*
X116690001Y-72842159D02*
G01*
X116690001Y-82449909D01*
X116419642Y-82381929D01*
X116134964Y-82367686D01*
X115852977Y-82409256D01*
X115584518Y-82505039D01*
X115456371Y-82573536D01*
X115383335Y-82818730D01*
X116205000Y-83640395D01*
X116219143Y-83626253D01*
X116398748Y-83805858D01*
X116384605Y-83820000D01*
X116398748Y-83834143D01*
X116219143Y-84013748D01*
X116205000Y-83999605D01*
X115383335Y-84821270D01*
X115456371Y-85066464D01*
X115713928Y-85188564D01*
X115990358Y-85258071D01*
X116275036Y-85272314D01*
X116557023Y-85230744D01*
X116690000Y-85183299D01*
X116690000Y-97751447D01*
X116686203Y-97790000D01*
X116690000Y-97828553D01*
X116690000Y-97828560D01*
X116701359Y-97943886D01*
X116746246Y-98091859D01*
X116819138Y-98228232D01*
X116917236Y-98347764D01*
X116947190Y-98372347D01*
X118727843Y-100153000D01*
X118602483Y-100153000D01*
X118322926Y-100208608D01*
X118059589Y-100317686D01*
X117822592Y-100476042D01*
X117621042Y-100677592D01*
X117475000Y-100896160D01*
X117328958Y-100677592D01*
X117127408Y-100476042D01*
X116890411Y-100317686D01*
X116627074Y-100208608D01*
X116347517Y-100153000D01*
X116062483Y-100153000D01*
X115782926Y-100208608D01*
X115519589Y-100317686D01*
X115282592Y-100476042D01*
X115081042Y-100677592D01*
X114935000Y-100896160D01*
X114788958Y-100677592D01*
X114587408Y-100476042D01*
X114350411Y-100317686D01*
X114087074Y-100208608D01*
X113807517Y-100153000D01*
X113522483Y-100153000D01*
X113242926Y-100208608D01*
X112979589Y-100317686D01*
X112742592Y-100476042D01*
X112541042Y-100677592D01*
X112395000Y-100896160D01*
X112248958Y-100677592D01*
X112047408Y-100476042D01*
X111810411Y-100317686D01*
X111547074Y-100208608D01*
X111267517Y-100153000D01*
X110982483Y-100153000D01*
X110702926Y-100208608D01*
X110439589Y-100317686D01*
X110202592Y-100476042D01*
X110001042Y-100677592D01*
X109855000Y-100896160D01*
X109708958Y-100677592D01*
X109507408Y-100476042D01*
X109270411Y-100317686D01*
X109007074Y-100208608D01*
X108727517Y-100153000D01*
X108442483Y-100153000D01*
X108280398Y-100185241D01*
X105560000Y-97464843D01*
X105560000Y-97360042D01*
X110225000Y-97360042D01*
X110225000Y-97691958D01*
X110289754Y-98017496D01*
X110416772Y-98324147D01*
X110601175Y-98600125D01*
X110835875Y-98834825D01*
X111111853Y-99019228D01*
X111418504Y-99146246D01*
X111744042Y-99211000D01*
X112075958Y-99211000D01*
X112401496Y-99146246D01*
X112708147Y-99019228D01*
X112984125Y-98834825D01*
X113218825Y-98600125D01*
X113403228Y-98324147D01*
X113530246Y-98017496D01*
X113595000Y-97691958D01*
X113595000Y-97360042D01*
X113530246Y-97034504D01*
X113403228Y-96727853D01*
X113218825Y-96451875D01*
X112984125Y-96217175D01*
X112708147Y-96032772D01*
X112401496Y-95905754D01*
X112075958Y-95841000D01*
X111744042Y-95841000D01*
X111418504Y-95905754D01*
X111111853Y-96032772D01*
X110835875Y-96217175D01*
X110601175Y-96451875D01*
X110416772Y-96727853D01*
X110289754Y-97034504D01*
X110225000Y-97360042D01*
X105560000Y-97360042D01*
X105560000Y-85185327D01*
X105622926Y-85211392D01*
X105902483Y-85267000D01*
X106187517Y-85267000D01*
X106467074Y-85211392D01*
X106730411Y-85102314D01*
X106967408Y-84943958D01*
X107168958Y-84742408D01*
X107315000Y-84523840D01*
X107461042Y-84742408D01*
X107662592Y-84943958D01*
X107899589Y-85102314D01*
X108162926Y-85211392D01*
X108442483Y-85267000D01*
X108727517Y-85267000D01*
X109007074Y-85211392D01*
X109270411Y-85102314D01*
X109507408Y-84943958D01*
X109708958Y-84742408D01*
X109855000Y-84523840D01*
X110001042Y-84742408D01*
X110202592Y-84943958D01*
X110439589Y-85102314D01*
X110702926Y-85211392D01*
X110982483Y-85267000D01*
X111267517Y-85267000D01*
X111547074Y-85211392D01*
X111810411Y-85102314D01*
X112047408Y-84943958D01*
X112248958Y-84742408D01*
X112395000Y-84523840D01*
X112541042Y-84742408D01*
X112742592Y-84943958D01*
X112979589Y-85102314D01*
X113242926Y-85211392D01*
X113522483Y-85267000D01*
X113807517Y-85267000D01*
X114087074Y-85211392D01*
X114350411Y-85102314D01*
X114587408Y-84943958D01*
X114788958Y-84742408D01*
X114934775Y-84524177D01*
X114958536Y-84568629D01*
X115203730Y-84641665D01*
X116025395Y-83820000D01*
X115203730Y-82998335D01*
X114958536Y-83071371D01*
X114936347Y-83118176D01*
X114788958Y-82897592D01*
X114587408Y-82696042D01*
X114350411Y-82537686D01*
X114087074Y-82428608D01*
X113807517Y-82373000D01*
X113522483Y-82373000D01*
X113242926Y-82428608D01*
X112979589Y-82537686D01*
X112742592Y-82696042D01*
X112541042Y-82897592D01*
X112395000Y-83116160D01*
X112248958Y-82897592D01*
X112047408Y-82696042D01*
X111810411Y-82537686D01*
X111547074Y-82428608D01*
X111267517Y-82373000D01*
X110982483Y-82373000D01*
X110702926Y-82428608D01*
X110439589Y-82537686D01*
X110202592Y-82696042D01*
X110001042Y-82897592D01*
X109855000Y-83116160D01*
X109708958Y-82897592D01*
X109507408Y-82696042D01*
X109270411Y-82537686D01*
X109007074Y-82428608D01*
X108727517Y-82373000D01*
X108442483Y-82373000D01*
X108162926Y-82428608D01*
X107899589Y-82537686D01*
X107662592Y-82696042D01*
X107461042Y-82897592D01*
X107315000Y-83116160D01*
X107168958Y-82897592D01*
X106967408Y-82696042D01*
X106730411Y-82537686D01*
X106467074Y-82428608D01*
X106187517Y-82373000D01*
X105902483Y-82373000D01*
X105622926Y-82428608D01*
X105560000Y-82454673D01*
X105560000Y-79732702D01*
X111581903Y-79732702D01*
X111653486Y-79976671D01*
X111908996Y-80097571D01*
X112183184Y-80166300D01*
X112465512Y-80180217D01*
X112745130Y-80138787D01*
X113011292Y-80043603D01*
X113136514Y-79976671D01*
X113208097Y-79732702D01*
X112395000Y-78919605D01*
X111581903Y-79732702D01*
X105560000Y-79732702D01*
X105560000Y-79590000D01*
X105810260Y-79590000D01*
X106097158Y-79532932D01*
X106367411Y-79420990D01*
X106610632Y-79258475D01*
X106817475Y-79051632D01*
X106935100Y-78875594D01*
X107106412Y-79105269D01*
X107322645Y-79300178D01*
X107572748Y-79449157D01*
X107847109Y-79546481D01*
X108077000Y-79425814D01*
X108077000Y-78232000D01*
X108331000Y-78232000D01*
X108331000Y-79425814D01*
X108560891Y-79546481D01*
X108835252Y-79449157D01*
X109085355Y-79300178D01*
X109301588Y-79105269D01*
X109475641Y-78871920D01*
X109504890Y-78810512D01*
X110954783Y-78810512D01*
X110996213Y-79090130D01*
X111091397Y-79356292D01*
X111158329Y-79481514D01*
X111402298Y-79553097D01*
X112215395Y-78740000D01*
X112574605Y-78740000D01*
X113387702Y-79553097D01*
X113631671Y-79481514D01*
X113752571Y-79226004D01*
X113821300Y-78951816D01*
X113835217Y-78669488D01*
X113793787Y-78389870D01*
X113698603Y-78123708D01*
X113631671Y-77998486D01*
X113387702Y-77926903D01*
X112574605Y-78740000D01*
X112215395Y-78740000D01*
X111402298Y-77926903D01*
X111158329Y-77998486D01*
X111037429Y-78253996D01*
X110968700Y-78528184D01*
X110954783Y-78810512D01*
X109504890Y-78810512D01*
X109600825Y-78609099D01*
X109645476Y-78461890D01*
X109524155Y-78232000D01*
X108331000Y-78232000D01*
X108077000Y-78232000D01*
X108057000Y-78232000D01*
X108057000Y-77978000D01*
X108077000Y-77978000D01*
X108077000Y-77958000D01*
X108331000Y-77958000D01*
X108331000Y-77978000D01*
X109524155Y-77978000D01*
X109645476Y-77748110D01*
X109645230Y-77747298D01*
X111581903Y-77747298D01*
X112395000Y-78560395D01*
X113208097Y-77747298D01*
X113136514Y-77503329D01*
X112881004Y-77382429D01*
X112606816Y-77313700D01*
X112324488Y-77299783D01*
X112044870Y-77341213D01*
X111778708Y-77436397D01*
X111653486Y-77503329D01*
X111581903Y-77747298D01*
X109645230Y-77747298D01*
X109606618Y-77620000D01*
X110451447Y-77620000D01*
X110490000Y-77623797D01*
X110528553Y-77620000D01*
X110528561Y-77620000D01*
X110643887Y-77608641D01*
X110791860Y-77563754D01*
X110928233Y-77490862D01*
X111047764Y-77392764D01*
X111072347Y-77362810D01*
X113037086Y-75398072D01*
X114765000Y-75398072D01*
X114889482Y-75385812D01*
X115009180Y-75349502D01*
X115119494Y-75290537D01*
X115216185Y-75211185D01*
X115295537Y-75114494D01*
X115354502Y-75004180D01*
X115390812Y-74884482D01*
X115403072Y-74760000D01*
X115403072Y-72560000D01*
X115390812Y-72435518D01*
X115354502Y-72315820D01*
X115295537Y-72205506D01*
X115216185Y-72108815D01*
X115119494Y-72029463D01*
X115009180Y-71970498D01*
X114889482Y-71934188D01*
X114765000Y-71921928D01*
X112565000Y-71921928D01*
X112440518Y-71934188D01*
X112320820Y-71970498D01*
X112210506Y-72029463D01*
X112113815Y-72108815D01*
X112034463Y-72205506D01*
X111975498Y-72315820D01*
X111939188Y-72435518D01*
X111926928Y-72560000D01*
X111926928Y-74287914D01*
X110164843Y-76050000D01*
X109610458Y-76050000D01*
X109631932Y-75998158D01*
X109689000Y-75711260D01*
X109689000Y-75418740D01*
X109631932Y-75131842D01*
X109519990Y-74861589D01*
X109357475Y-74618368D01*
X109150632Y-74411525D01*
X108976240Y-74295000D01*
X109150632Y-74178475D01*
X109357475Y-73971632D01*
X109519990Y-73728411D01*
X109631932Y-73458158D01*
X109689000Y-73171260D01*
X109689000Y-72878740D01*
X109631932Y-72591842D01*
X109519990Y-72321589D01*
X109357475Y-72078368D01*
X109150632Y-71871525D01*
X108976240Y-71755000D01*
X109150632Y-71638475D01*
X109357475Y-71431632D01*
X109519990Y-71188411D01*
X109631932Y-70918158D01*
X109689000Y-70631260D01*
X109689000Y-70338740D01*
X109631932Y-70051842D01*
X109519990Y-69781589D01*
X109357475Y-69538368D01*
X109150632Y-69331525D01*
X108976240Y-69215000D01*
X109150632Y-69098475D01*
X109357475Y-68891632D01*
X109465474Y-68730000D01*
X112577843Y-68730000D01*
X116690001Y-72842159D01*
G37*
G04 #@! TD.AperFunction*
D30*
X147062001Y-69816157D02*
X147062002Y-78137722D01*
X140694999Y-71770720D01*
X140694999Y-66595089D01*
X140818504Y-66646246D01*
X141144042Y-66711000D01*
X141475958Y-66711000D01*
X141801496Y-66646246D01*
X142108147Y-66519228D01*
X142384125Y-66334825D01*
X142618825Y-66100125D01*
X142803228Y-65824147D01*
X142881361Y-65635516D01*
X147062001Y-69816157D01*
G04 #@! TA.AperFunction,Conductor*
D31*
G36*
X147062001Y-69816157D02*
G01*
X147062002Y-78137722D01*
X140694999Y-71770720D01*
X140694999Y-66595089D01*
X140818504Y-66646246D01*
X141144042Y-66711000D01*
X141475958Y-66711000D01*
X141801496Y-66646246D01*
X142108147Y-66519228D01*
X142384125Y-66334825D01*
X142618825Y-66100125D01*
X142803228Y-65824147D01*
X142881361Y-65635516D01*
X147062001Y-69816157D01*
G37*
G04 #@! TD.AperFunction*
M02*
