M48
; DRILL file {KiCad 5.1.10-88a1d61d58~90~ubuntu20.04.1} date Fri Dec  3 15:24:34 2021
; FORMAT={-:-/ absolute / metric / decimal}
; #@! TF.CreationDate,2021-12-03T15:24:34+01:00
; #@! TF.GenerationSoftware,Kicad,Pcbnew,5.1.10-88a1d61d58~90~ubuntu20.04.1
; #@! TF.FileFunction,Plated,1,2,PTH
FMAT,2
METRIC
T1C0.400
T2C0.762
T3C0.800
T4C0.862
T5C0.900
T6C1.000
T7C1.100
%
G90
G05
T1
X114.3Y-105.41
X120.269Y-91.948
X123.19Y-105.41
X127.0Y-116.205
X127.889Y-105.885
X128.905Y-76.2
X130.31Y-105.885
X130.81Y-113.665
X133.096Y-97.409
X138.036Y-102.629
X141.605Y-93.345
X144.018Y-70.993
T2
X102.199Y-122.801
X105.791Y-119.209
X109.299Y-115.701
X109.299Y-129.901
X112.891Y-112.109
X112.891Y-126.309
X116.399Y-122.801
X119.991Y-119.209
X141.605Y-128.905
X146.685Y-128.905
X151.765Y-128.905
X156.845Y-128.905
T3
X108.625Y-60.325
X111.125Y-60.325
X112.395Y-78.74
X113.625Y-60.325
X122.555Y-78.74
X125.73Y-73.66
X125.73Y-78.74
X129.08Y-107.315
X132.08Y-107.315
X135.89Y-73.66
X135.89Y-78.74
X139.065Y-73.66
X139.065Y-78.74
X149.225Y-73.66
X149.225Y-78.74
T4
X98.425Y-83.82
X98.425Y-101.6
X100.965Y-83.82
X100.965Y-101.6
X103.505Y-83.82
X103.505Y-101.6
X106.045Y-83.82
X106.045Y-101.6
X108.585Y-83.82
X108.585Y-101.6
X111.125Y-83.82
X111.125Y-101.6
X113.665Y-83.82
X113.665Y-101.6
X116.205Y-83.82
X116.205Y-101.6
X118.745Y-83.82
X118.745Y-101.6
X121.285Y-83.82
X121.285Y-101.6
X123.825Y-83.82
X123.825Y-101.6
X126.365Y-83.82
X126.365Y-101.6
X128.905Y-83.82
X128.905Y-101.6
X131.445Y-83.82
X131.445Y-101.6
X133.985Y-83.82
X133.985Y-101.6
X136.525Y-83.82
X136.525Y-101.6
X139.065Y-83.82
X139.065Y-101.6
X141.605Y-83.82
X141.605Y-101.6
X144.145Y-83.82
X144.145Y-101.6
X146.685Y-83.82
X146.685Y-101.6
T5
X155.575Y-63.5
X155.575Y-71.755
X155.575Y-79.93
X155.575Y-88.265
X158.115Y-63.5
X158.115Y-71.755
X158.115Y-79.93
X158.115Y-88.265
T6
X105.664Y-65.405
X105.664Y-67.945
X105.664Y-70.485
X105.664Y-73.025
X105.664Y-75.565
X105.664Y-78.105
X108.204Y-65.405
X108.204Y-67.945
X108.204Y-70.485
X108.204Y-73.025
X108.204Y-75.565
X108.204Y-78.105
X123.192Y-64.026
X125.732Y-64.026
X128.273Y-64.026
X130.81Y-64.026
X133.352Y-64.026
X135.892Y-64.026
X138.433Y-64.026
X153.035Y-95.885
X156.845Y-111.205
X156.845Y-113.705
X156.845Y-116.205
X160.635Y-95.885
T7
X113.665Y-73.66
X121.285Y-73.66
X127.635Y-128.27
X127.635Y-132.77
X134.135Y-128.27
X134.135Y-132.77
T7
X149.945Y-108.905G85X148.745Y-108.905
G05
X149.945Y-118.505G85X148.745Y-118.505
G05
T0
M30
