%FSLAX45Y45*%
G04 Gerber Fmt 4.5, Leading zero omitted, Abs format (unit mm)*
G04 Created by KiCad (PCBNEW 5.1.10-88a1d61d58~90~ubuntu20.04.1) date 2021-08-31 10:36:01*
%MOMM*%
%LPD*%
G01*
G04 APERTURE LIST*
%TA.AperFunction,Profile*%
%ADD10C,0.050000*%
%TD*%
%ADD11C,0.200000*%
%ADD12C,0.300000*%
G04 APERTURE END LIST*
D10*
X16342500Y-13589000D02*
G75*
G03*
X16342500Y-13589000I-150000J0D01*
G01*
X16342500Y-6032500D02*
G75*
G03*
X16342500Y-6032500I-150000J0D01*
G01*
X16192500Y-5778500D02*
G75*
G02*
X16446500Y-6032500I0J-254000D01*
G01*
X16446500Y-13589000D02*
G75*
G02*
X16192500Y-13843000I-254000J0D01*
G01*
X10119500Y-13589000D02*
G75*
G03*
X10119500Y-13589000I-150000J0D01*
G01*
X9969500Y-13843000D02*
G75*
G02*
X9715500Y-13589000I0J254000D01*
G01*
X10119500Y-6032500D02*
G75*
G03*
X10119500Y-6032500I-150000J0D01*
G01*
X9715500Y-6032500D02*
G75*
G02*
X9969500Y-5778500I254000J0D01*
G01*
X9715500Y-13589000D02*
X9715500Y-6032500D01*
X16192500Y-13843000D02*
X9969500Y-13843000D01*
X16446500Y-6032500D02*
X16446500Y-13589000D01*
X9969500Y-5778500D02*
X16192500Y-5778500D01*
D11*
X11410000Y-10521000D02*
X11450000Y-10561000D01*
X11450000Y-10521000D02*
X11410000Y-10561000D01*
X12006900Y-9174800D02*
X12046900Y-9214800D01*
X12046900Y-9174800D02*
X12006900Y-9214800D01*
X12299000Y-10521000D02*
X12339000Y-10561000D01*
X12339000Y-10521000D02*
X12299000Y-10561000D01*
X12616500Y-11029000D02*
X12656500Y-11069000D01*
X12656500Y-11029000D02*
X12616500Y-11069000D01*
X12680000Y-11600500D02*
X12720000Y-11640500D01*
X12720000Y-11600500D02*
X12680000Y-11640500D01*
X12768900Y-10394000D02*
X12808900Y-10434000D01*
X12808900Y-10394000D02*
X12768900Y-10434000D01*
X12870500Y-7600000D02*
X12910500Y-7640000D01*
X12910500Y-7600000D02*
X12870500Y-7640000D01*
X13061000Y-11346500D02*
X13101000Y-11386500D01*
X13101000Y-11346500D02*
X13061000Y-11386500D01*
X13289600Y-9720900D02*
X13329600Y-9760900D01*
X13329600Y-9720900D02*
X13289600Y-9760900D01*
X13783617Y-10242883D02*
X13823617Y-10282883D01*
X13823617Y-10242883D02*
X13783617Y-10282883D01*
X14013500Y-11981500D02*
X14053500Y-12021500D01*
X14053500Y-11981500D02*
X14013500Y-12021500D01*
X14140500Y-9314500D02*
X14180500Y-9354500D01*
X14180500Y-9314500D02*
X14140500Y-9354500D01*
X14381800Y-7079300D02*
X14421800Y-7119300D01*
X14421800Y-7079300D02*
X14381800Y-7119300D01*
X10257995Y-12280105D02*
G75*
G03*
X10257995Y-12280105I-38100J0D01*
G01*
X10617205Y-11920895D02*
G75*
G03*
X10617205Y-11920895I-38100J0D01*
G01*
X10967995Y-11570105D02*
G75*
G03*
X10967995Y-11570105I-38100J0D01*
G01*
X10967995Y-12990105D02*
G75*
G03*
X10967995Y-12990105I-38100J0D01*
G01*
X11327205Y-11210895D02*
G75*
G03*
X11327205Y-11210895I-38100J0D01*
G01*
X11327205Y-12630895D02*
G75*
G03*
X11327205Y-12630895I-38100J0D01*
G01*
X11677995Y-12280105D02*
G75*
G03*
X11677995Y-12280105I-38100J0D01*
G01*
X12037205Y-11920895D02*
G75*
G03*
X12037205Y-11920895I-38100J0D01*
G01*
X14198600Y-12890500D02*
G75*
G03*
X14198600Y-12890500I-38100J0D01*
G01*
X14706600Y-12890500D02*
G75*
G03*
X14706600Y-12890500I-38100J0D01*
G01*
X15214600Y-12890500D02*
G75*
G03*
X15214600Y-12890500I-38100J0D01*
G01*
X15722600Y-12890500D02*
G75*
G03*
X15722600Y-12890500I-38100J0D01*
G01*
X10862500Y-5992500D02*
X10862500Y-6072500D01*
X10822500Y-6032500D02*
X10902500Y-6032500D01*
X11112500Y-5992500D02*
X11112500Y-6072500D01*
X11072500Y-6032500D02*
X11152500Y-6032500D01*
X11239500Y-7834000D02*
X11239500Y-7914000D01*
X11199500Y-7874000D02*
X11279500Y-7874000D01*
X11362500Y-5992500D02*
X11362500Y-6072500D01*
X11322500Y-6032500D02*
X11402500Y-6032500D01*
X12255500Y-7834000D02*
X12255500Y-7914000D01*
X12215500Y-7874000D02*
X12295500Y-7874000D01*
X12573000Y-7326000D02*
X12573000Y-7406000D01*
X12533000Y-7366000D02*
X12613000Y-7366000D01*
X12573000Y-7834000D02*
X12573000Y-7914000D01*
X12533000Y-7874000D02*
X12613000Y-7874000D01*
X12908000Y-10691500D02*
X12908000Y-10771500D01*
X12868000Y-10731500D02*
X12948000Y-10731500D01*
X13208000Y-10691500D02*
X13208000Y-10771500D01*
X13168000Y-10731500D02*
X13248000Y-10731500D01*
X13589000Y-7326000D02*
X13589000Y-7406000D01*
X13549000Y-7366000D02*
X13629000Y-7366000D01*
X13589000Y-7834000D02*
X13589000Y-7914000D01*
X13549000Y-7874000D02*
X13629000Y-7874000D01*
X13906500Y-7326000D02*
X13906500Y-7406000D01*
X13866500Y-7366000D02*
X13946500Y-7366000D01*
X13906500Y-7834000D02*
X13906500Y-7914000D01*
X13866500Y-7874000D02*
X13946500Y-7874000D01*
X14922500Y-7326000D02*
X14922500Y-7406000D01*
X14882500Y-7366000D02*
X14962500Y-7366000D01*
X14922500Y-7834000D02*
X14922500Y-7914000D01*
X14882500Y-7874000D02*
X14962500Y-7874000D01*
X9872977Y-8412477D02*
X9872977Y-8351523D01*
X9812023Y-8351523D01*
X9812023Y-8412477D01*
X9872977Y-8412477D01*
X9872977Y-10190477D02*
X9872977Y-10129523D01*
X9812023Y-10129523D01*
X9812023Y-10190477D01*
X9872977Y-10190477D01*
X10126977Y-8412477D02*
X10126977Y-8351523D01*
X10066023Y-8351523D01*
X10066023Y-8412477D01*
X10126977Y-8412477D01*
X10126977Y-10190477D02*
X10126977Y-10129523D01*
X10066023Y-10129523D01*
X10066023Y-10190477D01*
X10126977Y-10190477D01*
X10380977Y-8412477D02*
X10380977Y-8351523D01*
X10320023Y-8351523D01*
X10320023Y-8412477D01*
X10380977Y-8412477D01*
X10380977Y-10190477D02*
X10380977Y-10129523D01*
X10320023Y-10129523D01*
X10320023Y-10190477D01*
X10380977Y-10190477D01*
X10634977Y-8412477D02*
X10634977Y-8351523D01*
X10574023Y-8351523D01*
X10574023Y-8412477D01*
X10634977Y-8412477D01*
X10634977Y-10190477D02*
X10634977Y-10129523D01*
X10574023Y-10129523D01*
X10574023Y-10190477D01*
X10634977Y-10190477D01*
X10888977Y-8412477D02*
X10888977Y-8351523D01*
X10828023Y-8351523D01*
X10828023Y-8412477D01*
X10888977Y-8412477D01*
X10888977Y-10190477D02*
X10888977Y-10129523D01*
X10828023Y-10129523D01*
X10828023Y-10190477D01*
X10888977Y-10190477D01*
X11142977Y-8412477D02*
X11142977Y-8351523D01*
X11082023Y-8351523D01*
X11082023Y-8412477D01*
X11142977Y-8412477D01*
X11142977Y-10190477D02*
X11142977Y-10129523D01*
X11082023Y-10129523D01*
X11082023Y-10190477D01*
X11142977Y-10190477D01*
X11396977Y-8412477D02*
X11396977Y-8351523D01*
X11336023Y-8351523D01*
X11336023Y-8412477D01*
X11396977Y-8412477D01*
X11396977Y-10190477D02*
X11396977Y-10129523D01*
X11336023Y-10129523D01*
X11336023Y-10190477D01*
X11396977Y-10190477D01*
X11650977Y-8412477D02*
X11650977Y-8351523D01*
X11590023Y-8351523D01*
X11590023Y-8412477D01*
X11650977Y-8412477D01*
X11650977Y-10190477D02*
X11650977Y-10129523D01*
X11590023Y-10129523D01*
X11590023Y-10190477D01*
X11650977Y-10190477D01*
X11904977Y-8412477D02*
X11904977Y-8351523D01*
X11844023Y-8351523D01*
X11844023Y-8412477D01*
X11904977Y-8412477D01*
X11904977Y-10190477D02*
X11904977Y-10129523D01*
X11844023Y-10129523D01*
X11844023Y-10190477D01*
X11904977Y-10190477D01*
X12158977Y-8412477D02*
X12158977Y-8351523D01*
X12098023Y-8351523D01*
X12098023Y-8412477D01*
X12158977Y-8412477D01*
X12158977Y-10190477D02*
X12158977Y-10129523D01*
X12098023Y-10129523D01*
X12098023Y-10190477D01*
X12158977Y-10190477D01*
X12412977Y-8412477D02*
X12412977Y-8351523D01*
X12352023Y-8351523D01*
X12352023Y-8412477D01*
X12412977Y-8412477D01*
X12412977Y-10190477D02*
X12412977Y-10129523D01*
X12352023Y-10129523D01*
X12352023Y-10190477D01*
X12412977Y-10190477D01*
X12666977Y-8412477D02*
X12666977Y-8351523D01*
X12606023Y-8351523D01*
X12606023Y-8412477D01*
X12666977Y-8412477D01*
X12666977Y-10190477D02*
X12666977Y-10129523D01*
X12606023Y-10129523D01*
X12606023Y-10190477D01*
X12666977Y-10190477D01*
X12920977Y-8412477D02*
X12920977Y-8351523D01*
X12860023Y-8351523D01*
X12860023Y-8412477D01*
X12920977Y-8412477D01*
X12920977Y-10190477D02*
X12920977Y-10129523D01*
X12860023Y-10129523D01*
X12860023Y-10190477D01*
X12920977Y-10190477D01*
X13174977Y-8412477D02*
X13174977Y-8351523D01*
X13114023Y-8351523D01*
X13114023Y-8412477D01*
X13174977Y-8412477D01*
X13174977Y-10190477D02*
X13174977Y-10129523D01*
X13114023Y-10129523D01*
X13114023Y-10190477D01*
X13174977Y-10190477D01*
X13428977Y-8412477D02*
X13428977Y-8351523D01*
X13368023Y-8351523D01*
X13368023Y-8412477D01*
X13428977Y-8412477D01*
X13428977Y-10190477D02*
X13428977Y-10129523D01*
X13368023Y-10129523D01*
X13368023Y-10190477D01*
X13428977Y-10190477D01*
X13682977Y-8412477D02*
X13682977Y-8351523D01*
X13622023Y-8351523D01*
X13622023Y-8412477D01*
X13682977Y-8412477D01*
X13682977Y-10190477D02*
X13682977Y-10129523D01*
X13622023Y-10129523D01*
X13622023Y-10190477D01*
X13682977Y-10190477D01*
X13936977Y-8412477D02*
X13936977Y-8351523D01*
X13876023Y-8351523D01*
X13876023Y-8412477D01*
X13936977Y-8412477D01*
X13936977Y-10190477D02*
X13936977Y-10129523D01*
X13876023Y-10129523D01*
X13876023Y-10190477D01*
X13936977Y-10190477D01*
X14190977Y-8412477D02*
X14190977Y-8351523D01*
X14130023Y-8351523D01*
X14130023Y-8412477D01*
X14190977Y-8412477D01*
X14190977Y-10190477D02*
X14190977Y-10129523D01*
X14130023Y-10129523D01*
X14130023Y-10190477D01*
X14190977Y-10190477D01*
X14444977Y-8412477D02*
X14444977Y-8351523D01*
X14384023Y-8351523D01*
X14384023Y-8412477D01*
X14444977Y-8412477D01*
X14444977Y-10190477D02*
X14444977Y-10129523D01*
X14384023Y-10129523D01*
X14384023Y-10190477D01*
X14444977Y-10190477D01*
X14698977Y-8412477D02*
X14698977Y-8351523D01*
X14638023Y-8351523D01*
X14638023Y-8412477D01*
X14698977Y-8412477D01*
X14698977Y-10190477D02*
X14698977Y-10129523D01*
X14638023Y-10129523D01*
X14638023Y-10190477D01*
X14698977Y-10190477D01*
X15557500Y-6395000D02*
X15602500Y-6350000D01*
X15557500Y-6305000D01*
X15512500Y-6350000D01*
X15557500Y-6395000D01*
X15557500Y-7220500D02*
X15602500Y-7175500D01*
X15557500Y-7130500D01*
X15512500Y-7175500D01*
X15557500Y-7220500D01*
X15557500Y-8038000D02*
X15602500Y-7993000D01*
X15557500Y-7948000D01*
X15512500Y-7993000D01*
X15557500Y-8038000D01*
X15557500Y-8871500D02*
X15602500Y-8826500D01*
X15557500Y-8781500D01*
X15512500Y-8826500D01*
X15557500Y-8871500D01*
X15811500Y-6395000D02*
X15856500Y-6350000D01*
X15811500Y-6305000D01*
X15766500Y-6350000D01*
X15811500Y-6395000D01*
X15811500Y-7220500D02*
X15856500Y-7175500D01*
X15811500Y-7130500D01*
X15766500Y-7175500D01*
X15811500Y-7220500D01*
X15811500Y-8038000D02*
X15856500Y-7993000D01*
X15811500Y-7948000D01*
X15766500Y-7993000D01*
X15811500Y-8038000D01*
X15811500Y-8871500D02*
X15856500Y-8826500D01*
X15811500Y-8781500D01*
X15766500Y-8826500D01*
X15811500Y-8871500D01*
X10516400Y-6490500D02*
X10616400Y-6590500D01*
X10616400Y-6490500D02*
X10516400Y-6590500D01*
X10616400Y-6540500D02*
G75*
G03*
X10616400Y-6540500I-50000J0D01*
G01*
X10516400Y-6744500D02*
X10616400Y-6844500D01*
X10616400Y-6744500D02*
X10516400Y-6844500D01*
X10616400Y-6794500D02*
G75*
G03*
X10616400Y-6794500I-50000J0D01*
G01*
X10516400Y-6998500D02*
X10616400Y-7098500D01*
X10616400Y-6998500D02*
X10516400Y-7098500D01*
X10616400Y-7048500D02*
G75*
G03*
X10616400Y-7048500I-50000J0D01*
G01*
X10516400Y-7252500D02*
X10616400Y-7352500D01*
X10616400Y-7252500D02*
X10516400Y-7352500D01*
X10616400Y-7302500D02*
G75*
G03*
X10616400Y-7302500I-50000J0D01*
G01*
X10516400Y-7506500D02*
X10616400Y-7606500D01*
X10616400Y-7506500D02*
X10516400Y-7606500D01*
X10616400Y-7556500D02*
G75*
G03*
X10616400Y-7556500I-50000J0D01*
G01*
X10516400Y-7760500D02*
X10616400Y-7860500D01*
X10616400Y-7760500D02*
X10516400Y-7860500D01*
X10616400Y-7810500D02*
G75*
G03*
X10616400Y-7810500I-50000J0D01*
G01*
X10770400Y-6490500D02*
X10870400Y-6590500D01*
X10870400Y-6490500D02*
X10770400Y-6590500D01*
X10870400Y-6540500D02*
G75*
G03*
X10870400Y-6540500I-50000J0D01*
G01*
X10770400Y-6744500D02*
X10870400Y-6844500D01*
X10870400Y-6744500D02*
X10770400Y-6844500D01*
X10870400Y-6794500D02*
G75*
G03*
X10870400Y-6794500I-50000J0D01*
G01*
X10770400Y-6998500D02*
X10870400Y-7098500D01*
X10870400Y-6998500D02*
X10770400Y-7098500D01*
X10870400Y-7048500D02*
G75*
G03*
X10870400Y-7048500I-50000J0D01*
G01*
X10770400Y-7252500D02*
X10870400Y-7352500D01*
X10870400Y-7252500D02*
X10770400Y-7352500D01*
X10870400Y-7302500D02*
G75*
G03*
X10870400Y-7302500I-50000J0D01*
G01*
X10770400Y-7506500D02*
X10870400Y-7606500D01*
X10870400Y-7506500D02*
X10770400Y-7606500D01*
X10870400Y-7556500D02*
G75*
G03*
X10870400Y-7556500I-50000J0D01*
G01*
X10770400Y-7760500D02*
X10870400Y-7860500D01*
X10870400Y-7760500D02*
X10770400Y-7860500D01*
X10870400Y-7810500D02*
G75*
G03*
X10870400Y-7810500I-50000J0D01*
G01*
X12269250Y-6352600D02*
X12369250Y-6452600D01*
X12369250Y-6352600D02*
X12269250Y-6452600D01*
X12369250Y-6402600D02*
G75*
G03*
X12369250Y-6402600I-50000J0D01*
G01*
X12523250Y-6352600D02*
X12623250Y-6452600D01*
X12623250Y-6352600D02*
X12523250Y-6452600D01*
X12623250Y-6402600D02*
G75*
G03*
X12623250Y-6402600I-50000J0D01*
G01*
X12777250Y-6352600D02*
X12877250Y-6452600D01*
X12877250Y-6352600D02*
X12777250Y-6452600D01*
X12877250Y-6402600D02*
G75*
G03*
X12877250Y-6402600I-50000J0D01*
G01*
X13031000Y-6352600D02*
X13131000Y-6452600D01*
X13131000Y-6352600D02*
X13031000Y-6452600D01*
X13131000Y-6402600D02*
G75*
G03*
X13131000Y-6402600I-50000J0D01*
G01*
X13285250Y-6352600D02*
X13385250Y-6452600D01*
X13385250Y-6352600D02*
X13285250Y-6452600D01*
X13385250Y-6402600D02*
G75*
G03*
X13385250Y-6402600I-50000J0D01*
G01*
X13539250Y-6352600D02*
X13639250Y-6452600D01*
X13639250Y-6352600D02*
X13539250Y-6452600D01*
X13639250Y-6402600D02*
G75*
G03*
X13639250Y-6402600I-50000J0D01*
G01*
X13793250Y-6352600D02*
X13893250Y-6452600D01*
X13893250Y-6352600D02*
X13793250Y-6452600D01*
X13893250Y-6402600D02*
G75*
G03*
X13893250Y-6402600I-50000J0D01*
G01*
X15253500Y-9538500D02*
X15353500Y-9638500D01*
X15353500Y-9538500D02*
X15253500Y-9638500D01*
X15353500Y-9588500D02*
G75*
G03*
X15353500Y-9588500I-50000J0D01*
G01*
X15634500Y-11070500D02*
X15734500Y-11170500D01*
X15734500Y-11070500D02*
X15634500Y-11170500D01*
X15734500Y-11120500D02*
G75*
G03*
X15734500Y-11120500I-50000J0D01*
G01*
X15634500Y-11320500D02*
X15734500Y-11420500D01*
X15734500Y-11320500D02*
X15634500Y-11420500D01*
X15734500Y-11370500D02*
G75*
G03*
X15734500Y-11370500I-50000J0D01*
G01*
X15634500Y-11570500D02*
X15734500Y-11670500D01*
X15734500Y-11570500D02*
X15634500Y-11670500D01*
X15734500Y-11620500D02*
G75*
G03*
X15734500Y-11620500I-50000J0D01*
G01*
X16013500Y-9538500D02*
X16113500Y-9638500D01*
X16113500Y-9538500D02*
X16013500Y-9638500D01*
X16113500Y-9588500D02*
G75*
G03*
X16113500Y-9588500I-50000J0D01*
G01*
X11311500Y-7311000D02*
X11421500Y-7421000D01*
X11421500Y-7311000D02*
X11311500Y-7421000D01*
X11366500Y-7311000D02*
X11366500Y-7421000D01*
X11311500Y-7366000D02*
X11421500Y-7366000D01*
X12073500Y-7311000D02*
X12183500Y-7421000D01*
X12183500Y-7311000D02*
X12073500Y-7421000D01*
X12128500Y-7311000D02*
X12128500Y-7421000D01*
X12073500Y-7366000D02*
X12183500Y-7366000D01*
X12708500Y-12772000D02*
X12818500Y-12882000D01*
X12818500Y-12772000D02*
X12708500Y-12882000D01*
X12763500Y-12772000D02*
X12763500Y-12882000D01*
X12708500Y-12827000D02*
X12818500Y-12827000D01*
X12708500Y-13222000D02*
X12818500Y-13332000D01*
X12818500Y-13222000D02*
X12708500Y-13332000D01*
X12763500Y-13222000D02*
X12763500Y-13332000D01*
X12708500Y-13277000D02*
X12818500Y-13277000D01*
X13358500Y-12772000D02*
X13468500Y-12882000D01*
X13468500Y-12772000D02*
X13358500Y-12882000D01*
X13413500Y-12772000D02*
X13413500Y-12882000D01*
X13358500Y-12827000D02*
X13468500Y-12827000D01*
X13358500Y-13222000D02*
X13468500Y-13332000D01*
X13468500Y-13222000D02*
X13358500Y-13332000D01*
X13413500Y-13222000D02*
X13413500Y-13332000D01*
X13358500Y-13277000D02*
X13468500Y-13277000D01*
X14879500Y-10835500D02*
X14989500Y-10945500D01*
X14989500Y-10835500D02*
X14879500Y-10945500D01*
X14934500Y-10835500D02*
X14934500Y-10945500D01*
X14879500Y-10890500D02*
X14989500Y-10890500D01*
X14994500Y-10845500D02*
X14874500Y-10845500D01*
X14994500Y-10935500D02*
X14874500Y-10935500D01*
X14874500Y-10845500D02*
G75*
G03*
X14874500Y-10935500I0J-45000D01*
G01*
X14994500Y-10935500D02*
G75*
G03*
X14994500Y-10845500I0J45000D01*
G01*
X14879500Y-11795500D02*
X14989500Y-11905500D01*
X14989500Y-11795500D02*
X14879500Y-11905500D01*
X14934500Y-11795500D02*
X14934500Y-11905500D01*
X14879500Y-11850500D02*
X14989500Y-11850500D01*
X14994500Y-11805500D02*
X14874500Y-11805500D01*
X14994500Y-11895500D02*
X14874500Y-11895500D01*
X14874500Y-11805500D02*
G75*
G03*
X14874500Y-11895500I0J-45000D01*
G01*
X14994500Y-11895500D02*
G75*
G03*
X14994500Y-11805500I0J45000D01*
G01*
D12*
X9999428Y-14311214D02*
X9999428Y-14011214D01*
X10070857Y-14011214D01*
X10113714Y-14025500D01*
X10142286Y-14054071D01*
X10156571Y-14082643D01*
X10170857Y-14139786D01*
X10170857Y-14182643D01*
X10156571Y-14239786D01*
X10142286Y-14268357D01*
X10113714Y-14296929D01*
X10070857Y-14311214D01*
X9999428Y-14311214D01*
X10299428Y-14311214D02*
X10299428Y-14111214D01*
X10299428Y-14168357D02*
X10313714Y-14139786D01*
X10328000Y-14125500D01*
X10356571Y-14111214D01*
X10385143Y-14111214D01*
X10485143Y-14311214D02*
X10485143Y-14111214D01*
X10485143Y-14011214D02*
X10470857Y-14025500D01*
X10485143Y-14039786D01*
X10499428Y-14025500D01*
X10485143Y-14011214D01*
X10485143Y-14039786D01*
X10670857Y-14311214D02*
X10642286Y-14296929D01*
X10628000Y-14268357D01*
X10628000Y-14011214D01*
X10828000Y-14311214D02*
X10799428Y-14296929D01*
X10785143Y-14268357D01*
X10785143Y-14011214D01*
X11170857Y-14311214D02*
X11170857Y-14011214D01*
X11270857Y-14225500D01*
X11370857Y-14011214D01*
X11370857Y-14311214D01*
X11642286Y-14311214D02*
X11642286Y-14154071D01*
X11628000Y-14125500D01*
X11599428Y-14111214D01*
X11542286Y-14111214D01*
X11513714Y-14125500D01*
X11642286Y-14296929D02*
X11613714Y-14311214D01*
X11542286Y-14311214D01*
X11513714Y-14296929D01*
X11499428Y-14268357D01*
X11499428Y-14239786D01*
X11513714Y-14211214D01*
X11542286Y-14196929D01*
X11613714Y-14196929D01*
X11642286Y-14182643D01*
X11785143Y-14111214D02*
X11785143Y-14411214D01*
X11785143Y-14125500D02*
X11813714Y-14111214D01*
X11870857Y-14111214D01*
X11899428Y-14125500D01*
X11913714Y-14139786D01*
X11928000Y-14168357D01*
X11928000Y-14254071D01*
X11913714Y-14282643D01*
X11899428Y-14296929D01*
X11870857Y-14311214D01*
X11813714Y-14311214D01*
X11785143Y-14296929D01*
X12056571Y-14282643D02*
X12070857Y-14296929D01*
X12056571Y-14311214D01*
X12042286Y-14296929D01*
X12056571Y-14282643D01*
X12056571Y-14311214D01*
X12056571Y-14125500D02*
X12070857Y-14139786D01*
X12056571Y-14154071D01*
X12042286Y-14139786D01*
X12056571Y-14125500D01*
X12056571Y-14154071D01*
X9673000Y-14785500D02*
X9713000Y-14825500D01*
X9713000Y-14785500D02*
X9673000Y-14825500D01*
X10056571Y-14641214D02*
X10085143Y-14641214D01*
X10113714Y-14655500D01*
X10128000Y-14669786D01*
X10142286Y-14698357D01*
X10156571Y-14755500D01*
X10156571Y-14826929D01*
X10142286Y-14884071D01*
X10128000Y-14912643D01*
X10113714Y-14926929D01*
X10085143Y-14941214D01*
X10056571Y-14941214D01*
X10028000Y-14926929D01*
X10013714Y-14912643D01*
X9999428Y-14884071D01*
X9985143Y-14826929D01*
X9985143Y-14755500D01*
X9999428Y-14698357D01*
X10013714Y-14669786D01*
X10028000Y-14655500D01*
X10056571Y-14641214D01*
X10285143Y-14912643D02*
X10299428Y-14926929D01*
X10285143Y-14941214D01*
X10270857Y-14926929D01*
X10285143Y-14912643D01*
X10285143Y-14941214D01*
X10556571Y-14741214D02*
X10556571Y-14941214D01*
X10485143Y-14626929D02*
X10413714Y-14841214D01*
X10599428Y-14841214D01*
X10770857Y-14641214D02*
X10799428Y-14641214D01*
X10828000Y-14655500D01*
X10842286Y-14669786D01*
X10856571Y-14698357D01*
X10870857Y-14755500D01*
X10870857Y-14826929D01*
X10856571Y-14884071D01*
X10842286Y-14912643D01*
X10828000Y-14926929D01*
X10799428Y-14941214D01*
X10770857Y-14941214D01*
X10742286Y-14926929D01*
X10728000Y-14912643D01*
X10713714Y-14884071D01*
X10699428Y-14826929D01*
X10699428Y-14755500D01*
X10713714Y-14698357D01*
X10728000Y-14669786D01*
X10742286Y-14655500D01*
X10770857Y-14641214D01*
X11056571Y-14641214D02*
X11085143Y-14641214D01*
X11113714Y-14655500D01*
X11128000Y-14669786D01*
X11142286Y-14698357D01*
X11156571Y-14755500D01*
X11156571Y-14826929D01*
X11142286Y-14884071D01*
X11128000Y-14912643D01*
X11113714Y-14926929D01*
X11085143Y-14941214D01*
X11056571Y-14941214D01*
X11028000Y-14926929D01*
X11013714Y-14912643D01*
X10999428Y-14884071D01*
X10985143Y-14826929D01*
X10985143Y-14755500D01*
X10999428Y-14698357D01*
X11013714Y-14669786D01*
X11028000Y-14655500D01*
X11056571Y-14641214D01*
X11285143Y-14941214D02*
X11285143Y-14741214D01*
X11285143Y-14769786D02*
X11299428Y-14755500D01*
X11328000Y-14741214D01*
X11370857Y-14741214D01*
X11399428Y-14755500D01*
X11413714Y-14784071D01*
X11413714Y-14941214D01*
X11413714Y-14784071D02*
X11428000Y-14755500D01*
X11456571Y-14741214D01*
X11499428Y-14741214D01*
X11528000Y-14755500D01*
X11542286Y-14784071D01*
X11542286Y-14941214D01*
X11685143Y-14941214D02*
X11685143Y-14741214D01*
X11685143Y-14769786D02*
X11699428Y-14755500D01*
X11728000Y-14741214D01*
X11770857Y-14741214D01*
X11799428Y-14755500D01*
X11813714Y-14784071D01*
X11813714Y-14941214D01*
X11813714Y-14784071D02*
X11828000Y-14755500D01*
X11856571Y-14741214D01*
X11899428Y-14741214D01*
X11928000Y-14755500D01*
X11942286Y-14784071D01*
X11942286Y-14941214D01*
X12528000Y-14626929D02*
X12270857Y-15012643D01*
X12913714Y-14641214D02*
X12942286Y-14641214D01*
X12970857Y-14655500D01*
X12985143Y-14669786D01*
X12999428Y-14698357D01*
X13013714Y-14755500D01*
X13013714Y-14826929D01*
X12999428Y-14884071D01*
X12985143Y-14912643D01*
X12970857Y-14926929D01*
X12942286Y-14941214D01*
X12913714Y-14941214D01*
X12885143Y-14926929D01*
X12870857Y-14912643D01*
X12856571Y-14884071D01*
X12842286Y-14826929D01*
X12842286Y-14755500D01*
X12856571Y-14698357D01*
X12870857Y-14669786D01*
X12885143Y-14655500D01*
X12913714Y-14641214D01*
X13142286Y-14912643D02*
X13156571Y-14926929D01*
X13142286Y-14941214D01*
X13128000Y-14926929D01*
X13142286Y-14912643D01*
X13142286Y-14941214D01*
X13342286Y-14641214D02*
X13370857Y-14641214D01*
X13399428Y-14655500D01*
X13413714Y-14669786D01*
X13428000Y-14698357D01*
X13442286Y-14755500D01*
X13442286Y-14826929D01*
X13428000Y-14884071D01*
X13413714Y-14912643D01*
X13399428Y-14926929D01*
X13370857Y-14941214D01*
X13342286Y-14941214D01*
X13313714Y-14926929D01*
X13299428Y-14912643D01*
X13285143Y-14884071D01*
X13270857Y-14826929D01*
X13270857Y-14755500D01*
X13285143Y-14698357D01*
X13299428Y-14669786D01*
X13313714Y-14655500D01*
X13342286Y-14641214D01*
X13728000Y-14941214D02*
X13556571Y-14941214D01*
X13642286Y-14941214D02*
X13642286Y-14641214D01*
X13613714Y-14684071D01*
X13585143Y-14712643D01*
X13556571Y-14726929D01*
X13999428Y-14641214D02*
X13856571Y-14641214D01*
X13842286Y-14784071D01*
X13856571Y-14769786D01*
X13885143Y-14755500D01*
X13956571Y-14755500D01*
X13985143Y-14769786D01*
X13999428Y-14784071D01*
X14013714Y-14812643D01*
X14013714Y-14884071D01*
X13999428Y-14912643D01*
X13985143Y-14926929D01*
X13956571Y-14941214D01*
X13885143Y-14941214D01*
X13856571Y-14926929D01*
X13842286Y-14912643D01*
X14113714Y-14641214D02*
X14313714Y-14641214D01*
X14185143Y-14941214D01*
X14413714Y-14641214D02*
X14413714Y-14698357D01*
X14528000Y-14641214D02*
X14528000Y-14698357D01*
X14970857Y-15055500D02*
X14956571Y-15041214D01*
X14928000Y-14998357D01*
X14913714Y-14969786D01*
X14899428Y-14926929D01*
X14885143Y-14855500D01*
X14885143Y-14798357D01*
X14899428Y-14726929D01*
X14913714Y-14684071D01*
X14928000Y-14655500D01*
X14956571Y-14612643D01*
X14970857Y-14598357D01*
X15242286Y-14941214D02*
X15070857Y-14941214D01*
X15156571Y-14941214D02*
X15156571Y-14641214D01*
X15128000Y-14684071D01*
X15099428Y-14712643D01*
X15070857Y-14726929D01*
X15342286Y-14641214D02*
X15528000Y-14641214D01*
X15428000Y-14755500D01*
X15470857Y-14755500D01*
X15499428Y-14769786D01*
X15513714Y-14784071D01*
X15528000Y-14812643D01*
X15528000Y-14884071D01*
X15513714Y-14912643D01*
X15499428Y-14926929D01*
X15470857Y-14941214D01*
X15385143Y-14941214D01*
X15356571Y-14926929D01*
X15342286Y-14912643D01*
X15885143Y-14941214D02*
X15885143Y-14641214D01*
X16013714Y-14941214D02*
X16013714Y-14784071D01*
X15999428Y-14755500D01*
X15970857Y-14741214D01*
X15928000Y-14741214D01*
X15899428Y-14755500D01*
X15885143Y-14769786D01*
X16199428Y-14941214D02*
X16170857Y-14926929D01*
X16156571Y-14912643D01*
X16142286Y-14884071D01*
X16142286Y-14798357D01*
X16156571Y-14769786D01*
X16170857Y-14755500D01*
X16199428Y-14741214D01*
X16242286Y-14741214D01*
X16270857Y-14755500D01*
X16285143Y-14769786D01*
X16299428Y-14798357D01*
X16299428Y-14884071D01*
X16285143Y-14912643D01*
X16270857Y-14926929D01*
X16242286Y-14941214D01*
X16199428Y-14941214D01*
X16470857Y-14941214D02*
X16442286Y-14926929D01*
X16428000Y-14898357D01*
X16428000Y-14641214D01*
X16699428Y-14926929D02*
X16670857Y-14941214D01*
X16613714Y-14941214D01*
X16585143Y-14926929D01*
X16570857Y-14898357D01*
X16570857Y-14784071D01*
X16585143Y-14755500D01*
X16613714Y-14741214D01*
X16670857Y-14741214D01*
X16699428Y-14755500D01*
X16713714Y-14784071D01*
X16713714Y-14812643D01*
X16570857Y-14841214D01*
X16828000Y-14926929D02*
X16856571Y-14941214D01*
X16913714Y-14941214D01*
X16942286Y-14926929D01*
X16956571Y-14898357D01*
X16956571Y-14884071D01*
X16942286Y-14855500D01*
X16913714Y-14841214D01*
X16870857Y-14841214D01*
X16842286Y-14826929D01*
X16828000Y-14798357D01*
X16828000Y-14784071D01*
X16842286Y-14755500D01*
X16870857Y-14741214D01*
X16913714Y-14741214D01*
X16942286Y-14755500D01*
X17056571Y-15055500D02*
X17070857Y-15041214D01*
X17099428Y-14998357D01*
X17113714Y-14969786D01*
X17128000Y-14926929D01*
X17142286Y-14855500D01*
X17142286Y-14798357D01*
X17128000Y-14726929D01*
X17113714Y-14684071D01*
X17099428Y-14655500D01*
X17070857Y-14612643D01*
X17056571Y-14598357D01*
X9713000Y-15201500D02*
G75*
G03*
X9713000Y-15201500I-38100J0D01*
G01*
X10056571Y-15037214D02*
X10085143Y-15037214D01*
X10113714Y-15051500D01*
X10128000Y-15065786D01*
X10142286Y-15094357D01*
X10156571Y-15151500D01*
X10156571Y-15222929D01*
X10142286Y-15280071D01*
X10128000Y-15308643D01*
X10113714Y-15322929D01*
X10085143Y-15337214D01*
X10056571Y-15337214D01*
X10028000Y-15322929D01*
X10013714Y-15308643D01*
X9999428Y-15280071D01*
X9985143Y-15222929D01*
X9985143Y-15151500D01*
X9999428Y-15094357D01*
X10013714Y-15065786D01*
X10028000Y-15051500D01*
X10056571Y-15037214D01*
X10285143Y-15308643D02*
X10299428Y-15322929D01*
X10285143Y-15337214D01*
X10270857Y-15322929D01*
X10285143Y-15308643D01*
X10285143Y-15337214D01*
X10399428Y-15037214D02*
X10599428Y-15037214D01*
X10470857Y-15337214D01*
X10842286Y-15037214D02*
X10785143Y-15037214D01*
X10756571Y-15051500D01*
X10742286Y-15065786D01*
X10713714Y-15108643D01*
X10699428Y-15165786D01*
X10699428Y-15280071D01*
X10713714Y-15308643D01*
X10728000Y-15322929D01*
X10756571Y-15337214D01*
X10813714Y-15337214D01*
X10842286Y-15322929D01*
X10856571Y-15308643D01*
X10870857Y-15280071D01*
X10870857Y-15208643D01*
X10856571Y-15180071D01*
X10842286Y-15165786D01*
X10813714Y-15151500D01*
X10756571Y-15151500D01*
X10728000Y-15165786D01*
X10713714Y-15180071D01*
X10699428Y-15208643D01*
X10985143Y-15065786D02*
X10999428Y-15051500D01*
X11028000Y-15037214D01*
X11099428Y-15037214D01*
X11128000Y-15051500D01*
X11142286Y-15065786D01*
X11156571Y-15094357D01*
X11156571Y-15122929D01*
X11142286Y-15165786D01*
X10970857Y-15337214D01*
X11156571Y-15337214D01*
X11285143Y-15337214D02*
X11285143Y-15137214D01*
X11285143Y-15165786D02*
X11299428Y-15151500D01*
X11328000Y-15137214D01*
X11370857Y-15137214D01*
X11399428Y-15151500D01*
X11413714Y-15180071D01*
X11413714Y-15337214D01*
X11413714Y-15180071D02*
X11428000Y-15151500D01*
X11456571Y-15137214D01*
X11499428Y-15137214D01*
X11528000Y-15151500D01*
X11542286Y-15180071D01*
X11542286Y-15337214D01*
X11685143Y-15337214D02*
X11685143Y-15137214D01*
X11685143Y-15165786D02*
X11699428Y-15151500D01*
X11728000Y-15137214D01*
X11770857Y-15137214D01*
X11799428Y-15151500D01*
X11813714Y-15180071D01*
X11813714Y-15337214D01*
X11813714Y-15180071D02*
X11828000Y-15151500D01*
X11856571Y-15137214D01*
X11899428Y-15137214D01*
X11928000Y-15151500D01*
X11942286Y-15180071D01*
X11942286Y-15337214D01*
X12528000Y-15022929D02*
X12270857Y-15408643D01*
X12913714Y-15037214D02*
X12942286Y-15037214D01*
X12970857Y-15051500D01*
X12985143Y-15065786D01*
X12999428Y-15094357D01*
X13013714Y-15151500D01*
X13013714Y-15222929D01*
X12999428Y-15280071D01*
X12985143Y-15308643D01*
X12970857Y-15322929D01*
X12942286Y-15337214D01*
X12913714Y-15337214D01*
X12885143Y-15322929D01*
X12870857Y-15308643D01*
X12856571Y-15280071D01*
X12842286Y-15222929D01*
X12842286Y-15151500D01*
X12856571Y-15094357D01*
X12870857Y-15065786D01*
X12885143Y-15051500D01*
X12913714Y-15037214D01*
X13142286Y-15308643D02*
X13156571Y-15322929D01*
X13142286Y-15337214D01*
X13128000Y-15322929D01*
X13142286Y-15308643D01*
X13142286Y-15337214D01*
X13342286Y-15037214D02*
X13370857Y-15037214D01*
X13399428Y-15051500D01*
X13413714Y-15065786D01*
X13428000Y-15094357D01*
X13442286Y-15151500D01*
X13442286Y-15222929D01*
X13428000Y-15280071D01*
X13413714Y-15308643D01*
X13399428Y-15322929D01*
X13370857Y-15337214D01*
X13342286Y-15337214D01*
X13313714Y-15322929D01*
X13299428Y-15308643D01*
X13285143Y-15280071D01*
X13270857Y-15222929D01*
X13270857Y-15151500D01*
X13285143Y-15094357D01*
X13299428Y-15065786D01*
X13313714Y-15051500D01*
X13342286Y-15037214D01*
X13542286Y-15037214D02*
X13728000Y-15037214D01*
X13628000Y-15151500D01*
X13670857Y-15151500D01*
X13699428Y-15165786D01*
X13713714Y-15180071D01*
X13728000Y-15208643D01*
X13728000Y-15280071D01*
X13713714Y-15308643D01*
X13699428Y-15322929D01*
X13670857Y-15337214D01*
X13585143Y-15337214D01*
X13556571Y-15322929D01*
X13542286Y-15308643D01*
X13913714Y-15037214D02*
X13942286Y-15037214D01*
X13970857Y-15051500D01*
X13985143Y-15065786D01*
X13999428Y-15094357D01*
X14013714Y-15151500D01*
X14013714Y-15222929D01*
X13999428Y-15280071D01*
X13985143Y-15308643D01*
X13970857Y-15322929D01*
X13942286Y-15337214D01*
X13913714Y-15337214D01*
X13885143Y-15322929D01*
X13870857Y-15308643D01*
X13856571Y-15280071D01*
X13842286Y-15222929D01*
X13842286Y-15151500D01*
X13856571Y-15094357D01*
X13870857Y-15065786D01*
X13885143Y-15051500D01*
X13913714Y-15037214D01*
X14199428Y-15037214D02*
X14228000Y-15037214D01*
X14256571Y-15051500D01*
X14270857Y-15065786D01*
X14285143Y-15094357D01*
X14299428Y-15151500D01*
X14299428Y-15222929D01*
X14285143Y-15280071D01*
X14270857Y-15308643D01*
X14256571Y-15322929D01*
X14228000Y-15337214D01*
X14199428Y-15337214D01*
X14170857Y-15322929D01*
X14156571Y-15308643D01*
X14142286Y-15280071D01*
X14128000Y-15222929D01*
X14128000Y-15151500D01*
X14142286Y-15094357D01*
X14156571Y-15065786D01*
X14170857Y-15051500D01*
X14199428Y-15037214D01*
X14413714Y-15037214D02*
X14413714Y-15094357D01*
X14528000Y-15037214D02*
X14528000Y-15094357D01*
X14970857Y-15451500D02*
X14956571Y-15437214D01*
X14928000Y-15394357D01*
X14913714Y-15365786D01*
X14899428Y-15322929D01*
X14885143Y-15251500D01*
X14885143Y-15194357D01*
X14899428Y-15122929D01*
X14913714Y-15080071D01*
X14928000Y-15051500D01*
X14956571Y-15008643D01*
X14970857Y-14994357D01*
X15242286Y-15337214D02*
X15070857Y-15337214D01*
X15156571Y-15337214D02*
X15156571Y-15037214D01*
X15128000Y-15080071D01*
X15099428Y-15108643D01*
X15070857Y-15122929D01*
X15356571Y-15065786D02*
X15370857Y-15051500D01*
X15399428Y-15037214D01*
X15470857Y-15037214D01*
X15499428Y-15051500D01*
X15513714Y-15065786D01*
X15528000Y-15094357D01*
X15528000Y-15122929D01*
X15513714Y-15165786D01*
X15342286Y-15337214D01*
X15528000Y-15337214D01*
X15885143Y-15337214D02*
X15885143Y-15037214D01*
X16013714Y-15337214D02*
X16013714Y-15180071D01*
X15999428Y-15151500D01*
X15970857Y-15137214D01*
X15928000Y-15137214D01*
X15899428Y-15151500D01*
X15885143Y-15165786D01*
X16199428Y-15337214D02*
X16170857Y-15322929D01*
X16156571Y-15308643D01*
X16142286Y-15280071D01*
X16142286Y-15194357D01*
X16156571Y-15165786D01*
X16170857Y-15151500D01*
X16199428Y-15137214D01*
X16242286Y-15137214D01*
X16270857Y-15151500D01*
X16285143Y-15165786D01*
X16299428Y-15194357D01*
X16299428Y-15280071D01*
X16285143Y-15308643D01*
X16270857Y-15322929D01*
X16242286Y-15337214D01*
X16199428Y-15337214D01*
X16470857Y-15337214D02*
X16442286Y-15322929D01*
X16428000Y-15294357D01*
X16428000Y-15037214D01*
X16699428Y-15322929D02*
X16670857Y-15337214D01*
X16613714Y-15337214D01*
X16585143Y-15322929D01*
X16570857Y-15294357D01*
X16570857Y-15180071D01*
X16585143Y-15151500D01*
X16613714Y-15137214D01*
X16670857Y-15137214D01*
X16699428Y-15151500D01*
X16713714Y-15180071D01*
X16713714Y-15208643D01*
X16570857Y-15237214D01*
X16828000Y-15322929D02*
X16856571Y-15337214D01*
X16913714Y-15337214D01*
X16942286Y-15322929D01*
X16956571Y-15294357D01*
X16956571Y-15280071D01*
X16942286Y-15251500D01*
X16913714Y-15237214D01*
X16870857Y-15237214D01*
X16842286Y-15222929D01*
X16828000Y-15194357D01*
X16828000Y-15180071D01*
X16842286Y-15151500D01*
X16870857Y-15137214D01*
X16913714Y-15137214D01*
X16942286Y-15151500D01*
X17056571Y-15451500D02*
X17070857Y-15437214D01*
X17099428Y-15394357D01*
X17113714Y-15365786D01*
X17128000Y-15322929D01*
X17142286Y-15251500D01*
X17142286Y-15194357D01*
X17128000Y-15122929D01*
X17113714Y-15080071D01*
X17099428Y-15051500D01*
X17070857Y-15008643D01*
X17056571Y-14994357D01*
X9673000Y-15557500D02*
X9673000Y-15637500D01*
X9633000Y-15597500D02*
X9713000Y-15597500D01*
X10056571Y-15433214D02*
X10085143Y-15433214D01*
X10113714Y-15447500D01*
X10128000Y-15461786D01*
X10142286Y-15490357D01*
X10156571Y-15547500D01*
X10156571Y-15618929D01*
X10142286Y-15676071D01*
X10128000Y-15704643D01*
X10113714Y-15718929D01*
X10085143Y-15733214D01*
X10056571Y-15733214D01*
X10028000Y-15718929D01*
X10013714Y-15704643D01*
X9999428Y-15676071D01*
X9985143Y-15618929D01*
X9985143Y-15547500D01*
X9999428Y-15490357D01*
X10013714Y-15461786D01*
X10028000Y-15447500D01*
X10056571Y-15433214D01*
X10285143Y-15704643D02*
X10299428Y-15718929D01*
X10285143Y-15733214D01*
X10270857Y-15718929D01*
X10285143Y-15704643D01*
X10285143Y-15733214D01*
X10470857Y-15561786D02*
X10442286Y-15547500D01*
X10428000Y-15533214D01*
X10413714Y-15504643D01*
X10413714Y-15490357D01*
X10428000Y-15461786D01*
X10442286Y-15447500D01*
X10470857Y-15433214D01*
X10528000Y-15433214D01*
X10556571Y-15447500D01*
X10570857Y-15461786D01*
X10585143Y-15490357D01*
X10585143Y-15504643D01*
X10570857Y-15533214D01*
X10556571Y-15547500D01*
X10528000Y-15561786D01*
X10470857Y-15561786D01*
X10442286Y-15576071D01*
X10428000Y-15590357D01*
X10413714Y-15618929D01*
X10413714Y-15676071D01*
X10428000Y-15704643D01*
X10442286Y-15718929D01*
X10470857Y-15733214D01*
X10528000Y-15733214D01*
X10556571Y-15718929D01*
X10570857Y-15704643D01*
X10585143Y-15676071D01*
X10585143Y-15618929D01*
X10570857Y-15590357D01*
X10556571Y-15576071D01*
X10528000Y-15561786D01*
X10770857Y-15433214D02*
X10799428Y-15433214D01*
X10828000Y-15447500D01*
X10842286Y-15461786D01*
X10856571Y-15490357D01*
X10870857Y-15547500D01*
X10870857Y-15618929D01*
X10856571Y-15676071D01*
X10842286Y-15704643D01*
X10828000Y-15718929D01*
X10799428Y-15733214D01*
X10770857Y-15733214D01*
X10742286Y-15718929D01*
X10728000Y-15704643D01*
X10713714Y-15676071D01*
X10699428Y-15618929D01*
X10699428Y-15547500D01*
X10713714Y-15490357D01*
X10728000Y-15461786D01*
X10742286Y-15447500D01*
X10770857Y-15433214D01*
X11056571Y-15433214D02*
X11085143Y-15433214D01*
X11113714Y-15447500D01*
X11128000Y-15461786D01*
X11142286Y-15490357D01*
X11156571Y-15547500D01*
X11156571Y-15618929D01*
X11142286Y-15676071D01*
X11128000Y-15704643D01*
X11113714Y-15718929D01*
X11085143Y-15733214D01*
X11056571Y-15733214D01*
X11028000Y-15718929D01*
X11013714Y-15704643D01*
X10999428Y-15676071D01*
X10985143Y-15618929D01*
X10985143Y-15547500D01*
X10999428Y-15490357D01*
X11013714Y-15461786D01*
X11028000Y-15447500D01*
X11056571Y-15433214D01*
X11285143Y-15733214D02*
X11285143Y-15533214D01*
X11285143Y-15561786D02*
X11299428Y-15547500D01*
X11328000Y-15533214D01*
X11370857Y-15533214D01*
X11399428Y-15547500D01*
X11413714Y-15576071D01*
X11413714Y-15733214D01*
X11413714Y-15576071D02*
X11428000Y-15547500D01*
X11456571Y-15533214D01*
X11499428Y-15533214D01*
X11528000Y-15547500D01*
X11542286Y-15576071D01*
X11542286Y-15733214D01*
X11685143Y-15733214D02*
X11685143Y-15533214D01*
X11685143Y-15561786D02*
X11699428Y-15547500D01*
X11728000Y-15533214D01*
X11770857Y-15533214D01*
X11799428Y-15547500D01*
X11813714Y-15576071D01*
X11813714Y-15733214D01*
X11813714Y-15576071D02*
X11828000Y-15547500D01*
X11856571Y-15533214D01*
X11899428Y-15533214D01*
X11928000Y-15547500D01*
X11942286Y-15576071D01*
X11942286Y-15733214D01*
X12528000Y-15418929D02*
X12270857Y-15804643D01*
X12913714Y-15433214D02*
X12942286Y-15433214D01*
X12970857Y-15447500D01*
X12985143Y-15461786D01*
X12999428Y-15490357D01*
X13013714Y-15547500D01*
X13013714Y-15618929D01*
X12999428Y-15676071D01*
X12985143Y-15704643D01*
X12970857Y-15718929D01*
X12942286Y-15733214D01*
X12913714Y-15733214D01*
X12885143Y-15718929D01*
X12870857Y-15704643D01*
X12856571Y-15676071D01*
X12842286Y-15618929D01*
X12842286Y-15547500D01*
X12856571Y-15490357D01*
X12870857Y-15461786D01*
X12885143Y-15447500D01*
X12913714Y-15433214D01*
X13142286Y-15704643D02*
X13156571Y-15718929D01*
X13142286Y-15733214D01*
X13128000Y-15718929D01*
X13142286Y-15704643D01*
X13142286Y-15733214D01*
X13342286Y-15433214D02*
X13370857Y-15433214D01*
X13399428Y-15447500D01*
X13413714Y-15461786D01*
X13428000Y-15490357D01*
X13442286Y-15547500D01*
X13442286Y-15618929D01*
X13428000Y-15676071D01*
X13413714Y-15704643D01*
X13399428Y-15718929D01*
X13370857Y-15733214D01*
X13342286Y-15733214D01*
X13313714Y-15718929D01*
X13299428Y-15704643D01*
X13285143Y-15676071D01*
X13270857Y-15618929D01*
X13270857Y-15547500D01*
X13285143Y-15490357D01*
X13299428Y-15461786D01*
X13313714Y-15447500D01*
X13342286Y-15433214D01*
X13542286Y-15433214D02*
X13728000Y-15433214D01*
X13628000Y-15547500D01*
X13670857Y-15547500D01*
X13699428Y-15561786D01*
X13713714Y-15576071D01*
X13728000Y-15604643D01*
X13728000Y-15676071D01*
X13713714Y-15704643D01*
X13699428Y-15718929D01*
X13670857Y-15733214D01*
X13585143Y-15733214D01*
X13556571Y-15718929D01*
X13542286Y-15704643D01*
X14013714Y-15733214D02*
X13842286Y-15733214D01*
X13928000Y-15733214D02*
X13928000Y-15433214D01*
X13899428Y-15476071D01*
X13870857Y-15504643D01*
X13842286Y-15518929D01*
X14285143Y-15433214D02*
X14142286Y-15433214D01*
X14128000Y-15576071D01*
X14142286Y-15561786D01*
X14170857Y-15547500D01*
X14242286Y-15547500D01*
X14270857Y-15561786D01*
X14285143Y-15576071D01*
X14299428Y-15604643D01*
X14299428Y-15676071D01*
X14285143Y-15704643D01*
X14270857Y-15718929D01*
X14242286Y-15733214D01*
X14170857Y-15733214D01*
X14142286Y-15718929D01*
X14128000Y-15704643D01*
X14413714Y-15433214D02*
X14413714Y-15490357D01*
X14528000Y-15433214D02*
X14528000Y-15490357D01*
X14970857Y-15847500D02*
X14956571Y-15833214D01*
X14928000Y-15790357D01*
X14913714Y-15761786D01*
X14899428Y-15718929D01*
X14885143Y-15647500D01*
X14885143Y-15590357D01*
X14899428Y-15518929D01*
X14913714Y-15476071D01*
X14928000Y-15447500D01*
X14956571Y-15404643D01*
X14970857Y-15390357D01*
X15242286Y-15733214D02*
X15070857Y-15733214D01*
X15156571Y-15733214D02*
X15156571Y-15433214D01*
X15128000Y-15476071D01*
X15099428Y-15504643D01*
X15070857Y-15518929D01*
X15513714Y-15433214D02*
X15370857Y-15433214D01*
X15356571Y-15576071D01*
X15370857Y-15561786D01*
X15399428Y-15547500D01*
X15470857Y-15547500D01*
X15499428Y-15561786D01*
X15513714Y-15576071D01*
X15528000Y-15604643D01*
X15528000Y-15676071D01*
X15513714Y-15704643D01*
X15499428Y-15718929D01*
X15470857Y-15733214D01*
X15399428Y-15733214D01*
X15370857Y-15718929D01*
X15356571Y-15704643D01*
X15885143Y-15733214D02*
X15885143Y-15433214D01*
X16013714Y-15733214D02*
X16013714Y-15576071D01*
X15999428Y-15547500D01*
X15970857Y-15533214D01*
X15928000Y-15533214D01*
X15899428Y-15547500D01*
X15885143Y-15561786D01*
X16199428Y-15733214D02*
X16170857Y-15718929D01*
X16156571Y-15704643D01*
X16142286Y-15676071D01*
X16142286Y-15590357D01*
X16156571Y-15561786D01*
X16170857Y-15547500D01*
X16199428Y-15533214D01*
X16242286Y-15533214D01*
X16270857Y-15547500D01*
X16285143Y-15561786D01*
X16299428Y-15590357D01*
X16299428Y-15676071D01*
X16285143Y-15704643D01*
X16270857Y-15718929D01*
X16242286Y-15733214D01*
X16199428Y-15733214D01*
X16470857Y-15733214D02*
X16442286Y-15718929D01*
X16428000Y-15690357D01*
X16428000Y-15433214D01*
X16699428Y-15718929D02*
X16670857Y-15733214D01*
X16613714Y-15733214D01*
X16585143Y-15718929D01*
X16570857Y-15690357D01*
X16570857Y-15576071D01*
X16585143Y-15547500D01*
X16613714Y-15533214D01*
X16670857Y-15533214D01*
X16699428Y-15547500D01*
X16713714Y-15576071D01*
X16713714Y-15604643D01*
X16570857Y-15633214D01*
X16828000Y-15718929D02*
X16856571Y-15733214D01*
X16913714Y-15733214D01*
X16942286Y-15718929D01*
X16956571Y-15690357D01*
X16956571Y-15676071D01*
X16942286Y-15647500D01*
X16913714Y-15633214D01*
X16870857Y-15633214D01*
X16842286Y-15618929D01*
X16828000Y-15590357D01*
X16828000Y-15576071D01*
X16842286Y-15547500D01*
X16870857Y-15533214D01*
X16913714Y-15533214D01*
X16942286Y-15547500D01*
X17056571Y-15847500D02*
X17070857Y-15833214D01*
X17099428Y-15790357D01*
X17113714Y-15761786D01*
X17128000Y-15718929D01*
X17142286Y-15647500D01*
X17142286Y-15590357D01*
X17128000Y-15518929D01*
X17113714Y-15476071D01*
X17099428Y-15447500D01*
X17070857Y-15404643D01*
X17056571Y-15390357D01*
X9700377Y-16023977D02*
X9700377Y-15963023D01*
X9639423Y-15963023D01*
X9639423Y-16023977D01*
X9700377Y-16023977D01*
X10056571Y-15829214D02*
X10085143Y-15829214D01*
X10113714Y-15843500D01*
X10128000Y-15857786D01*
X10142286Y-15886357D01*
X10156571Y-15943500D01*
X10156571Y-16014929D01*
X10142286Y-16072071D01*
X10128000Y-16100643D01*
X10113714Y-16114929D01*
X10085143Y-16129214D01*
X10056571Y-16129214D01*
X10028000Y-16114929D01*
X10013714Y-16100643D01*
X9999428Y-16072071D01*
X9985143Y-16014929D01*
X9985143Y-15943500D01*
X9999428Y-15886357D01*
X10013714Y-15857786D01*
X10028000Y-15843500D01*
X10056571Y-15829214D01*
X10285143Y-16100643D02*
X10299428Y-16114929D01*
X10285143Y-16129214D01*
X10270857Y-16114929D01*
X10285143Y-16100643D01*
X10285143Y-16129214D01*
X10470857Y-15957786D02*
X10442286Y-15943500D01*
X10428000Y-15929214D01*
X10413714Y-15900643D01*
X10413714Y-15886357D01*
X10428000Y-15857786D01*
X10442286Y-15843500D01*
X10470857Y-15829214D01*
X10528000Y-15829214D01*
X10556571Y-15843500D01*
X10570857Y-15857786D01*
X10585143Y-15886357D01*
X10585143Y-15900643D01*
X10570857Y-15929214D01*
X10556571Y-15943500D01*
X10528000Y-15957786D01*
X10470857Y-15957786D01*
X10442286Y-15972071D01*
X10428000Y-15986357D01*
X10413714Y-16014929D01*
X10413714Y-16072071D01*
X10428000Y-16100643D01*
X10442286Y-16114929D01*
X10470857Y-16129214D01*
X10528000Y-16129214D01*
X10556571Y-16114929D01*
X10570857Y-16100643D01*
X10585143Y-16072071D01*
X10585143Y-16014929D01*
X10570857Y-15986357D01*
X10556571Y-15972071D01*
X10528000Y-15957786D01*
X10842286Y-15829214D02*
X10785143Y-15829214D01*
X10756571Y-15843500D01*
X10742286Y-15857786D01*
X10713714Y-15900643D01*
X10699428Y-15957786D01*
X10699428Y-16072071D01*
X10713714Y-16100643D01*
X10728000Y-16114929D01*
X10756571Y-16129214D01*
X10813714Y-16129214D01*
X10842286Y-16114929D01*
X10856571Y-16100643D01*
X10870857Y-16072071D01*
X10870857Y-16000643D01*
X10856571Y-15972071D01*
X10842286Y-15957786D01*
X10813714Y-15943500D01*
X10756571Y-15943500D01*
X10728000Y-15957786D01*
X10713714Y-15972071D01*
X10699428Y-16000643D01*
X10985143Y-15857786D02*
X10999428Y-15843500D01*
X11028000Y-15829214D01*
X11099428Y-15829214D01*
X11128000Y-15843500D01*
X11142286Y-15857786D01*
X11156571Y-15886357D01*
X11156571Y-15914929D01*
X11142286Y-15957786D01*
X10970857Y-16129214D01*
X11156571Y-16129214D01*
X11285143Y-16129214D02*
X11285143Y-15929214D01*
X11285143Y-15957786D02*
X11299428Y-15943500D01*
X11328000Y-15929214D01*
X11370857Y-15929214D01*
X11399428Y-15943500D01*
X11413714Y-15972071D01*
X11413714Y-16129214D01*
X11413714Y-15972071D02*
X11428000Y-15943500D01*
X11456571Y-15929214D01*
X11499428Y-15929214D01*
X11528000Y-15943500D01*
X11542286Y-15972071D01*
X11542286Y-16129214D01*
X11685143Y-16129214D02*
X11685143Y-15929214D01*
X11685143Y-15957786D02*
X11699428Y-15943500D01*
X11728000Y-15929214D01*
X11770857Y-15929214D01*
X11799428Y-15943500D01*
X11813714Y-15972071D01*
X11813714Y-16129214D01*
X11813714Y-15972071D02*
X11828000Y-15943500D01*
X11856571Y-15929214D01*
X11899428Y-15929214D01*
X11928000Y-15943500D01*
X11942286Y-15972071D01*
X11942286Y-16129214D01*
X12528000Y-15814929D02*
X12270857Y-16200643D01*
X12913714Y-15829214D02*
X12942286Y-15829214D01*
X12970857Y-15843500D01*
X12985143Y-15857786D01*
X12999428Y-15886357D01*
X13013714Y-15943500D01*
X13013714Y-16014929D01*
X12999428Y-16072071D01*
X12985143Y-16100643D01*
X12970857Y-16114929D01*
X12942286Y-16129214D01*
X12913714Y-16129214D01*
X12885143Y-16114929D01*
X12870857Y-16100643D01*
X12856571Y-16072071D01*
X12842286Y-16014929D01*
X12842286Y-15943500D01*
X12856571Y-15886357D01*
X12870857Y-15857786D01*
X12885143Y-15843500D01*
X12913714Y-15829214D01*
X13142286Y-16100643D02*
X13156571Y-16114929D01*
X13142286Y-16129214D01*
X13128000Y-16114929D01*
X13142286Y-16100643D01*
X13142286Y-16129214D01*
X13342286Y-15829214D02*
X13370857Y-15829214D01*
X13399428Y-15843500D01*
X13413714Y-15857786D01*
X13428000Y-15886357D01*
X13442286Y-15943500D01*
X13442286Y-16014929D01*
X13428000Y-16072071D01*
X13413714Y-16100643D01*
X13399428Y-16114929D01*
X13370857Y-16129214D01*
X13342286Y-16129214D01*
X13313714Y-16114929D01*
X13299428Y-16100643D01*
X13285143Y-16072071D01*
X13270857Y-16014929D01*
X13270857Y-15943500D01*
X13285143Y-15886357D01*
X13299428Y-15857786D01*
X13313714Y-15843500D01*
X13342286Y-15829214D01*
X13542286Y-15829214D02*
X13728000Y-15829214D01*
X13628000Y-15943500D01*
X13670857Y-15943500D01*
X13699428Y-15957786D01*
X13713714Y-15972071D01*
X13728000Y-16000643D01*
X13728000Y-16072071D01*
X13713714Y-16100643D01*
X13699428Y-16114929D01*
X13670857Y-16129214D01*
X13585143Y-16129214D01*
X13556571Y-16114929D01*
X13542286Y-16100643D01*
X13828000Y-15829214D02*
X14013714Y-15829214D01*
X13913714Y-15943500D01*
X13956571Y-15943500D01*
X13985143Y-15957786D01*
X13999428Y-15972071D01*
X14013714Y-16000643D01*
X14013714Y-16072071D01*
X13999428Y-16100643D01*
X13985143Y-16114929D01*
X13956571Y-16129214D01*
X13870857Y-16129214D01*
X13842286Y-16114929D01*
X13828000Y-16100643D01*
X14156571Y-16129214D02*
X14213714Y-16129214D01*
X14242286Y-16114929D01*
X14256571Y-16100643D01*
X14285143Y-16057786D01*
X14299428Y-16000643D01*
X14299428Y-15886357D01*
X14285143Y-15857786D01*
X14270857Y-15843500D01*
X14242286Y-15829214D01*
X14185143Y-15829214D01*
X14156571Y-15843500D01*
X14142286Y-15857786D01*
X14128000Y-15886357D01*
X14128000Y-15957786D01*
X14142286Y-15986357D01*
X14156571Y-16000643D01*
X14185143Y-16014929D01*
X14242286Y-16014929D01*
X14270857Y-16000643D01*
X14285143Y-15986357D01*
X14299428Y-15957786D01*
X14413714Y-15829214D02*
X14413714Y-15886357D01*
X14528000Y-15829214D02*
X14528000Y-15886357D01*
X14970857Y-16243500D02*
X14956571Y-16229214D01*
X14928000Y-16186357D01*
X14913714Y-16157786D01*
X14899428Y-16114929D01*
X14885143Y-16043500D01*
X14885143Y-15986357D01*
X14899428Y-15914929D01*
X14913714Y-15872071D01*
X14928000Y-15843500D01*
X14956571Y-15800643D01*
X14970857Y-15786357D01*
X15213714Y-15929214D02*
X15213714Y-16129214D01*
X15142286Y-15814929D02*
X15070857Y-16029214D01*
X15256571Y-16029214D01*
X15428000Y-15829214D02*
X15456571Y-15829214D01*
X15485143Y-15843500D01*
X15499428Y-15857786D01*
X15513714Y-15886357D01*
X15528000Y-15943500D01*
X15528000Y-16014929D01*
X15513714Y-16072071D01*
X15499428Y-16100643D01*
X15485143Y-16114929D01*
X15456571Y-16129214D01*
X15428000Y-16129214D01*
X15399428Y-16114929D01*
X15385143Y-16100643D01*
X15370857Y-16072071D01*
X15356571Y-16014929D01*
X15356571Y-15943500D01*
X15370857Y-15886357D01*
X15385143Y-15857786D01*
X15399428Y-15843500D01*
X15428000Y-15829214D01*
X15885143Y-16129214D02*
X15885143Y-15829214D01*
X16013714Y-16129214D02*
X16013714Y-15972071D01*
X15999428Y-15943500D01*
X15970857Y-15929214D01*
X15928000Y-15929214D01*
X15899428Y-15943500D01*
X15885143Y-15957786D01*
X16199428Y-16129214D02*
X16170857Y-16114929D01*
X16156571Y-16100643D01*
X16142286Y-16072071D01*
X16142286Y-15986357D01*
X16156571Y-15957786D01*
X16170857Y-15943500D01*
X16199428Y-15929214D01*
X16242286Y-15929214D01*
X16270857Y-15943500D01*
X16285143Y-15957786D01*
X16299428Y-15986357D01*
X16299428Y-16072071D01*
X16285143Y-16100643D01*
X16270857Y-16114929D01*
X16242286Y-16129214D01*
X16199428Y-16129214D01*
X16470857Y-16129214D02*
X16442286Y-16114929D01*
X16428000Y-16086357D01*
X16428000Y-15829214D01*
X16699428Y-16114929D02*
X16670857Y-16129214D01*
X16613714Y-16129214D01*
X16585143Y-16114929D01*
X16570857Y-16086357D01*
X16570857Y-15972071D01*
X16585143Y-15943500D01*
X16613714Y-15929214D01*
X16670857Y-15929214D01*
X16699428Y-15943500D01*
X16713714Y-15972071D01*
X16713714Y-16000643D01*
X16570857Y-16029214D01*
X16828000Y-16114929D02*
X16856571Y-16129214D01*
X16913714Y-16129214D01*
X16942286Y-16114929D01*
X16956571Y-16086357D01*
X16956571Y-16072071D01*
X16942286Y-16043500D01*
X16913714Y-16029214D01*
X16870857Y-16029214D01*
X16842286Y-16014929D01*
X16828000Y-15986357D01*
X16828000Y-15972071D01*
X16842286Y-15943500D01*
X16870857Y-15929214D01*
X16913714Y-15929214D01*
X16942286Y-15943500D01*
X17056571Y-16243500D02*
X17070857Y-16229214D01*
X17099428Y-16186357D01*
X17113714Y-16157786D01*
X17128000Y-16114929D01*
X17142286Y-16043500D01*
X17142286Y-15986357D01*
X17128000Y-15914929D01*
X17113714Y-15872071D01*
X17099428Y-15843500D01*
X17070857Y-15800643D01*
X17056571Y-15786357D01*
X9668000Y-16434500D02*
X9713000Y-16389500D01*
X9668000Y-16344500D01*
X9623000Y-16389500D01*
X9668000Y-16434500D01*
X10056571Y-16225214D02*
X10085143Y-16225214D01*
X10113714Y-16239500D01*
X10128000Y-16253786D01*
X10142286Y-16282357D01*
X10156571Y-16339500D01*
X10156571Y-16410929D01*
X10142286Y-16468071D01*
X10128000Y-16496643D01*
X10113714Y-16510929D01*
X10085143Y-16525214D01*
X10056571Y-16525214D01*
X10028000Y-16510929D01*
X10013714Y-16496643D01*
X9999428Y-16468071D01*
X9985143Y-16410929D01*
X9985143Y-16339500D01*
X9999428Y-16282357D01*
X10013714Y-16253786D01*
X10028000Y-16239500D01*
X10056571Y-16225214D01*
X10285143Y-16496643D02*
X10299428Y-16510929D01*
X10285143Y-16525214D01*
X10270857Y-16510929D01*
X10285143Y-16496643D01*
X10285143Y-16525214D01*
X10442286Y-16525214D02*
X10499428Y-16525214D01*
X10528000Y-16510929D01*
X10542286Y-16496643D01*
X10570857Y-16453786D01*
X10585143Y-16396643D01*
X10585143Y-16282357D01*
X10570857Y-16253786D01*
X10556571Y-16239500D01*
X10528000Y-16225214D01*
X10470857Y-16225214D01*
X10442286Y-16239500D01*
X10428000Y-16253786D01*
X10413714Y-16282357D01*
X10413714Y-16353786D01*
X10428000Y-16382357D01*
X10442286Y-16396643D01*
X10470857Y-16410929D01*
X10528000Y-16410929D01*
X10556571Y-16396643D01*
X10570857Y-16382357D01*
X10585143Y-16353786D01*
X10770857Y-16225214D02*
X10799428Y-16225214D01*
X10828000Y-16239500D01*
X10842286Y-16253786D01*
X10856571Y-16282357D01*
X10870857Y-16339500D01*
X10870857Y-16410929D01*
X10856571Y-16468071D01*
X10842286Y-16496643D01*
X10828000Y-16510929D01*
X10799428Y-16525214D01*
X10770857Y-16525214D01*
X10742286Y-16510929D01*
X10728000Y-16496643D01*
X10713714Y-16468071D01*
X10699428Y-16410929D01*
X10699428Y-16339500D01*
X10713714Y-16282357D01*
X10728000Y-16253786D01*
X10742286Y-16239500D01*
X10770857Y-16225214D01*
X11056571Y-16225214D02*
X11085143Y-16225214D01*
X11113714Y-16239500D01*
X11128000Y-16253786D01*
X11142286Y-16282357D01*
X11156571Y-16339500D01*
X11156571Y-16410929D01*
X11142286Y-16468071D01*
X11128000Y-16496643D01*
X11113714Y-16510929D01*
X11085143Y-16525214D01*
X11056571Y-16525214D01*
X11028000Y-16510929D01*
X11013714Y-16496643D01*
X10999428Y-16468071D01*
X10985143Y-16410929D01*
X10985143Y-16339500D01*
X10999428Y-16282357D01*
X11013714Y-16253786D01*
X11028000Y-16239500D01*
X11056571Y-16225214D01*
X11285143Y-16525214D02*
X11285143Y-16325214D01*
X11285143Y-16353786D02*
X11299428Y-16339500D01*
X11328000Y-16325214D01*
X11370857Y-16325214D01*
X11399428Y-16339500D01*
X11413714Y-16368071D01*
X11413714Y-16525214D01*
X11413714Y-16368071D02*
X11428000Y-16339500D01*
X11456571Y-16325214D01*
X11499428Y-16325214D01*
X11528000Y-16339500D01*
X11542286Y-16368071D01*
X11542286Y-16525214D01*
X11685143Y-16525214D02*
X11685143Y-16325214D01*
X11685143Y-16353786D02*
X11699428Y-16339500D01*
X11728000Y-16325214D01*
X11770857Y-16325214D01*
X11799428Y-16339500D01*
X11813714Y-16368071D01*
X11813714Y-16525214D01*
X11813714Y-16368071D02*
X11828000Y-16339500D01*
X11856571Y-16325214D01*
X11899428Y-16325214D01*
X11928000Y-16339500D01*
X11942286Y-16368071D01*
X11942286Y-16525214D01*
X12528000Y-16210929D02*
X12270857Y-16596643D01*
X12913714Y-16225214D02*
X12942286Y-16225214D01*
X12970857Y-16239500D01*
X12985143Y-16253786D01*
X12999428Y-16282357D01*
X13013714Y-16339500D01*
X13013714Y-16410929D01*
X12999428Y-16468071D01*
X12985143Y-16496643D01*
X12970857Y-16510929D01*
X12942286Y-16525214D01*
X12913714Y-16525214D01*
X12885143Y-16510929D01*
X12870857Y-16496643D01*
X12856571Y-16468071D01*
X12842286Y-16410929D01*
X12842286Y-16339500D01*
X12856571Y-16282357D01*
X12870857Y-16253786D01*
X12885143Y-16239500D01*
X12913714Y-16225214D01*
X13142286Y-16496643D02*
X13156571Y-16510929D01*
X13142286Y-16525214D01*
X13128000Y-16510929D01*
X13142286Y-16496643D01*
X13142286Y-16525214D01*
X13342286Y-16225214D02*
X13370857Y-16225214D01*
X13399428Y-16239500D01*
X13413714Y-16253786D01*
X13428000Y-16282357D01*
X13442286Y-16339500D01*
X13442286Y-16410929D01*
X13428000Y-16468071D01*
X13413714Y-16496643D01*
X13399428Y-16510929D01*
X13370857Y-16525214D01*
X13342286Y-16525214D01*
X13313714Y-16510929D01*
X13299428Y-16496643D01*
X13285143Y-16468071D01*
X13270857Y-16410929D01*
X13270857Y-16339500D01*
X13285143Y-16282357D01*
X13299428Y-16253786D01*
X13313714Y-16239500D01*
X13342286Y-16225214D01*
X13542286Y-16225214D02*
X13728000Y-16225214D01*
X13628000Y-16339500D01*
X13670857Y-16339500D01*
X13699428Y-16353786D01*
X13713714Y-16368071D01*
X13728000Y-16396643D01*
X13728000Y-16468071D01*
X13713714Y-16496643D01*
X13699428Y-16510929D01*
X13670857Y-16525214D01*
X13585143Y-16525214D01*
X13556571Y-16510929D01*
X13542286Y-16496643D01*
X13999428Y-16225214D02*
X13856571Y-16225214D01*
X13842286Y-16368071D01*
X13856571Y-16353786D01*
X13885143Y-16339500D01*
X13956571Y-16339500D01*
X13985143Y-16353786D01*
X13999428Y-16368071D01*
X14013714Y-16396643D01*
X14013714Y-16468071D01*
X13999428Y-16496643D01*
X13985143Y-16510929D01*
X13956571Y-16525214D01*
X13885143Y-16525214D01*
X13856571Y-16510929D01*
X13842286Y-16496643D01*
X14270857Y-16325214D02*
X14270857Y-16525214D01*
X14199428Y-16210929D02*
X14128000Y-16425214D01*
X14313714Y-16425214D01*
X14413714Y-16225214D02*
X14413714Y-16282357D01*
X14528000Y-16225214D02*
X14528000Y-16282357D01*
X14970857Y-16639500D02*
X14956571Y-16625214D01*
X14928000Y-16582357D01*
X14913714Y-16553786D01*
X14899428Y-16510929D01*
X14885143Y-16439500D01*
X14885143Y-16382357D01*
X14899428Y-16310929D01*
X14913714Y-16268071D01*
X14928000Y-16239500D01*
X14956571Y-16196643D01*
X14970857Y-16182357D01*
X15128000Y-16353786D02*
X15099428Y-16339500D01*
X15085143Y-16325214D01*
X15070857Y-16296643D01*
X15070857Y-16282357D01*
X15085143Y-16253786D01*
X15099428Y-16239500D01*
X15128000Y-16225214D01*
X15185143Y-16225214D01*
X15213714Y-16239500D01*
X15228000Y-16253786D01*
X15242286Y-16282357D01*
X15242286Y-16296643D01*
X15228000Y-16325214D01*
X15213714Y-16339500D01*
X15185143Y-16353786D01*
X15128000Y-16353786D01*
X15099428Y-16368071D01*
X15085143Y-16382357D01*
X15070857Y-16410929D01*
X15070857Y-16468071D01*
X15085143Y-16496643D01*
X15099428Y-16510929D01*
X15128000Y-16525214D01*
X15185143Y-16525214D01*
X15213714Y-16510929D01*
X15228000Y-16496643D01*
X15242286Y-16468071D01*
X15242286Y-16410929D01*
X15228000Y-16382357D01*
X15213714Y-16368071D01*
X15185143Y-16353786D01*
X15599428Y-16525214D02*
X15599428Y-16225214D01*
X15728000Y-16525214D02*
X15728000Y-16368071D01*
X15713714Y-16339500D01*
X15685143Y-16325214D01*
X15642286Y-16325214D01*
X15613714Y-16339500D01*
X15599428Y-16353786D01*
X15913714Y-16525214D02*
X15885143Y-16510929D01*
X15870857Y-16496643D01*
X15856571Y-16468071D01*
X15856571Y-16382357D01*
X15870857Y-16353786D01*
X15885143Y-16339500D01*
X15913714Y-16325214D01*
X15956571Y-16325214D01*
X15985143Y-16339500D01*
X15999428Y-16353786D01*
X16013714Y-16382357D01*
X16013714Y-16468071D01*
X15999428Y-16496643D01*
X15985143Y-16510929D01*
X15956571Y-16525214D01*
X15913714Y-16525214D01*
X16185143Y-16525214D02*
X16156571Y-16510929D01*
X16142286Y-16482357D01*
X16142286Y-16225214D01*
X16413714Y-16510929D02*
X16385143Y-16525214D01*
X16328000Y-16525214D01*
X16299428Y-16510929D01*
X16285143Y-16482357D01*
X16285143Y-16368071D01*
X16299428Y-16339500D01*
X16328000Y-16325214D01*
X16385143Y-16325214D01*
X16413714Y-16339500D01*
X16428000Y-16368071D01*
X16428000Y-16396643D01*
X16285143Y-16425214D01*
X16542286Y-16510929D02*
X16570857Y-16525214D01*
X16628000Y-16525214D01*
X16656571Y-16510929D01*
X16670857Y-16482357D01*
X16670857Y-16468071D01*
X16656571Y-16439500D01*
X16628000Y-16425214D01*
X16585143Y-16425214D01*
X16556571Y-16410929D01*
X16542286Y-16382357D01*
X16542286Y-16368071D01*
X16556571Y-16339500D01*
X16585143Y-16325214D01*
X16628000Y-16325214D01*
X16656571Y-16339500D01*
X16770857Y-16639500D02*
X16785143Y-16625214D01*
X16813714Y-16582357D01*
X16828000Y-16553786D01*
X16842286Y-16510929D01*
X16856571Y-16439500D01*
X16856571Y-16382357D01*
X16842286Y-16310929D01*
X16828000Y-16268071D01*
X16813714Y-16239500D01*
X16785143Y-16196643D01*
X16770857Y-16182357D01*
X9613000Y-16735500D02*
X9713000Y-16835500D01*
X9713000Y-16735500D02*
X9613000Y-16835500D01*
X9713000Y-16785500D02*
G75*
G03*
X9713000Y-16785500I-50000J0D01*
G01*
X10156571Y-16921214D02*
X9985143Y-16921214D01*
X10070857Y-16921214D02*
X10070857Y-16621214D01*
X10042286Y-16664071D01*
X10013714Y-16692643D01*
X9985143Y-16706929D01*
X10285143Y-16892643D02*
X10299428Y-16906929D01*
X10285143Y-16921214D01*
X10270857Y-16906929D01*
X10285143Y-16892643D01*
X10285143Y-16921214D01*
X10485143Y-16621214D02*
X10513714Y-16621214D01*
X10542286Y-16635500D01*
X10556571Y-16649786D01*
X10570857Y-16678357D01*
X10585143Y-16735500D01*
X10585143Y-16806929D01*
X10570857Y-16864072D01*
X10556571Y-16892643D01*
X10542286Y-16906929D01*
X10513714Y-16921214D01*
X10485143Y-16921214D01*
X10456571Y-16906929D01*
X10442286Y-16892643D01*
X10428000Y-16864072D01*
X10413714Y-16806929D01*
X10413714Y-16735500D01*
X10428000Y-16678357D01*
X10442286Y-16649786D01*
X10456571Y-16635500D01*
X10485143Y-16621214D01*
X10770857Y-16621214D02*
X10799428Y-16621214D01*
X10828000Y-16635500D01*
X10842286Y-16649786D01*
X10856571Y-16678357D01*
X10870857Y-16735500D01*
X10870857Y-16806929D01*
X10856571Y-16864072D01*
X10842286Y-16892643D01*
X10828000Y-16906929D01*
X10799428Y-16921214D01*
X10770857Y-16921214D01*
X10742286Y-16906929D01*
X10728000Y-16892643D01*
X10713714Y-16864072D01*
X10699428Y-16806929D01*
X10699428Y-16735500D01*
X10713714Y-16678357D01*
X10728000Y-16649786D01*
X10742286Y-16635500D01*
X10770857Y-16621214D01*
X11056571Y-16621214D02*
X11085143Y-16621214D01*
X11113714Y-16635500D01*
X11128000Y-16649786D01*
X11142286Y-16678357D01*
X11156571Y-16735500D01*
X11156571Y-16806929D01*
X11142286Y-16864072D01*
X11128000Y-16892643D01*
X11113714Y-16906929D01*
X11085143Y-16921214D01*
X11056571Y-16921214D01*
X11028000Y-16906929D01*
X11013714Y-16892643D01*
X10999428Y-16864072D01*
X10985143Y-16806929D01*
X10985143Y-16735500D01*
X10999428Y-16678357D01*
X11013714Y-16649786D01*
X11028000Y-16635500D01*
X11056571Y-16621214D01*
X11285143Y-16921214D02*
X11285143Y-16721214D01*
X11285143Y-16749786D02*
X11299428Y-16735500D01*
X11328000Y-16721214D01*
X11370857Y-16721214D01*
X11399428Y-16735500D01*
X11413714Y-16764071D01*
X11413714Y-16921214D01*
X11413714Y-16764071D02*
X11428000Y-16735500D01*
X11456571Y-16721214D01*
X11499428Y-16721214D01*
X11528000Y-16735500D01*
X11542286Y-16764071D01*
X11542286Y-16921214D01*
X11685143Y-16921214D02*
X11685143Y-16721214D01*
X11685143Y-16749786D02*
X11699428Y-16735500D01*
X11728000Y-16721214D01*
X11770857Y-16721214D01*
X11799428Y-16735500D01*
X11813714Y-16764071D01*
X11813714Y-16921214D01*
X11813714Y-16764071D02*
X11828000Y-16735500D01*
X11856571Y-16721214D01*
X11899428Y-16721214D01*
X11928000Y-16735500D01*
X11942286Y-16764071D01*
X11942286Y-16921214D01*
X12528000Y-16606929D02*
X12270857Y-16992643D01*
X12913714Y-16621214D02*
X12942286Y-16621214D01*
X12970857Y-16635500D01*
X12985143Y-16649786D01*
X12999428Y-16678357D01*
X13013714Y-16735500D01*
X13013714Y-16806929D01*
X12999428Y-16864072D01*
X12985143Y-16892643D01*
X12970857Y-16906929D01*
X12942286Y-16921214D01*
X12913714Y-16921214D01*
X12885143Y-16906929D01*
X12870857Y-16892643D01*
X12856571Y-16864072D01*
X12842286Y-16806929D01*
X12842286Y-16735500D01*
X12856571Y-16678357D01*
X12870857Y-16649786D01*
X12885143Y-16635500D01*
X12913714Y-16621214D01*
X13142286Y-16892643D02*
X13156571Y-16906929D01*
X13142286Y-16921214D01*
X13128000Y-16906929D01*
X13142286Y-16892643D01*
X13142286Y-16921214D01*
X13342286Y-16621214D02*
X13370857Y-16621214D01*
X13399428Y-16635500D01*
X13413714Y-16649786D01*
X13428000Y-16678357D01*
X13442286Y-16735500D01*
X13442286Y-16806929D01*
X13428000Y-16864072D01*
X13413714Y-16892643D01*
X13399428Y-16906929D01*
X13370857Y-16921214D01*
X13342286Y-16921214D01*
X13313714Y-16906929D01*
X13299428Y-16892643D01*
X13285143Y-16864072D01*
X13270857Y-16806929D01*
X13270857Y-16735500D01*
X13285143Y-16678357D01*
X13299428Y-16649786D01*
X13313714Y-16635500D01*
X13342286Y-16621214D01*
X13542286Y-16621214D02*
X13728000Y-16621214D01*
X13628000Y-16735500D01*
X13670857Y-16735500D01*
X13699428Y-16749786D01*
X13713714Y-16764071D01*
X13728000Y-16792643D01*
X13728000Y-16864072D01*
X13713714Y-16892643D01*
X13699428Y-16906929D01*
X13670857Y-16921214D01*
X13585143Y-16921214D01*
X13556571Y-16906929D01*
X13542286Y-16892643D01*
X13870857Y-16921214D02*
X13928000Y-16921214D01*
X13956571Y-16906929D01*
X13970857Y-16892643D01*
X13999428Y-16849786D01*
X14013714Y-16792643D01*
X14013714Y-16678357D01*
X13999428Y-16649786D01*
X13985143Y-16635500D01*
X13956571Y-16621214D01*
X13899428Y-16621214D01*
X13870857Y-16635500D01*
X13856571Y-16649786D01*
X13842286Y-16678357D01*
X13842286Y-16749786D01*
X13856571Y-16778357D01*
X13870857Y-16792643D01*
X13899428Y-16806929D01*
X13956571Y-16806929D01*
X13985143Y-16792643D01*
X13999428Y-16778357D01*
X14013714Y-16749786D01*
X14270857Y-16721214D02*
X14270857Y-16921214D01*
X14199428Y-16606929D02*
X14128000Y-16821214D01*
X14313714Y-16821214D01*
X14413714Y-16621214D02*
X14413714Y-16678357D01*
X14528000Y-16621214D02*
X14528000Y-16678357D01*
X14970857Y-17035500D02*
X14956571Y-17021214D01*
X14928000Y-16978357D01*
X14913714Y-16949786D01*
X14899428Y-16906929D01*
X14885143Y-16835500D01*
X14885143Y-16778357D01*
X14899428Y-16706929D01*
X14913714Y-16664071D01*
X14928000Y-16635500D01*
X14956571Y-16592643D01*
X14970857Y-16578357D01*
X15070857Y-16649786D02*
X15085143Y-16635500D01*
X15113714Y-16621214D01*
X15185143Y-16621214D01*
X15213714Y-16635500D01*
X15228000Y-16649786D01*
X15242286Y-16678357D01*
X15242286Y-16706929D01*
X15228000Y-16749786D01*
X15056571Y-16921214D01*
X15242286Y-16921214D01*
X15499428Y-16721214D02*
X15499428Y-16921214D01*
X15428000Y-16606929D02*
X15356571Y-16821214D01*
X15542286Y-16821214D01*
X15885143Y-16921214D02*
X15885143Y-16621214D01*
X16013714Y-16921214D02*
X16013714Y-16764071D01*
X15999428Y-16735500D01*
X15970857Y-16721214D01*
X15928000Y-16721214D01*
X15899428Y-16735500D01*
X15885143Y-16749786D01*
X16199428Y-16921214D02*
X16170857Y-16906929D01*
X16156571Y-16892643D01*
X16142286Y-16864072D01*
X16142286Y-16778357D01*
X16156571Y-16749786D01*
X16170857Y-16735500D01*
X16199428Y-16721214D01*
X16242286Y-16721214D01*
X16270857Y-16735500D01*
X16285143Y-16749786D01*
X16299428Y-16778357D01*
X16299428Y-16864072D01*
X16285143Y-16892643D01*
X16270857Y-16906929D01*
X16242286Y-16921214D01*
X16199428Y-16921214D01*
X16470857Y-16921214D02*
X16442286Y-16906929D01*
X16428000Y-16878357D01*
X16428000Y-16621214D01*
X16699428Y-16906929D02*
X16670857Y-16921214D01*
X16613714Y-16921214D01*
X16585143Y-16906929D01*
X16570857Y-16878357D01*
X16570857Y-16764071D01*
X16585143Y-16735500D01*
X16613714Y-16721214D01*
X16670857Y-16721214D01*
X16699428Y-16735500D01*
X16713714Y-16764071D01*
X16713714Y-16792643D01*
X16570857Y-16821214D01*
X16828000Y-16906929D02*
X16856571Y-16921214D01*
X16913714Y-16921214D01*
X16942286Y-16906929D01*
X16956571Y-16878357D01*
X16956571Y-16864072D01*
X16942286Y-16835500D01*
X16913714Y-16821214D01*
X16870857Y-16821214D01*
X16842286Y-16806929D01*
X16828000Y-16778357D01*
X16828000Y-16764071D01*
X16842286Y-16735500D01*
X16870857Y-16721214D01*
X16913714Y-16721214D01*
X16942286Y-16735500D01*
X17056571Y-17035500D02*
X17070857Y-17021214D01*
X17099428Y-16978357D01*
X17113714Y-16949786D01*
X17128000Y-16906929D01*
X17142286Y-16835500D01*
X17142286Y-16778357D01*
X17128000Y-16706929D01*
X17113714Y-16664071D01*
X17099428Y-16635500D01*
X17070857Y-16592643D01*
X17056571Y-16578357D01*
X9603000Y-17126500D02*
X9713000Y-17236500D01*
X9713000Y-17126500D02*
X9603000Y-17236500D01*
X9658000Y-17126500D02*
X9658000Y-17236500D01*
X9603000Y-17181500D02*
X9713000Y-17181500D01*
X10156571Y-17317214D02*
X9985143Y-17317214D01*
X10070857Y-17317214D02*
X10070857Y-17017214D01*
X10042286Y-17060072D01*
X10013714Y-17088643D01*
X9985143Y-17102929D01*
X10285143Y-17288643D02*
X10299428Y-17302929D01*
X10285143Y-17317214D01*
X10270857Y-17302929D01*
X10285143Y-17288643D01*
X10285143Y-17317214D01*
X10585143Y-17317214D02*
X10413714Y-17317214D01*
X10499428Y-17317214D02*
X10499428Y-17017214D01*
X10470857Y-17060072D01*
X10442286Y-17088643D01*
X10413714Y-17102929D01*
X10770857Y-17017214D02*
X10799428Y-17017214D01*
X10828000Y-17031500D01*
X10842286Y-17045786D01*
X10856571Y-17074357D01*
X10870857Y-17131500D01*
X10870857Y-17202929D01*
X10856571Y-17260072D01*
X10842286Y-17288643D01*
X10828000Y-17302929D01*
X10799428Y-17317214D01*
X10770857Y-17317214D01*
X10742286Y-17302929D01*
X10728000Y-17288643D01*
X10713714Y-17260072D01*
X10699428Y-17202929D01*
X10699428Y-17131500D01*
X10713714Y-17074357D01*
X10728000Y-17045786D01*
X10742286Y-17031500D01*
X10770857Y-17017214D01*
X11056571Y-17017214D02*
X11085143Y-17017214D01*
X11113714Y-17031500D01*
X11128000Y-17045786D01*
X11142286Y-17074357D01*
X11156571Y-17131500D01*
X11156571Y-17202929D01*
X11142286Y-17260072D01*
X11128000Y-17288643D01*
X11113714Y-17302929D01*
X11085143Y-17317214D01*
X11056571Y-17317214D01*
X11028000Y-17302929D01*
X11013714Y-17288643D01*
X10999428Y-17260072D01*
X10985143Y-17202929D01*
X10985143Y-17131500D01*
X10999428Y-17074357D01*
X11013714Y-17045786D01*
X11028000Y-17031500D01*
X11056571Y-17017214D01*
X11285143Y-17317214D02*
X11285143Y-17117214D01*
X11285143Y-17145786D02*
X11299428Y-17131500D01*
X11328000Y-17117214D01*
X11370857Y-17117214D01*
X11399428Y-17131500D01*
X11413714Y-17160072D01*
X11413714Y-17317214D01*
X11413714Y-17160072D02*
X11428000Y-17131500D01*
X11456571Y-17117214D01*
X11499428Y-17117214D01*
X11528000Y-17131500D01*
X11542286Y-17160072D01*
X11542286Y-17317214D01*
X11685143Y-17317214D02*
X11685143Y-17117214D01*
X11685143Y-17145786D02*
X11699428Y-17131500D01*
X11728000Y-17117214D01*
X11770857Y-17117214D01*
X11799428Y-17131500D01*
X11813714Y-17160072D01*
X11813714Y-17317214D01*
X11813714Y-17160072D02*
X11828000Y-17131500D01*
X11856571Y-17117214D01*
X11899428Y-17117214D01*
X11928000Y-17131500D01*
X11942286Y-17160072D01*
X11942286Y-17317214D01*
X12528000Y-17002929D02*
X12270857Y-17388643D01*
X12913714Y-17017214D02*
X12942286Y-17017214D01*
X12970857Y-17031500D01*
X12985143Y-17045786D01*
X12999428Y-17074357D01*
X13013714Y-17131500D01*
X13013714Y-17202929D01*
X12999428Y-17260072D01*
X12985143Y-17288643D01*
X12970857Y-17302929D01*
X12942286Y-17317214D01*
X12913714Y-17317214D01*
X12885143Y-17302929D01*
X12870857Y-17288643D01*
X12856571Y-17260072D01*
X12842286Y-17202929D01*
X12842286Y-17131500D01*
X12856571Y-17074357D01*
X12870857Y-17045786D01*
X12885143Y-17031500D01*
X12913714Y-17017214D01*
X13142286Y-17288643D02*
X13156571Y-17302929D01*
X13142286Y-17317214D01*
X13128000Y-17302929D01*
X13142286Y-17288643D01*
X13142286Y-17317214D01*
X13342286Y-17017214D02*
X13370857Y-17017214D01*
X13399428Y-17031500D01*
X13413714Y-17045786D01*
X13428000Y-17074357D01*
X13442286Y-17131500D01*
X13442286Y-17202929D01*
X13428000Y-17260072D01*
X13413714Y-17288643D01*
X13399428Y-17302929D01*
X13370857Y-17317214D01*
X13342286Y-17317214D01*
X13313714Y-17302929D01*
X13299428Y-17288643D01*
X13285143Y-17260072D01*
X13270857Y-17202929D01*
X13270857Y-17131500D01*
X13285143Y-17074357D01*
X13299428Y-17045786D01*
X13313714Y-17031500D01*
X13342286Y-17017214D01*
X13699428Y-17117214D02*
X13699428Y-17317214D01*
X13628000Y-17002929D02*
X13556571Y-17217214D01*
X13742286Y-17217214D01*
X13828000Y-17017214D02*
X14013714Y-17017214D01*
X13913714Y-17131500D01*
X13956571Y-17131500D01*
X13985143Y-17145786D01*
X13999428Y-17160072D01*
X14013714Y-17188643D01*
X14013714Y-17260072D01*
X13999428Y-17288643D01*
X13985143Y-17302929D01*
X13956571Y-17317214D01*
X13870857Y-17317214D01*
X13842286Y-17302929D01*
X13828000Y-17288643D01*
X14113714Y-17017214D02*
X14299428Y-17017214D01*
X14199428Y-17131500D01*
X14242286Y-17131500D01*
X14270857Y-17145786D01*
X14285143Y-17160072D01*
X14299428Y-17188643D01*
X14299428Y-17260072D01*
X14285143Y-17288643D01*
X14270857Y-17302929D01*
X14242286Y-17317214D01*
X14156571Y-17317214D01*
X14128000Y-17302929D01*
X14113714Y-17288643D01*
X14413714Y-17017214D02*
X14413714Y-17074357D01*
X14528000Y-17017214D02*
X14528000Y-17074357D01*
X14970857Y-17431500D02*
X14956571Y-17417214D01*
X14928000Y-17374357D01*
X14913714Y-17345786D01*
X14899428Y-17302929D01*
X14885143Y-17231500D01*
X14885143Y-17174357D01*
X14899428Y-17102929D01*
X14913714Y-17060072D01*
X14928000Y-17031500D01*
X14956571Y-16988643D01*
X14970857Y-16974357D01*
X15213714Y-17017214D02*
X15156571Y-17017214D01*
X15128000Y-17031500D01*
X15113714Y-17045786D01*
X15085143Y-17088643D01*
X15070857Y-17145786D01*
X15070857Y-17260072D01*
X15085143Y-17288643D01*
X15099428Y-17302929D01*
X15128000Y-17317214D01*
X15185143Y-17317214D01*
X15213714Y-17302929D01*
X15228000Y-17288643D01*
X15242286Y-17260072D01*
X15242286Y-17188643D01*
X15228000Y-17160072D01*
X15213714Y-17145786D01*
X15185143Y-17131500D01*
X15128000Y-17131500D01*
X15099428Y-17145786D01*
X15085143Y-17160072D01*
X15070857Y-17188643D01*
X15599428Y-17317214D02*
X15599428Y-17017214D01*
X15728000Y-17317214D02*
X15728000Y-17160072D01*
X15713714Y-17131500D01*
X15685143Y-17117214D01*
X15642286Y-17117214D01*
X15613714Y-17131500D01*
X15599428Y-17145786D01*
X15913714Y-17317214D02*
X15885143Y-17302929D01*
X15870857Y-17288643D01*
X15856571Y-17260072D01*
X15856571Y-17174357D01*
X15870857Y-17145786D01*
X15885143Y-17131500D01*
X15913714Y-17117214D01*
X15956571Y-17117214D01*
X15985143Y-17131500D01*
X15999428Y-17145786D01*
X16013714Y-17174357D01*
X16013714Y-17260072D01*
X15999428Y-17288643D01*
X15985143Y-17302929D01*
X15956571Y-17317214D01*
X15913714Y-17317214D01*
X16185143Y-17317214D02*
X16156571Y-17302929D01*
X16142286Y-17274357D01*
X16142286Y-17017214D01*
X16413714Y-17302929D02*
X16385143Y-17317214D01*
X16328000Y-17317214D01*
X16299428Y-17302929D01*
X16285143Y-17274357D01*
X16285143Y-17160072D01*
X16299428Y-17131500D01*
X16328000Y-17117214D01*
X16385143Y-17117214D01*
X16413714Y-17131500D01*
X16428000Y-17160072D01*
X16428000Y-17188643D01*
X16285143Y-17217214D01*
X16542286Y-17302929D02*
X16570857Y-17317214D01*
X16628000Y-17317214D01*
X16656571Y-17302929D01*
X16670857Y-17274357D01*
X16670857Y-17260072D01*
X16656571Y-17231500D01*
X16628000Y-17217214D01*
X16585143Y-17217214D01*
X16556571Y-17202929D01*
X16542286Y-17174357D01*
X16542286Y-17160072D01*
X16556571Y-17131500D01*
X16585143Y-17117214D01*
X16628000Y-17117214D01*
X16656571Y-17131500D01*
X17028000Y-17202929D02*
X17256571Y-17202929D01*
X17142286Y-17317214D02*
X17142286Y-17088643D01*
X17613714Y-17045786D02*
X17628000Y-17031500D01*
X17656571Y-17017214D01*
X17728000Y-17017214D01*
X17756571Y-17031500D01*
X17770857Y-17045786D01*
X17785143Y-17074357D01*
X17785143Y-17102929D01*
X17770857Y-17145786D01*
X17599428Y-17317214D01*
X17785143Y-17317214D01*
X18128000Y-17302929D02*
X18156571Y-17317214D01*
X18213714Y-17317214D01*
X18242286Y-17302929D01*
X18256571Y-17274357D01*
X18256571Y-17260072D01*
X18242286Y-17231500D01*
X18213714Y-17217214D01*
X18170857Y-17217214D01*
X18142286Y-17202929D01*
X18128000Y-17174357D01*
X18128000Y-17160072D01*
X18142286Y-17131500D01*
X18170857Y-17117214D01*
X18213714Y-17117214D01*
X18242286Y-17131500D01*
X18428000Y-17317214D02*
X18399428Y-17302929D01*
X18385143Y-17274357D01*
X18385143Y-17017214D01*
X18585143Y-17317214D02*
X18556571Y-17302929D01*
X18542286Y-17288643D01*
X18528000Y-17260072D01*
X18528000Y-17174357D01*
X18542286Y-17145786D01*
X18556571Y-17131500D01*
X18585143Y-17117214D01*
X18628000Y-17117214D01*
X18656571Y-17131500D01*
X18670857Y-17145786D01*
X18685143Y-17174357D01*
X18685143Y-17260072D01*
X18670857Y-17288643D01*
X18656571Y-17302929D01*
X18628000Y-17317214D01*
X18585143Y-17317214D01*
X18770857Y-17117214D02*
X18885143Y-17117214D01*
X18813714Y-17017214D02*
X18813714Y-17274357D01*
X18828000Y-17302929D01*
X18856571Y-17317214D01*
X18885143Y-17317214D01*
X18970857Y-17302929D02*
X18999428Y-17317214D01*
X19056571Y-17317214D01*
X19085143Y-17302929D01*
X19099428Y-17274357D01*
X19099428Y-17260072D01*
X19085143Y-17231500D01*
X19056571Y-17217214D01*
X19013714Y-17217214D01*
X18985143Y-17202929D01*
X18970857Y-17174357D01*
X18970857Y-17160072D01*
X18985143Y-17131500D01*
X19013714Y-17117214D01*
X19056571Y-17117214D01*
X19085143Y-17131500D01*
X19199428Y-17431500D02*
X19213714Y-17417214D01*
X19242286Y-17374357D01*
X19256571Y-17345786D01*
X19270857Y-17302929D01*
X19285143Y-17231500D01*
X19285143Y-17174357D01*
X19270857Y-17102929D01*
X19256571Y-17060072D01*
X19242286Y-17031500D01*
X19213714Y-16988643D01*
X19199428Y-16974357D01*
M02*
