G04 #@! TF.GenerationSoftware,KiCad,Pcbnew,5.1.10-88a1d61d58~90~ubuntu20.04.1*
G04 #@! TF.CreationDate,2021-12-03T15:24:30+01:00*
G04 #@! TF.ProjectId,piconsole,7069636f-6e73-46f6-9c65-2e6b69636164,rev?*
G04 #@! TF.SameCoordinates,Original*
G04 #@! TF.FileFunction,Legend,Top*
G04 #@! TF.FilePolarity,Positive*
%FSLAX46Y46*%
G04 Gerber Fmt 4.6, Leading zero omitted, Abs format (unit mm)*
G04 Created by KiCad (PCBNEW 5.1.10-88a1d61d58~90~ubuntu20.04.1) date 2021-12-03 15:24:30*
%MOMM*%
%LPD*%
G01*
G04 APERTURE LIST*
%ADD10C,0.120000*%
%ADD11C,0.150000*%
%ADD12C,0.300000*%
%ADD13C,0.010000*%
%ADD14C,1.700000*%
%ADD15C,2.100000*%
%ADD16R,1.700000X1.700000*%
%ADD17C,2.000000*%
%ADD18O,3.740000X2.720000*%
%ADD19C,1.800000*%
%ADD20R,1.800000X1.800000*%
%ADD21R,1.624000X1.624000*%
%ADD22C,1.624000*%
%ADD23C,1.524000*%
%ADD24C,3.100000*%
%ADD25R,2.000000X2.000000*%
%ADD26R,2.200000X2.200000*%
%ADD27O,2.200000X2.200000*%
%ADD28O,1.700000X1.700000*%
%ADD29C,1.600000*%
%ADD30O,1.600000X1.600000*%
%ADD31R,1.600000X1.600000*%
G04 APERTURE END LIST*
D10*
X117729000Y-88900000D02*
X117729000Y-81915000D01*
D11*
X143891000Y-81915000D02*
X143891000Y-88900000D01*
D10*
X143891000Y-71755000D02*
X143891000Y-62103000D01*
X117729000Y-88900000D02*
X143891000Y-88900000D01*
X117729000Y-62103000D02*
X117729000Y-71755000D01*
D11*
X159004047Y-61031428D02*
X159765952Y-61031428D01*
X159385000Y-61412380D02*
X159385000Y-60650476D01*
X159004047Y-85796428D02*
X159765952Y-85796428D01*
X159385000Y-86177380D02*
X159385000Y-85415476D01*
X159004047Y-77366428D02*
X159765952Y-77366428D01*
X159385000Y-77747380D02*
X159385000Y-76985476D01*
X159004047Y-69286428D02*
X159765952Y-69286428D01*
X159385000Y-69667380D02*
X159385000Y-68905476D01*
D12*
X116595714Y-136838571D02*
X116595714Y-137838571D01*
X116595714Y-136981428D02*
X116667142Y-136910000D01*
X116809999Y-136838571D01*
X117024285Y-136838571D01*
X117167142Y-136910000D01*
X117238571Y-137052857D01*
X117238571Y-137838571D01*
X117952857Y-137838571D02*
X117952857Y-136838571D01*
X117952857Y-136338571D02*
X117881428Y-136410000D01*
X117952857Y-136481428D01*
X118024285Y-136410000D01*
X117952857Y-136338571D01*
X117952857Y-136481428D01*
X119309999Y-136838571D02*
X119309999Y-137838571D01*
X118667142Y-136838571D02*
X118667142Y-137624285D01*
X118738571Y-137767142D01*
X118881428Y-137838571D01*
X119095714Y-137838571D01*
X119238571Y-137767142D01*
X119309999Y-137695714D01*
X120024285Y-137838571D02*
X120024285Y-136338571D01*
X120024285Y-136910000D02*
X120167142Y-136838571D01*
X120452857Y-136838571D01*
X120595714Y-136910000D01*
X120667142Y-136981428D01*
X120738571Y-137124285D01*
X120738571Y-137552857D01*
X120667142Y-137695714D01*
X120595714Y-137767142D01*
X120452857Y-137838571D01*
X120167142Y-137838571D01*
X120024285Y-137767142D01*
X121381428Y-137838571D02*
X121381428Y-136838571D01*
X121381428Y-136338571D02*
X121309999Y-136410000D01*
X121381428Y-136481428D01*
X121452857Y-136410000D01*
X121381428Y-136338571D01*
X121381428Y-136481428D01*
X121881428Y-136838571D02*
X122452857Y-136838571D01*
X122095714Y-136338571D02*
X122095714Y-137624285D01*
X122167142Y-137767142D01*
X122309999Y-137838571D01*
X122452857Y-137838571D01*
X124095714Y-137838571D02*
X124095714Y-136338571D01*
X124667142Y-136338571D01*
X124809999Y-136410000D01*
X124881428Y-136481428D01*
X124952857Y-136624285D01*
X124952857Y-136838571D01*
X124881428Y-136981428D01*
X124809999Y-137052857D01*
X124667142Y-137124285D01*
X124095714Y-137124285D01*
X125595714Y-137838571D02*
X125595714Y-136838571D01*
X125595714Y-136338571D02*
X125524285Y-136410000D01*
X125595714Y-136481428D01*
X125667142Y-136410000D01*
X125595714Y-136338571D01*
X125595714Y-136481428D01*
X127167142Y-137695714D02*
X127095714Y-137767142D01*
X126881428Y-137838571D01*
X126738571Y-137838571D01*
X126524285Y-137767142D01*
X126381428Y-137624285D01*
X126309999Y-137481428D01*
X126238571Y-137195714D01*
X126238571Y-136981428D01*
X126309999Y-136695714D01*
X126381428Y-136552857D01*
X126524285Y-136410000D01*
X126738571Y-136338571D01*
X126881428Y-136338571D01*
X127095714Y-136410000D01*
X127167142Y-136481428D01*
X128024285Y-137838571D02*
X127881428Y-137767142D01*
X127809999Y-137695714D01*
X127738571Y-137552857D01*
X127738571Y-137124285D01*
X127809999Y-136981428D01*
X127881428Y-136910000D01*
X128024285Y-136838571D01*
X128238571Y-136838571D01*
X128381428Y-136910000D01*
X128452857Y-136981428D01*
X128524285Y-137124285D01*
X128524285Y-137552857D01*
X128452857Y-137695714D01*
X128381428Y-137767142D01*
X128238571Y-137838571D01*
X128024285Y-137838571D01*
X129167142Y-136838571D02*
X129167142Y-137838571D01*
X129167142Y-136981428D02*
X129238571Y-136910000D01*
X129381428Y-136838571D01*
X129595714Y-136838571D01*
X129738571Y-136910000D01*
X129809999Y-137052857D01*
X129809999Y-137838571D01*
X130452857Y-137767142D02*
X130595714Y-137838571D01*
X130881428Y-137838571D01*
X131024285Y-137767142D01*
X131095714Y-137624285D01*
X131095714Y-137552857D01*
X131024285Y-137410000D01*
X130881428Y-137338571D01*
X130667142Y-137338571D01*
X130524285Y-137267142D01*
X130452857Y-137124285D01*
X130452857Y-137052857D01*
X130524285Y-136910000D01*
X130667142Y-136838571D01*
X130881428Y-136838571D01*
X131024285Y-136910000D01*
X131952857Y-137838571D02*
X131809999Y-137767142D01*
X131738571Y-137695714D01*
X131667142Y-137552857D01*
X131667142Y-137124285D01*
X131738571Y-136981428D01*
X131809999Y-136910000D01*
X131952857Y-136838571D01*
X132167142Y-136838571D01*
X132309999Y-136910000D01*
X132381428Y-136981428D01*
X132452857Y-137124285D01*
X132452857Y-137552857D01*
X132381428Y-137695714D01*
X132309999Y-137767142D01*
X132167142Y-137838571D01*
X131952857Y-137838571D01*
X133309999Y-137838571D02*
X133167142Y-137767142D01*
X133095714Y-137624285D01*
X133095714Y-136338571D01*
X134452857Y-137767142D02*
X134310000Y-137838571D01*
X134024285Y-137838571D01*
X133881428Y-137767142D01*
X133809999Y-137624285D01*
X133809999Y-137052857D01*
X133881428Y-136910000D01*
X134024285Y-136838571D01*
X134310000Y-136838571D01*
X134452857Y-136910000D01*
X134524285Y-137052857D01*
X134524285Y-137195714D01*
X133809999Y-137338571D01*
X136167142Y-136838571D02*
X136524285Y-137838571D01*
X136881428Y-136838571D01*
X137310000Y-136338571D02*
X138310000Y-136338571D01*
X137667142Y-137838571D01*
X139952857Y-136481428D02*
X140024285Y-136410000D01*
X140167142Y-136338571D01*
X140524285Y-136338571D01*
X140667142Y-136410000D01*
X140738571Y-136481428D01*
X140810000Y-136624285D01*
X140810000Y-136767142D01*
X140738571Y-136981428D01*
X139881428Y-137838571D01*
X140810000Y-137838571D01*
X141738571Y-136338571D02*
X141881428Y-136338571D01*
X142024285Y-136410000D01*
X142095714Y-136481428D01*
X142167142Y-136624285D01*
X142238571Y-136910000D01*
X142238571Y-137267142D01*
X142167142Y-137552857D01*
X142095714Y-137695714D01*
X142024285Y-137767142D01*
X141881428Y-137838571D01*
X141738571Y-137838571D01*
X141595714Y-137767142D01*
X141524285Y-137695714D01*
X141452857Y-137552857D01*
X141381428Y-137267142D01*
X141381428Y-136910000D01*
X141452857Y-136624285D01*
X141524285Y-136481428D01*
X141595714Y-136410000D01*
X141738571Y-136338571D01*
X142810000Y-136481428D02*
X142881428Y-136410000D01*
X143024285Y-136338571D01*
X143381428Y-136338571D01*
X143524285Y-136410000D01*
X143595714Y-136481428D01*
X143667142Y-136624285D01*
X143667142Y-136767142D01*
X143595714Y-136981428D01*
X142738571Y-137838571D01*
X143667142Y-137838571D01*
X145095714Y-137838571D02*
X144238571Y-137838571D01*
X144667142Y-137838571D02*
X144667142Y-136338571D01*
X144524285Y-136552857D01*
X144381428Y-136695714D01*
X144238571Y-136767142D01*
D10*
X109610000Y-62026000D02*
X152010000Y-62026000D01*
X152010000Y-62026000D02*
X152010000Y-100026000D01*
X152010000Y-100026000D02*
X109610000Y-100026000D01*
X109610000Y-100026000D02*
X109610000Y-62026000D01*
X128635000Y-133770000D02*
X133135000Y-133770000D01*
X127385000Y-129770000D02*
X127385000Y-131270000D01*
X133135000Y-127270000D02*
X128635000Y-127270000D01*
X134385000Y-131270000D02*
X134385000Y-129770000D01*
D13*
G36*
X131010677Y-112270988D02*
G01*
X131450436Y-112424614D01*
X131851209Y-112714173D01*
X132187886Y-113137745D01*
X132265282Y-113276270D01*
X132392983Y-113678910D01*
X132422660Y-114153403D01*
X132358578Y-114636652D01*
X132205002Y-115065562D01*
X132136399Y-115182931D01*
X131943789Y-115427064D01*
X131733045Y-115626982D01*
X131651063Y-115683294D01*
X131522444Y-115766458D01*
X131448422Y-115863177D01*
X131413905Y-116018988D01*
X131403798Y-116279427D01*
X131403202Y-116431106D01*
X131405714Y-116745941D01*
X131423799Y-116931248D01*
X131472242Y-117026832D01*
X131565829Y-117072496D01*
X131648793Y-117092270D01*
X131905111Y-117194125D01*
X132218100Y-117381442D01*
X132530427Y-117614475D01*
X132784759Y-117853481D01*
X132838513Y-117917003D01*
X133069416Y-118281834D01*
X133278427Y-118736271D01*
X133432763Y-119200934D01*
X133491830Y-119498955D01*
X133539045Y-119771560D01*
X133622322Y-119938903D01*
X133777250Y-120065058D01*
X133821049Y-120091624D01*
X134171813Y-120383508D01*
X134373864Y-120747584D01*
X134421733Y-121165738D01*
X134309953Y-121619856D01*
X134293802Y-121657531D01*
X134058008Y-122006657D01*
X133732480Y-122240745D01*
X133354800Y-122349773D01*
X132962549Y-122323716D01*
X132593310Y-122152550D01*
X132552564Y-122121966D01*
X132290455Y-121826789D01*
X132135283Y-121464516D01*
X132085541Y-121074144D01*
X132139722Y-120694670D01*
X132296317Y-120365092D01*
X132553819Y-120124406D01*
X132631355Y-120083796D01*
X132786849Y-119963095D01*
X132809936Y-119852689D01*
X132698116Y-119430820D01*
X132605879Y-119132623D01*
X132513960Y-118916953D01*
X132403093Y-118742665D01*
X132254012Y-118568614D01*
X132164613Y-118474515D01*
X131911631Y-118241891D01*
X131696119Y-118099462D01*
X131587565Y-118067667D01*
X131402667Y-118067667D01*
X131402667Y-123317000D01*
X133773334Y-123317000D01*
X133773334Y-125264333D01*
X128016000Y-125264333D01*
X128016000Y-123317000D01*
X130132667Y-123317000D01*
X130132667Y-120692333D01*
X130132221Y-119956527D01*
X130130189Y-119372568D01*
X130125527Y-118922970D01*
X130117191Y-118590249D01*
X130104138Y-118356919D01*
X130085324Y-118205495D01*
X130059706Y-118118490D01*
X130026241Y-118078421D01*
X129983885Y-118067801D01*
X129976037Y-118067667D01*
X129756242Y-118133889D01*
X129494116Y-118307047D01*
X129234452Y-118548872D01*
X129022040Y-118821097D01*
X128955708Y-118939367D01*
X128852798Y-119200426D01*
X128759975Y-119518847D01*
X128687531Y-119845244D01*
X128645756Y-120130233D01*
X128644942Y-120324429D01*
X128658469Y-120365751D01*
X128765560Y-120414734D01*
X128967594Y-120438025D01*
X128994664Y-120438333D01*
X129286000Y-120438333D01*
X129286000Y-122385667D01*
X127169334Y-122385667D01*
X127169334Y-120448069D01*
X127529167Y-120422035D01*
X127889000Y-120396000D01*
X127946089Y-119878522D01*
X128028063Y-119326524D01*
X128149962Y-118874795D01*
X128332536Y-118455361D01*
X128440935Y-118257449D01*
X128765918Y-117829149D01*
X129194952Y-117455331D01*
X129668951Y-117184567D01*
X129811976Y-117130401D01*
X130132667Y-117024563D01*
X130132667Y-115943607D01*
X129680325Y-115501980D01*
X129415223Y-115221341D01*
X129250224Y-114979462D01*
X129147699Y-114716602D01*
X129120828Y-114613679D01*
X129055796Y-114029968D01*
X129153534Y-113487673D01*
X129363937Y-113054248D01*
X129708560Y-112644926D01*
X130114630Y-112379223D01*
X130557039Y-112255217D01*
X131010677Y-112270988D01*
G37*
X131010677Y-112270988D02*
X131450436Y-112424614D01*
X131851209Y-112714173D01*
X132187886Y-113137745D01*
X132265282Y-113276270D01*
X132392983Y-113678910D01*
X132422660Y-114153403D01*
X132358578Y-114636652D01*
X132205002Y-115065562D01*
X132136399Y-115182931D01*
X131943789Y-115427064D01*
X131733045Y-115626982D01*
X131651063Y-115683294D01*
X131522444Y-115766458D01*
X131448422Y-115863177D01*
X131413905Y-116018988D01*
X131403798Y-116279427D01*
X131403202Y-116431106D01*
X131405714Y-116745941D01*
X131423799Y-116931248D01*
X131472242Y-117026832D01*
X131565829Y-117072496D01*
X131648793Y-117092270D01*
X131905111Y-117194125D01*
X132218100Y-117381442D01*
X132530427Y-117614475D01*
X132784759Y-117853481D01*
X132838513Y-117917003D01*
X133069416Y-118281834D01*
X133278427Y-118736271D01*
X133432763Y-119200934D01*
X133491830Y-119498955D01*
X133539045Y-119771560D01*
X133622322Y-119938903D01*
X133777250Y-120065058D01*
X133821049Y-120091624D01*
X134171813Y-120383508D01*
X134373864Y-120747584D01*
X134421733Y-121165738D01*
X134309953Y-121619856D01*
X134293802Y-121657531D01*
X134058008Y-122006657D01*
X133732480Y-122240745D01*
X133354800Y-122349773D01*
X132962549Y-122323716D01*
X132593310Y-122152550D01*
X132552564Y-122121966D01*
X132290455Y-121826789D01*
X132135283Y-121464516D01*
X132085541Y-121074144D01*
X132139722Y-120694670D01*
X132296317Y-120365092D01*
X132553819Y-120124406D01*
X132631355Y-120083796D01*
X132786849Y-119963095D01*
X132809936Y-119852689D01*
X132698116Y-119430820D01*
X132605879Y-119132623D01*
X132513960Y-118916953D01*
X132403093Y-118742665D01*
X132254012Y-118568614D01*
X132164613Y-118474515D01*
X131911631Y-118241891D01*
X131696119Y-118099462D01*
X131587565Y-118067667D01*
X131402667Y-118067667D01*
X131402667Y-123317000D01*
X133773334Y-123317000D01*
X133773334Y-125264333D01*
X128016000Y-125264333D01*
X128016000Y-123317000D01*
X130132667Y-123317000D01*
X130132667Y-120692333D01*
X130132221Y-119956527D01*
X130130189Y-119372568D01*
X130125527Y-118922970D01*
X130117191Y-118590249D01*
X130104138Y-118356919D01*
X130085324Y-118205495D01*
X130059706Y-118118490D01*
X130026241Y-118078421D01*
X129983885Y-118067801D01*
X129976037Y-118067667D01*
X129756242Y-118133889D01*
X129494116Y-118307047D01*
X129234452Y-118548872D01*
X129022040Y-118821097D01*
X128955708Y-118939367D01*
X128852798Y-119200426D01*
X128759975Y-119518847D01*
X128687531Y-119845244D01*
X128645756Y-120130233D01*
X128644942Y-120324429D01*
X128658469Y-120365751D01*
X128765560Y-120414734D01*
X128967594Y-120438025D01*
X128994664Y-120438333D01*
X129286000Y-120438333D01*
X129286000Y-122385667D01*
X127169334Y-122385667D01*
X127169334Y-120448069D01*
X127529167Y-120422035D01*
X127889000Y-120396000D01*
X127946089Y-119878522D01*
X128028063Y-119326524D01*
X128149962Y-118874795D01*
X128332536Y-118455361D01*
X128440935Y-118257449D01*
X128765918Y-117829149D01*
X129194952Y-117455331D01*
X129668951Y-117184567D01*
X129811976Y-117130401D01*
X130132667Y-117024563D01*
X130132667Y-115943607D01*
X129680325Y-115501980D01*
X129415223Y-115221341D01*
X129250224Y-114979462D01*
X129147699Y-114716602D01*
X129120828Y-114613679D01*
X129055796Y-114029968D01*
X129153534Y-113487673D01*
X129363937Y-113054248D01*
X129708560Y-112644926D01*
X130114630Y-112379223D01*
X130557039Y-112255217D01*
X131010677Y-112270988D01*
D10*
X144375000Y-108835000D02*
X144375000Y-118575000D01*
X155965000Y-108835000D02*
X155965000Y-110325000D01*
X147435000Y-108835000D02*
X144375000Y-108835000D01*
X155965000Y-118585000D02*
X151245000Y-118585000D01*
X147435000Y-118575000D02*
X144375000Y-118575000D01*
X155965000Y-108835000D02*
X151245000Y-108835000D01*
X155965000Y-117395000D02*
X155965000Y-118575000D01*
X155965000Y-114495000D02*
X155965000Y-115025000D01*
X155965000Y-112045000D02*
X155965000Y-112875000D01*
X140145000Y-124905000D02*
X140145000Y-132905000D01*
X140145000Y-132905000D02*
X148145000Y-132905000D01*
X148145000Y-132905000D02*
X148145000Y-124905000D01*
X148145000Y-124905000D02*
X140145000Y-124905000D01*
X145895000Y-128905000D02*
G75*
G03*
X145895000Y-128905000I-1750000J0D01*
G01*
X147645000Y-128905000D02*
G75*
G03*
X147645000Y-128905000I-3500000J0D01*
G01*
X159345000Y-63500000D02*
G75*
G03*
X159345000Y-63500000I-2500000J0D01*
G01*
X154285000Y-61955000D02*
X154285000Y-65045000D01*
X159835000Y-63500462D02*
G75*
G03*
X154285000Y-61955170I-2990000J462D01*
G01*
X159835000Y-63499538D02*
G75*
G02*
X154285000Y-65044830I-2990000J-462D01*
G01*
X154285000Y-70210000D02*
X154285000Y-73300000D01*
X159345000Y-71755000D02*
G75*
G03*
X159345000Y-71755000I-2500000J0D01*
G01*
X159835000Y-71755462D02*
G75*
G03*
X154285000Y-70210170I-2990000J462D01*
G01*
X159835000Y-71754538D02*
G75*
G02*
X154285000Y-73299830I-2990000J-462D01*
G01*
X159345000Y-79930000D02*
G75*
G03*
X159345000Y-79930000I-2500000J0D01*
G01*
X154285000Y-78385000D02*
X154285000Y-81475000D01*
X159835000Y-79929538D02*
G75*
G02*
X154285000Y-81474830I-2990000J-462D01*
G01*
X159835000Y-79930462D02*
G75*
G03*
X154285000Y-78385170I-2990000J462D01*
G01*
X154285000Y-86720000D02*
X154285000Y-89810000D01*
X159345000Y-88265000D02*
G75*
G03*
X159345000Y-88265000I-2500000J0D01*
G01*
X159835000Y-88265462D02*
G75*
G03*
X154285000Y-86720170I-2990000J462D01*
G01*
X159835000Y-88264538D02*
G75*
G02*
X154285000Y-89809830I-2990000J-462D01*
G01*
X115535000Y-72190000D02*
X115535000Y-75130000D01*
X115775000Y-72190000D02*
X115775000Y-75130000D01*
X115655000Y-72190000D02*
X115655000Y-75130000D01*
X120195000Y-75130000D02*
X120195000Y-75000000D01*
X114755000Y-75130000D02*
X120195000Y-75130000D01*
X114755000Y-75000000D02*
X114755000Y-75130000D01*
X120195000Y-72190000D02*
X120195000Y-72320000D01*
X114755000Y-72190000D02*
X120195000Y-72190000D01*
X114755000Y-72320000D02*
X114755000Y-72190000D01*
X108204000Y-64075000D02*
X109314000Y-64075000D01*
X109314000Y-64075000D02*
X109314000Y-65405000D01*
X95574000Y-64075000D02*
X95574000Y-79435000D01*
X95574000Y-79435000D02*
X104204000Y-79435000D01*
X104204000Y-64075000D02*
X104204000Y-79435000D01*
X95574000Y-64075000D02*
X104204000Y-64075000D01*
X95574000Y-76835000D02*
X104204000Y-76835000D01*
X95574000Y-74295000D02*
X104204000Y-74295000D01*
X95574000Y-71755000D02*
X104204000Y-71755000D01*
X95574000Y-69215000D02*
X104204000Y-69215000D01*
X95574000Y-66675000D02*
X104204000Y-66675000D01*
X106714000Y-78465000D02*
X107154000Y-78465000D01*
X104204000Y-78465000D02*
X104614000Y-78465000D01*
X106714000Y-77745000D02*
X107154000Y-77745000D01*
X104204000Y-77745000D02*
X104614000Y-77745000D01*
X106714000Y-75925000D02*
X107154000Y-75925000D01*
X104204000Y-75925000D02*
X104614000Y-75925000D01*
X106714000Y-75205000D02*
X107154000Y-75205000D01*
X104204000Y-75205000D02*
X104614000Y-75205000D01*
X106714000Y-73385000D02*
X107154000Y-73385000D01*
X104204000Y-73385000D02*
X104614000Y-73385000D01*
X106714000Y-72665000D02*
X107154000Y-72665000D01*
X104204000Y-72665000D02*
X104614000Y-72665000D01*
X106714000Y-70845000D02*
X107154000Y-70845000D01*
X104204000Y-70845000D02*
X104614000Y-70845000D01*
X106714000Y-70125000D02*
X107154000Y-70125000D01*
X104204000Y-70125000D02*
X104614000Y-70125000D01*
X106714000Y-68305000D02*
X107154000Y-68305000D01*
X104204000Y-68305000D02*
X104614000Y-68305000D01*
X106714000Y-67585000D02*
X107154000Y-67585000D01*
X104204000Y-67585000D02*
X104614000Y-67585000D01*
X106714000Y-65765000D02*
X107094000Y-65765000D01*
X104204000Y-65765000D02*
X104614000Y-65765000D01*
X106714000Y-65045000D02*
X107094000Y-65045000D01*
X104204000Y-65045000D02*
X104614000Y-65045000D01*
X95574000Y-66556900D02*
X104204000Y-66556900D01*
X95574000Y-66438805D02*
X104204000Y-66438805D01*
X95574000Y-66320710D02*
X104204000Y-66320710D01*
X95574000Y-66202615D02*
X104204000Y-66202615D01*
X95574000Y-66084520D02*
X104204000Y-66084520D01*
X95574000Y-65966425D02*
X104204000Y-65966425D01*
X95574000Y-65848330D02*
X104204000Y-65848330D01*
X95574000Y-65730235D02*
X104204000Y-65730235D01*
X95574000Y-65612140D02*
X104204000Y-65612140D01*
X95574000Y-65494045D02*
X104204000Y-65494045D01*
X95574000Y-65375950D02*
X104204000Y-65375950D01*
X95574000Y-65257855D02*
X104204000Y-65257855D01*
X95574000Y-65139760D02*
X104204000Y-65139760D01*
X95574000Y-65021665D02*
X104204000Y-65021665D01*
X95574000Y-64903570D02*
X104204000Y-64903570D01*
X95574000Y-64785475D02*
X104204000Y-64785475D01*
X95574000Y-64667380D02*
X104204000Y-64667380D01*
X95574000Y-64549285D02*
X104204000Y-64549285D01*
X95574000Y-64431190D02*
X104204000Y-64431190D01*
X95574000Y-64313095D02*
X104204000Y-64313095D01*
X95574000Y-64195000D02*
X104204000Y-64195000D01*
X148185000Y-73660000D02*
X147415000Y-73660000D01*
X140105000Y-73660000D02*
X140875000Y-73660000D01*
X147415000Y-72290000D02*
X140875000Y-72290000D01*
X147415000Y-75030000D02*
X147415000Y-72290000D01*
X140875000Y-75030000D02*
X147415000Y-75030000D01*
X140875000Y-72290000D02*
X140875000Y-75030000D01*
X134850000Y-78740000D02*
X134080000Y-78740000D01*
X126770000Y-78740000D02*
X127540000Y-78740000D01*
X134080000Y-77370000D02*
X127540000Y-77370000D01*
X134080000Y-80110000D02*
X134080000Y-77370000D01*
X127540000Y-80110000D02*
X134080000Y-80110000D01*
X127540000Y-77370000D02*
X127540000Y-80110000D01*
X114205000Y-77370000D02*
X114205000Y-80110000D01*
X114205000Y-80110000D02*
X120745000Y-80110000D01*
X120745000Y-80110000D02*
X120745000Y-77370000D01*
X120745000Y-77370000D02*
X114205000Y-77370000D01*
X113435000Y-78740000D02*
X114205000Y-78740000D01*
X121515000Y-78740000D02*
X120745000Y-78740000D01*
X134850000Y-73660000D02*
X134080000Y-73660000D01*
X126770000Y-73660000D02*
X127540000Y-73660000D01*
X134080000Y-72290000D02*
X127540000Y-72290000D01*
X134080000Y-75030000D02*
X134080000Y-72290000D01*
X127540000Y-75030000D02*
X134080000Y-75030000D01*
X127540000Y-72290000D02*
X127540000Y-75030000D01*
X140875000Y-77370000D02*
X140875000Y-80110000D01*
X140875000Y-80110000D02*
X147415000Y-80110000D01*
X147415000Y-80110000D02*
X147415000Y-77370000D01*
X147415000Y-77370000D02*
X140875000Y-77370000D01*
X140105000Y-78740000D02*
X140875000Y-78740000D01*
X148185000Y-78740000D02*
X147415000Y-78740000D01*
X131980000Y-109415000D02*
X129180000Y-109415000D01*
X131980000Y-105215000D02*
X129180000Y-105215000D01*
X129193963Y-105205758D02*
G75*
G03*
X129180000Y-109415000I1386037J-2109242D01*
G01*
X131966037Y-109424242D02*
G75*
G03*
X131980000Y-105215000I-1386037J2109242D01*
G01*
X114595000Y-113905000D02*
G75*
G03*
X114595000Y-113905000I-3500000J0D01*
G01*
X112845000Y-113905000D02*
G75*
G03*
X112845000Y-113905000I-1750000J0D01*
G01*
X111095000Y-119561854D02*
X116751854Y-113905000D01*
X105438146Y-113905000D02*
X111095000Y-119561854D01*
X111095000Y-108248146D02*
X105438146Y-113905000D01*
X116751854Y-113905000D02*
X111095000Y-108248146D01*
X116751854Y-128105000D02*
X111095000Y-122448146D01*
X111095000Y-122448146D02*
X105438146Y-128105000D01*
X105438146Y-128105000D02*
X111095000Y-133761854D01*
X111095000Y-133761854D02*
X116751854Y-128105000D01*
X112845000Y-128105000D02*
G75*
G03*
X112845000Y-128105000I-1750000J0D01*
G01*
X114595000Y-128105000D02*
G75*
G03*
X114595000Y-128105000I-3500000J0D01*
G01*
X107495000Y-121005000D02*
G75*
G03*
X107495000Y-121005000I-3500000J0D01*
G01*
X105745000Y-121005000D02*
G75*
G03*
X105745000Y-121005000I-1750000J0D01*
G01*
X103995000Y-126661854D02*
X109651854Y-121005000D01*
X98338146Y-121005000D02*
X103995000Y-126661854D01*
X103995000Y-115348146D02*
X98338146Y-121005000D01*
X109651854Y-121005000D02*
X103995000Y-115348146D01*
X123851854Y-121005000D02*
X118195000Y-115348146D01*
X118195000Y-115348146D02*
X112538146Y-121005000D01*
X112538146Y-121005000D02*
X118195000Y-126661854D01*
X118195000Y-126661854D02*
X123851854Y-121005000D01*
X119945000Y-121005000D02*
G75*
G03*
X119945000Y-121005000I-1750000J0D01*
G01*
X121695000Y-121005000D02*
G75*
G03*
X121695000Y-121005000I-3500000J0D01*
G01*
X157805000Y-128905000D02*
G75*
G03*
X157805000Y-128905000I-3500000J0D01*
G01*
X156055000Y-128905000D02*
G75*
G03*
X156055000Y-128905000I-1750000J0D01*
G01*
X158305000Y-124905000D02*
X150305000Y-124905000D01*
X158305000Y-132905000D02*
X158305000Y-124905000D01*
X150305000Y-132905000D02*
X158305000Y-132905000D01*
X150305000Y-124905000D02*
X150305000Y-132905000D01*
X111375000Y-53825000D02*
X111375000Y-57825000D01*
X112875000Y-53825000D02*
X111375000Y-53825000D01*
X112875000Y-57825000D02*
X112875000Y-53825000D01*
X106625000Y-61325000D02*
X106625000Y-57825000D01*
X115625000Y-61325000D02*
X106625000Y-61325000D01*
X115625000Y-57825000D02*
X115625000Y-61325000D01*
X106625000Y-57825000D02*
X115625000Y-57825000D01*
D11*
X113863619Y-62698380D02*
X114054095Y-62698380D01*
X114149333Y-62746000D01*
X114244571Y-62841238D01*
X114292190Y-63031714D01*
X114292190Y-63365047D01*
X114244571Y-63555523D01*
X114149333Y-63650761D01*
X114054095Y-63698380D01*
X113863619Y-63698380D01*
X113768380Y-63650761D01*
X113673142Y-63555523D01*
X113625523Y-63365047D01*
X113625523Y-63031714D01*
X113673142Y-62841238D01*
X113768380Y-62746000D01*
X113863619Y-62698380D01*
X115196952Y-63698380D02*
X114720761Y-63698380D01*
X114720761Y-62698380D01*
X115530285Y-63174571D02*
X115863619Y-63174571D01*
X116006476Y-63698380D02*
X115530285Y-63698380D01*
X115530285Y-62698380D01*
X116006476Y-62698380D01*
X116435047Y-63698380D02*
X116435047Y-62698380D01*
X116673142Y-62698380D01*
X116816000Y-62746000D01*
X116911238Y-62841238D01*
X116958857Y-62936476D01*
X117006476Y-63126952D01*
X117006476Y-63269809D01*
X116958857Y-63460285D01*
X116911238Y-63555523D01*
X116816000Y-63650761D01*
X116673142Y-63698380D01*
X116435047Y-63698380D01*
X138787142Y-66391357D02*
X138834761Y-66438976D01*
X138882380Y-66581833D01*
X138882380Y-66677071D01*
X138834761Y-66819928D01*
X138739523Y-66915166D01*
X138644285Y-66962785D01*
X138453809Y-67010404D01*
X138310952Y-67010404D01*
X138120476Y-66962785D01*
X138025238Y-66915166D01*
X137930000Y-66819928D01*
X137882380Y-66677071D01*
X137882380Y-66581833D01*
X137930000Y-66438976D01*
X137977619Y-66391357D01*
X138834761Y-66010404D02*
X138882380Y-65867547D01*
X138882380Y-65629452D01*
X138834761Y-65534214D01*
X138787142Y-65486595D01*
X138691904Y-65438976D01*
X138596666Y-65438976D01*
X138501428Y-65486595D01*
X138453809Y-65534214D01*
X138406190Y-65629452D01*
X138358571Y-65819928D01*
X138310952Y-65915166D01*
X138263333Y-65962785D01*
X138168095Y-66010404D01*
X138072857Y-66010404D01*
X137977619Y-65962785D01*
X137930000Y-65915166D01*
X137882380Y-65819928D01*
X137882380Y-65581833D01*
X137930000Y-65438976D01*
X136342380Y-67010404D02*
X135342380Y-67010404D01*
X135342380Y-66772309D01*
X135390000Y-66629452D01*
X135485238Y-66534214D01*
X135580476Y-66486595D01*
X135770952Y-66438976D01*
X135913809Y-66438976D01*
X136104285Y-66486595D01*
X136199523Y-66534214D01*
X136294761Y-66629452D01*
X136342380Y-66772309D01*
X136342380Y-67010404D01*
X136247142Y-65438976D02*
X136294761Y-65486595D01*
X136342380Y-65629452D01*
X136342380Y-65724690D01*
X136294761Y-65867547D01*
X136199523Y-65962785D01*
X136104285Y-66010404D01*
X135913809Y-66058023D01*
X135770952Y-66058023D01*
X135580476Y-66010404D01*
X135485238Y-65962785D01*
X135390000Y-65867547D01*
X135342380Y-65724690D01*
X135342380Y-65629452D01*
X135390000Y-65486595D01*
X135437619Y-65438976D01*
X133802380Y-67296119D02*
X133326190Y-67629452D01*
X133802380Y-67867547D02*
X132802380Y-67867547D01*
X132802380Y-67486595D01*
X132850000Y-67391357D01*
X132897619Y-67343738D01*
X132992857Y-67296119D01*
X133135714Y-67296119D01*
X133230952Y-67343738D01*
X133278571Y-67391357D01*
X133326190Y-67486595D01*
X133326190Y-67867547D01*
X133278571Y-66867547D02*
X133278571Y-66534214D01*
X133802380Y-66391357D02*
X133802380Y-66867547D01*
X132802380Y-66867547D01*
X132802380Y-66391357D01*
X133754761Y-66010404D02*
X133802380Y-65867547D01*
X133802380Y-65629452D01*
X133754761Y-65534214D01*
X133707142Y-65486595D01*
X133611904Y-65438976D01*
X133516666Y-65438976D01*
X133421428Y-65486595D01*
X133373809Y-65534214D01*
X133326190Y-65629452D01*
X133278571Y-65819928D01*
X133230952Y-65915166D01*
X133183333Y-65962785D01*
X133088095Y-66010404D01*
X132992857Y-66010404D01*
X132897619Y-65962785D01*
X132850000Y-65915166D01*
X132802380Y-65819928D01*
X132802380Y-65581833D01*
X132850000Y-65438976D01*
X122690000Y-67534214D02*
X122642380Y-67629452D01*
X122642380Y-67772309D01*
X122690000Y-67915166D01*
X122785238Y-68010404D01*
X122880476Y-68058023D01*
X123070952Y-68105642D01*
X123213809Y-68105642D01*
X123404285Y-68058023D01*
X123499523Y-68010404D01*
X123594761Y-67915166D01*
X123642380Y-67772309D01*
X123642380Y-67677071D01*
X123594761Y-67534214D01*
X123547142Y-67486595D01*
X123213809Y-67486595D01*
X123213809Y-67677071D01*
X123642380Y-67058023D02*
X122642380Y-67058023D01*
X123642380Y-66486595D01*
X122642380Y-66486595D01*
X123642380Y-66010404D02*
X122642380Y-66010404D01*
X122642380Y-65772309D01*
X122690000Y-65629452D01*
X122785238Y-65534214D01*
X122880476Y-65486595D01*
X123070952Y-65438976D01*
X123213809Y-65438976D01*
X123404285Y-65486595D01*
X123499523Y-65534214D01*
X123594761Y-65629452D01*
X123642380Y-65772309D01*
X123642380Y-66010404D01*
X125182380Y-68010404D02*
X126182380Y-67677071D01*
X125182380Y-67343738D01*
X126087142Y-66438976D02*
X126134761Y-66486595D01*
X126182380Y-66629452D01*
X126182380Y-66724690D01*
X126134761Y-66867547D01*
X126039523Y-66962785D01*
X125944285Y-67010404D01*
X125753809Y-67058023D01*
X125610952Y-67058023D01*
X125420476Y-67010404D01*
X125325238Y-66962785D01*
X125230000Y-66867547D01*
X125182380Y-66724690D01*
X125182380Y-66629452D01*
X125230000Y-66486595D01*
X125277619Y-66438976D01*
X126087142Y-65438976D02*
X126134761Y-65486595D01*
X126182380Y-65629452D01*
X126182380Y-65724690D01*
X126134761Y-65867547D01*
X126039523Y-65962785D01*
X125944285Y-66010404D01*
X125753809Y-66058023D01*
X125610952Y-66058023D01*
X125420476Y-66010404D01*
X125325238Y-65962785D01*
X125230000Y-65867547D01*
X125182380Y-65724690D01*
X125182380Y-65629452D01*
X125230000Y-65486595D01*
X125277619Y-65438976D01*
X128674761Y-67819928D02*
X128722380Y-67677071D01*
X128722380Y-67438976D01*
X128674761Y-67343738D01*
X128627142Y-67296119D01*
X128531904Y-67248500D01*
X128436666Y-67248500D01*
X128341428Y-67296119D01*
X128293809Y-67343738D01*
X128246190Y-67438976D01*
X128198571Y-67629452D01*
X128150952Y-67724690D01*
X128103333Y-67772309D01*
X128008095Y-67819928D01*
X127912857Y-67819928D01*
X127817619Y-67772309D01*
X127770000Y-67724690D01*
X127722380Y-67629452D01*
X127722380Y-67391357D01*
X127770000Y-67248500D01*
X128627142Y-66248500D02*
X128674761Y-66296119D01*
X128722380Y-66438976D01*
X128722380Y-66534214D01*
X128674761Y-66677071D01*
X128579523Y-66772309D01*
X128484285Y-66819928D01*
X128293809Y-66867547D01*
X128150952Y-66867547D01*
X127960476Y-66819928D01*
X127865238Y-66772309D01*
X127770000Y-66677071D01*
X127722380Y-66534214D01*
X127722380Y-66438976D01*
X127770000Y-66296119D01*
X127817619Y-66248500D01*
X128722380Y-65343738D02*
X128722380Y-65819928D01*
X127722380Y-65819928D01*
X131214761Y-67867547D02*
X131262380Y-67724690D01*
X131262380Y-67486595D01*
X131214761Y-67391357D01*
X131167142Y-67343738D01*
X131071904Y-67296119D01*
X130976666Y-67296119D01*
X130881428Y-67343738D01*
X130833809Y-67391357D01*
X130786190Y-67486595D01*
X130738571Y-67677071D01*
X130690952Y-67772309D01*
X130643333Y-67819928D01*
X130548095Y-67867547D01*
X130452857Y-67867547D01*
X130357619Y-67819928D01*
X130310000Y-67772309D01*
X130262380Y-67677071D01*
X130262380Y-67438976D01*
X130310000Y-67296119D01*
X131262380Y-66867547D02*
X130262380Y-66867547D01*
X130262380Y-66629452D01*
X130310000Y-66486595D01*
X130405238Y-66391357D01*
X130500476Y-66343738D01*
X130690952Y-66296119D01*
X130833809Y-66296119D01*
X131024285Y-66343738D01*
X131119523Y-66391357D01*
X131214761Y-66486595D01*
X131262380Y-66629452D01*
X131262380Y-66867547D01*
X130976666Y-65915166D02*
X130976666Y-65438976D01*
X131262380Y-66010404D02*
X130262380Y-65677071D01*
X131262380Y-65343738D01*
X129357619Y-135422380D02*
X129024285Y-134946190D01*
X128786190Y-135422380D02*
X128786190Y-134422380D01*
X129167142Y-134422380D01*
X129262380Y-134470000D01*
X129310000Y-134517619D01*
X129357619Y-134612857D01*
X129357619Y-134755714D01*
X129310000Y-134850952D01*
X129262380Y-134898571D01*
X129167142Y-134946190D01*
X128786190Y-134946190D01*
X129786190Y-134898571D02*
X130119523Y-134898571D01*
X130262380Y-135422380D02*
X129786190Y-135422380D01*
X129786190Y-134422380D01*
X130262380Y-134422380D01*
X130643333Y-135374761D02*
X130786190Y-135422380D01*
X131024285Y-135422380D01*
X131119523Y-135374761D01*
X131167142Y-135327142D01*
X131214761Y-135231904D01*
X131214761Y-135136666D01*
X131167142Y-135041428D01*
X131119523Y-134993809D01*
X131024285Y-134946190D01*
X130833809Y-134898571D01*
X130738571Y-134850952D01*
X130690952Y-134803333D01*
X130643333Y-134708095D01*
X130643333Y-134612857D01*
X130690952Y-134517619D01*
X130738571Y-134470000D01*
X130833809Y-134422380D01*
X131071904Y-134422380D01*
X131214761Y-134470000D01*
X131643333Y-134898571D02*
X131976666Y-134898571D01*
X132119523Y-135422380D02*
X131643333Y-135422380D01*
X131643333Y-134422380D01*
X132119523Y-134422380D01*
X132405238Y-134422380D02*
X132976666Y-134422380D01*
X132690952Y-135422380D02*
X132690952Y-134422380D01*
X152701910Y-119800470D02*
X152701910Y-118800470D01*
X153082862Y-118800470D01*
X153178100Y-118848090D01*
X153225719Y-118895709D01*
X153273338Y-118990947D01*
X153273338Y-119133804D01*
X153225719Y-119229042D01*
X153178100Y-119276661D01*
X153082862Y-119324280D01*
X152701910Y-119324280D01*
X153844767Y-119800470D02*
X153749529Y-119752851D01*
X153701910Y-119705232D01*
X153654290Y-119609994D01*
X153654290Y-119324280D01*
X153701910Y-119229042D01*
X153749529Y-119181423D01*
X153844767Y-119133804D01*
X153987624Y-119133804D01*
X154082862Y-119181423D01*
X154130481Y-119229042D01*
X154178100Y-119324280D01*
X154178100Y-119609994D01*
X154130481Y-119705232D01*
X154082862Y-119752851D01*
X153987624Y-119800470D01*
X153844767Y-119800470D01*
X154463814Y-119133804D02*
X154844767Y-119133804D01*
X154606671Y-118800470D02*
X154606671Y-119657613D01*
X154654290Y-119752851D01*
X154749529Y-119800470D01*
X154844767Y-119800470D01*
X144216428Y-133913571D02*
X144359285Y-133961190D01*
X144406904Y-134008809D01*
X144454523Y-134104047D01*
X144454523Y-134246904D01*
X144406904Y-134342142D01*
X144359285Y-134389761D01*
X144264047Y-134437380D01*
X143883095Y-134437380D01*
X143883095Y-133437380D01*
X144216428Y-133437380D01*
X144311666Y-133485000D01*
X144359285Y-133532619D01*
X144406904Y-133627857D01*
X144406904Y-133723095D01*
X144359285Y-133818333D01*
X144311666Y-133865952D01*
X144216428Y-133913571D01*
X143883095Y-133913571D01*
X161107380Y-64000000D02*
X160107380Y-64000000D01*
X161107380Y-62952380D02*
X160631190Y-63285714D01*
X161107380Y-63523809D02*
X160107380Y-63523809D01*
X160107380Y-63142857D01*
X160155000Y-63047619D01*
X160202619Y-63000000D01*
X160297857Y-62952380D01*
X160440714Y-62952380D01*
X160535952Y-63000000D01*
X160583571Y-63047619D01*
X160631190Y-63142857D01*
X160631190Y-63523809D01*
X161107380Y-72397857D02*
X160631190Y-72731190D01*
X161107380Y-72969285D02*
X160107380Y-72969285D01*
X160107380Y-72588333D01*
X160155000Y-72493095D01*
X160202619Y-72445476D01*
X160297857Y-72397857D01*
X160440714Y-72397857D01*
X160535952Y-72445476D01*
X160583571Y-72493095D01*
X160631190Y-72588333D01*
X160631190Y-72969285D01*
X160583571Y-71969285D02*
X160583571Y-71635952D01*
X161107380Y-71493095D02*
X161107380Y-71969285D01*
X160107380Y-71969285D01*
X160107380Y-71493095D01*
X161107380Y-71064523D02*
X160107380Y-71064523D01*
X160107380Y-70826428D01*
X160155000Y-70683571D01*
X160250238Y-70588333D01*
X160345476Y-70540714D01*
X160535952Y-70493095D01*
X160678809Y-70493095D01*
X160869285Y-70540714D01*
X160964523Y-70588333D01*
X161059761Y-70683571D01*
X161107380Y-70826428D01*
X161107380Y-71064523D01*
X160631190Y-82367142D02*
X161107380Y-82367142D01*
X160107380Y-82700476D02*
X160631190Y-82367142D01*
X160107380Y-82033809D01*
X160583571Y-81700476D02*
X160583571Y-81367142D01*
X161107380Y-81224285D02*
X161107380Y-81700476D01*
X160107380Y-81700476D01*
X160107380Y-81224285D01*
X161107380Y-80319523D02*
X161107380Y-80795714D01*
X160107380Y-80795714D01*
X161107380Y-79510000D02*
X161107380Y-79986190D01*
X160107380Y-79986190D01*
X160107380Y-78986190D02*
X160107380Y-78795714D01*
X160155000Y-78700476D01*
X160250238Y-78605238D01*
X160440714Y-78557619D01*
X160774047Y-78557619D01*
X160964523Y-78605238D01*
X161059761Y-78700476D01*
X161107380Y-78795714D01*
X161107380Y-78986190D01*
X161059761Y-79081428D01*
X160964523Y-79176666D01*
X160774047Y-79224285D01*
X160440714Y-79224285D01*
X160250238Y-79176666D01*
X160155000Y-79081428D01*
X160107380Y-78986190D01*
X160107380Y-78224285D02*
X161107380Y-77986190D01*
X160393095Y-77795714D01*
X161107380Y-77605238D01*
X160107380Y-77367142D01*
X160155000Y-89931666D02*
X160107380Y-90026904D01*
X160107380Y-90169761D01*
X160155000Y-90312619D01*
X160250238Y-90407857D01*
X160345476Y-90455476D01*
X160535952Y-90503095D01*
X160678809Y-90503095D01*
X160869285Y-90455476D01*
X160964523Y-90407857D01*
X161059761Y-90312619D01*
X161107380Y-90169761D01*
X161107380Y-90074523D01*
X161059761Y-89931666D01*
X161012142Y-89884047D01*
X160678809Y-89884047D01*
X160678809Y-90074523D01*
X161107380Y-88884047D02*
X160631190Y-89217380D01*
X161107380Y-89455476D02*
X160107380Y-89455476D01*
X160107380Y-89074523D01*
X160155000Y-88979285D01*
X160202619Y-88931666D01*
X160297857Y-88884047D01*
X160440714Y-88884047D01*
X160535952Y-88931666D01*
X160583571Y-88979285D01*
X160631190Y-89074523D01*
X160631190Y-89455476D01*
X160583571Y-88455476D02*
X160583571Y-88122142D01*
X161107380Y-87979285D02*
X161107380Y-88455476D01*
X160107380Y-88455476D01*
X160107380Y-87979285D01*
X160583571Y-87550714D02*
X160583571Y-87217380D01*
X161107380Y-87074523D02*
X161107380Y-87550714D01*
X160107380Y-87550714D01*
X160107380Y-87074523D01*
X161107380Y-86645952D02*
X160107380Y-86645952D01*
X161107380Y-86074523D01*
X160107380Y-86074523D01*
X116736904Y-76652380D02*
X116736904Y-75652380D01*
X116975000Y-75652380D01*
X117117857Y-75700000D01*
X117213095Y-75795238D01*
X117260714Y-75890476D01*
X117308333Y-76080952D01*
X117308333Y-76223809D01*
X117260714Y-76414285D01*
X117213095Y-76509523D01*
X117117857Y-76604761D01*
X116975000Y-76652380D01*
X116736904Y-76652380D01*
X118213095Y-75652380D02*
X117736904Y-75652380D01*
X117689285Y-76128571D01*
X117736904Y-76080952D01*
X117832142Y-76033333D01*
X118070238Y-76033333D01*
X118165476Y-76080952D01*
X118213095Y-76128571D01*
X118260714Y-76223809D01*
X118260714Y-76461904D01*
X118213095Y-76557142D01*
X118165476Y-76604761D01*
X118070238Y-76652380D01*
X117832142Y-76652380D01*
X117736904Y-76604761D01*
X117689285Y-76557142D01*
X120904047Y-71631428D02*
X121665952Y-71631428D01*
X121285000Y-72012380D02*
X121285000Y-71250476D01*
X101489000Y-62365000D02*
X101393761Y-62317380D01*
X101250904Y-62317380D01*
X101108047Y-62365000D01*
X101012809Y-62460238D01*
X100965190Y-62555476D01*
X100917571Y-62745952D01*
X100917571Y-62888809D01*
X100965190Y-63079285D01*
X101012809Y-63174523D01*
X101108047Y-63269761D01*
X101250904Y-63317380D01*
X101346142Y-63317380D01*
X101489000Y-63269761D01*
X101536619Y-63222142D01*
X101536619Y-62888809D01*
X101346142Y-62888809D01*
X101965190Y-63317380D02*
X101965190Y-62317380D01*
X102346142Y-62317380D01*
X102441380Y-62365000D01*
X102489000Y-62412619D01*
X102536619Y-62507857D01*
X102536619Y-62650714D01*
X102489000Y-62745952D01*
X102441380Y-62793571D01*
X102346142Y-62841190D01*
X101965190Y-62841190D01*
X102965190Y-63317380D02*
X102965190Y-62317380D01*
X103631857Y-62317380D02*
X103822333Y-62317380D01*
X103917571Y-62365000D01*
X104012809Y-62460238D01*
X104060428Y-62650714D01*
X104060428Y-62984047D01*
X104012809Y-63174523D01*
X103917571Y-63269761D01*
X103822333Y-63317380D01*
X103631857Y-63317380D01*
X103536619Y-63269761D01*
X103441380Y-63174523D01*
X103393761Y-62984047D01*
X103393761Y-62650714D01*
X103441380Y-62460238D01*
X103536619Y-62365000D01*
X103631857Y-62317380D01*
X143978333Y-76652380D02*
X143645000Y-76176190D01*
X143406904Y-76652380D02*
X143406904Y-75652380D01*
X143787857Y-75652380D01*
X143883095Y-75700000D01*
X143930714Y-75747619D01*
X143978333Y-75842857D01*
X143978333Y-75985714D01*
X143930714Y-76080952D01*
X143883095Y-76128571D01*
X143787857Y-76176190D01*
X143406904Y-76176190D01*
X144930714Y-76652380D02*
X144359285Y-76652380D01*
X144645000Y-76652380D02*
X144645000Y-75652380D01*
X144549761Y-75795238D01*
X144454523Y-75890476D01*
X144359285Y-75938095D01*
X142859285Y-73112380D02*
X143478333Y-73112380D01*
X143145000Y-73493333D01*
X143287857Y-73493333D01*
X143383095Y-73540952D01*
X143430714Y-73588571D01*
X143478333Y-73683809D01*
X143478333Y-73921904D01*
X143430714Y-74017142D01*
X143383095Y-74064761D01*
X143287857Y-74112380D01*
X143002142Y-74112380D01*
X142906904Y-74064761D01*
X142859285Y-74017142D01*
X143811666Y-73112380D02*
X144430714Y-73112380D01*
X144097380Y-73493333D01*
X144240238Y-73493333D01*
X144335476Y-73540952D01*
X144383095Y-73588571D01*
X144430714Y-73683809D01*
X144430714Y-73921904D01*
X144383095Y-74017142D01*
X144335476Y-74064761D01*
X144240238Y-74112380D01*
X143954523Y-74112380D01*
X143859285Y-74064761D01*
X143811666Y-74017142D01*
X145049761Y-73112380D02*
X145145000Y-73112380D01*
X145240238Y-73160000D01*
X145287857Y-73207619D01*
X145335476Y-73302857D01*
X145383095Y-73493333D01*
X145383095Y-73731428D01*
X145335476Y-73921904D01*
X145287857Y-74017142D01*
X145240238Y-74064761D01*
X145145000Y-74112380D01*
X145049761Y-74112380D01*
X144954523Y-74064761D01*
X144906904Y-74017142D01*
X144859285Y-73921904D01*
X144811666Y-73731428D01*
X144811666Y-73493333D01*
X144859285Y-73302857D01*
X144906904Y-73207619D01*
X144954523Y-73160000D01*
X145049761Y-73112380D01*
X130643333Y-81732380D02*
X130310000Y-81256190D01*
X130071904Y-81732380D02*
X130071904Y-80732380D01*
X130452857Y-80732380D01*
X130548095Y-80780000D01*
X130595714Y-80827619D01*
X130643333Y-80922857D01*
X130643333Y-81065714D01*
X130595714Y-81160952D01*
X130548095Y-81208571D01*
X130452857Y-81256190D01*
X130071904Y-81256190D01*
X131024285Y-80827619D02*
X131071904Y-80780000D01*
X131167142Y-80732380D01*
X131405238Y-80732380D01*
X131500476Y-80780000D01*
X131548095Y-80827619D01*
X131595714Y-80922857D01*
X131595714Y-81018095D01*
X131548095Y-81160952D01*
X130976666Y-81732380D01*
X131595714Y-81732380D01*
X129524285Y-78192380D02*
X130143333Y-78192380D01*
X129810000Y-78573333D01*
X129952857Y-78573333D01*
X130048095Y-78620952D01*
X130095714Y-78668571D01*
X130143333Y-78763809D01*
X130143333Y-79001904D01*
X130095714Y-79097142D01*
X130048095Y-79144761D01*
X129952857Y-79192380D01*
X129667142Y-79192380D01*
X129571904Y-79144761D01*
X129524285Y-79097142D01*
X130476666Y-78192380D02*
X131095714Y-78192380D01*
X130762380Y-78573333D01*
X130905238Y-78573333D01*
X131000476Y-78620952D01*
X131048095Y-78668571D01*
X131095714Y-78763809D01*
X131095714Y-79001904D01*
X131048095Y-79097142D01*
X131000476Y-79144761D01*
X130905238Y-79192380D01*
X130619523Y-79192380D01*
X130524285Y-79144761D01*
X130476666Y-79097142D01*
X131714761Y-78192380D02*
X131810000Y-78192380D01*
X131905238Y-78240000D01*
X131952857Y-78287619D01*
X132000476Y-78382857D01*
X132048095Y-78573333D01*
X132048095Y-78811428D01*
X132000476Y-79001904D01*
X131952857Y-79097142D01*
X131905238Y-79144761D01*
X131810000Y-79192380D01*
X131714761Y-79192380D01*
X131619523Y-79144761D01*
X131571904Y-79097142D01*
X131524285Y-79001904D01*
X131476666Y-78811428D01*
X131476666Y-78573333D01*
X131524285Y-78382857D01*
X131571904Y-78287619D01*
X131619523Y-78240000D01*
X131714761Y-78192380D01*
X117308333Y-81732380D02*
X116975000Y-81256190D01*
X116736904Y-81732380D02*
X116736904Y-80732380D01*
X117117857Y-80732380D01*
X117213095Y-80780000D01*
X117260714Y-80827619D01*
X117308333Y-80922857D01*
X117308333Y-81065714D01*
X117260714Y-81160952D01*
X117213095Y-81208571D01*
X117117857Y-81256190D01*
X116736904Y-81256190D01*
X117641666Y-80732380D02*
X118260714Y-80732380D01*
X117927380Y-81113333D01*
X118070238Y-81113333D01*
X118165476Y-81160952D01*
X118213095Y-81208571D01*
X118260714Y-81303809D01*
X118260714Y-81541904D01*
X118213095Y-81637142D01*
X118165476Y-81684761D01*
X118070238Y-81732380D01*
X117784523Y-81732380D01*
X117689285Y-81684761D01*
X117641666Y-81637142D01*
X116189285Y-78192380D02*
X116808333Y-78192380D01*
X116475000Y-78573333D01*
X116617857Y-78573333D01*
X116713095Y-78620952D01*
X116760714Y-78668571D01*
X116808333Y-78763809D01*
X116808333Y-79001904D01*
X116760714Y-79097142D01*
X116713095Y-79144761D01*
X116617857Y-79192380D01*
X116332142Y-79192380D01*
X116236904Y-79144761D01*
X116189285Y-79097142D01*
X117141666Y-78192380D02*
X117760714Y-78192380D01*
X117427380Y-78573333D01*
X117570238Y-78573333D01*
X117665476Y-78620952D01*
X117713095Y-78668571D01*
X117760714Y-78763809D01*
X117760714Y-79001904D01*
X117713095Y-79097142D01*
X117665476Y-79144761D01*
X117570238Y-79192380D01*
X117284523Y-79192380D01*
X117189285Y-79144761D01*
X117141666Y-79097142D01*
X118379761Y-78192380D02*
X118475000Y-78192380D01*
X118570238Y-78240000D01*
X118617857Y-78287619D01*
X118665476Y-78382857D01*
X118713095Y-78573333D01*
X118713095Y-78811428D01*
X118665476Y-79001904D01*
X118617857Y-79097142D01*
X118570238Y-79144761D01*
X118475000Y-79192380D01*
X118379761Y-79192380D01*
X118284523Y-79144761D01*
X118236904Y-79097142D01*
X118189285Y-79001904D01*
X118141666Y-78811428D01*
X118141666Y-78573333D01*
X118189285Y-78382857D01*
X118236904Y-78287619D01*
X118284523Y-78240000D01*
X118379761Y-78192380D01*
X130643333Y-76652380D02*
X130310000Y-76176190D01*
X130071904Y-76652380D02*
X130071904Y-75652380D01*
X130452857Y-75652380D01*
X130548095Y-75700000D01*
X130595714Y-75747619D01*
X130643333Y-75842857D01*
X130643333Y-75985714D01*
X130595714Y-76080952D01*
X130548095Y-76128571D01*
X130452857Y-76176190D01*
X130071904Y-76176190D01*
X131500476Y-75985714D02*
X131500476Y-76652380D01*
X131262380Y-75604761D02*
X131024285Y-76319047D01*
X131643333Y-76319047D01*
X130524285Y-73445714D02*
X130524285Y-74112380D01*
X130286190Y-73064761D02*
X130048095Y-73779047D01*
X130667142Y-73779047D01*
X130952857Y-73112380D02*
X131619523Y-73112380D01*
X131190952Y-74112380D01*
X143978333Y-81732380D02*
X143645000Y-81256190D01*
X143406904Y-81732380D02*
X143406904Y-80732380D01*
X143787857Y-80732380D01*
X143883095Y-80780000D01*
X143930714Y-80827619D01*
X143978333Y-80922857D01*
X143978333Y-81065714D01*
X143930714Y-81160952D01*
X143883095Y-81208571D01*
X143787857Y-81256190D01*
X143406904Y-81256190D01*
X144883095Y-80732380D02*
X144406904Y-80732380D01*
X144359285Y-81208571D01*
X144406904Y-81160952D01*
X144502142Y-81113333D01*
X144740238Y-81113333D01*
X144835476Y-81160952D01*
X144883095Y-81208571D01*
X144930714Y-81303809D01*
X144930714Y-81541904D01*
X144883095Y-81637142D01*
X144835476Y-81684761D01*
X144740238Y-81732380D01*
X144502142Y-81732380D01*
X144406904Y-81684761D01*
X144359285Y-81637142D01*
X143454523Y-79192380D02*
X142883095Y-79192380D01*
X143168809Y-79192380D02*
X143168809Y-78192380D01*
X143073571Y-78335238D01*
X142978333Y-78430476D01*
X142883095Y-78478095D01*
X144073571Y-78192380D02*
X144168809Y-78192380D01*
X144264047Y-78240000D01*
X144311666Y-78287619D01*
X144359285Y-78382857D01*
X144406904Y-78573333D01*
X144406904Y-78811428D01*
X144359285Y-79001904D01*
X144311666Y-79097142D01*
X144264047Y-79144761D01*
X144168809Y-79192380D01*
X144073571Y-79192380D01*
X143978333Y-79144761D01*
X143930714Y-79097142D01*
X143883095Y-79001904D01*
X143835476Y-78811428D01*
X143835476Y-78573333D01*
X143883095Y-78382857D01*
X143930714Y-78287619D01*
X143978333Y-78240000D01*
X144073571Y-78192380D01*
X144835476Y-79192380D02*
X144835476Y-78192380D01*
X145406904Y-79192380D02*
X144978333Y-78620952D01*
X145406904Y-78192380D02*
X144835476Y-78763809D01*
X130119523Y-110942380D02*
X129643333Y-110942380D01*
X129643333Y-109942380D01*
X130452857Y-110942380D02*
X130452857Y-109942380D01*
X130690952Y-109942380D01*
X130833809Y-109990000D01*
X130929047Y-110085238D01*
X130976666Y-110180476D01*
X131024285Y-110370952D01*
X131024285Y-110513809D01*
X130976666Y-110704285D01*
X130929047Y-110799523D01*
X130833809Y-110894761D01*
X130690952Y-110942380D01*
X130452857Y-110942380D01*
X132024285Y-110942380D02*
X131690952Y-110466190D01*
X131452857Y-110942380D02*
X131452857Y-109942380D01*
X131833809Y-109942380D01*
X131929047Y-109990000D01*
X131976666Y-110037619D01*
X132024285Y-110132857D01*
X132024285Y-110275714D01*
X131976666Y-110370952D01*
X131929047Y-110418571D01*
X131833809Y-110466190D01*
X131452857Y-110466190D01*
X106786862Y-110370687D02*
X107359282Y-110943106D01*
X107460297Y-110976778D01*
X107527641Y-110976778D01*
X107628656Y-110943106D01*
X107763343Y-110808419D01*
X107797015Y-110707404D01*
X107797015Y-110640061D01*
X107763343Y-110539045D01*
X107190923Y-109966625D01*
X107763343Y-109865610D02*
X108470450Y-110572717D01*
X107797015Y-109899282D02*
X107830687Y-109798267D01*
X107965374Y-109663580D01*
X108066389Y-109629908D01*
X108133732Y-109629908D01*
X108234748Y-109663580D01*
X108436778Y-109865610D01*
X108470450Y-109966625D01*
X108470450Y-110033969D01*
X108436778Y-110134984D01*
X108302091Y-110269671D01*
X108201076Y-110303343D01*
X113932534Y-132833229D02*
X113225427Y-132126123D01*
X113393786Y-131957764D01*
X113528473Y-131890420D01*
X113663160Y-131890420D01*
X113764175Y-131924092D01*
X113932534Y-132025107D01*
X114033549Y-132126123D01*
X114134564Y-132294481D01*
X114168236Y-132395497D01*
X114168236Y-132530184D01*
X114100893Y-132664871D01*
X113932534Y-132833229D01*
X114740656Y-132025107D02*
X114639641Y-132058779D01*
X114572297Y-132058779D01*
X114471282Y-132025107D01*
X114269251Y-131823077D01*
X114235580Y-131722062D01*
X114235580Y-131654718D01*
X114269251Y-131553703D01*
X114370267Y-131452688D01*
X114471282Y-131419016D01*
X114538625Y-131419016D01*
X114639641Y-131452688D01*
X114841671Y-131654718D01*
X114875343Y-131755733D01*
X114875343Y-131823077D01*
X114841671Y-131924092D01*
X114740656Y-132025107D01*
X114740656Y-131082298D02*
X115346748Y-131419016D01*
X115144717Y-130947611D01*
X115616122Y-131149642D01*
X115279404Y-130543550D01*
X115548778Y-130274176D02*
X116020183Y-130745581D01*
X115616122Y-130341520D02*
X115616122Y-130274176D01*
X115649793Y-130173161D01*
X115750809Y-130072146D01*
X115851824Y-130038474D01*
X115952839Y-130072146D01*
X116323228Y-130442535D01*
X100415641Y-118156122D02*
X100078923Y-118492839D01*
X99371816Y-117785732D01*
X100887045Y-117617374D02*
X100853374Y-117718389D01*
X100718687Y-117853076D01*
X100617671Y-117886748D01*
X100516656Y-117853076D01*
X100247282Y-117583702D01*
X100213610Y-117482687D01*
X100247282Y-117381671D01*
X100381969Y-117246984D01*
X100482984Y-117213312D01*
X100584000Y-117246984D01*
X100651343Y-117314328D01*
X100381969Y-117718389D01*
X100685015Y-116943938D02*
X100954389Y-116674564D01*
X101257435Y-117314328D02*
X100651343Y-116708236D01*
X100617671Y-116607221D01*
X100651343Y-116506206D01*
X100718687Y-116438862D01*
X101089076Y-116539877D02*
X101358450Y-116270503D01*
X100954389Y-116203160D02*
X101560480Y-116809251D01*
X101661496Y-116842923D01*
X101762511Y-116809251D01*
X101829854Y-116741908D01*
X121194596Y-125571167D02*
X120622176Y-125470152D01*
X120790535Y-125975228D02*
X120083428Y-125268122D01*
X120352802Y-124998748D01*
X120453817Y-124965076D01*
X120521161Y-124965076D01*
X120622176Y-124998748D01*
X120723191Y-125099763D01*
X120756863Y-125200778D01*
X120756863Y-125268122D01*
X120723191Y-125369137D01*
X120453817Y-125638511D01*
X121497642Y-125268122D02*
X121026237Y-124796717D01*
X120790535Y-124561015D02*
X120790535Y-124628358D01*
X120857878Y-124628358D01*
X120857878Y-124561015D01*
X120790535Y-124561015D01*
X120857878Y-124628358D01*
X121666001Y-124156954D02*
X122238420Y-124729374D01*
X122272092Y-124830389D01*
X122272092Y-124897732D01*
X122238420Y-124998748D01*
X122137405Y-125099763D01*
X122036390Y-125133435D01*
X122103733Y-124594687D02*
X122070062Y-124695702D01*
X121935375Y-124830389D01*
X121834359Y-124864061D01*
X121767016Y-124864061D01*
X121666001Y-124830389D01*
X121463970Y-124628358D01*
X121430298Y-124527343D01*
X121430298Y-124460000D01*
X121463970Y-124358984D01*
X121598657Y-124224297D01*
X121699672Y-124190625D01*
X122474123Y-124291641D02*
X121767016Y-123584534D01*
X122777168Y-123988595D02*
X122406779Y-123618206D01*
X122305764Y-123584534D01*
X122204749Y-123618206D01*
X122103733Y-123719221D01*
X122070062Y-123820236D01*
X122070062Y-123887580D01*
X122541466Y-123281488D02*
X122810840Y-123012114D01*
X122406779Y-122944771D02*
X123012871Y-123550862D01*
X123113886Y-123584534D01*
X123214901Y-123550862D01*
X123282245Y-123483519D01*
X154066904Y-134151666D02*
X154543095Y-134151666D01*
X153971666Y-134437380D02*
X154305000Y-133437380D01*
X154638333Y-134437380D01*
X115911380Y-60309047D02*
X115911380Y-60118571D01*
X115959000Y-60023333D01*
X116054238Y-59928095D01*
X116244714Y-59880476D01*
X116578047Y-59880476D01*
X116768523Y-59928095D01*
X116863761Y-60023333D01*
X116911380Y-60118571D01*
X116911380Y-60309047D01*
X116863761Y-60404285D01*
X116768523Y-60499523D01*
X116578047Y-60547142D01*
X116244714Y-60547142D01*
X116054238Y-60499523D01*
X115959000Y-60404285D01*
X115911380Y-60309047D01*
X116911380Y-59451904D02*
X115911380Y-59451904D01*
X116911380Y-58880476D01*
X115911380Y-58880476D01*
X105243380Y-60642380D02*
X105243380Y-60451904D01*
X105291000Y-60356666D01*
X105386238Y-60261428D01*
X105576714Y-60213809D01*
X105910047Y-60213809D01*
X106100523Y-60261428D01*
X106195761Y-60356666D01*
X106243380Y-60451904D01*
X106243380Y-60642380D01*
X106195761Y-60737619D01*
X106100523Y-60832857D01*
X105910047Y-60880476D01*
X105576714Y-60880476D01*
X105386238Y-60832857D01*
X105291000Y-60737619D01*
X105243380Y-60642380D01*
X105719571Y-59451904D02*
X105719571Y-59785238D01*
X106243380Y-59785238D02*
X105243380Y-59785238D01*
X105243380Y-59309047D01*
X105719571Y-58594761D02*
X105719571Y-58928095D01*
X106243380Y-58928095D02*
X105243380Y-58928095D01*
X105243380Y-58451904D01*
%LPC*%
D14*
X138432500Y-64026000D03*
X135892500Y-64026000D03*
X133352500Y-64026000D03*
D15*
X111910000Y-64526000D03*
X149710000Y-64526000D03*
X111910000Y-97526000D03*
X149710000Y-97526000D03*
D16*
X123192500Y-64026000D03*
D14*
X125732500Y-64026000D03*
X128272500Y-64026000D03*
X130810000Y-64026000D03*
D15*
X120310000Y-65026000D03*
X141310000Y-65026000D03*
X120310000Y-86526000D03*
X141310000Y-86526000D03*
D17*
X134135000Y-128270000D03*
X134135000Y-132770000D03*
X127635000Y-128270000D03*
X127635000Y-132770000D03*
D18*
X149345000Y-118505000D03*
X149345000Y-108905000D03*
D19*
X156845000Y-111205000D03*
X156845000Y-113705000D03*
D20*
X156845000Y-116205000D03*
D21*
X98425000Y-83820000D03*
D22*
X100965000Y-83820000D03*
X103505000Y-83820000D03*
X106045000Y-83820000D03*
X108585000Y-83820000D03*
X111125000Y-83820000D03*
X113665000Y-83820000D03*
X116205000Y-83820000D03*
X118745000Y-83820000D03*
X121285000Y-83820000D03*
X123825000Y-83820000D03*
X126365000Y-83820000D03*
X128905000Y-83820000D03*
X131445000Y-83820000D03*
X133985000Y-83820000D03*
X136525000Y-83820000D03*
X139065000Y-83820000D03*
X141605000Y-83820000D03*
X144145000Y-83820000D03*
X146685000Y-83820000D03*
X146685000Y-101600000D03*
X144145000Y-101600000D03*
X141605000Y-101600000D03*
X139065000Y-101600000D03*
X136525000Y-101600000D03*
X133985000Y-101600000D03*
X131445000Y-101600000D03*
X128905000Y-101600000D03*
X126365000Y-101600000D03*
X123825000Y-101600000D03*
X121285000Y-101600000D03*
X118745000Y-101600000D03*
X116205000Y-101600000D03*
X113665000Y-101600000D03*
X111125000Y-101600000D03*
X108585000Y-101600000D03*
X106045000Y-101600000D03*
X103505000Y-101600000D03*
X100965000Y-101600000D03*
X98425000Y-101600000D03*
D23*
X146685000Y-128905000D03*
X141605000Y-128905000D03*
D24*
X130810000Y-69850000D03*
D25*
X153035000Y-95885000D03*
D17*
X160635000Y-95885000D03*
D20*
X155575000Y-63500000D03*
D19*
X158115000Y-63500000D03*
D20*
X155575000Y-71755000D03*
D19*
X158115000Y-71755000D03*
X158115000Y-79930000D03*
D20*
X155575000Y-79930000D03*
X155575000Y-88265000D03*
D19*
X158115000Y-88265000D03*
D26*
X113665000Y-73660000D03*
D27*
X121285000Y-73660000D03*
D16*
X108204000Y-65405000D03*
D28*
X105664000Y-65405000D03*
X108204000Y-67945000D03*
X105664000Y-67945000D03*
X108204000Y-70485000D03*
X105664000Y-70485000D03*
X108204000Y-73025000D03*
X105664000Y-73025000D03*
X108204000Y-75565000D03*
X105664000Y-75565000D03*
X108204000Y-78105000D03*
X105664000Y-78105000D03*
D29*
X139065000Y-73660000D03*
D30*
X149225000Y-73660000D03*
D29*
X125730000Y-78740000D03*
D30*
X135890000Y-78740000D03*
X122555000Y-78740000D03*
D29*
X112395000Y-78740000D03*
X125730000Y-73660000D03*
D30*
X135890000Y-73660000D03*
X149225000Y-78740000D03*
D29*
X139065000Y-78740000D03*
X132080000Y-107315000D03*
X129080000Y-107315000D03*
D23*
X112891051Y-112108949D03*
X109298949Y-115701051D03*
X109298949Y-129901051D03*
X112891051Y-126308949D03*
X105791051Y-119208949D03*
X102198949Y-122801051D03*
X116398949Y-122801051D03*
X119991051Y-119208949D03*
X151765000Y-128905000D03*
X156845000Y-128905000D03*
D31*
X108625000Y-60325000D03*
D29*
X111125000Y-60325000D03*
X113625000Y-60325000D03*
M02*
