%FSLAX45Y45*%
G04 Gerber Fmt 4.5, Leading zero omitted, Abs format (unit mm)*
G04 Created by KiCad (PCBNEW 6.0.0-d3dd2cf0fa~116~ubuntu20.04.1) date 2022-01-19 10:20:00*
%MOMM*%
%LPD*%
G01*
G04 APERTURE LIST*
%TA.AperFunction,Profile*%
%ADD10C,0.050000*%
%TD*%
%ADD11C,0.200000*%
%ADD12C,0.040000*%
%ADD13C,0.076200*%
%ADD14C,0.080000*%
%ADD15C,0.086200*%
%ADD16C,0.090000*%
%ADD17C,0.100000*%
%ADD18C,0.110000*%
G04 APERTURE END LIST*
D10*
X16446500Y-6032500D02*
G75*
G03*
X16192500Y-5778500I-254000J0D01*
G01*
X9715500Y-13589000D02*
X9715500Y-6032500D01*
X16192500Y-13843000D02*
X9969500Y-13843000D01*
X10119500Y-13589000D02*
G75*
G03*
X10119500Y-13589000I-150000J0D01*
G01*
X16342500Y-6032500D02*
G75*
G03*
X16342500Y-6032500I-150000J0D01*
G01*
X9969500Y-5778500D02*
X16192500Y-5778500D01*
X10119500Y-6032500D02*
G75*
G03*
X10119500Y-6032500I-150000J0D01*
G01*
X9715500Y-13589000D02*
G75*
G03*
X9969500Y-13843000I254000J0D01*
G01*
X9969500Y-5778500D02*
G75*
G03*
X9715500Y-6032500I0J-254000D01*
G01*
X16192500Y-13843000D02*
G75*
G03*
X16446500Y-13589000I0J254000D01*
G01*
X16342500Y-13589000D02*
G75*
G03*
X16342500Y-13589000I-150000J0D01*
G01*
X16446500Y-6032500D02*
X16446500Y-13589000D01*
D11*
D12*
X11410000Y-10521000D02*
X11450000Y-10561000D01*
X11450000Y-10521000D02*
X11410000Y-10561000D01*
X12006900Y-9174800D02*
X12046900Y-9214800D01*
X12046900Y-9174800D02*
X12006900Y-9214800D01*
X12299000Y-10521000D02*
X12339000Y-10561000D01*
X12339000Y-10521000D02*
X12299000Y-10561000D01*
X12680000Y-11600500D02*
X12720000Y-11640500D01*
X12720000Y-11600500D02*
X12680000Y-11640500D01*
X12768900Y-10568500D02*
X12808900Y-10608500D01*
X12808900Y-10568500D02*
X12768900Y-10608500D01*
X12870500Y-7600000D02*
X12910500Y-7640000D01*
X12910500Y-7600000D02*
X12870500Y-7640000D01*
X13011000Y-10568500D02*
X13051000Y-10608500D01*
X13051000Y-10568500D02*
X13011000Y-10608500D01*
X13061000Y-11346500D02*
X13101000Y-11386500D01*
X13101000Y-11346500D02*
X13061000Y-11386500D01*
X13289600Y-9720900D02*
X13329600Y-9760900D01*
X13329600Y-9720900D02*
X13289600Y-9760900D01*
X13783617Y-10242883D02*
X13823617Y-10282883D01*
X13823617Y-10242883D02*
X13783617Y-10282883D01*
X14140500Y-9314500D02*
X14180500Y-9354500D01*
X14180500Y-9314500D02*
X14140500Y-9354500D01*
D13*
X10257995Y-12280105D02*
G75*
G03*
X10257995Y-12280105I-38100J0D01*
G01*
X10617205Y-11920895D02*
G75*
G03*
X10617205Y-11920895I-38100J0D01*
G01*
X10967995Y-11570105D02*
G75*
G03*
X10967995Y-11570105I-38100J0D01*
G01*
X10967995Y-12990105D02*
G75*
G03*
X10967995Y-12990105I-38100J0D01*
G01*
X11327205Y-11210895D02*
G75*
G03*
X11327205Y-11210895I-38100J0D01*
G01*
X11327205Y-12630895D02*
G75*
G03*
X11327205Y-12630895I-38100J0D01*
G01*
X11677995Y-12280105D02*
G75*
G03*
X11677995Y-12280105I-38100J0D01*
G01*
X12037205Y-11920895D02*
G75*
G03*
X12037205Y-11920895I-38100J0D01*
G01*
X14198600Y-12890500D02*
G75*
G03*
X14198600Y-12890500I-38100J0D01*
G01*
X14706600Y-12890500D02*
G75*
G03*
X14706600Y-12890500I-38100J0D01*
G01*
X15214600Y-12890500D02*
G75*
G03*
X15214600Y-12890500I-38100J0D01*
G01*
X15722600Y-12890500D02*
G75*
G03*
X15722600Y-12890500I-38100J0D01*
G01*
D14*
X10862500Y-5992500D02*
X10862500Y-6072500D01*
X10822500Y-6032500D02*
X10902500Y-6032500D01*
X11112500Y-5992500D02*
X11112500Y-6072500D01*
X11072500Y-6032500D02*
X11152500Y-6032500D01*
X11239500Y-7834000D02*
X11239500Y-7914000D01*
X11199500Y-7874000D02*
X11279500Y-7874000D01*
X11362500Y-5992500D02*
X11362500Y-6072500D01*
X11322500Y-6032500D02*
X11402500Y-6032500D01*
X12255500Y-7834000D02*
X12255500Y-7914000D01*
X12215500Y-7874000D02*
X12295500Y-7874000D01*
X12573000Y-7326000D02*
X12573000Y-7406000D01*
X12533000Y-7366000D02*
X12613000Y-7366000D01*
X12573000Y-7834000D02*
X12573000Y-7914000D01*
X12533000Y-7874000D02*
X12613000Y-7874000D01*
X12908000Y-10691500D02*
X12908000Y-10771500D01*
X12868000Y-10731500D02*
X12948000Y-10731500D01*
X13208000Y-10691500D02*
X13208000Y-10771500D01*
X13168000Y-10731500D02*
X13248000Y-10731500D01*
X13589000Y-7326000D02*
X13589000Y-7406000D01*
X13549000Y-7366000D02*
X13629000Y-7366000D01*
X13589000Y-7834000D02*
X13589000Y-7914000D01*
X13549000Y-7874000D02*
X13629000Y-7874000D01*
X13906500Y-7326000D02*
X13906500Y-7406000D01*
X13866500Y-7366000D02*
X13946500Y-7366000D01*
X13906500Y-7834000D02*
X13906500Y-7914000D01*
X13866500Y-7874000D02*
X13946500Y-7874000D01*
X14922500Y-7326000D02*
X14922500Y-7406000D01*
X14882500Y-7366000D02*
X14962500Y-7366000D01*
X14922500Y-7834000D02*
X14922500Y-7914000D01*
X14882500Y-7874000D02*
X14962500Y-7874000D01*
D15*
X9872977Y-8412477D02*
X9872977Y-8351523D01*
X9812023Y-8351523D01*
X9812023Y-8412477D01*
X9872977Y-8412477D01*
X9872977Y-10190477D02*
X9872977Y-10129523D01*
X9812023Y-10129523D01*
X9812023Y-10190477D01*
X9872977Y-10190477D01*
X10126977Y-8412477D02*
X10126977Y-8351523D01*
X10066023Y-8351523D01*
X10066023Y-8412477D01*
X10126977Y-8412477D01*
X10126977Y-10190477D02*
X10126977Y-10129523D01*
X10066023Y-10129523D01*
X10066023Y-10190477D01*
X10126977Y-10190477D01*
X10380977Y-8412477D02*
X10380977Y-8351523D01*
X10320023Y-8351523D01*
X10320023Y-8412477D01*
X10380977Y-8412477D01*
X10380977Y-10190477D02*
X10380977Y-10129523D01*
X10320023Y-10129523D01*
X10320023Y-10190477D01*
X10380977Y-10190477D01*
X10634977Y-8412477D02*
X10634977Y-8351523D01*
X10574023Y-8351523D01*
X10574023Y-8412477D01*
X10634977Y-8412477D01*
X10634977Y-10190477D02*
X10634977Y-10129523D01*
X10574023Y-10129523D01*
X10574023Y-10190477D01*
X10634977Y-10190477D01*
X10888977Y-8412477D02*
X10888977Y-8351523D01*
X10828023Y-8351523D01*
X10828023Y-8412477D01*
X10888977Y-8412477D01*
X10888977Y-10190477D02*
X10888977Y-10129523D01*
X10828023Y-10129523D01*
X10828023Y-10190477D01*
X10888977Y-10190477D01*
X11142977Y-8412477D02*
X11142977Y-8351523D01*
X11082023Y-8351523D01*
X11082023Y-8412477D01*
X11142977Y-8412477D01*
X11142977Y-10190477D02*
X11142977Y-10129523D01*
X11082023Y-10129523D01*
X11082023Y-10190477D01*
X11142977Y-10190477D01*
X11396977Y-8412477D02*
X11396977Y-8351523D01*
X11336023Y-8351523D01*
X11336023Y-8412477D01*
X11396977Y-8412477D01*
X11396977Y-10190477D02*
X11396977Y-10129523D01*
X11336023Y-10129523D01*
X11336023Y-10190477D01*
X11396977Y-10190477D01*
X11650977Y-8412477D02*
X11650977Y-8351523D01*
X11590023Y-8351523D01*
X11590023Y-8412477D01*
X11650977Y-8412477D01*
X11650977Y-10190477D02*
X11650977Y-10129523D01*
X11590023Y-10129523D01*
X11590023Y-10190477D01*
X11650977Y-10190477D01*
X11904977Y-8412477D02*
X11904977Y-8351523D01*
X11844023Y-8351523D01*
X11844023Y-8412477D01*
X11904977Y-8412477D01*
X11904977Y-10190477D02*
X11904977Y-10129523D01*
X11844023Y-10129523D01*
X11844023Y-10190477D01*
X11904977Y-10190477D01*
X12158977Y-8412477D02*
X12158977Y-8351523D01*
X12098023Y-8351523D01*
X12098023Y-8412477D01*
X12158977Y-8412477D01*
X12158977Y-10190477D02*
X12158977Y-10129523D01*
X12098023Y-10129523D01*
X12098023Y-10190477D01*
X12158977Y-10190477D01*
X12412977Y-8412477D02*
X12412977Y-8351523D01*
X12352023Y-8351523D01*
X12352023Y-8412477D01*
X12412977Y-8412477D01*
X12412977Y-10190477D02*
X12412977Y-10129523D01*
X12352023Y-10129523D01*
X12352023Y-10190477D01*
X12412977Y-10190477D01*
X12666977Y-8412477D02*
X12666977Y-8351523D01*
X12606023Y-8351523D01*
X12606023Y-8412477D01*
X12666977Y-8412477D01*
X12666977Y-10190477D02*
X12666977Y-10129523D01*
X12606023Y-10129523D01*
X12606023Y-10190477D01*
X12666977Y-10190477D01*
X12920977Y-8412477D02*
X12920977Y-8351523D01*
X12860023Y-8351523D01*
X12860023Y-8412477D01*
X12920977Y-8412477D01*
X12920977Y-10190477D02*
X12920977Y-10129523D01*
X12860023Y-10129523D01*
X12860023Y-10190477D01*
X12920977Y-10190477D01*
X13174977Y-8412477D02*
X13174977Y-8351523D01*
X13114023Y-8351523D01*
X13114023Y-8412477D01*
X13174977Y-8412477D01*
X13174977Y-10190477D02*
X13174977Y-10129523D01*
X13114023Y-10129523D01*
X13114023Y-10190477D01*
X13174977Y-10190477D01*
X13428977Y-8412477D02*
X13428977Y-8351523D01*
X13368023Y-8351523D01*
X13368023Y-8412477D01*
X13428977Y-8412477D01*
X13428977Y-10190477D02*
X13428977Y-10129523D01*
X13368023Y-10129523D01*
X13368023Y-10190477D01*
X13428977Y-10190477D01*
X13682977Y-8412477D02*
X13682977Y-8351523D01*
X13622023Y-8351523D01*
X13622023Y-8412477D01*
X13682977Y-8412477D01*
X13682977Y-10190477D02*
X13682977Y-10129523D01*
X13622023Y-10129523D01*
X13622023Y-10190477D01*
X13682977Y-10190477D01*
X13936977Y-8412477D02*
X13936977Y-8351523D01*
X13876023Y-8351523D01*
X13876023Y-8412477D01*
X13936977Y-8412477D01*
X13936977Y-10190477D02*
X13936977Y-10129523D01*
X13876023Y-10129523D01*
X13876023Y-10190477D01*
X13936977Y-10190477D01*
X14190977Y-8412477D02*
X14190977Y-8351523D01*
X14130023Y-8351523D01*
X14130023Y-8412477D01*
X14190977Y-8412477D01*
X14190977Y-10190477D02*
X14190977Y-10129523D01*
X14130023Y-10129523D01*
X14130023Y-10190477D01*
X14190977Y-10190477D01*
X14444977Y-8412477D02*
X14444977Y-8351523D01*
X14384023Y-8351523D01*
X14384023Y-8412477D01*
X14444977Y-8412477D01*
X14444977Y-10190477D02*
X14444977Y-10129523D01*
X14384023Y-10129523D01*
X14384023Y-10190477D01*
X14444977Y-10190477D01*
X14698977Y-8412477D02*
X14698977Y-8351523D01*
X14638023Y-8351523D01*
X14638023Y-8412477D01*
X14698977Y-8412477D01*
X14698977Y-10190477D02*
X14698977Y-10129523D01*
X14638023Y-10129523D01*
X14638023Y-10190477D01*
X14698977Y-10190477D01*
D16*
X15557500Y-6395000D02*
X15602500Y-6350000D01*
X15557500Y-6305000D01*
X15512500Y-6350000D01*
X15557500Y-6395000D01*
X15557500Y-7220500D02*
X15602500Y-7175500D01*
X15557500Y-7130500D01*
X15512500Y-7175500D01*
X15557500Y-7220500D01*
X15557500Y-8038000D02*
X15602500Y-7993000D01*
X15557500Y-7948000D01*
X15512500Y-7993000D01*
X15557500Y-8038000D01*
X15557500Y-8871500D02*
X15602500Y-8826500D01*
X15557500Y-8781500D01*
X15512500Y-8826500D01*
X15557500Y-8871500D01*
X15811500Y-6395000D02*
X15856500Y-6350000D01*
X15811500Y-6305000D01*
X15766500Y-6350000D01*
X15811500Y-6395000D01*
X15811500Y-7220500D02*
X15856500Y-7175500D01*
X15811500Y-7130500D01*
X15766500Y-7175500D01*
X15811500Y-7220500D01*
X15811500Y-8038000D02*
X15856500Y-7993000D01*
X15811500Y-7948000D01*
X15766500Y-7993000D01*
X15811500Y-8038000D01*
X15811500Y-8871500D02*
X15856500Y-8826500D01*
X15811500Y-8781500D01*
X15766500Y-8826500D01*
X15811500Y-8871500D01*
D17*
X10516400Y-6490500D02*
X10616400Y-6590500D01*
X10616400Y-6490500D02*
X10516400Y-6590500D01*
X10616400Y-6540500D02*
G75*
G03*
X10616400Y-6540500I-50000J0D01*
G01*
X10516400Y-6744500D02*
X10616400Y-6844500D01*
X10616400Y-6744500D02*
X10516400Y-6844500D01*
X10616400Y-6794500D02*
G75*
G03*
X10616400Y-6794500I-50000J0D01*
G01*
X10516400Y-6998500D02*
X10616400Y-7098500D01*
X10616400Y-6998500D02*
X10516400Y-7098500D01*
X10616400Y-7048500D02*
G75*
G03*
X10616400Y-7048500I-50000J0D01*
G01*
X10516400Y-7252500D02*
X10616400Y-7352500D01*
X10616400Y-7252500D02*
X10516400Y-7352500D01*
X10616400Y-7302500D02*
G75*
G03*
X10616400Y-7302500I-50000J0D01*
G01*
X10516400Y-7506500D02*
X10616400Y-7606500D01*
X10616400Y-7506500D02*
X10516400Y-7606500D01*
X10616400Y-7556500D02*
G75*
G03*
X10616400Y-7556500I-50000J0D01*
G01*
X10516400Y-7760500D02*
X10616400Y-7860500D01*
X10616400Y-7760500D02*
X10516400Y-7860500D01*
X10616400Y-7810500D02*
G75*
G03*
X10616400Y-7810500I-50000J0D01*
G01*
X10770400Y-6490500D02*
X10870400Y-6590500D01*
X10870400Y-6490500D02*
X10770400Y-6590500D01*
X10870400Y-6540500D02*
G75*
G03*
X10870400Y-6540500I-50000J0D01*
G01*
X10770400Y-6744500D02*
X10870400Y-6844500D01*
X10870400Y-6744500D02*
X10770400Y-6844500D01*
X10870400Y-6794500D02*
G75*
G03*
X10870400Y-6794500I-50000J0D01*
G01*
X10770400Y-6998500D02*
X10870400Y-7098500D01*
X10870400Y-6998500D02*
X10770400Y-7098500D01*
X10870400Y-7048500D02*
G75*
G03*
X10870400Y-7048500I-50000J0D01*
G01*
X10770400Y-7252500D02*
X10870400Y-7352500D01*
X10870400Y-7252500D02*
X10770400Y-7352500D01*
X10870400Y-7302500D02*
G75*
G03*
X10870400Y-7302500I-50000J0D01*
G01*
X10770400Y-7506500D02*
X10870400Y-7606500D01*
X10870400Y-7506500D02*
X10770400Y-7606500D01*
X10870400Y-7556500D02*
G75*
G03*
X10870400Y-7556500I-50000J0D01*
G01*
X10770400Y-7760500D02*
X10870400Y-7860500D01*
X10870400Y-7760500D02*
X10770400Y-7860500D01*
X10870400Y-7810500D02*
G75*
G03*
X10870400Y-7810500I-50000J0D01*
G01*
X12269250Y-6352600D02*
X12369250Y-6452600D01*
X12369250Y-6352600D02*
X12269250Y-6452600D01*
X12369250Y-6402600D02*
G75*
G03*
X12369250Y-6402600I-50000J0D01*
G01*
X12523250Y-6352600D02*
X12623250Y-6452600D01*
X12623250Y-6352600D02*
X12523250Y-6452600D01*
X12623250Y-6402600D02*
G75*
G03*
X12623250Y-6402600I-50000J0D01*
G01*
X12777250Y-6352600D02*
X12877250Y-6452600D01*
X12877250Y-6352600D02*
X12777250Y-6452600D01*
X12877250Y-6402600D02*
G75*
G03*
X12877250Y-6402600I-50000J0D01*
G01*
X13031000Y-6352600D02*
X13131000Y-6452600D01*
X13131000Y-6352600D02*
X13031000Y-6452600D01*
X13131000Y-6402600D02*
G75*
G03*
X13131000Y-6402600I-50000J0D01*
G01*
X13285250Y-6352600D02*
X13385250Y-6452600D01*
X13385250Y-6352600D02*
X13285250Y-6452600D01*
X13385250Y-6402600D02*
G75*
G03*
X13385250Y-6402600I-50000J0D01*
G01*
X13539250Y-6352600D02*
X13639250Y-6452600D01*
X13639250Y-6352600D02*
X13539250Y-6452600D01*
X13639250Y-6402600D02*
G75*
G03*
X13639250Y-6402600I-50000J0D01*
G01*
X13793250Y-6352600D02*
X13893250Y-6452600D01*
X13893250Y-6352600D02*
X13793250Y-6452600D01*
X13893250Y-6402600D02*
G75*
G03*
X13893250Y-6402600I-50000J0D01*
G01*
X15306000Y-9538500D02*
X15406000Y-9638500D01*
X15406000Y-9538500D02*
X15306000Y-9638500D01*
X15406000Y-9588500D02*
G75*
G03*
X15406000Y-9588500I-50000J0D01*
G01*
X15634500Y-11070500D02*
X15734500Y-11170500D01*
X15734500Y-11070500D02*
X15634500Y-11170500D01*
X15734500Y-11120500D02*
G75*
G03*
X15734500Y-11120500I-50000J0D01*
G01*
X15634500Y-11320500D02*
X15734500Y-11420500D01*
X15734500Y-11320500D02*
X15634500Y-11420500D01*
X15734500Y-11370500D02*
G75*
G03*
X15734500Y-11370500I-50000J0D01*
G01*
X15634500Y-11570500D02*
X15734500Y-11670500D01*
X15734500Y-11570500D02*
X15634500Y-11670500D01*
X15734500Y-11620500D02*
G75*
G03*
X15734500Y-11620500I-50000J0D01*
G01*
X15956000Y-9538500D02*
X16056000Y-9638500D01*
X16056000Y-9538500D02*
X15956000Y-9638500D01*
X16056000Y-9588500D02*
G75*
G03*
X16056000Y-9588500I-50000J0D01*
G01*
D18*
X11311500Y-7311000D02*
X11421500Y-7421000D01*
X11421500Y-7311000D02*
X11311500Y-7421000D01*
X11366500Y-7311000D02*
X11366500Y-7421000D01*
X11311500Y-7366000D02*
X11421500Y-7366000D01*
X12073500Y-7311000D02*
X12183500Y-7421000D01*
X12183500Y-7311000D02*
X12073500Y-7421000D01*
X12128500Y-7311000D02*
X12128500Y-7421000D01*
X12073500Y-7366000D02*
X12183500Y-7366000D01*
X12708500Y-12772000D02*
X12818500Y-12882000D01*
X12818500Y-12772000D02*
X12708500Y-12882000D01*
X12763500Y-12772000D02*
X12763500Y-12882000D01*
X12708500Y-12827000D02*
X12818500Y-12827000D01*
X12708500Y-13222000D02*
X12818500Y-13332000D01*
X12818500Y-13222000D02*
X12708500Y-13332000D01*
X12763500Y-13222000D02*
X12763500Y-13332000D01*
X12708500Y-13277000D02*
X12818500Y-13277000D01*
X13358500Y-12772000D02*
X13468500Y-12882000D01*
X13468500Y-12772000D02*
X13358500Y-12882000D01*
X13413500Y-12772000D02*
X13413500Y-12882000D01*
X13358500Y-12827000D02*
X13468500Y-12827000D01*
X13358500Y-13222000D02*
X13468500Y-13332000D01*
X13468500Y-13222000D02*
X13358500Y-13332000D01*
X13413500Y-13222000D02*
X13413500Y-13332000D01*
X13358500Y-13277000D02*
X13468500Y-13277000D01*
X14879500Y-10835500D02*
X14989500Y-10945500D01*
X14989500Y-10835500D02*
X14879500Y-10945500D01*
X14934500Y-10835500D02*
X14934500Y-10945500D01*
X14879500Y-10890500D02*
X14989500Y-10890500D01*
D11*
X14994500Y-10845500D02*
X14874500Y-10845500D01*
X14994500Y-10935500D02*
X14874500Y-10935500D01*
X14874500Y-10845500D02*
G75*
G03*
X14874500Y-10935500I0J-45000D01*
G01*
X14994500Y-10935500D02*
G75*
G03*
X14994500Y-10845500I0J45000D01*
G01*
D18*
X14879500Y-11795500D02*
X14989500Y-11905500D01*
X14989500Y-11795500D02*
X14879500Y-11905500D01*
X14934500Y-11795500D02*
X14934500Y-11905500D01*
X14879500Y-11850500D02*
X14989500Y-11850500D01*
D11*
X14994500Y-11805500D02*
X14874500Y-11805500D01*
X14994500Y-11895500D02*
X14874500Y-11895500D01*
X14874500Y-11805500D02*
G75*
G03*
X14874500Y-11895500I0J-45000D01*
G01*
X14994500Y-11895500D02*
G75*
G03*
X14994500Y-11805500I0J45000D01*
G01*
X9970619Y-14155976D02*
X9970619Y-13955976D01*
X10018238Y-13955976D01*
X10046810Y-13965500D01*
X10065857Y-13984548D01*
X10075381Y-14003595D01*
X10084905Y-14041690D01*
X10084905Y-14070262D01*
X10075381Y-14108357D01*
X10065857Y-14127405D01*
X10046810Y-14146452D01*
X10018238Y-14155976D01*
X9970619Y-14155976D01*
X10170619Y-14155976D02*
X10170619Y-14022643D01*
X10170619Y-14060738D02*
X10180143Y-14041690D01*
X10189667Y-14032167D01*
X10208714Y-14022643D01*
X10227762Y-14022643D01*
X10294429Y-14155976D02*
X10294429Y-14022643D01*
X10294429Y-13955976D02*
X10284905Y-13965500D01*
X10294429Y-13975024D01*
X10303952Y-13965500D01*
X10294429Y-13955976D01*
X10294429Y-13975024D01*
X10418238Y-14155976D02*
X10399190Y-14146452D01*
X10389667Y-14127405D01*
X10389667Y-13955976D01*
X10523000Y-14155976D02*
X10503952Y-14146452D01*
X10494429Y-14127405D01*
X10494429Y-13955976D01*
X10751571Y-14155976D02*
X10751571Y-13955976D01*
X10818238Y-14098833D01*
X10884905Y-13955976D01*
X10884905Y-14155976D01*
X11065857Y-14155976D02*
X11065857Y-14051214D01*
X11056333Y-14032167D01*
X11037286Y-14022643D01*
X10999190Y-14022643D01*
X10980143Y-14032167D01*
X11065857Y-14146452D02*
X11046810Y-14155976D01*
X10999190Y-14155976D01*
X10980143Y-14146452D01*
X10970619Y-14127405D01*
X10970619Y-14108357D01*
X10980143Y-14089309D01*
X10999190Y-14079786D01*
X11046810Y-14079786D01*
X11065857Y-14070262D01*
X11161095Y-14022643D02*
X11161095Y-14222643D01*
X11161095Y-14032167D02*
X11180143Y-14022643D01*
X11218238Y-14022643D01*
X11237286Y-14032167D01*
X11246809Y-14041690D01*
X11256333Y-14060738D01*
X11256333Y-14117881D01*
X11246809Y-14136928D01*
X11237286Y-14146452D01*
X11218238Y-14155976D01*
X11180143Y-14155976D01*
X11161095Y-14146452D01*
X11342048Y-14136928D02*
X11351571Y-14146452D01*
X11342048Y-14155976D01*
X11332524Y-14146452D01*
X11342048Y-14136928D01*
X11342048Y-14155976D01*
X11342048Y-14032167D02*
X11351571Y-14041690D01*
X11342048Y-14051214D01*
X11332524Y-14041690D01*
X11342048Y-14032167D01*
X11342048Y-14051214D01*
D12*
X9673000Y-14465500D02*
X9713000Y-14505500D01*
X9713000Y-14465500D02*
X9673000Y-14505500D01*
D11*
X10008714Y-14375976D02*
X10027762Y-14375976D01*
X10046810Y-14385500D01*
X10056333Y-14395024D01*
X10065857Y-14414071D01*
X10075381Y-14452167D01*
X10075381Y-14499786D01*
X10065857Y-14537881D01*
X10056333Y-14556928D01*
X10046810Y-14566452D01*
X10027762Y-14575976D01*
X10008714Y-14575976D01*
X9989667Y-14566452D01*
X9980143Y-14556928D01*
X9970619Y-14537881D01*
X9961095Y-14499786D01*
X9961095Y-14452167D01*
X9970619Y-14414071D01*
X9980143Y-14395024D01*
X9989667Y-14385500D01*
X10008714Y-14375976D01*
X10161095Y-14556928D02*
X10170619Y-14566452D01*
X10161095Y-14575976D01*
X10151571Y-14566452D01*
X10161095Y-14556928D01*
X10161095Y-14575976D01*
X10342048Y-14442643D02*
X10342048Y-14575976D01*
X10294429Y-14366452D02*
X10246810Y-14509309D01*
X10370619Y-14509309D01*
X10484905Y-14375976D02*
X10503952Y-14375976D01*
X10523000Y-14385500D01*
X10532524Y-14395024D01*
X10542048Y-14414071D01*
X10551571Y-14452167D01*
X10551571Y-14499786D01*
X10542048Y-14537881D01*
X10532524Y-14556928D01*
X10523000Y-14566452D01*
X10503952Y-14575976D01*
X10484905Y-14575976D01*
X10465857Y-14566452D01*
X10456333Y-14556928D01*
X10446810Y-14537881D01*
X10437286Y-14499786D01*
X10437286Y-14452167D01*
X10446810Y-14414071D01*
X10456333Y-14395024D01*
X10465857Y-14385500D01*
X10484905Y-14375976D01*
X10675381Y-14375976D02*
X10694429Y-14375976D01*
X10713476Y-14385500D01*
X10723000Y-14395024D01*
X10732524Y-14414071D01*
X10742048Y-14452167D01*
X10742048Y-14499786D01*
X10732524Y-14537881D01*
X10723000Y-14556928D01*
X10713476Y-14566452D01*
X10694429Y-14575976D01*
X10675381Y-14575976D01*
X10656333Y-14566452D01*
X10646810Y-14556928D01*
X10637286Y-14537881D01*
X10627762Y-14499786D01*
X10627762Y-14452167D01*
X10637286Y-14414071D01*
X10646810Y-14395024D01*
X10656333Y-14385500D01*
X10675381Y-14375976D01*
X10827762Y-14575976D02*
X10827762Y-14442643D01*
X10827762Y-14461690D02*
X10837286Y-14452167D01*
X10856333Y-14442643D01*
X10884905Y-14442643D01*
X10903952Y-14452167D01*
X10913476Y-14471214D01*
X10913476Y-14575976D01*
X10913476Y-14471214D02*
X10923000Y-14452167D01*
X10942048Y-14442643D01*
X10970619Y-14442643D01*
X10989667Y-14452167D01*
X10999190Y-14471214D01*
X10999190Y-14575976D01*
X11094429Y-14575976D02*
X11094429Y-14442643D01*
X11094429Y-14461690D02*
X11103952Y-14452167D01*
X11123000Y-14442643D01*
X11151571Y-14442643D01*
X11170619Y-14452167D01*
X11180143Y-14471214D01*
X11180143Y-14575976D01*
X11180143Y-14471214D02*
X11189667Y-14452167D01*
X11208714Y-14442643D01*
X11237286Y-14442643D01*
X11256333Y-14452167D01*
X11265857Y-14471214D01*
X11265857Y-14575976D01*
X11656333Y-14366452D02*
X11484905Y-14623595D01*
X11913476Y-14375976D02*
X11932524Y-14375976D01*
X11951571Y-14385500D01*
X11961095Y-14395024D01*
X11970619Y-14414071D01*
X11980143Y-14452167D01*
X11980143Y-14499786D01*
X11970619Y-14537881D01*
X11961095Y-14556928D01*
X11951571Y-14566452D01*
X11932524Y-14575976D01*
X11913476Y-14575976D01*
X11894428Y-14566452D01*
X11884905Y-14556928D01*
X11875381Y-14537881D01*
X11865857Y-14499786D01*
X11865857Y-14452167D01*
X11875381Y-14414071D01*
X11884905Y-14395024D01*
X11894428Y-14385500D01*
X11913476Y-14375976D01*
X12065857Y-14556928D02*
X12075381Y-14566452D01*
X12065857Y-14575976D01*
X12056333Y-14566452D01*
X12065857Y-14556928D01*
X12065857Y-14575976D01*
X12199190Y-14375976D02*
X12218238Y-14375976D01*
X12237286Y-14385500D01*
X12246809Y-14395024D01*
X12256333Y-14414071D01*
X12265857Y-14452167D01*
X12265857Y-14499786D01*
X12256333Y-14537881D01*
X12246809Y-14556928D01*
X12237286Y-14566452D01*
X12218238Y-14575976D01*
X12199190Y-14575976D01*
X12180143Y-14566452D01*
X12170619Y-14556928D01*
X12161095Y-14537881D01*
X12151571Y-14499786D01*
X12151571Y-14452167D01*
X12161095Y-14414071D01*
X12170619Y-14395024D01*
X12180143Y-14385500D01*
X12199190Y-14375976D01*
X12456333Y-14575976D02*
X12342048Y-14575976D01*
X12399190Y-14575976D02*
X12399190Y-14375976D01*
X12380143Y-14404548D01*
X12361095Y-14423595D01*
X12342048Y-14433119D01*
X12637286Y-14375976D02*
X12542048Y-14375976D01*
X12532524Y-14471214D01*
X12542048Y-14461690D01*
X12561095Y-14452167D01*
X12608714Y-14452167D01*
X12627762Y-14461690D01*
X12637286Y-14471214D01*
X12646809Y-14490262D01*
X12646809Y-14537881D01*
X12637286Y-14556928D01*
X12627762Y-14566452D01*
X12608714Y-14575976D01*
X12561095Y-14575976D01*
X12542048Y-14566452D01*
X12532524Y-14556928D01*
X12713476Y-14375976D02*
X12846809Y-14375976D01*
X12761095Y-14575976D01*
X12913476Y-14375976D02*
X12913476Y-14414071D01*
X12989667Y-14375976D02*
X12989667Y-14414071D01*
X13284905Y-14652167D02*
X13275381Y-14642643D01*
X13256333Y-14614071D01*
X13246809Y-14595024D01*
X13237286Y-14566452D01*
X13227762Y-14518833D01*
X13227762Y-14480738D01*
X13237286Y-14433119D01*
X13246809Y-14404548D01*
X13256333Y-14385500D01*
X13275381Y-14356928D01*
X13284905Y-14347405D01*
X13465857Y-14575976D02*
X13351571Y-14575976D01*
X13408714Y-14575976D02*
X13408714Y-14375976D01*
X13389667Y-14404548D01*
X13370619Y-14423595D01*
X13351571Y-14433119D01*
X13656333Y-14575976D02*
X13542048Y-14575976D01*
X13599190Y-14575976D02*
X13599190Y-14375976D01*
X13580143Y-14404548D01*
X13561095Y-14423595D01*
X13542048Y-14433119D01*
X13894428Y-14575976D02*
X13894428Y-14375976D01*
X13980143Y-14575976D02*
X13980143Y-14471214D01*
X13970619Y-14452167D01*
X13951571Y-14442643D01*
X13923000Y-14442643D01*
X13903952Y-14452167D01*
X13894428Y-14461690D01*
X14103952Y-14575976D02*
X14084905Y-14566452D01*
X14075381Y-14556928D01*
X14065857Y-14537881D01*
X14065857Y-14480738D01*
X14075381Y-14461690D01*
X14084905Y-14452167D01*
X14103952Y-14442643D01*
X14132524Y-14442643D01*
X14151571Y-14452167D01*
X14161095Y-14461690D01*
X14170619Y-14480738D01*
X14170619Y-14537881D01*
X14161095Y-14556928D01*
X14151571Y-14566452D01*
X14132524Y-14575976D01*
X14103952Y-14575976D01*
X14284905Y-14575976D02*
X14265857Y-14566452D01*
X14256333Y-14547405D01*
X14256333Y-14375976D01*
X14437286Y-14566452D02*
X14418238Y-14575976D01*
X14380143Y-14575976D01*
X14361095Y-14566452D01*
X14351571Y-14547405D01*
X14351571Y-14471214D01*
X14361095Y-14452167D01*
X14380143Y-14442643D01*
X14418238Y-14442643D01*
X14437286Y-14452167D01*
X14446809Y-14471214D01*
X14446809Y-14490262D01*
X14351571Y-14509309D01*
X14523000Y-14566452D02*
X14542048Y-14575976D01*
X14580143Y-14575976D01*
X14599190Y-14566452D01*
X14608714Y-14547405D01*
X14608714Y-14537881D01*
X14599190Y-14518833D01*
X14580143Y-14509309D01*
X14551571Y-14509309D01*
X14532524Y-14499786D01*
X14523000Y-14480738D01*
X14523000Y-14471214D01*
X14532524Y-14452167D01*
X14551571Y-14442643D01*
X14580143Y-14442643D01*
X14599190Y-14452167D01*
X14675381Y-14652167D02*
X14684905Y-14642643D01*
X14703952Y-14614071D01*
X14713476Y-14595024D01*
X14723000Y-14566452D01*
X14732524Y-14518833D01*
X14732524Y-14480738D01*
X14723000Y-14433119D01*
X14713476Y-14404548D01*
X14703952Y-14385500D01*
X14684905Y-14356928D01*
X14675381Y-14347405D01*
D13*
X9713000Y-14749500D02*
G75*
G03*
X9713000Y-14749500I-38100J0D01*
G01*
D11*
X10008714Y-14639976D02*
X10027762Y-14639976D01*
X10046810Y-14649500D01*
X10056333Y-14659024D01*
X10065857Y-14678071D01*
X10075381Y-14716167D01*
X10075381Y-14763786D01*
X10065857Y-14801881D01*
X10056333Y-14820928D01*
X10046810Y-14830452D01*
X10027762Y-14839976D01*
X10008714Y-14839976D01*
X9989667Y-14830452D01*
X9980143Y-14820928D01*
X9970619Y-14801881D01*
X9961095Y-14763786D01*
X9961095Y-14716167D01*
X9970619Y-14678071D01*
X9980143Y-14659024D01*
X9989667Y-14649500D01*
X10008714Y-14639976D01*
X10161095Y-14820928D02*
X10170619Y-14830452D01*
X10161095Y-14839976D01*
X10151571Y-14830452D01*
X10161095Y-14820928D01*
X10161095Y-14839976D01*
X10237286Y-14639976D02*
X10370619Y-14639976D01*
X10284905Y-14839976D01*
X10532524Y-14639976D02*
X10494429Y-14639976D01*
X10475381Y-14649500D01*
X10465857Y-14659024D01*
X10446810Y-14687595D01*
X10437286Y-14725690D01*
X10437286Y-14801881D01*
X10446810Y-14820928D01*
X10456333Y-14830452D01*
X10475381Y-14839976D01*
X10513476Y-14839976D01*
X10532524Y-14830452D01*
X10542048Y-14820928D01*
X10551571Y-14801881D01*
X10551571Y-14754262D01*
X10542048Y-14735214D01*
X10532524Y-14725690D01*
X10513476Y-14716167D01*
X10475381Y-14716167D01*
X10456333Y-14725690D01*
X10446810Y-14735214D01*
X10437286Y-14754262D01*
X10627762Y-14659024D02*
X10637286Y-14649500D01*
X10656333Y-14639976D01*
X10703952Y-14639976D01*
X10723000Y-14649500D01*
X10732524Y-14659024D01*
X10742048Y-14678071D01*
X10742048Y-14697119D01*
X10732524Y-14725690D01*
X10618238Y-14839976D01*
X10742048Y-14839976D01*
X10827762Y-14839976D02*
X10827762Y-14706643D01*
X10827762Y-14725690D02*
X10837286Y-14716167D01*
X10856333Y-14706643D01*
X10884905Y-14706643D01*
X10903952Y-14716167D01*
X10913476Y-14735214D01*
X10913476Y-14839976D01*
X10913476Y-14735214D02*
X10923000Y-14716167D01*
X10942048Y-14706643D01*
X10970619Y-14706643D01*
X10989667Y-14716167D01*
X10999190Y-14735214D01*
X10999190Y-14839976D01*
X11094429Y-14839976D02*
X11094429Y-14706643D01*
X11094429Y-14725690D02*
X11103952Y-14716167D01*
X11123000Y-14706643D01*
X11151571Y-14706643D01*
X11170619Y-14716167D01*
X11180143Y-14735214D01*
X11180143Y-14839976D01*
X11180143Y-14735214D02*
X11189667Y-14716167D01*
X11208714Y-14706643D01*
X11237286Y-14706643D01*
X11256333Y-14716167D01*
X11265857Y-14735214D01*
X11265857Y-14839976D01*
X11656333Y-14630452D02*
X11484905Y-14887595D01*
X11913476Y-14639976D02*
X11932524Y-14639976D01*
X11951571Y-14649500D01*
X11961095Y-14659024D01*
X11970619Y-14678071D01*
X11980143Y-14716167D01*
X11980143Y-14763786D01*
X11970619Y-14801881D01*
X11961095Y-14820928D01*
X11951571Y-14830452D01*
X11932524Y-14839976D01*
X11913476Y-14839976D01*
X11894428Y-14830452D01*
X11884905Y-14820928D01*
X11875381Y-14801881D01*
X11865857Y-14763786D01*
X11865857Y-14716167D01*
X11875381Y-14678071D01*
X11884905Y-14659024D01*
X11894428Y-14649500D01*
X11913476Y-14639976D01*
X12065857Y-14820928D02*
X12075381Y-14830452D01*
X12065857Y-14839976D01*
X12056333Y-14830452D01*
X12065857Y-14820928D01*
X12065857Y-14839976D01*
X12199190Y-14639976D02*
X12218238Y-14639976D01*
X12237286Y-14649500D01*
X12246809Y-14659024D01*
X12256333Y-14678071D01*
X12265857Y-14716167D01*
X12265857Y-14763786D01*
X12256333Y-14801881D01*
X12246809Y-14820928D01*
X12237286Y-14830452D01*
X12218238Y-14839976D01*
X12199190Y-14839976D01*
X12180143Y-14830452D01*
X12170619Y-14820928D01*
X12161095Y-14801881D01*
X12151571Y-14763786D01*
X12151571Y-14716167D01*
X12161095Y-14678071D01*
X12170619Y-14659024D01*
X12180143Y-14649500D01*
X12199190Y-14639976D01*
X12332524Y-14639976D02*
X12456333Y-14639976D01*
X12389667Y-14716167D01*
X12418238Y-14716167D01*
X12437286Y-14725690D01*
X12446809Y-14735214D01*
X12456333Y-14754262D01*
X12456333Y-14801881D01*
X12446809Y-14820928D01*
X12437286Y-14830452D01*
X12418238Y-14839976D01*
X12361095Y-14839976D01*
X12342048Y-14830452D01*
X12332524Y-14820928D01*
X12580143Y-14639976D02*
X12599190Y-14639976D01*
X12618238Y-14649500D01*
X12627762Y-14659024D01*
X12637286Y-14678071D01*
X12646809Y-14716167D01*
X12646809Y-14763786D01*
X12637286Y-14801881D01*
X12627762Y-14820928D01*
X12618238Y-14830452D01*
X12599190Y-14839976D01*
X12580143Y-14839976D01*
X12561095Y-14830452D01*
X12551571Y-14820928D01*
X12542048Y-14801881D01*
X12532524Y-14763786D01*
X12532524Y-14716167D01*
X12542048Y-14678071D01*
X12551571Y-14659024D01*
X12561095Y-14649500D01*
X12580143Y-14639976D01*
X12770619Y-14639976D02*
X12789667Y-14639976D01*
X12808714Y-14649500D01*
X12818238Y-14659024D01*
X12827762Y-14678071D01*
X12837286Y-14716167D01*
X12837286Y-14763786D01*
X12827762Y-14801881D01*
X12818238Y-14820928D01*
X12808714Y-14830452D01*
X12789667Y-14839976D01*
X12770619Y-14839976D01*
X12751571Y-14830452D01*
X12742048Y-14820928D01*
X12732524Y-14801881D01*
X12723000Y-14763786D01*
X12723000Y-14716167D01*
X12732524Y-14678071D01*
X12742048Y-14659024D01*
X12751571Y-14649500D01*
X12770619Y-14639976D01*
X12913476Y-14639976D02*
X12913476Y-14678071D01*
X12989667Y-14639976D02*
X12989667Y-14678071D01*
X13284905Y-14916167D02*
X13275381Y-14906643D01*
X13256333Y-14878071D01*
X13246809Y-14859024D01*
X13237286Y-14830452D01*
X13227762Y-14782833D01*
X13227762Y-14744738D01*
X13237286Y-14697119D01*
X13246809Y-14668548D01*
X13256333Y-14649500D01*
X13275381Y-14620928D01*
X13284905Y-14611405D01*
X13465857Y-14839976D02*
X13351571Y-14839976D01*
X13408714Y-14839976D02*
X13408714Y-14639976D01*
X13389667Y-14668548D01*
X13370619Y-14687595D01*
X13351571Y-14697119D01*
X13542048Y-14659024D02*
X13551571Y-14649500D01*
X13570619Y-14639976D01*
X13618238Y-14639976D01*
X13637286Y-14649500D01*
X13646809Y-14659024D01*
X13656333Y-14678071D01*
X13656333Y-14697119D01*
X13646809Y-14725690D01*
X13532524Y-14839976D01*
X13656333Y-14839976D01*
X13894428Y-14839976D02*
X13894428Y-14639976D01*
X13980143Y-14839976D02*
X13980143Y-14735214D01*
X13970619Y-14716167D01*
X13951571Y-14706643D01*
X13923000Y-14706643D01*
X13903952Y-14716167D01*
X13894428Y-14725690D01*
X14103952Y-14839976D02*
X14084905Y-14830452D01*
X14075381Y-14820928D01*
X14065857Y-14801881D01*
X14065857Y-14744738D01*
X14075381Y-14725690D01*
X14084905Y-14716167D01*
X14103952Y-14706643D01*
X14132524Y-14706643D01*
X14151571Y-14716167D01*
X14161095Y-14725690D01*
X14170619Y-14744738D01*
X14170619Y-14801881D01*
X14161095Y-14820928D01*
X14151571Y-14830452D01*
X14132524Y-14839976D01*
X14103952Y-14839976D01*
X14284905Y-14839976D02*
X14265857Y-14830452D01*
X14256333Y-14811405D01*
X14256333Y-14639976D01*
X14437286Y-14830452D02*
X14418238Y-14839976D01*
X14380143Y-14839976D01*
X14361095Y-14830452D01*
X14351571Y-14811405D01*
X14351571Y-14735214D01*
X14361095Y-14716167D01*
X14380143Y-14706643D01*
X14418238Y-14706643D01*
X14437286Y-14716167D01*
X14446809Y-14735214D01*
X14446809Y-14754262D01*
X14351571Y-14773309D01*
X14523000Y-14830452D02*
X14542048Y-14839976D01*
X14580143Y-14839976D01*
X14599190Y-14830452D01*
X14608714Y-14811405D01*
X14608714Y-14801881D01*
X14599190Y-14782833D01*
X14580143Y-14773309D01*
X14551571Y-14773309D01*
X14532524Y-14763786D01*
X14523000Y-14744738D01*
X14523000Y-14735214D01*
X14532524Y-14716167D01*
X14551571Y-14706643D01*
X14580143Y-14706643D01*
X14599190Y-14716167D01*
X14675381Y-14916167D02*
X14684905Y-14906643D01*
X14703952Y-14878071D01*
X14713476Y-14859024D01*
X14723000Y-14830452D01*
X14732524Y-14782833D01*
X14732524Y-14744738D01*
X14723000Y-14697119D01*
X14713476Y-14668548D01*
X14703952Y-14649500D01*
X14684905Y-14620928D01*
X14675381Y-14611405D01*
D14*
X9673000Y-14973500D02*
X9673000Y-15053500D01*
X9633000Y-15013500D02*
X9713000Y-15013500D01*
D11*
X10008714Y-14903976D02*
X10027762Y-14903976D01*
X10046810Y-14913500D01*
X10056333Y-14923024D01*
X10065857Y-14942071D01*
X10075381Y-14980167D01*
X10075381Y-15027786D01*
X10065857Y-15065881D01*
X10056333Y-15084928D01*
X10046810Y-15094452D01*
X10027762Y-15103976D01*
X10008714Y-15103976D01*
X9989667Y-15094452D01*
X9980143Y-15084928D01*
X9970619Y-15065881D01*
X9961095Y-15027786D01*
X9961095Y-14980167D01*
X9970619Y-14942071D01*
X9980143Y-14923024D01*
X9989667Y-14913500D01*
X10008714Y-14903976D01*
X10161095Y-15084928D02*
X10170619Y-15094452D01*
X10161095Y-15103976D01*
X10151571Y-15094452D01*
X10161095Y-15084928D01*
X10161095Y-15103976D01*
X10284905Y-14989690D02*
X10265857Y-14980167D01*
X10256333Y-14970643D01*
X10246810Y-14951595D01*
X10246810Y-14942071D01*
X10256333Y-14923024D01*
X10265857Y-14913500D01*
X10284905Y-14903976D01*
X10323000Y-14903976D01*
X10342048Y-14913500D01*
X10351571Y-14923024D01*
X10361095Y-14942071D01*
X10361095Y-14951595D01*
X10351571Y-14970643D01*
X10342048Y-14980167D01*
X10323000Y-14989690D01*
X10284905Y-14989690D01*
X10265857Y-14999214D01*
X10256333Y-15008738D01*
X10246810Y-15027786D01*
X10246810Y-15065881D01*
X10256333Y-15084928D01*
X10265857Y-15094452D01*
X10284905Y-15103976D01*
X10323000Y-15103976D01*
X10342048Y-15094452D01*
X10351571Y-15084928D01*
X10361095Y-15065881D01*
X10361095Y-15027786D01*
X10351571Y-15008738D01*
X10342048Y-14999214D01*
X10323000Y-14989690D01*
X10484905Y-14903976D02*
X10503952Y-14903976D01*
X10523000Y-14913500D01*
X10532524Y-14923024D01*
X10542048Y-14942071D01*
X10551571Y-14980167D01*
X10551571Y-15027786D01*
X10542048Y-15065881D01*
X10532524Y-15084928D01*
X10523000Y-15094452D01*
X10503952Y-15103976D01*
X10484905Y-15103976D01*
X10465857Y-15094452D01*
X10456333Y-15084928D01*
X10446810Y-15065881D01*
X10437286Y-15027786D01*
X10437286Y-14980167D01*
X10446810Y-14942071D01*
X10456333Y-14923024D01*
X10465857Y-14913500D01*
X10484905Y-14903976D01*
X10675381Y-14903976D02*
X10694429Y-14903976D01*
X10713476Y-14913500D01*
X10723000Y-14923024D01*
X10732524Y-14942071D01*
X10742048Y-14980167D01*
X10742048Y-15027786D01*
X10732524Y-15065881D01*
X10723000Y-15084928D01*
X10713476Y-15094452D01*
X10694429Y-15103976D01*
X10675381Y-15103976D01*
X10656333Y-15094452D01*
X10646810Y-15084928D01*
X10637286Y-15065881D01*
X10627762Y-15027786D01*
X10627762Y-14980167D01*
X10637286Y-14942071D01*
X10646810Y-14923024D01*
X10656333Y-14913500D01*
X10675381Y-14903976D01*
X10827762Y-15103976D02*
X10827762Y-14970643D01*
X10827762Y-14989690D02*
X10837286Y-14980167D01*
X10856333Y-14970643D01*
X10884905Y-14970643D01*
X10903952Y-14980167D01*
X10913476Y-14999214D01*
X10913476Y-15103976D01*
X10913476Y-14999214D02*
X10923000Y-14980167D01*
X10942048Y-14970643D01*
X10970619Y-14970643D01*
X10989667Y-14980167D01*
X10999190Y-14999214D01*
X10999190Y-15103976D01*
X11094429Y-15103976D02*
X11094429Y-14970643D01*
X11094429Y-14989690D02*
X11103952Y-14980167D01*
X11123000Y-14970643D01*
X11151571Y-14970643D01*
X11170619Y-14980167D01*
X11180143Y-14999214D01*
X11180143Y-15103976D01*
X11180143Y-14999214D02*
X11189667Y-14980167D01*
X11208714Y-14970643D01*
X11237286Y-14970643D01*
X11256333Y-14980167D01*
X11265857Y-14999214D01*
X11265857Y-15103976D01*
X11656333Y-14894452D02*
X11484905Y-15151595D01*
X11913476Y-14903976D02*
X11932524Y-14903976D01*
X11951571Y-14913500D01*
X11961095Y-14923024D01*
X11970619Y-14942071D01*
X11980143Y-14980167D01*
X11980143Y-15027786D01*
X11970619Y-15065881D01*
X11961095Y-15084928D01*
X11951571Y-15094452D01*
X11932524Y-15103976D01*
X11913476Y-15103976D01*
X11894428Y-15094452D01*
X11884905Y-15084928D01*
X11875381Y-15065881D01*
X11865857Y-15027786D01*
X11865857Y-14980167D01*
X11875381Y-14942071D01*
X11884905Y-14923024D01*
X11894428Y-14913500D01*
X11913476Y-14903976D01*
X12065857Y-15084928D02*
X12075381Y-15094452D01*
X12065857Y-15103976D01*
X12056333Y-15094452D01*
X12065857Y-15084928D01*
X12065857Y-15103976D01*
X12199190Y-14903976D02*
X12218238Y-14903976D01*
X12237286Y-14913500D01*
X12246809Y-14923024D01*
X12256333Y-14942071D01*
X12265857Y-14980167D01*
X12265857Y-15027786D01*
X12256333Y-15065881D01*
X12246809Y-15084928D01*
X12237286Y-15094452D01*
X12218238Y-15103976D01*
X12199190Y-15103976D01*
X12180143Y-15094452D01*
X12170619Y-15084928D01*
X12161095Y-15065881D01*
X12151571Y-15027786D01*
X12151571Y-14980167D01*
X12161095Y-14942071D01*
X12170619Y-14923024D01*
X12180143Y-14913500D01*
X12199190Y-14903976D01*
X12332524Y-14903976D02*
X12456333Y-14903976D01*
X12389667Y-14980167D01*
X12418238Y-14980167D01*
X12437286Y-14989690D01*
X12446809Y-14999214D01*
X12456333Y-15018262D01*
X12456333Y-15065881D01*
X12446809Y-15084928D01*
X12437286Y-15094452D01*
X12418238Y-15103976D01*
X12361095Y-15103976D01*
X12342048Y-15094452D01*
X12332524Y-15084928D01*
X12646809Y-15103976D02*
X12532524Y-15103976D01*
X12589667Y-15103976D02*
X12589667Y-14903976D01*
X12570619Y-14932548D01*
X12551571Y-14951595D01*
X12532524Y-14961119D01*
X12827762Y-14903976D02*
X12732524Y-14903976D01*
X12723000Y-14999214D01*
X12732524Y-14989690D01*
X12751571Y-14980167D01*
X12799190Y-14980167D01*
X12818238Y-14989690D01*
X12827762Y-14999214D01*
X12837286Y-15018262D01*
X12837286Y-15065881D01*
X12827762Y-15084928D01*
X12818238Y-15094452D01*
X12799190Y-15103976D01*
X12751571Y-15103976D01*
X12732524Y-15094452D01*
X12723000Y-15084928D01*
X12913476Y-14903976D02*
X12913476Y-14942071D01*
X12989667Y-14903976D02*
X12989667Y-14942071D01*
X13284905Y-15180167D02*
X13275381Y-15170643D01*
X13256333Y-15142071D01*
X13246809Y-15123024D01*
X13237286Y-15094452D01*
X13227762Y-15046833D01*
X13227762Y-15008738D01*
X13237286Y-14961119D01*
X13246809Y-14932548D01*
X13256333Y-14913500D01*
X13275381Y-14884928D01*
X13284905Y-14875405D01*
X13465857Y-15103976D02*
X13351571Y-15103976D01*
X13408714Y-15103976D02*
X13408714Y-14903976D01*
X13389667Y-14932548D01*
X13370619Y-14951595D01*
X13351571Y-14961119D01*
X13646809Y-14903976D02*
X13551571Y-14903976D01*
X13542048Y-14999214D01*
X13551571Y-14989690D01*
X13570619Y-14980167D01*
X13618238Y-14980167D01*
X13637286Y-14989690D01*
X13646809Y-14999214D01*
X13656333Y-15018262D01*
X13656333Y-15065881D01*
X13646809Y-15084928D01*
X13637286Y-15094452D01*
X13618238Y-15103976D01*
X13570619Y-15103976D01*
X13551571Y-15094452D01*
X13542048Y-15084928D01*
X13894428Y-15103976D02*
X13894428Y-14903976D01*
X13980143Y-15103976D02*
X13980143Y-14999214D01*
X13970619Y-14980167D01*
X13951571Y-14970643D01*
X13923000Y-14970643D01*
X13903952Y-14980167D01*
X13894428Y-14989690D01*
X14103952Y-15103976D02*
X14084905Y-15094452D01*
X14075381Y-15084928D01*
X14065857Y-15065881D01*
X14065857Y-15008738D01*
X14075381Y-14989690D01*
X14084905Y-14980167D01*
X14103952Y-14970643D01*
X14132524Y-14970643D01*
X14151571Y-14980167D01*
X14161095Y-14989690D01*
X14170619Y-15008738D01*
X14170619Y-15065881D01*
X14161095Y-15084928D01*
X14151571Y-15094452D01*
X14132524Y-15103976D01*
X14103952Y-15103976D01*
X14284905Y-15103976D02*
X14265857Y-15094452D01*
X14256333Y-15075405D01*
X14256333Y-14903976D01*
X14437286Y-15094452D02*
X14418238Y-15103976D01*
X14380143Y-15103976D01*
X14361095Y-15094452D01*
X14351571Y-15075405D01*
X14351571Y-14999214D01*
X14361095Y-14980167D01*
X14380143Y-14970643D01*
X14418238Y-14970643D01*
X14437286Y-14980167D01*
X14446809Y-14999214D01*
X14446809Y-15018262D01*
X14351571Y-15037309D01*
X14523000Y-15094452D02*
X14542048Y-15103976D01*
X14580143Y-15103976D01*
X14599190Y-15094452D01*
X14608714Y-15075405D01*
X14608714Y-15065881D01*
X14599190Y-15046833D01*
X14580143Y-15037309D01*
X14551571Y-15037309D01*
X14532524Y-15027786D01*
X14523000Y-15008738D01*
X14523000Y-14999214D01*
X14532524Y-14980167D01*
X14551571Y-14970643D01*
X14580143Y-14970643D01*
X14599190Y-14980167D01*
X14675381Y-15180167D02*
X14684905Y-15170643D01*
X14703952Y-15142071D01*
X14713476Y-15123024D01*
X14723000Y-15094452D01*
X14732524Y-15046833D01*
X14732524Y-15008738D01*
X14723000Y-14961119D01*
X14713476Y-14932548D01*
X14703952Y-14913500D01*
X14684905Y-14884928D01*
X14675381Y-14875405D01*
D15*
X9700377Y-15307977D02*
X9700377Y-15247023D01*
X9639423Y-15247023D01*
X9639423Y-15307977D01*
X9700377Y-15307977D01*
D11*
X10008714Y-15167976D02*
X10027762Y-15167976D01*
X10046810Y-15177500D01*
X10056333Y-15187024D01*
X10065857Y-15206071D01*
X10075381Y-15244167D01*
X10075381Y-15291786D01*
X10065857Y-15329881D01*
X10056333Y-15348928D01*
X10046810Y-15358452D01*
X10027762Y-15367976D01*
X10008714Y-15367976D01*
X9989667Y-15358452D01*
X9980143Y-15348928D01*
X9970619Y-15329881D01*
X9961095Y-15291786D01*
X9961095Y-15244167D01*
X9970619Y-15206071D01*
X9980143Y-15187024D01*
X9989667Y-15177500D01*
X10008714Y-15167976D01*
X10161095Y-15348928D02*
X10170619Y-15358452D01*
X10161095Y-15367976D01*
X10151571Y-15358452D01*
X10161095Y-15348928D01*
X10161095Y-15367976D01*
X10284905Y-15253690D02*
X10265857Y-15244167D01*
X10256333Y-15234643D01*
X10246810Y-15215595D01*
X10246810Y-15206071D01*
X10256333Y-15187024D01*
X10265857Y-15177500D01*
X10284905Y-15167976D01*
X10323000Y-15167976D01*
X10342048Y-15177500D01*
X10351571Y-15187024D01*
X10361095Y-15206071D01*
X10361095Y-15215595D01*
X10351571Y-15234643D01*
X10342048Y-15244167D01*
X10323000Y-15253690D01*
X10284905Y-15253690D01*
X10265857Y-15263214D01*
X10256333Y-15272738D01*
X10246810Y-15291786D01*
X10246810Y-15329881D01*
X10256333Y-15348928D01*
X10265857Y-15358452D01*
X10284905Y-15367976D01*
X10323000Y-15367976D01*
X10342048Y-15358452D01*
X10351571Y-15348928D01*
X10361095Y-15329881D01*
X10361095Y-15291786D01*
X10351571Y-15272738D01*
X10342048Y-15263214D01*
X10323000Y-15253690D01*
X10532524Y-15167976D02*
X10494429Y-15167976D01*
X10475381Y-15177500D01*
X10465857Y-15187024D01*
X10446810Y-15215595D01*
X10437286Y-15253690D01*
X10437286Y-15329881D01*
X10446810Y-15348928D01*
X10456333Y-15358452D01*
X10475381Y-15367976D01*
X10513476Y-15367976D01*
X10532524Y-15358452D01*
X10542048Y-15348928D01*
X10551571Y-15329881D01*
X10551571Y-15282262D01*
X10542048Y-15263214D01*
X10532524Y-15253690D01*
X10513476Y-15244167D01*
X10475381Y-15244167D01*
X10456333Y-15253690D01*
X10446810Y-15263214D01*
X10437286Y-15282262D01*
X10627762Y-15187024D02*
X10637286Y-15177500D01*
X10656333Y-15167976D01*
X10703952Y-15167976D01*
X10723000Y-15177500D01*
X10732524Y-15187024D01*
X10742048Y-15206071D01*
X10742048Y-15225119D01*
X10732524Y-15253690D01*
X10618238Y-15367976D01*
X10742048Y-15367976D01*
X10827762Y-15367976D02*
X10827762Y-15234643D01*
X10827762Y-15253690D02*
X10837286Y-15244167D01*
X10856333Y-15234643D01*
X10884905Y-15234643D01*
X10903952Y-15244167D01*
X10913476Y-15263214D01*
X10913476Y-15367976D01*
X10913476Y-15263214D02*
X10923000Y-15244167D01*
X10942048Y-15234643D01*
X10970619Y-15234643D01*
X10989667Y-15244167D01*
X10999190Y-15263214D01*
X10999190Y-15367976D01*
X11094429Y-15367976D02*
X11094429Y-15234643D01*
X11094429Y-15253690D02*
X11103952Y-15244167D01*
X11123000Y-15234643D01*
X11151571Y-15234643D01*
X11170619Y-15244167D01*
X11180143Y-15263214D01*
X11180143Y-15367976D01*
X11180143Y-15263214D02*
X11189667Y-15244167D01*
X11208714Y-15234643D01*
X11237286Y-15234643D01*
X11256333Y-15244167D01*
X11265857Y-15263214D01*
X11265857Y-15367976D01*
X11656333Y-15158452D02*
X11484905Y-15415595D01*
X11913476Y-15167976D02*
X11932524Y-15167976D01*
X11951571Y-15177500D01*
X11961095Y-15187024D01*
X11970619Y-15206071D01*
X11980143Y-15244167D01*
X11980143Y-15291786D01*
X11970619Y-15329881D01*
X11961095Y-15348928D01*
X11951571Y-15358452D01*
X11932524Y-15367976D01*
X11913476Y-15367976D01*
X11894428Y-15358452D01*
X11884905Y-15348928D01*
X11875381Y-15329881D01*
X11865857Y-15291786D01*
X11865857Y-15244167D01*
X11875381Y-15206071D01*
X11884905Y-15187024D01*
X11894428Y-15177500D01*
X11913476Y-15167976D01*
X12065857Y-15348928D02*
X12075381Y-15358452D01*
X12065857Y-15367976D01*
X12056333Y-15358452D01*
X12065857Y-15348928D01*
X12065857Y-15367976D01*
X12199190Y-15167976D02*
X12218238Y-15167976D01*
X12237286Y-15177500D01*
X12246809Y-15187024D01*
X12256333Y-15206071D01*
X12265857Y-15244167D01*
X12265857Y-15291786D01*
X12256333Y-15329881D01*
X12246809Y-15348928D01*
X12237286Y-15358452D01*
X12218238Y-15367976D01*
X12199190Y-15367976D01*
X12180143Y-15358452D01*
X12170619Y-15348928D01*
X12161095Y-15329881D01*
X12151571Y-15291786D01*
X12151571Y-15244167D01*
X12161095Y-15206071D01*
X12170619Y-15187024D01*
X12180143Y-15177500D01*
X12199190Y-15167976D01*
X12332524Y-15167976D02*
X12456333Y-15167976D01*
X12389667Y-15244167D01*
X12418238Y-15244167D01*
X12437286Y-15253690D01*
X12446809Y-15263214D01*
X12456333Y-15282262D01*
X12456333Y-15329881D01*
X12446809Y-15348928D01*
X12437286Y-15358452D01*
X12418238Y-15367976D01*
X12361095Y-15367976D01*
X12342048Y-15358452D01*
X12332524Y-15348928D01*
X12523000Y-15167976D02*
X12646809Y-15167976D01*
X12580143Y-15244167D01*
X12608714Y-15244167D01*
X12627762Y-15253690D01*
X12637286Y-15263214D01*
X12646809Y-15282262D01*
X12646809Y-15329881D01*
X12637286Y-15348928D01*
X12627762Y-15358452D01*
X12608714Y-15367976D01*
X12551571Y-15367976D01*
X12532524Y-15358452D01*
X12523000Y-15348928D01*
X12742048Y-15367976D02*
X12780143Y-15367976D01*
X12799190Y-15358452D01*
X12808714Y-15348928D01*
X12827762Y-15320357D01*
X12837286Y-15282262D01*
X12837286Y-15206071D01*
X12827762Y-15187024D01*
X12818238Y-15177500D01*
X12799190Y-15167976D01*
X12761095Y-15167976D01*
X12742048Y-15177500D01*
X12732524Y-15187024D01*
X12723000Y-15206071D01*
X12723000Y-15253690D01*
X12732524Y-15272738D01*
X12742048Y-15282262D01*
X12761095Y-15291786D01*
X12799190Y-15291786D01*
X12818238Y-15282262D01*
X12827762Y-15272738D01*
X12837286Y-15253690D01*
X12913476Y-15167976D02*
X12913476Y-15206071D01*
X12989667Y-15167976D02*
X12989667Y-15206071D01*
X13284905Y-15444167D02*
X13275381Y-15434643D01*
X13256333Y-15406071D01*
X13246809Y-15387024D01*
X13237286Y-15358452D01*
X13227762Y-15310833D01*
X13227762Y-15272738D01*
X13237286Y-15225119D01*
X13246809Y-15196548D01*
X13256333Y-15177500D01*
X13275381Y-15148928D01*
X13284905Y-15139405D01*
X13446809Y-15234643D02*
X13446809Y-15367976D01*
X13399190Y-15158452D02*
X13351571Y-15301309D01*
X13475381Y-15301309D01*
X13589667Y-15167976D02*
X13608714Y-15167976D01*
X13627762Y-15177500D01*
X13637286Y-15187024D01*
X13646809Y-15206071D01*
X13656333Y-15244167D01*
X13656333Y-15291786D01*
X13646809Y-15329881D01*
X13637286Y-15348928D01*
X13627762Y-15358452D01*
X13608714Y-15367976D01*
X13589667Y-15367976D01*
X13570619Y-15358452D01*
X13561095Y-15348928D01*
X13551571Y-15329881D01*
X13542048Y-15291786D01*
X13542048Y-15244167D01*
X13551571Y-15206071D01*
X13561095Y-15187024D01*
X13570619Y-15177500D01*
X13589667Y-15167976D01*
X13894428Y-15367976D02*
X13894428Y-15167976D01*
X13980143Y-15367976D02*
X13980143Y-15263214D01*
X13970619Y-15244167D01*
X13951571Y-15234643D01*
X13923000Y-15234643D01*
X13903952Y-15244167D01*
X13894428Y-15253690D01*
X14103952Y-15367976D02*
X14084905Y-15358452D01*
X14075381Y-15348928D01*
X14065857Y-15329881D01*
X14065857Y-15272738D01*
X14075381Y-15253690D01*
X14084905Y-15244167D01*
X14103952Y-15234643D01*
X14132524Y-15234643D01*
X14151571Y-15244167D01*
X14161095Y-15253690D01*
X14170619Y-15272738D01*
X14170619Y-15329881D01*
X14161095Y-15348928D01*
X14151571Y-15358452D01*
X14132524Y-15367976D01*
X14103952Y-15367976D01*
X14284905Y-15367976D02*
X14265857Y-15358452D01*
X14256333Y-15339405D01*
X14256333Y-15167976D01*
X14437286Y-15358452D02*
X14418238Y-15367976D01*
X14380143Y-15367976D01*
X14361095Y-15358452D01*
X14351571Y-15339405D01*
X14351571Y-15263214D01*
X14361095Y-15244167D01*
X14380143Y-15234643D01*
X14418238Y-15234643D01*
X14437286Y-15244167D01*
X14446809Y-15263214D01*
X14446809Y-15282262D01*
X14351571Y-15301309D01*
X14523000Y-15358452D02*
X14542048Y-15367976D01*
X14580143Y-15367976D01*
X14599190Y-15358452D01*
X14608714Y-15339405D01*
X14608714Y-15329881D01*
X14599190Y-15310833D01*
X14580143Y-15301309D01*
X14551571Y-15301309D01*
X14532524Y-15291786D01*
X14523000Y-15272738D01*
X14523000Y-15263214D01*
X14532524Y-15244167D01*
X14551571Y-15234643D01*
X14580143Y-15234643D01*
X14599190Y-15244167D01*
X14675381Y-15444167D02*
X14684905Y-15434643D01*
X14703952Y-15406071D01*
X14713476Y-15387024D01*
X14723000Y-15358452D01*
X14732524Y-15310833D01*
X14732524Y-15272738D01*
X14723000Y-15225119D01*
X14713476Y-15196548D01*
X14703952Y-15177500D01*
X14684905Y-15148928D01*
X14675381Y-15139405D01*
D16*
X9668000Y-15586500D02*
X9713000Y-15541500D01*
X9668000Y-15496500D01*
X9623000Y-15541500D01*
X9668000Y-15586500D01*
D11*
X10008714Y-15431976D02*
X10027762Y-15431976D01*
X10046810Y-15441500D01*
X10056333Y-15451024D01*
X10065857Y-15470071D01*
X10075381Y-15508167D01*
X10075381Y-15555786D01*
X10065857Y-15593881D01*
X10056333Y-15612928D01*
X10046810Y-15622452D01*
X10027762Y-15631976D01*
X10008714Y-15631976D01*
X9989667Y-15622452D01*
X9980143Y-15612928D01*
X9970619Y-15593881D01*
X9961095Y-15555786D01*
X9961095Y-15508167D01*
X9970619Y-15470071D01*
X9980143Y-15451024D01*
X9989667Y-15441500D01*
X10008714Y-15431976D01*
X10161095Y-15612928D02*
X10170619Y-15622452D01*
X10161095Y-15631976D01*
X10151571Y-15622452D01*
X10161095Y-15612928D01*
X10161095Y-15631976D01*
X10265857Y-15631976D02*
X10303952Y-15631976D01*
X10323000Y-15622452D01*
X10332524Y-15612928D01*
X10351571Y-15584357D01*
X10361095Y-15546262D01*
X10361095Y-15470071D01*
X10351571Y-15451024D01*
X10342048Y-15441500D01*
X10323000Y-15431976D01*
X10284905Y-15431976D01*
X10265857Y-15441500D01*
X10256333Y-15451024D01*
X10246810Y-15470071D01*
X10246810Y-15517690D01*
X10256333Y-15536738D01*
X10265857Y-15546262D01*
X10284905Y-15555786D01*
X10323000Y-15555786D01*
X10342048Y-15546262D01*
X10351571Y-15536738D01*
X10361095Y-15517690D01*
X10484905Y-15431976D02*
X10503952Y-15431976D01*
X10523000Y-15441500D01*
X10532524Y-15451024D01*
X10542048Y-15470071D01*
X10551571Y-15508167D01*
X10551571Y-15555786D01*
X10542048Y-15593881D01*
X10532524Y-15612928D01*
X10523000Y-15622452D01*
X10503952Y-15631976D01*
X10484905Y-15631976D01*
X10465857Y-15622452D01*
X10456333Y-15612928D01*
X10446810Y-15593881D01*
X10437286Y-15555786D01*
X10437286Y-15508167D01*
X10446810Y-15470071D01*
X10456333Y-15451024D01*
X10465857Y-15441500D01*
X10484905Y-15431976D01*
X10675381Y-15431976D02*
X10694429Y-15431976D01*
X10713476Y-15441500D01*
X10723000Y-15451024D01*
X10732524Y-15470071D01*
X10742048Y-15508167D01*
X10742048Y-15555786D01*
X10732524Y-15593881D01*
X10723000Y-15612928D01*
X10713476Y-15622452D01*
X10694429Y-15631976D01*
X10675381Y-15631976D01*
X10656333Y-15622452D01*
X10646810Y-15612928D01*
X10637286Y-15593881D01*
X10627762Y-15555786D01*
X10627762Y-15508167D01*
X10637286Y-15470071D01*
X10646810Y-15451024D01*
X10656333Y-15441500D01*
X10675381Y-15431976D01*
X10827762Y-15631976D02*
X10827762Y-15498643D01*
X10827762Y-15517690D02*
X10837286Y-15508167D01*
X10856333Y-15498643D01*
X10884905Y-15498643D01*
X10903952Y-15508167D01*
X10913476Y-15527214D01*
X10913476Y-15631976D01*
X10913476Y-15527214D02*
X10923000Y-15508167D01*
X10942048Y-15498643D01*
X10970619Y-15498643D01*
X10989667Y-15508167D01*
X10999190Y-15527214D01*
X10999190Y-15631976D01*
X11094429Y-15631976D02*
X11094429Y-15498643D01*
X11094429Y-15517690D02*
X11103952Y-15508167D01*
X11123000Y-15498643D01*
X11151571Y-15498643D01*
X11170619Y-15508167D01*
X11180143Y-15527214D01*
X11180143Y-15631976D01*
X11180143Y-15527214D02*
X11189667Y-15508167D01*
X11208714Y-15498643D01*
X11237286Y-15498643D01*
X11256333Y-15508167D01*
X11265857Y-15527214D01*
X11265857Y-15631976D01*
X11656333Y-15422452D02*
X11484905Y-15679595D01*
X11913476Y-15431976D02*
X11932524Y-15431976D01*
X11951571Y-15441500D01*
X11961095Y-15451024D01*
X11970619Y-15470071D01*
X11980143Y-15508167D01*
X11980143Y-15555786D01*
X11970619Y-15593881D01*
X11961095Y-15612928D01*
X11951571Y-15622452D01*
X11932524Y-15631976D01*
X11913476Y-15631976D01*
X11894428Y-15622452D01*
X11884905Y-15612928D01*
X11875381Y-15593881D01*
X11865857Y-15555786D01*
X11865857Y-15508167D01*
X11875381Y-15470071D01*
X11884905Y-15451024D01*
X11894428Y-15441500D01*
X11913476Y-15431976D01*
X12065857Y-15612928D02*
X12075381Y-15622452D01*
X12065857Y-15631976D01*
X12056333Y-15622452D01*
X12065857Y-15612928D01*
X12065857Y-15631976D01*
X12199190Y-15431976D02*
X12218238Y-15431976D01*
X12237286Y-15441500D01*
X12246809Y-15451024D01*
X12256333Y-15470071D01*
X12265857Y-15508167D01*
X12265857Y-15555786D01*
X12256333Y-15593881D01*
X12246809Y-15612928D01*
X12237286Y-15622452D01*
X12218238Y-15631976D01*
X12199190Y-15631976D01*
X12180143Y-15622452D01*
X12170619Y-15612928D01*
X12161095Y-15593881D01*
X12151571Y-15555786D01*
X12151571Y-15508167D01*
X12161095Y-15470071D01*
X12170619Y-15451024D01*
X12180143Y-15441500D01*
X12199190Y-15431976D01*
X12332524Y-15431976D02*
X12456333Y-15431976D01*
X12389667Y-15508167D01*
X12418238Y-15508167D01*
X12437286Y-15517690D01*
X12446809Y-15527214D01*
X12456333Y-15546262D01*
X12456333Y-15593881D01*
X12446809Y-15612928D01*
X12437286Y-15622452D01*
X12418238Y-15631976D01*
X12361095Y-15631976D01*
X12342048Y-15622452D01*
X12332524Y-15612928D01*
X12637286Y-15431976D02*
X12542048Y-15431976D01*
X12532524Y-15527214D01*
X12542048Y-15517690D01*
X12561095Y-15508167D01*
X12608714Y-15508167D01*
X12627762Y-15517690D01*
X12637286Y-15527214D01*
X12646809Y-15546262D01*
X12646809Y-15593881D01*
X12637286Y-15612928D01*
X12627762Y-15622452D01*
X12608714Y-15631976D01*
X12561095Y-15631976D01*
X12542048Y-15622452D01*
X12532524Y-15612928D01*
X12818238Y-15498643D02*
X12818238Y-15631976D01*
X12770619Y-15422452D02*
X12723000Y-15565309D01*
X12846809Y-15565309D01*
X12913476Y-15431976D02*
X12913476Y-15470071D01*
X12989667Y-15431976D02*
X12989667Y-15470071D01*
X13284905Y-15708167D02*
X13275381Y-15698643D01*
X13256333Y-15670071D01*
X13246809Y-15651024D01*
X13237286Y-15622452D01*
X13227762Y-15574833D01*
X13227762Y-15536738D01*
X13237286Y-15489119D01*
X13246809Y-15460548D01*
X13256333Y-15441500D01*
X13275381Y-15412928D01*
X13284905Y-15403405D01*
X13389667Y-15517690D02*
X13370619Y-15508167D01*
X13361095Y-15498643D01*
X13351571Y-15479595D01*
X13351571Y-15470071D01*
X13361095Y-15451024D01*
X13370619Y-15441500D01*
X13389667Y-15431976D01*
X13427762Y-15431976D01*
X13446809Y-15441500D01*
X13456333Y-15451024D01*
X13465857Y-15470071D01*
X13465857Y-15479595D01*
X13456333Y-15498643D01*
X13446809Y-15508167D01*
X13427762Y-15517690D01*
X13389667Y-15517690D01*
X13370619Y-15527214D01*
X13361095Y-15536738D01*
X13351571Y-15555786D01*
X13351571Y-15593881D01*
X13361095Y-15612928D01*
X13370619Y-15622452D01*
X13389667Y-15631976D01*
X13427762Y-15631976D01*
X13446809Y-15622452D01*
X13456333Y-15612928D01*
X13465857Y-15593881D01*
X13465857Y-15555786D01*
X13456333Y-15536738D01*
X13446809Y-15527214D01*
X13427762Y-15517690D01*
X13703952Y-15631976D02*
X13703952Y-15431976D01*
X13789667Y-15631976D02*
X13789667Y-15527214D01*
X13780143Y-15508167D01*
X13761095Y-15498643D01*
X13732524Y-15498643D01*
X13713476Y-15508167D01*
X13703952Y-15517690D01*
X13913476Y-15631976D02*
X13894428Y-15622452D01*
X13884905Y-15612928D01*
X13875381Y-15593881D01*
X13875381Y-15536738D01*
X13884905Y-15517690D01*
X13894428Y-15508167D01*
X13913476Y-15498643D01*
X13942048Y-15498643D01*
X13961095Y-15508167D01*
X13970619Y-15517690D01*
X13980143Y-15536738D01*
X13980143Y-15593881D01*
X13970619Y-15612928D01*
X13961095Y-15622452D01*
X13942048Y-15631976D01*
X13913476Y-15631976D01*
X14094428Y-15631976D02*
X14075381Y-15622452D01*
X14065857Y-15603405D01*
X14065857Y-15431976D01*
X14246809Y-15622452D02*
X14227762Y-15631976D01*
X14189667Y-15631976D01*
X14170619Y-15622452D01*
X14161095Y-15603405D01*
X14161095Y-15527214D01*
X14170619Y-15508167D01*
X14189667Y-15498643D01*
X14227762Y-15498643D01*
X14246809Y-15508167D01*
X14256333Y-15527214D01*
X14256333Y-15546262D01*
X14161095Y-15565309D01*
X14332524Y-15622452D02*
X14351571Y-15631976D01*
X14389667Y-15631976D01*
X14408714Y-15622452D01*
X14418238Y-15603405D01*
X14418238Y-15593881D01*
X14408714Y-15574833D01*
X14389667Y-15565309D01*
X14361095Y-15565309D01*
X14342048Y-15555786D01*
X14332524Y-15536738D01*
X14332524Y-15527214D01*
X14342048Y-15508167D01*
X14361095Y-15498643D01*
X14389667Y-15498643D01*
X14408714Y-15508167D01*
X14484905Y-15708167D02*
X14494428Y-15698643D01*
X14513476Y-15670071D01*
X14523000Y-15651024D01*
X14532524Y-15622452D01*
X14542048Y-15574833D01*
X14542048Y-15536738D01*
X14532524Y-15489119D01*
X14523000Y-15460548D01*
X14513476Y-15441500D01*
X14494428Y-15412928D01*
X14484905Y-15403405D01*
D17*
X9613000Y-15755500D02*
X9713000Y-15855500D01*
X9713000Y-15755500D02*
X9613000Y-15855500D01*
X9713000Y-15805500D02*
G75*
G03*
X9713000Y-15805500I-50000J0D01*
G01*
D11*
X10075381Y-15895976D02*
X9961095Y-15895976D01*
X10018238Y-15895976D02*
X10018238Y-15695976D01*
X9999190Y-15724548D01*
X9980143Y-15743595D01*
X9961095Y-15753119D01*
X10161095Y-15876928D02*
X10170619Y-15886452D01*
X10161095Y-15895976D01*
X10151571Y-15886452D01*
X10161095Y-15876928D01*
X10161095Y-15895976D01*
X10294429Y-15695976D02*
X10313476Y-15695976D01*
X10332524Y-15705500D01*
X10342048Y-15715024D01*
X10351571Y-15734071D01*
X10361095Y-15772167D01*
X10361095Y-15819786D01*
X10351571Y-15857881D01*
X10342048Y-15876928D01*
X10332524Y-15886452D01*
X10313476Y-15895976D01*
X10294429Y-15895976D01*
X10275381Y-15886452D01*
X10265857Y-15876928D01*
X10256333Y-15857881D01*
X10246810Y-15819786D01*
X10246810Y-15772167D01*
X10256333Y-15734071D01*
X10265857Y-15715024D01*
X10275381Y-15705500D01*
X10294429Y-15695976D01*
X10484905Y-15695976D02*
X10503952Y-15695976D01*
X10523000Y-15705500D01*
X10532524Y-15715024D01*
X10542048Y-15734071D01*
X10551571Y-15772167D01*
X10551571Y-15819786D01*
X10542048Y-15857881D01*
X10532524Y-15876928D01*
X10523000Y-15886452D01*
X10503952Y-15895976D01*
X10484905Y-15895976D01*
X10465857Y-15886452D01*
X10456333Y-15876928D01*
X10446810Y-15857881D01*
X10437286Y-15819786D01*
X10437286Y-15772167D01*
X10446810Y-15734071D01*
X10456333Y-15715024D01*
X10465857Y-15705500D01*
X10484905Y-15695976D01*
X10675381Y-15695976D02*
X10694429Y-15695976D01*
X10713476Y-15705500D01*
X10723000Y-15715024D01*
X10732524Y-15734071D01*
X10742048Y-15772167D01*
X10742048Y-15819786D01*
X10732524Y-15857881D01*
X10723000Y-15876928D01*
X10713476Y-15886452D01*
X10694429Y-15895976D01*
X10675381Y-15895976D01*
X10656333Y-15886452D01*
X10646810Y-15876928D01*
X10637286Y-15857881D01*
X10627762Y-15819786D01*
X10627762Y-15772167D01*
X10637286Y-15734071D01*
X10646810Y-15715024D01*
X10656333Y-15705500D01*
X10675381Y-15695976D01*
X10827762Y-15895976D02*
X10827762Y-15762643D01*
X10827762Y-15781690D02*
X10837286Y-15772167D01*
X10856333Y-15762643D01*
X10884905Y-15762643D01*
X10903952Y-15772167D01*
X10913476Y-15791214D01*
X10913476Y-15895976D01*
X10913476Y-15791214D02*
X10923000Y-15772167D01*
X10942048Y-15762643D01*
X10970619Y-15762643D01*
X10989667Y-15772167D01*
X10999190Y-15791214D01*
X10999190Y-15895976D01*
X11094429Y-15895976D02*
X11094429Y-15762643D01*
X11094429Y-15781690D02*
X11103952Y-15772167D01*
X11123000Y-15762643D01*
X11151571Y-15762643D01*
X11170619Y-15772167D01*
X11180143Y-15791214D01*
X11180143Y-15895976D01*
X11180143Y-15791214D02*
X11189667Y-15772167D01*
X11208714Y-15762643D01*
X11237286Y-15762643D01*
X11256333Y-15772167D01*
X11265857Y-15791214D01*
X11265857Y-15895976D01*
X11656333Y-15686452D02*
X11484905Y-15943595D01*
X11913476Y-15695976D02*
X11932524Y-15695976D01*
X11951571Y-15705500D01*
X11961095Y-15715024D01*
X11970619Y-15734071D01*
X11980143Y-15772167D01*
X11980143Y-15819786D01*
X11970619Y-15857881D01*
X11961095Y-15876928D01*
X11951571Y-15886452D01*
X11932524Y-15895976D01*
X11913476Y-15895976D01*
X11894428Y-15886452D01*
X11884905Y-15876928D01*
X11875381Y-15857881D01*
X11865857Y-15819786D01*
X11865857Y-15772167D01*
X11875381Y-15734071D01*
X11884905Y-15715024D01*
X11894428Y-15705500D01*
X11913476Y-15695976D01*
X12065857Y-15876928D02*
X12075381Y-15886452D01*
X12065857Y-15895976D01*
X12056333Y-15886452D01*
X12065857Y-15876928D01*
X12065857Y-15895976D01*
X12199190Y-15695976D02*
X12218238Y-15695976D01*
X12237286Y-15705500D01*
X12246809Y-15715024D01*
X12256333Y-15734071D01*
X12265857Y-15772167D01*
X12265857Y-15819786D01*
X12256333Y-15857881D01*
X12246809Y-15876928D01*
X12237286Y-15886452D01*
X12218238Y-15895976D01*
X12199190Y-15895976D01*
X12180143Y-15886452D01*
X12170619Y-15876928D01*
X12161095Y-15857881D01*
X12151571Y-15819786D01*
X12151571Y-15772167D01*
X12161095Y-15734071D01*
X12170619Y-15715024D01*
X12180143Y-15705500D01*
X12199190Y-15695976D01*
X12332524Y-15695976D02*
X12456333Y-15695976D01*
X12389667Y-15772167D01*
X12418238Y-15772167D01*
X12437286Y-15781690D01*
X12446809Y-15791214D01*
X12456333Y-15810262D01*
X12456333Y-15857881D01*
X12446809Y-15876928D01*
X12437286Y-15886452D01*
X12418238Y-15895976D01*
X12361095Y-15895976D01*
X12342048Y-15886452D01*
X12332524Y-15876928D01*
X12551571Y-15895976D02*
X12589667Y-15895976D01*
X12608714Y-15886452D01*
X12618238Y-15876928D01*
X12637286Y-15848357D01*
X12646809Y-15810262D01*
X12646809Y-15734071D01*
X12637286Y-15715024D01*
X12627762Y-15705500D01*
X12608714Y-15695976D01*
X12570619Y-15695976D01*
X12551571Y-15705500D01*
X12542048Y-15715024D01*
X12532524Y-15734071D01*
X12532524Y-15781690D01*
X12542048Y-15800738D01*
X12551571Y-15810262D01*
X12570619Y-15819786D01*
X12608714Y-15819786D01*
X12627762Y-15810262D01*
X12637286Y-15800738D01*
X12646809Y-15781690D01*
X12818238Y-15762643D02*
X12818238Y-15895976D01*
X12770619Y-15686452D02*
X12723000Y-15829309D01*
X12846809Y-15829309D01*
X12913476Y-15695976D02*
X12913476Y-15734071D01*
X12989667Y-15695976D02*
X12989667Y-15734071D01*
X13284905Y-15972167D02*
X13275381Y-15962643D01*
X13256333Y-15934071D01*
X13246809Y-15915024D01*
X13237286Y-15886452D01*
X13227762Y-15838833D01*
X13227762Y-15800738D01*
X13237286Y-15753119D01*
X13246809Y-15724548D01*
X13256333Y-15705500D01*
X13275381Y-15676928D01*
X13284905Y-15667405D01*
X13351571Y-15715024D02*
X13361095Y-15705500D01*
X13380143Y-15695976D01*
X13427762Y-15695976D01*
X13446809Y-15705500D01*
X13456333Y-15715024D01*
X13465857Y-15734071D01*
X13465857Y-15753119D01*
X13456333Y-15781690D01*
X13342048Y-15895976D01*
X13465857Y-15895976D01*
X13637286Y-15762643D02*
X13637286Y-15895976D01*
X13589667Y-15686452D02*
X13542048Y-15829309D01*
X13665857Y-15829309D01*
X13894428Y-15895976D02*
X13894428Y-15695976D01*
X13980143Y-15895976D02*
X13980143Y-15791214D01*
X13970619Y-15772167D01*
X13951571Y-15762643D01*
X13923000Y-15762643D01*
X13903952Y-15772167D01*
X13894428Y-15781690D01*
X14103952Y-15895976D02*
X14084905Y-15886452D01*
X14075381Y-15876928D01*
X14065857Y-15857881D01*
X14065857Y-15800738D01*
X14075381Y-15781690D01*
X14084905Y-15772167D01*
X14103952Y-15762643D01*
X14132524Y-15762643D01*
X14151571Y-15772167D01*
X14161095Y-15781690D01*
X14170619Y-15800738D01*
X14170619Y-15857881D01*
X14161095Y-15876928D01*
X14151571Y-15886452D01*
X14132524Y-15895976D01*
X14103952Y-15895976D01*
X14284905Y-15895976D02*
X14265857Y-15886452D01*
X14256333Y-15867405D01*
X14256333Y-15695976D01*
X14437286Y-15886452D02*
X14418238Y-15895976D01*
X14380143Y-15895976D01*
X14361095Y-15886452D01*
X14351571Y-15867405D01*
X14351571Y-15791214D01*
X14361095Y-15772167D01*
X14380143Y-15762643D01*
X14418238Y-15762643D01*
X14437286Y-15772167D01*
X14446809Y-15791214D01*
X14446809Y-15810262D01*
X14351571Y-15829309D01*
X14523000Y-15886452D02*
X14542048Y-15895976D01*
X14580143Y-15895976D01*
X14599190Y-15886452D01*
X14608714Y-15867405D01*
X14608714Y-15857881D01*
X14599190Y-15838833D01*
X14580143Y-15829309D01*
X14551571Y-15829309D01*
X14532524Y-15819786D01*
X14523000Y-15800738D01*
X14523000Y-15791214D01*
X14532524Y-15772167D01*
X14551571Y-15762643D01*
X14580143Y-15762643D01*
X14599190Y-15772167D01*
X14675381Y-15972167D02*
X14684905Y-15962643D01*
X14703952Y-15934071D01*
X14713476Y-15915024D01*
X14723000Y-15886452D01*
X14732524Y-15838833D01*
X14732524Y-15800738D01*
X14723000Y-15753119D01*
X14713476Y-15724548D01*
X14703952Y-15705500D01*
X14684905Y-15676928D01*
X14675381Y-15667405D01*
D18*
X9603000Y-16014500D02*
X9713000Y-16124500D01*
X9713000Y-16014500D02*
X9603000Y-16124500D01*
X9658000Y-16014500D02*
X9658000Y-16124500D01*
X9603000Y-16069500D02*
X9713000Y-16069500D01*
D11*
X10075381Y-16159976D02*
X9961095Y-16159976D01*
X10018238Y-16159976D02*
X10018238Y-15959976D01*
X9999190Y-15988548D01*
X9980143Y-16007595D01*
X9961095Y-16017119D01*
X10161095Y-16140928D02*
X10170619Y-16150452D01*
X10161095Y-16159976D01*
X10151571Y-16150452D01*
X10161095Y-16140928D01*
X10161095Y-16159976D01*
X10361095Y-16159976D02*
X10246810Y-16159976D01*
X10303952Y-16159976D02*
X10303952Y-15959976D01*
X10284905Y-15988548D01*
X10265857Y-16007595D01*
X10246810Y-16017119D01*
X10484905Y-15959976D02*
X10503952Y-15959976D01*
X10523000Y-15969500D01*
X10532524Y-15979024D01*
X10542048Y-15998071D01*
X10551571Y-16036167D01*
X10551571Y-16083786D01*
X10542048Y-16121881D01*
X10532524Y-16140928D01*
X10523000Y-16150452D01*
X10503952Y-16159976D01*
X10484905Y-16159976D01*
X10465857Y-16150452D01*
X10456333Y-16140928D01*
X10446810Y-16121881D01*
X10437286Y-16083786D01*
X10437286Y-16036167D01*
X10446810Y-15998071D01*
X10456333Y-15979024D01*
X10465857Y-15969500D01*
X10484905Y-15959976D01*
X10675381Y-15959976D02*
X10694429Y-15959976D01*
X10713476Y-15969500D01*
X10723000Y-15979024D01*
X10732524Y-15998071D01*
X10742048Y-16036167D01*
X10742048Y-16083786D01*
X10732524Y-16121881D01*
X10723000Y-16140928D01*
X10713476Y-16150452D01*
X10694429Y-16159976D01*
X10675381Y-16159976D01*
X10656333Y-16150452D01*
X10646810Y-16140928D01*
X10637286Y-16121881D01*
X10627762Y-16083786D01*
X10627762Y-16036167D01*
X10637286Y-15998071D01*
X10646810Y-15979024D01*
X10656333Y-15969500D01*
X10675381Y-15959976D01*
X10827762Y-16159976D02*
X10827762Y-16026643D01*
X10827762Y-16045690D02*
X10837286Y-16036167D01*
X10856333Y-16026643D01*
X10884905Y-16026643D01*
X10903952Y-16036167D01*
X10913476Y-16055214D01*
X10913476Y-16159976D01*
X10913476Y-16055214D02*
X10923000Y-16036167D01*
X10942048Y-16026643D01*
X10970619Y-16026643D01*
X10989667Y-16036167D01*
X10999190Y-16055214D01*
X10999190Y-16159976D01*
X11094429Y-16159976D02*
X11094429Y-16026643D01*
X11094429Y-16045690D02*
X11103952Y-16036167D01*
X11123000Y-16026643D01*
X11151571Y-16026643D01*
X11170619Y-16036167D01*
X11180143Y-16055214D01*
X11180143Y-16159976D01*
X11180143Y-16055214D02*
X11189667Y-16036167D01*
X11208714Y-16026643D01*
X11237286Y-16026643D01*
X11256333Y-16036167D01*
X11265857Y-16055214D01*
X11265857Y-16159976D01*
X11656333Y-15950452D02*
X11484905Y-16207595D01*
X11913476Y-15959976D02*
X11932524Y-15959976D01*
X11951571Y-15969500D01*
X11961095Y-15979024D01*
X11970619Y-15998071D01*
X11980143Y-16036167D01*
X11980143Y-16083786D01*
X11970619Y-16121881D01*
X11961095Y-16140928D01*
X11951571Y-16150452D01*
X11932524Y-16159976D01*
X11913476Y-16159976D01*
X11894428Y-16150452D01*
X11884905Y-16140928D01*
X11875381Y-16121881D01*
X11865857Y-16083786D01*
X11865857Y-16036167D01*
X11875381Y-15998071D01*
X11884905Y-15979024D01*
X11894428Y-15969500D01*
X11913476Y-15959976D01*
X12065857Y-16140928D02*
X12075381Y-16150452D01*
X12065857Y-16159976D01*
X12056333Y-16150452D01*
X12065857Y-16140928D01*
X12065857Y-16159976D01*
X12199190Y-15959976D02*
X12218238Y-15959976D01*
X12237286Y-15969500D01*
X12246809Y-15979024D01*
X12256333Y-15998071D01*
X12265857Y-16036167D01*
X12265857Y-16083786D01*
X12256333Y-16121881D01*
X12246809Y-16140928D01*
X12237286Y-16150452D01*
X12218238Y-16159976D01*
X12199190Y-16159976D01*
X12180143Y-16150452D01*
X12170619Y-16140928D01*
X12161095Y-16121881D01*
X12151571Y-16083786D01*
X12151571Y-16036167D01*
X12161095Y-15998071D01*
X12170619Y-15979024D01*
X12180143Y-15969500D01*
X12199190Y-15959976D01*
X12437286Y-16026643D02*
X12437286Y-16159976D01*
X12389667Y-15950452D02*
X12342048Y-16093309D01*
X12465857Y-16093309D01*
X12523000Y-15959976D02*
X12646809Y-15959976D01*
X12580143Y-16036167D01*
X12608714Y-16036167D01*
X12627762Y-16045690D01*
X12637286Y-16055214D01*
X12646809Y-16074262D01*
X12646809Y-16121881D01*
X12637286Y-16140928D01*
X12627762Y-16150452D01*
X12608714Y-16159976D01*
X12551571Y-16159976D01*
X12532524Y-16150452D01*
X12523000Y-16140928D01*
X12713476Y-15959976D02*
X12837286Y-15959976D01*
X12770619Y-16036167D01*
X12799190Y-16036167D01*
X12818238Y-16045690D01*
X12827762Y-16055214D01*
X12837286Y-16074262D01*
X12837286Y-16121881D01*
X12827762Y-16140928D01*
X12818238Y-16150452D01*
X12799190Y-16159976D01*
X12742048Y-16159976D01*
X12723000Y-16150452D01*
X12713476Y-16140928D01*
X12913476Y-15959976D02*
X12913476Y-15998071D01*
X12989667Y-15959976D02*
X12989667Y-15998071D01*
X13284905Y-16236167D02*
X13275381Y-16226643D01*
X13256333Y-16198071D01*
X13246809Y-16179024D01*
X13237286Y-16150452D01*
X13227762Y-16102833D01*
X13227762Y-16064738D01*
X13237286Y-16017119D01*
X13246809Y-15988548D01*
X13256333Y-15969500D01*
X13275381Y-15940928D01*
X13284905Y-15931405D01*
X13446809Y-15959976D02*
X13408714Y-15959976D01*
X13389667Y-15969500D01*
X13380143Y-15979024D01*
X13361095Y-16007595D01*
X13351571Y-16045690D01*
X13351571Y-16121881D01*
X13361095Y-16140928D01*
X13370619Y-16150452D01*
X13389667Y-16159976D01*
X13427762Y-16159976D01*
X13446809Y-16150452D01*
X13456333Y-16140928D01*
X13465857Y-16121881D01*
X13465857Y-16074262D01*
X13456333Y-16055214D01*
X13446809Y-16045690D01*
X13427762Y-16036167D01*
X13389667Y-16036167D01*
X13370619Y-16045690D01*
X13361095Y-16055214D01*
X13351571Y-16074262D01*
X13703952Y-16159976D02*
X13703952Y-15959976D01*
X13789667Y-16159976D02*
X13789667Y-16055214D01*
X13780143Y-16036167D01*
X13761095Y-16026643D01*
X13732524Y-16026643D01*
X13713476Y-16036167D01*
X13703952Y-16045690D01*
X13913476Y-16159976D02*
X13894428Y-16150452D01*
X13884905Y-16140928D01*
X13875381Y-16121881D01*
X13875381Y-16064738D01*
X13884905Y-16045690D01*
X13894428Y-16036167D01*
X13913476Y-16026643D01*
X13942048Y-16026643D01*
X13961095Y-16036167D01*
X13970619Y-16045690D01*
X13980143Y-16064738D01*
X13980143Y-16121881D01*
X13970619Y-16140928D01*
X13961095Y-16150452D01*
X13942048Y-16159976D01*
X13913476Y-16159976D01*
X14094428Y-16159976D02*
X14075381Y-16150452D01*
X14065857Y-16131405D01*
X14065857Y-15959976D01*
X14246809Y-16150452D02*
X14227762Y-16159976D01*
X14189667Y-16159976D01*
X14170619Y-16150452D01*
X14161095Y-16131405D01*
X14161095Y-16055214D01*
X14170619Y-16036167D01*
X14189667Y-16026643D01*
X14227762Y-16026643D01*
X14246809Y-16036167D01*
X14256333Y-16055214D01*
X14256333Y-16074262D01*
X14161095Y-16093309D01*
X14332524Y-16150452D02*
X14351571Y-16159976D01*
X14389667Y-16159976D01*
X14408714Y-16150452D01*
X14418238Y-16131405D01*
X14418238Y-16121881D01*
X14408714Y-16102833D01*
X14389667Y-16093309D01*
X14361095Y-16093309D01*
X14342048Y-16083786D01*
X14332524Y-16064738D01*
X14332524Y-16055214D01*
X14342048Y-16036167D01*
X14361095Y-16026643D01*
X14389667Y-16026643D01*
X14408714Y-16036167D01*
X14656333Y-16083786D02*
X14808714Y-16083786D01*
X14732524Y-16159976D02*
X14732524Y-16007595D01*
X15046809Y-15979024D02*
X15056333Y-15969500D01*
X15075381Y-15959976D01*
X15123000Y-15959976D01*
X15142048Y-15969500D01*
X15151571Y-15979024D01*
X15161095Y-15998071D01*
X15161095Y-16017119D01*
X15151571Y-16045690D01*
X15037286Y-16159976D01*
X15161095Y-16159976D01*
X15389667Y-16150452D02*
X15408714Y-16159976D01*
X15446809Y-16159976D01*
X15465857Y-16150452D01*
X15475381Y-16131405D01*
X15475381Y-16121881D01*
X15465857Y-16102833D01*
X15446809Y-16093309D01*
X15418238Y-16093309D01*
X15399190Y-16083786D01*
X15389667Y-16064738D01*
X15389667Y-16055214D01*
X15399190Y-16036167D01*
X15418238Y-16026643D01*
X15446809Y-16026643D01*
X15465857Y-16036167D01*
X15589667Y-16159976D02*
X15570619Y-16150452D01*
X15561095Y-16131405D01*
X15561095Y-15959976D01*
X15694428Y-16159976D02*
X15675381Y-16150452D01*
X15665857Y-16140928D01*
X15656333Y-16121881D01*
X15656333Y-16064738D01*
X15665857Y-16045690D01*
X15675381Y-16036167D01*
X15694428Y-16026643D01*
X15723000Y-16026643D01*
X15742048Y-16036167D01*
X15751571Y-16045690D01*
X15761095Y-16064738D01*
X15761095Y-16121881D01*
X15751571Y-16140928D01*
X15742048Y-16150452D01*
X15723000Y-16159976D01*
X15694428Y-16159976D01*
X15818238Y-16026643D02*
X15894428Y-16026643D01*
X15846809Y-15959976D02*
X15846809Y-16131405D01*
X15856333Y-16150452D01*
X15875381Y-16159976D01*
X15894428Y-16159976D01*
X15951571Y-16150452D02*
X15970619Y-16159976D01*
X16008714Y-16159976D01*
X16027762Y-16150452D01*
X16037286Y-16131405D01*
X16037286Y-16121881D01*
X16027762Y-16102833D01*
X16008714Y-16093309D01*
X15980143Y-16093309D01*
X15961095Y-16083786D01*
X15951571Y-16064738D01*
X15951571Y-16055214D01*
X15961095Y-16036167D01*
X15980143Y-16026643D01*
X16008714Y-16026643D01*
X16027762Y-16036167D01*
X16103952Y-16236167D02*
X16113476Y-16226643D01*
X16132524Y-16198071D01*
X16142048Y-16179024D01*
X16151571Y-16150452D01*
X16161095Y-16102833D01*
X16161095Y-16064738D01*
X16151571Y-16017119D01*
X16142048Y-15988548D01*
X16132524Y-15969500D01*
X16113476Y-15940928D01*
X16103952Y-15931405D01*
M02*
