%FSLAX45Y45*%
G04 Gerber Fmt 4.5, Leading zero omitted, Abs format (unit mm)*
G04 Created by KiCad (PCBNEW 5.1.10-88a1d61d58~90~ubuntu20.04.1) date 2021-12-03 15:24:35*
%MOMM*%
%LPD*%
G01*
G04 APERTURE LIST*
%TA.AperFunction,Profile*%
%ADD10C,0.050000*%
%TD*%
%ADD11C,0.200000*%
%ADD12C,0.300000*%
G04 APERTURE END LIST*
D10*
X16342500Y-13589000D02*
G75*
G03*
X16342500Y-13589000I-150000J0D01*
G01*
X16342500Y-6032500D02*
G75*
G03*
X16342500Y-6032500I-150000J0D01*
G01*
X16192500Y-5778500D02*
G75*
G02*
X16446500Y-6032500I0J-254000D01*
G01*
X16446500Y-13589000D02*
G75*
G02*
X16192500Y-13843000I-254000J0D01*
G01*
X10119500Y-13589000D02*
G75*
G03*
X10119500Y-13589000I-150000J0D01*
G01*
X9969500Y-13843000D02*
G75*
G02*
X9715500Y-13589000I0J254000D01*
G01*
X10119500Y-6032500D02*
G75*
G03*
X10119500Y-6032500I-150000J0D01*
G01*
X9715500Y-6032500D02*
G75*
G02*
X9969500Y-5778500I254000J0D01*
G01*
X9715500Y-13589000D02*
X9715500Y-6032500D01*
X16192500Y-13843000D02*
X9969500Y-13843000D01*
X16446500Y-6032500D02*
X16446500Y-13589000D01*
X9969500Y-5778500D02*
X16192500Y-5778500D01*
D11*
X11086000Y-6347600D02*
X11296000Y-6557600D01*
X11296000Y-6347600D02*
X11086000Y-6557600D01*
X11086000Y-9647600D02*
X11296000Y-9857600D01*
X11296000Y-9647600D02*
X11086000Y-9857600D01*
X11926000Y-6397600D02*
X12136000Y-6607600D01*
X12136000Y-6397600D02*
X11926000Y-6607600D01*
X11926000Y-8547600D02*
X12136000Y-8757600D01*
X12136000Y-8547600D02*
X11926000Y-8757600D01*
X14026000Y-6397600D02*
X14236000Y-6607600D01*
X14236000Y-6397600D02*
X14026000Y-6607600D01*
X14026000Y-8547600D02*
X14236000Y-8757600D01*
X14236000Y-8547600D02*
X14026000Y-8757600D01*
X14866000Y-6347600D02*
X15076000Y-6557600D01*
X15076000Y-6347600D02*
X14866000Y-6557600D01*
X14866000Y-9647600D02*
X15076000Y-9857600D01*
X15076000Y-9647600D02*
X14866000Y-9857600D01*
X13236000Y-6985000D02*
G75*
G03*
X13236000Y-6985000I-155000J0D01*
G01*
D12*
X9999428Y-14311214D02*
X9999428Y-14011214D01*
X10070857Y-14011214D01*
X10113714Y-14025500D01*
X10142286Y-14054071D01*
X10156571Y-14082643D01*
X10170857Y-14139786D01*
X10170857Y-14182643D01*
X10156571Y-14239786D01*
X10142286Y-14268357D01*
X10113714Y-14296929D01*
X10070857Y-14311214D01*
X9999428Y-14311214D01*
X10299428Y-14311214D02*
X10299428Y-14111214D01*
X10299428Y-14168357D02*
X10313714Y-14139786D01*
X10328000Y-14125500D01*
X10356571Y-14111214D01*
X10385143Y-14111214D01*
X10485143Y-14311214D02*
X10485143Y-14111214D01*
X10485143Y-14011214D02*
X10470857Y-14025500D01*
X10485143Y-14039786D01*
X10499428Y-14025500D01*
X10485143Y-14011214D01*
X10485143Y-14039786D01*
X10670857Y-14311214D02*
X10642286Y-14296929D01*
X10628000Y-14268357D01*
X10628000Y-14011214D01*
X10828000Y-14311214D02*
X10799428Y-14296929D01*
X10785143Y-14268357D01*
X10785143Y-14011214D01*
X11170857Y-14311214D02*
X11170857Y-14011214D01*
X11270857Y-14225500D01*
X11370857Y-14011214D01*
X11370857Y-14311214D01*
X11642286Y-14311214D02*
X11642286Y-14154071D01*
X11628000Y-14125500D01*
X11599428Y-14111214D01*
X11542286Y-14111214D01*
X11513714Y-14125500D01*
X11642286Y-14296929D02*
X11613714Y-14311214D01*
X11542286Y-14311214D01*
X11513714Y-14296929D01*
X11499428Y-14268357D01*
X11499428Y-14239786D01*
X11513714Y-14211214D01*
X11542286Y-14196929D01*
X11613714Y-14196929D01*
X11642286Y-14182643D01*
X11785143Y-14111214D02*
X11785143Y-14411214D01*
X11785143Y-14125500D02*
X11813714Y-14111214D01*
X11870857Y-14111214D01*
X11899428Y-14125500D01*
X11913714Y-14139786D01*
X11928000Y-14168357D01*
X11928000Y-14254071D01*
X11913714Y-14282643D01*
X11899428Y-14296929D01*
X11870857Y-14311214D01*
X11813714Y-14311214D01*
X11785143Y-14296929D01*
X12056571Y-14282643D02*
X12070857Y-14296929D01*
X12056571Y-14311214D01*
X12042286Y-14296929D01*
X12056571Y-14282643D01*
X12056571Y-14311214D01*
X12056571Y-14125500D02*
X12070857Y-14139786D01*
X12056571Y-14154071D01*
X12042286Y-14139786D01*
X12056571Y-14125500D01*
X12056571Y-14154071D01*
X9503000Y-14700500D02*
X9713000Y-14910500D01*
X9713000Y-14700500D02*
X9503000Y-14910500D01*
X9985143Y-14669786D02*
X9999428Y-14655500D01*
X10028000Y-14641214D01*
X10099428Y-14641214D01*
X10128000Y-14655500D01*
X10142286Y-14669786D01*
X10156571Y-14698357D01*
X10156571Y-14726929D01*
X10142286Y-14769786D01*
X9970857Y-14941214D01*
X10156571Y-14941214D01*
X10285143Y-14912643D02*
X10299428Y-14926929D01*
X10285143Y-14941214D01*
X10270857Y-14926929D01*
X10285143Y-14912643D01*
X10285143Y-14941214D01*
X10585143Y-14941214D02*
X10413714Y-14941214D01*
X10499428Y-14941214D02*
X10499428Y-14641214D01*
X10470857Y-14684071D01*
X10442286Y-14712643D01*
X10413714Y-14726929D01*
X10770857Y-14641214D02*
X10799428Y-14641214D01*
X10828000Y-14655500D01*
X10842286Y-14669786D01*
X10856571Y-14698357D01*
X10870857Y-14755500D01*
X10870857Y-14826929D01*
X10856571Y-14884071D01*
X10842286Y-14912643D01*
X10828000Y-14926929D01*
X10799428Y-14941214D01*
X10770857Y-14941214D01*
X10742286Y-14926929D01*
X10728000Y-14912643D01*
X10713714Y-14884071D01*
X10699428Y-14826929D01*
X10699428Y-14755500D01*
X10713714Y-14698357D01*
X10728000Y-14669786D01*
X10742286Y-14655500D01*
X10770857Y-14641214D01*
X11056571Y-14641214D02*
X11085143Y-14641214D01*
X11113714Y-14655500D01*
X11128000Y-14669786D01*
X11142286Y-14698357D01*
X11156571Y-14755500D01*
X11156571Y-14826929D01*
X11142286Y-14884071D01*
X11128000Y-14912643D01*
X11113714Y-14926929D01*
X11085143Y-14941214D01*
X11056571Y-14941214D01*
X11028000Y-14926929D01*
X11013714Y-14912643D01*
X10999428Y-14884071D01*
X10985143Y-14826929D01*
X10985143Y-14755500D01*
X10999428Y-14698357D01*
X11013714Y-14669786D01*
X11028000Y-14655500D01*
X11056571Y-14641214D01*
X11285143Y-14941214D02*
X11285143Y-14741214D01*
X11285143Y-14769786D02*
X11299428Y-14755500D01*
X11328000Y-14741214D01*
X11370857Y-14741214D01*
X11399428Y-14755500D01*
X11413714Y-14784071D01*
X11413714Y-14941214D01*
X11413714Y-14784071D02*
X11428000Y-14755500D01*
X11456571Y-14741214D01*
X11499428Y-14741214D01*
X11528000Y-14755500D01*
X11542286Y-14784071D01*
X11542286Y-14941214D01*
X11685143Y-14941214D02*
X11685143Y-14741214D01*
X11685143Y-14769786D02*
X11699428Y-14755500D01*
X11728000Y-14741214D01*
X11770857Y-14741214D01*
X11799428Y-14755500D01*
X11813714Y-14784071D01*
X11813714Y-14941214D01*
X11813714Y-14784071D02*
X11828000Y-14755500D01*
X11856571Y-14741214D01*
X11899428Y-14741214D01*
X11928000Y-14755500D01*
X11942286Y-14784071D01*
X11942286Y-14941214D01*
X12528000Y-14626929D02*
X12270857Y-15012643D01*
X12913714Y-14641214D02*
X12942286Y-14641214D01*
X12970857Y-14655500D01*
X12985143Y-14669786D01*
X12999428Y-14698357D01*
X13013714Y-14755500D01*
X13013714Y-14826929D01*
X12999428Y-14884071D01*
X12985143Y-14912643D01*
X12970857Y-14926929D01*
X12942286Y-14941214D01*
X12913714Y-14941214D01*
X12885143Y-14926929D01*
X12870857Y-14912643D01*
X12856571Y-14884071D01*
X12842286Y-14826929D01*
X12842286Y-14755500D01*
X12856571Y-14698357D01*
X12870857Y-14669786D01*
X12885143Y-14655500D01*
X12913714Y-14641214D01*
X13142286Y-14912643D02*
X13156571Y-14926929D01*
X13142286Y-14941214D01*
X13128000Y-14926929D01*
X13142286Y-14912643D01*
X13142286Y-14941214D01*
X13342286Y-14641214D02*
X13370857Y-14641214D01*
X13399428Y-14655500D01*
X13413714Y-14669786D01*
X13428000Y-14698357D01*
X13442286Y-14755500D01*
X13442286Y-14826929D01*
X13428000Y-14884071D01*
X13413714Y-14912643D01*
X13399428Y-14926929D01*
X13370857Y-14941214D01*
X13342286Y-14941214D01*
X13313714Y-14926929D01*
X13299428Y-14912643D01*
X13285143Y-14884071D01*
X13270857Y-14826929D01*
X13270857Y-14755500D01*
X13285143Y-14698357D01*
X13299428Y-14669786D01*
X13313714Y-14655500D01*
X13342286Y-14641214D01*
X13613714Y-14769786D02*
X13585143Y-14755500D01*
X13570857Y-14741214D01*
X13556571Y-14712643D01*
X13556571Y-14698357D01*
X13570857Y-14669786D01*
X13585143Y-14655500D01*
X13613714Y-14641214D01*
X13670857Y-14641214D01*
X13699428Y-14655500D01*
X13713714Y-14669786D01*
X13728000Y-14698357D01*
X13728000Y-14712643D01*
X13713714Y-14741214D01*
X13699428Y-14755500D01*
X13670857Y-14769786D01*
X13613714Y-14769786D01*
X13585143Y-14784071D01*
X13570857Y-14798357D01*
X13556571Y-14826929D01*
X13556571Y-14884071D01*
X13570857Y-14912643D01*
X13585143Y-14926929D01*
X13613714Y-14941214D01*
X13670857Y-14941214D01*
X13699428Y-14926929D01*
X13713714Y-14912643D01*
X13728000Y-14884071D01*
X13728000Y-14826929D01*
X13713714Y-14798357D01*
X13699428Y-14784071D01*
X13670857Y-14769786D01*
X13842286Y-14669786D02*
X13856571Y-14655500D01*
X13885143Y-14641214D01*
X13956571Y-14641214D01*
X13985143Y-14655500D01*
X13999428Y-14669786D01*
X14013714Y-14698357D01*
X14013714Y-14726929D01*
X13999428Y-14769786D01*
X13828000Y-14941214D01*
X14013714Y-14941214D01*
X14113714Y-14641214D02*
X14313714Y-14641214D01*
X14185143Y-14941214D01*
X14413714Y-14641214D02*
X14413714Y-14698357D01*
X14528000Y-14641214D02*
X14528000Y-14698357D01*
X14970857Y-15055500D02*
X14956571Y-15041214D01*
X14928000Y-14998357D01*
X14913714Y-14969786D01*
X14899428Y-14926929D01*
X14885143Y-14855500D01*
X14885143Y-14798357D01*
X14899428Y-14726929D01*
X14913714Y-14684071D01*
X14928000Y-14655500D01*
X14956571Y-14612643D01*
X14970857Y-14598357D01*
X15128000Y-14769786D02*
X15099428Y-14755500D01*
X15085143Y-14741214D01*
X15070857Y-14712643D01*
X15070857Y-14698357D01*
X15085143Y-14669786D01*
X15099428Y-14655500D01*
X15128000Y-14641214D01*
X15185143Y-14641214D01*
X15213714Y-14655500D01*
X15228000Y-14669786D01*
X15242286Y-14698357D01*
X15242286Y-14712643D01*
X15228000Y-14741214D01*
X15213714Y-14755500D01*
X15185143Y-14769786D01*
X15128000Y-14769786D01*
X15099428Y-14784071D01*
X15085143Y-14798357D01*
X15070857Y-14826929D01*
X15070857Y-14884071D01*
X15085143Y-14912643D01*
X15099428Y-14926929D01*
X15128000Y-14941214D01*
X15185143Y-14941214D01*
X15213714Y-14926929D01*
X15228000Y-14912643D01*
X15242286Y-14884071D01*
X15242286Y-14826929D01*
X15228000Y-14798357D01*
X15213714Y-14784071D01*
X15185143Y-14769786D01*
X15599428Y-14941214D02*
X15599428Y-14641214D01*
X15728000Y-14941214D02*
X15728000Y-14784071D01*
X15713714Y-14755500D01*
X15685143Y-14741214D01*
X15642286Y-14741214D01*
X15613714Y-14755500D01*
X15599428Y-14769786D01*
X15913714Y-14941214D02*
X15885143Y-14926929D01*
X15870857Y-14912643D01*
X15856571Y-14884071D01*
X15856571Y-14798357D01*
X15870857Y-14769786D01*
X15885143Y-14755500D01*
X15913714Y-14741214D01*
X15956571Y-14741214D01*
X15985143Y-14755500D01*
X15999428Y-14769786D01*
X16013714Y-14798357D01*
X16013714Y-14884071D01*
X15999428Y-14912643D01*
X15985143Y-14926929D01*
X15956571Y-14941214D01*
X15913714Y-14941214D01*
X16185143Y-14941214D02*
X16156571Y-14926929D01*
X16142286Y-14898357D01*
X16142286Y-14641214D01*
X16413714Y-14926929D02*
X16385143Y-14941214D01*
X16328000Y-14941214D01*
X16299428Y-14926929D01*
X16285143Y-14898357D01*
X16285143Y-14784071D01*
X16299428Y-14755500D01*
X16328000Y-14741214D01*
X16385143Y-14741214D01*
X16413714Y-14755500D01*
X16428000Y-14784071D01*
X16428000Y-14812643D01*
X16285143Y-14841214D01*
X16542286Y-14926929D02*
X16570857Y-14941214D01*
X16628000Y-14941214D01*
X16656571Y-14926929D01*
X16670857Y-14898357D01*
X16670857Y-14884071D01*
X16656571Y-14855500D01*
X16628000Y-14841214D01*
X16585143Y-14841214D01*
X16556571Y-14826929D01*
X16542286Y-14798357D01*
X16542286Y-14784071D01*
X16556571Y-14755500D01*
X16585143Y-14741214D01*
X16628000Y-14741214D01*
X16656571Y-14755500D01*
X16770857Y-15055500D02*
X16785143Y-15041214D01*
X16813714Y-14998357D01*
X16828000Y-14969786D01*
X16842286Y-14926929D01*
X16856571Y-14855500D01*
X16856571Y-14798357D01*
X16842286Y-14726929D01*
X16828000Y-14684071D01*
X16813714Y-14655500D01*
X16785143Y-14612643D01*
X16770857Y-14598357D01*
X17313714Y-15055500D02*
X17299428Y-15041214D01*
X17270857Y-14998357D01*
X17256571Y-14969786D01*
X17242286Y-14926929D01*
X17228000Y-14855500D01*
X17228000Y-14798357D01*
X17242286Y-14726929D01*
X17256571Y-14684071D01*
X17270857Y-14655500D01*
X17299428Y-14612643D01*
X17313714Y-14598357D01*
X17428000Y-14741214D02*
X17428000Y-14941214D01*
X17428000Y-14769786D02*
X17442286Y-14755500D01*
X17470857Y-14741214D01*
X17513714Y-14741214D01*
X17542286Y-14755500D01*
X17556571Y-14784071D01*
X17556571Y-14941214D01*
X17742286Y-14941214D02*
X17713714Y-14926929D01*
X17699428Y-14912643D01*
X17685143Y-14884071D01*
X17685143Y-14798357D01*
X17699428Y-14769786D01*
X17713714Y-14755500D01*
X17742286Y-14741214D01*
X17785143Y-14741214D01*
X17813714Y-14755500D01*
X17828000Y-14769786D01*
X17842286Y-14798357D01*
X17842286Y-14884071D01*
X17828000Y-14912643D01*
X17813714Y-14926929D01*
X17785143Y-14941214D01*
X17742286Y-14941214D01*
X17928000Y-14741214D02*
X18042286Y-14741214D01*
X17970857Y-14641214D02*
X17970857Y-14898357D01*
X17985143Y-14926929D01*
X18013714Y-14941214D01*
X18042286Y-14941214D01*
X18370857Y-14741214D02*
X18370857Y-15041214D01*
X18370857Y-14755500D02*
X18399428Y-14741214D01*
X18456571Y-14741214D01*
X18485143Y-14755500D01*
X18499428Y-14769786D01*
X18513714Y-14798357D01*
X18513714Y-14884071D01*
X18499428Y-14912643D01*
X18485143Y-14926929D01*
X18456571Y-14941214D01*
X18399428Y-14941214D01*
X18370857Y-14926929D01*
X18685143Y-14941214D02*
X18656571Y-14926929D01*
X18642286Y-14898357D01*
X18642286Y-14641214D01*
X18928000Y-14941214D02*
X18928000Y-14784071D01*
X18913714Y-14755500D01*
X18885143Y-14741214D01*
X18828000Y-14741214D01*
X18799428Y-14755500D01*
X18928000Y-14926929D02*
X18899428Y-14941214D01*
X18828000Y-14941214D01*
X18799428Y-14926929D01*
X18785143Y-14898357D01*
X18785143Y-14869786D01*
X18799428Y-14841214D01*
X18828000Y-14826929D01*
X18899428Y-14826929D01*
X18928000Y-14812643D01*
X19028000Y-14741214D02*
X19142286Y-14741214D01*
X19070857Y-14641214D02*
X19070857Y-14898357D01*
X19085143Y-14926929D01*
X19113714Y-14941214D01*
X19142286Y-14941214D01*
X19356571Y-14926929D02*
X19328000Y-14941214D01*
X19270857Y-14941214D01*
X19242286Y-14926929D01*
X19228000Y-14898357D01*
X19228000Y-14784071D01*
X19242286Y-14755500D01*
X19270857Y-14741214D01*
X19328000Y-14741214D01*
X19356571Y-14755500D01*
X19370857Y-14784071D01*
X19370857Y-14812643D01*
X19228000Y-14841214D01*
X19628000Y-14941214D02*
X19628000Y-14641214D01*
X19628000Y-14926929D02*
X19599428Y-14941214D01*
X19542286Y-14941214D01*
X19513714Y-14926929D01*
X19499428Y-14912643D01*
X19485143Y-14884071D01*
X19485143Y-14798357D01*
X19499428Y-14769786D01*
X19513714Y-14755500D01*
X19542286Y-14741214D01*
X19599428Y-14741214D01*
X19628000Y-14755500D01*
X19742286Y-15055500D02*
X19756571Y-15041214D01*
X19785143Y-14998357D01*
X19799428Y-14969786D01*
X19813714Y-14926929D01*
X19828000Y-14855500D01*
X19828000Y-14798357D01*
X19813714Y-14726929D01*
X19799428Y-14684071D01*
X19785143Y-14655500D01*
X19756571Y-14612643D01*
X19742286Y-14598357D01*
X9713000Y-15201500D02*
G75*
G03*
X9713000Y-15201500I-155000J0D01*
G01*
X9970857Y-15037214D02*
X10156571Y-15037214D01*
X10056571Y-15151500D01*
X10099428Y-15151500D01*
X10128000Y-15165786D01*
X10142286Y-15180071D01*
X10156571Y-15208643D01*
X10156571Y-15280071D01*
X10142286Y-15308643D01*
X10128000Y-15322929D01*
X10099428Y-15337214D01*
X10013714Y-15337214D01*
X9985143Y-15322929D01*
X9970857Y-15308643D01*
X10285143Y-15308643D02*
X10299428Y-15322929D01*
X10285143Y-15337214D01*
X10270857Y-15322929D01*
X10285143Y-15308643D01*
X10285143Y-15337214D01*
X10585143Y-15337214D02*
X10413714Y-15337214D01*
X10499428Y-15337214D02*
X10499428Y-15037214D01*
X10470857Y-15080071D01*
X10442286Y-15108643D01*
X10413714Y-15122929D01*
X10770857Y-15037214D02*
X10799428Y-15037214D01*
X10828000Y-15051500D01*
X10842286Y-15065786D01*
X10856571Y-15094357D01*
X10870857Y-15151500D01*
X10870857Y-15222929D01*
X10856571Y-15280071D01*
X10842286Y-15308643D01*
X10828000Y-15322929D01*
X10799428Y-15337214D01*
X10770857Y-15337214D01*
X10742286Y-15322929D01*
X10728000Y-15308643D01*
X10713714Y-15280071D01*
X10699428Y-15222929D01*
X10699428Y-15151500D01*
X10713714Y-15094357D01*
X10728000Y-15065786D01*
X10742286Y-15051500D01*
X10770857Y-15037214D01*
X11056571Y-15037214D02*
X11085143Y-15037214D01*
X11113714Y-15051500D01*
X11128000Y-15065786D01*
X11142286Y-15094357D01*
X11156571Y-15151500D01*
X11156571Y-15222929D01*
X11142286Y-15280071D01*
X11128000Y-15308643D01*
X11113714Y-15322929D01*
X11085143Y-15337214D01*
X11056571Y-15337214D01*
X11028000Y-15322929D01*
X11013714Y-15308643D01*
X10999428Y-15280071D01*
X10985143Y-15222929D01*
X10985143Y-15151500D01*
X10999428Y-15094357D01*
X11013714Y-15065786D01*
X11028000Y-15051500D01*
X11056571Y-15037214D01*
X11285143Y-15337214D02*
X11285143Y-15137214D01*
X11285143Y-15165786D02*
X11299428Y-15151500D01*
X11328000Y-15137214D01*
X11370857Y-15137214D01*
X11399428Y-15151500D01*
X11413714Y-15180071D01*
X11413714Y-15337214D01*
X11413714Y-15180071D02*
X11428000Y-15151500D01*
X11456571Y-15137214D01*
X11499428Y-15137214D01*
X11528000Y-15151500D01*
X11542286Y-15180071D01*
X11542286Y-15337214D01*
X11685143Y-15337214D02*
X11685143Y-15137214D01*
X11685143Y-15165786D02*
X11699428Y-15151500D01*
X11728000Y-15137214D01*
X11770857Y-15137214D01*
X11799428Y-15151500D01*
X11813714Y-15180071D01*
X11813714Y-15337214D01*
X11813714Y-15180071D02*
X11828000Y-15151500D01*
X11856571Y-15137214D01*
X11899428Y-15137214D01*
X11928000Y-15151500D01*
X11942286Y-15180071D01*
X11942286Y-15337214D01*
X12528000Y-15022929D02*
X12270857Y-15408643D01*
X12913714Y-15037214D02*
X12942286Y-15037214D01*
X12970857Y-15051500D01*
X12985143Y-15065786D01*
X12999428Y-15094357D01*
X13013714Y-15151500D01*
X13013714Y-15222929D01*
X12999428Y-15280071D01*
X12985143Y-15308643D01*
X12970857Y-15322929D01*
X12942286Y-15337214D01*
X12913714Y-15337214D01*
X12885143Y-15322929D01*
X12870857Y-15308643D01*
X12856571Y-15280071D01*
X12842286Y-15222929D01*
X12842286Y-15151500D01*
X12856571Y-15094357D01*
X12870857Y-15065786D01*
X12885143Y-15051500D01*
X12913714Y-15037214D01*
X13142286Y-15308643D02*
X13156571Y-15322929D01*
X13142286Y-15337214D01*
X13128000Y-15322929D01*
X13142286Y-15308643D01*
X13142286Y-15337214D01*
X13442286Y-15337214D02*
X13270857Y-15337214D01*
X13356571Y-15337214D02*
X13356571Y-15037214D01*
X13328000Y-15080071D01*
X13299428Y-15108643D01*
X13270857Y-15122929D01*
X13556571Y-15065786D02*
X13570857Y-15051500D01*
X13599428Y-15037214D01*
X13670857Y-15037214D01*
X13699428Y-15051500D01*
X13713714Y-15065786D01*
X13728000Y-15094357D01*
X13728000Y-15122929D01*
X13713714Y-15165786D01*
X13542286Y-15337214D01*
X13728000Y-15337214D01*
X13842286Y-15065786D02*
X13856571Y-15051500D01*
X13885143Y-15037214D01*
X13956571Y-15037214D01*
X13985143Y-15051500D01*
X13999428Y-15065786D01*
X14013714Y-15094357D01*
X14013714Y-15122929D01*
X13999428Y-15165786D01*
X13828000Y-15337214D01*
X14013714Y-15337214D01*
X14199428Y-15037214D02*
X14228000Y-15037214D01*
X14256571Y-15051500D01*
X14270857Y-15065786D01*
X14285143Y-15094357D01*
X14299428Y-15151500D01*
X14299428Y-15222929D01*
X14285143Y-15280071D01*
X14270857Y-15308643D01*
X14256571Y-15322929D01*
X14228000Y-15337214D01*
X14199428Y-15337214D01*
X14170857Y-15322929D01*
X14156571Y-15308643D01*
X14142286Y-15280071D01*
X14128000Y-15222929D01*
X14128000Y-15151500D01*
X14142286Y-15094357D01*
X14156571Y-15065786D01*
X14170857Y-15051500D01*
X14199428Y-15037214D01*
X14413714Y-15037214D02*
X14413714Y-15094357D01*
X14528000Y-15037214D02*
X14528000Y-15094357D01*
X14970857Y-15451500D02*
X14956571Y-15437214D01*
X14928000Y-15394357D01*
X14913714Y-15365786D01*
X14899428Y-15322929D01*
X14885143Y-15251500D01*
X14885143Y-15194357D01*
X14899428Y-15122929D01*
X14913714Y-15080071D01*
X14928000Y-15051500D01*
X14956571Y-15008643D01*
X14970857Y-14994357D01*
X15242286Y-15337214D02*
X15070857Y-15337214D01*
X15156571Y-15337214D02*
X15156571Y-15037214D01*
X15128000Y-15080071D01*
X15099428Y-15108643D01*
X15070857Y-15122929D01*
X15599428Y-15337214D02*
X15599428Y-15037214D01*
X15728000Y-15337214D02*
X15728000Y-15180071D01*
X15713714Y-15151500D01*
X15685143Y-15137214D01*
X15642286Y-15137214D01*
X15613714Y-15151500D01*
X15599428Y-15165786D01*
X15913714Y-15337214D02*
X15885143Y-15322929D01*
X15870857Y-15308643D01*
X15856571Y-15280071D01*
X15856571Y-15194357D01*
X15870857Y-15165786D01*
X15885143Y-15151500D01*
X15913714Y-15137214D01*
X15956571Y-15137214D01*
X15985143Y-15151500D01*
X15999428Y-15165786D01*
X16013714Y-15194357D01*
X16013714Y-15280071D01*
X15999428Y-15308643D01*
X15985143Y-15322929D01*
X15956571Y-15337214D01*
X15913714Y-15337214D01*
X16185143Y-15337214D02*
X16156571Y-15322929D01*
X16142286Y-15294357D01*
X16142286Y-15037214D01*
X16413714Y-15322929D02*
X16385143Y-15337214D01*
X16328000Y-15337214D01*
X16299428Y-15322929D01*
X16285143Y-15294357D01*
X16285143Y-15180071D01*
X16299428Y-15151500D01*
X16328000Y-15137214D01*
X16385143Y-15137214D01*
X16413714Y-15151500D01*
X16428000Y-15180071D01*
X16428000Y-15208643D01*
X16285143Y-15237214D01*
X16528000Y-15451500D02*
X16542286Y-15437214D01*
X16570857Y-15394357D01*
X16585143Y-15365786D01*
X16599428Y-15322929D01*
X16613714Y-15251500D01*
X16613714Y-15194357D01*
X16599428Y-15122929D01*
X16585143Y-15080071D01*
X16570857Y-15051500D01*
X16542286Y-15008643D01*
X16528000Y-14994357D01*
X17070857Y-15451500D02*
X17056571Y-15437214D01*
X17028000Y-15394357D01*
X17013714Y-15365786D01*
X16999428Y-15322929D01*
X16985143Y-15251500D01*
X16985143Y-15194357D01*
X16999428Y-15122929D01*
X17013714Y-15080071D01*
X17028000Y-15051500D01*
X17056571Y-15008643D01*
X17070857Y-14994357D01*
X17185143Y-15137214D02*
X17185143Y-15337214D01*
X17185143Y-15165786D02*
X17199428Y-15151500D01*
X17228000Y-15137214D01*
X17270857Y-15137214D01*
X17299428Y-15151500D01*
X17313714Y-15180071D01*
X17313714Y-15337214D01*
X17499428Y-15337214D02*
X17470857Y-15322929D01*
X17456571Y-15308643D01*
X17442286Y-15280071D01*
X17442286Y-15194357D01*
X17456571Y-15165786D01*
X17470857Y-15151500D01*
X17499428Y-15137214D01*
X17542286Y-15137214D01*
X17570857Y-15151500D01*
X17585143Y-15165786D01*
X17599428Y-15194357D01*
X17599428Y-15280071D01*
X17585143Y-15308643D01*
X17570857Y-15322929D01*
X17542286Y-15337214D01*
X17499428Y-15337214D01*
X17685143Y-15137214D02*
X17799428Y-15137214D01*
X17728000Y-15037214D02*
X17728000Y-15294357D01*
X17742286Y-15322929D01*
X17770857Y-15337214D01*
X17799428Y-15337214D01*
X18128000Y-15137214D02*
X18128000Y-15437214D01*
X18128000Y-15151500D02*
X18156571Y-15137214D01*
X18213714Y-15137214D01*
X18242286Y-15151500D01*
X18256571Y-15165786D01*
X18270857Y-15194357D01*
X18270857Y-15280071D01*
X18256571Y-15308643D01*
X18242286Y-15322929D01*
X18213714Y-15337214D01*
X18156571Y-15337214D01*
X18128000Y-15322929D01*
X18442286Y-15337214D02*
X18413714Y-15322929D01*
X18399428Y-15294357D01*
X18399428Y-15037214D01*
X18685143Y-15337214D02*
X18685143Y-15180071D01*
X18670857Y-15151500D01*
X18642286Y-15137214D01*
X18585143Y-15137214D01*
X18556571Y-15151500D01*
X18685143Y-15322929D02*
X18656571Y-15337214D01*
X18585143Y-15337214D01*
X18556571Y-15322929D01*
X18542286Y-15294357D01*
X18542286Y-15265786D01*
X18556571Y-15237214D01*
X18585143Y-15222929D01*
X18656571Y-15222929D01*
X18685143Y-15208643D01*
X18785143Y-15137214D02*
X18899428Y-15137214D01*
X18828000Y-15037214D02*
X18828000Y-15294357D01*
X18842286Y-15322929D01*
X18870857Y-15337214D01*
X18899428Y-15337214D01*
X19113714Y-15322929D02*
X19085143Y-15337214D01*
X19028000Y-15337214D01*
X18999428Y-15322929D01*
X18985143Y-15294357D01*
X18985143Y-15180071D01*
X18999428Y-15151500D01*
X19028000Y-15137214D01*
X19085143Y-15137214D01*
X19113714Y-15151500D01*
X19128000Y-15180071D01*
X19128000Y-15208643D01*
X18985143Y-15237214D01*
X19385143Y-15337214D02*
X19385143Y-15037214D01*
X19385143Y-15322929D02*
X19356571Y-15337214D01*
X19299428Y-15337214D01*
X19270857Y-15322929D01*
X19256571Y-15308643D01*
X19242286Y-15280071D01*
X19242286Y-15194357D01*
X19256571Y-15165786D01*
X19270857Y-15151500D01*
X19299428Y-15137214D01*
X19356571Y-15137214D01*
X19385143Y-15151500D01*
X19499428Y-15451500D02*
X19513714Y-15437214D01*
X19542286Y-15394357D01*
X19556571Y-15365786D01*
X19570857Y-15322929D01*
X19585143Y-15251500D01*
X19585143Y-15194357D01*
X19570857Y-15122929D01*
X19556571Y-15080071D01*
X19542286Y-15051500D01*
X19513714Y-15008643D01*
X19499428Y-14994357D01*
M02*
