%FSLAX45Y45*%
G04 Gerber Fmt 4.5, Leading zero omitted, Abs format (unit mm)*
G04 Created by KiCad (PCBNEW 6.0.0-d3dd2cf0fa~116~ubuntu20.04.1) date 2022-01-19 10:20:00*
%MOMM*%
%LPD*%
G01*
G04 APERTURE LIST*
%TA.AperFunction,Profile*%
%ADD10C,0.050000*%
%TD*%
%ADD11C,0.200000*%
%ADD12C,0.210000*%
%ADD13C,0.310000*%
G04 APERTURE END LIST*
D10*
X16446500Y-6032500D02*
G75*
G03*
X16192500Y-5778500I-254000J0D01*
G01*
X9715500Y-13589000D02*
X9715500Y-6032500D01*
X16192500Y-13843000D02*
X9969500Y-13843000D01*
X10119500Y-13589000D02*
G75*
G03*
X10119500Y-13589000I-150000J0D01*
G01*
X16342500Y-6032500D02*
G75*
G03*
X16342500Y-6032500I-150000J0D01*
G01*
X9969500Y-5778500D02*
X16192500Y-5778500D01*
X10119500Y-6032500D02*
G75*
G03*
X10119500Y-6032500I-150000J0D01*
G01*
X9715500Y-13589000D02*
G75*
G03*
X9969500Y-13843000I254000J0D01*
G01*
X9969500Y-5778500D02*
G75*
G03*
X9715500Y-6032500I0J-254000D01*
G01*
X16192500Y-13843000D02*
G75*
G03*
X16446500Y-13589000I0J254000D01*
G01*
X16342500Y-13589000D02*
G75*
G03*
X16342500Y-13589000I-150000J0D01*
G01*
X16446500Y-6032500D02*
X16446500Y-13589000D01*
D11*
D12*
X11086000Y-6347600D02*
X11296000Y-6557600D01*
X11296000Y-6347600D02*
X11086000Y-6557600D01*
X11086000Y-9647600D02*
X11296000Y-9857600D01*
X11296000Y-9647600D02*
X11086000Y-9857600D01*
X11926000Y-6397600D02*
X12136000Y-6607600D01*
X12136000Y-6397600D02*
X11926000Y-6607600D01*
X11926000Y-8547600D02*
X12136000Y-8757600D01*
X12136000Y-8547600D02*
X11926000Y-8757600D01*
X14026000Y-6397600D02*
X14236000Y-6607600D01*
X14236000Y-6397600D02*
X14026000Y-6607600D01*
X14026000Y-8547600D02*
X14236000Y-8757600D01*
X14236000Y-8547600D02*
X14026000Y-8757600D01*
X14866000Y-6347600D02*
X15076000Y-6557600D01*
X15076000Y-6347600D02*
X14866000Y-6557600D01*
X14866000Y-9647600D02*
X15076000Y-9857600D01*
X15076000Y-9647600D02*
X14866000Y-9857600D01*
D13*
X13236000Y-6985000D02*
G75*
G03*
X13236000Y-6985000I-155000J0D01*
G01*
D11*
X9970619Y-14155976D02*
X9970619Y-13955976D01*
X10018238Y-13955976D01*
X10046810Y-13965500D01*
X10065857Y-13984548D01*
X10075381Y-14003595D01*
X10084905Y-14041690D01*
X10084905Y-14070262D01*
X10075381Y-14108357D01*
X10065857Y-14127405D01*
X10046810Y-14146452D01*
X10018238Y-14155976D01*
X9970619Y-14155976D01*
X10170619Y-14155976D02*
X10170619Y-14022643D01*
X10170619Y-14060738D02*
X10180143Y-14041690D01*
X10189667Y-14032167D01*
X10208714Y-14022643D01*
X10227762Y-14022643D01*
X10294429Y-14155976D02*
X10294429Y-14022643D01*
X10294429Y-13955976D02*
X10284905Y-13965500D01*
X10294429Y-13975024D01*
X10303952Y-13965500D01*
X10294429Y-13955976D01*
X10294429Y-13975024D01*
X10418238Y-14155976D02*
X10399190Y-14146452D01*
X10389667Y-14127405D01*
X10389667Y-13955976D01*
X10523000Y-14155976D02*
X10503952Y-14146452D01*
X10494429Y-14127405D01*
X10494429Y-13955976D01*
X10751571Y-14155976D02*
X10751571Y-13955976D01*
X10818238Y-14098833D01*
X10884905Y-13955976D01*
X10884905Y-14155976D01*
X11065857Y-14155976D02*
X11065857Y-14051214D01*
X11056333Y-14032167D01*
X11037286Y-14022643D01*
X10999190Y-14022643D01*
X10980143Y-14032167D01*
X11065857Y-14146452D02*
X11046810Y-14155976D01*
X10999190Y-14155976D01*
X10980143Y-14146452D01*
X10970619Y-14127405D01*
X10970619Y-14108357D01*
X10980143Y-14089309D01*
X10999190Y-14079786D01*
X11046810Y-14079786D01*
X11065857Y-14070262D01*
X11161095Y-14022643D02*
X11161095Y-14222643D01*
X11161095Y-14032167D02*
X11180143Y-14022643D01*
X11218238Y-14022643D01*
X11237286Y-14032167D01*
X11246809Y-14041690D01*
X11256333Y-14060738D01*
X11256333Y-14117881D01*
X11246809Y-14136928D01*
X11237286Y-14146452D01*
X11218238Y-14155976D01*
X11180143Y-14155976D01*
X11161095Y-14146452D01*
X11342048Y-14136928D02*
X11351571Y-14146452D01*
X11342048Y-14155976D01*
X11332524Y-14146452D01*
X11342048Y-14136928D01*
X11342048Y-14155976D01*
X11342048Y-14032167D02*
X11351571Y-14041690D01*
X11342048Y-14051214D01*
X11332524Y-14041690D01*
X11342048Y-14032167D01*
X11342048Y-14051214D01*
X9513000Y-14385500D02*
X9713000Y-14585500D01*
X9713000Y-14385500D02*
X9513000Y-14585500D01*
X9961095Y-14395024D02*
X9970619Y-14385500D01*
X9989667Y-14375976D01*
X10037286Y-14375976D01*
X10056333Y-14385500D01*
X10065857Y-14395024D01*
X10075381Y-14414071D01*
X10075381Y-14433119D01*
X10065857Y-14461690D01*
X9951571Y-14575976D01*
X10075381Y-14575976D01*
X10161095Y-14556928D02*
X10170619Y-14566452D01*
X10161095Y-14575976D01*
X10151571Y-14566452D01*
X10161095Y-14556928D01*
X10161095Y-14575976D01*
X10361095Y-14575976D02*
X10246810Y-14575976D01*
X10303952Y-14575976D02*
X10303952Y-14375976D01*
X10284905Y-14404548D01*
X10265857Y-14423595D01*
X10246810Y-14433119D01*
X10484905Y-14375976D02*
X10503952Y-14375976D01*
X10523000Y-14385500D01*
X10532524Y-14395024D01*
X10542048Y-14414071D01*
X10551571Y-14452167D01*
X10551571Y-14499786D01*
X10542048Y-14537881D01*
X10532524Y-14556928D01*
X10523000Y-14566452D01*
X10503952Y-14575976D01*
X10484905Y-14575976D01*
X10465857Y-14566452D01*
X10456333Y-14556928D01*
X10446810Y-14537881D01*
X10437286Y-14499786D01*
X10437286Y-14452167D01*
X10446810Y-14414071D01*
X10456333Y-14395024D01*
X10465857Y-14385500D01*
X10484905Y-14375976D01*
X10675381Y-14375976D02*
X10694429Y-14375976D01*
X10713476Y-14385500D01*
X10723000Y-14395024D01*
X10732524Y-14414071D01*
X10742048Y-14452167D01*
X10742048Y-14499786D01*
X10732524Y-14537881D01*
X10723000Y-14556928D01*
X10713476Y-14566452D01*
X10694429Y-14575976D01*
X10675381Y-14575976D01*
X10656333Y-14566452D01*
X10646810Y-14556928D01*
X10637286Y-14537881D01*
X10627762Y-14499786D01*
X10627762Y-14452167D01*
X10637286Y-14414071D01*
X10646810Y-14395024D01*
X10656333Y-14385500D01*
X10675381Y-14375976D01*
X10827762Y-14575976D02*
X10827762Y-14442643D01*
X10827762Y-14461690D02*
X10837286Y-14452167D01*
X10856333Y-14442643D01*
X10884905Y-14442643D01*
X10903952Y-14452167D01*
X10913476Y-14471214D01*
X10913476Y-14575976D01*
X10913476Y-14471214D02*
X10923000Y-14452167D01*
X10942048Y-14442643D01*
X10970619Y-14442643D01*
X10989667Y-14452167D01*
X10999190Y-14471214D01*
X10999190Y-14575976D01*
X11094429Y-14575976D02*
X11094429Y-14442643D01*
X11094429Y-14461690D02*
X11103952Y-14452167D01*
X11123000Y-14442643D01*
X11151571Y-14442643D01*
X11170619Y-14452167D01*
X11180143Y-14471214D01*
X11180143Y-14575976D01*
X11180143Y-14471214D02*
X11189667Y-14452167D01*
X11208714Y-14442643D01*
X11237286Y-14442643D01*
X11256333Y-14452167D01*
X11265857Y-14471214D01*
X11265857Y-14575976D01*
X11656333Y-14366452D02*
X11484905Y-14623595D01*
X11913476Y-14375976D02*
X11932524Y-14375976D01*
X11951571Y-14385500D01*
X11961095Y-14395024D01*
X11970619Y-14414071D01*
X11980143Y-14452167D01*
X11980143Y-14499786D01*
X11970619Y-14537881D01*
X11961095Y-14556928D01*
X11951571Y-14566452D01*
X11932524Y-14575976D01*
X11913476Y-14575976D01*
X11894428Y-14566452D01*
X11884905Y-14556928D01*
X11875381Y-14537881D01*
X11865857Y-14499786D01*
X11865857Y-14452167D01*
X11875381Y-14414071D01*
X11884905Y-14395024D01*
X11894428Y-14385500D01*
X11913476Y-14375976D01*
X12065857Y-14556928D02*
X12075381Y-14566452D01*
X12065857Y-14575976D01*
X12056333Y-14566452D01*
X12065857Y-14556928D01*
X12065857Y-14575976D01*
X12199190Y-14375976D02*
X12218238Y-14375976D01*
X12237286Y-14385500D01*
X12246809Y-14395024D01*
X12256333Y-14414071D01*
X12265857Y-14452167D01*
X12265857Y-14499786D01*
X12256333Y-14537881D01*
X12246809Y-14556928D01*
X12237286Y-14566452D01*
X12218238Y-14575976D01*
X12199190Y-14575976D01*
X12180143Y-14566452D01*
X12170619Y-14556928D01*
X12161095Y-14537881D01*
X12151571Y-14499786D01*
X12151571Y-14452167D01*
X12161095Y-14414071D01*
X12170619Y-14395024D01*
X12180143Y-14385500D01*
X12199190Y-14375976D01*
X12380143Y-14461690D02*
X12361095Y-14452167D01*
X12351571Y-14442643D01*
X12342048Y-14423595D01*
X12342048Y-14414071D01*
X12351571Y-14395024D01*
X12361095Y-14385500D01*
X12380143Y-14375976D01*
X12418238Y-14375976D01*
X12437286Y-14385500D01*
X12446809Y-14395024D01*
X12456333Y-14414071D01*
X12456333Y-14423595D01*
X12446809Y-14442643D01*
X12437286Y-14452167D01*
X12418238Y-14461690D01*
X12380143Y-14461690D01*
X12361095Y-14471214D01*
X12351571Y-14480738D01*
X12342048Y-14499786D01*
X12342048Y-14537881D01*
X12351571Y-14556928D01*
X12361095Y-14566452D01*
X12380143Y-14575976D01*
X12418238Y-14575976D01*
X12437286Y-14566452D01*
X12446809Y-14556928D01*
X12456333Y-14537881D01*
X12456333Y-14499786D01*
X12446809Y-14480738D01*
X12437286Y-14471214D01*
X12418238Y-14461690D01*
X12532524Y-14395024D02*
X12542048Y-14385500D01*
X12561095Y-14375976D01*
X12608714Y-14375976D01*
X12627762Y-14385500D01*
X12637286Y-14395024D01*
X12646809Y-14414071D01*
X12646809Y-14433119D01*
X12637286Y-14461690D01*
X12523000Y-14575976D01*
X12646809Y-14575976D01*
X12713476Y-14375976D02*
X12846809Y-14375976D01*
X12761095Y-14575976D01*
X12913476Y-14375976D02*
X12913476Y-14414071D01*
X12989667Y-14375976D02*
X12989667Y-14414071D01*
X13284905Y-14652167D02*
X13275381Y-14642643D01*
X13256333Y-14614071D01*
X13246809Y-14595024D01*
X13237286Y-14566452D01*
X13227762Y-14518833D01*
X13227762Y-14480738D01*
X13237286Y-14433119D01*
X13246809Y-14404548D01*
X13256333Y-14385500D01*
X13275381Y-14356928D01*
X13284905Y-14347405D01*
X13389667Y-14461690D02*
X13370619Y-14452167D01*
X13361095Y-14442643D01*
X13351571Y-14423595D01*
X13351571Y-14414071D01*
X13361095Y-14395024D01*
X13370619Y-14385500D01*
X13389667Y-14375976D01*
X13427762Y-14375976D01*
X13446809Y-14385500D01*
X13456333Y-14395024D01*
X13465857Y-14414071D01*
X13465857Y-14423595D01*
X13456333Y-14442643D01*
X13446809Y-14452167D01*
X13427762Y-14461690D01*
X13389667Y-14461690D01*
X13370619Y-14471214D01*
X13361095Y-14480738D01*
X13351571Y-14499786D01*
X13351571Y-14537881D01*
X13361095Y-14556928D01*
X13370619Y-14566452D01*
X13389667Y-14575976D01*
X13427762Y-14575976D01*
X13446809Y-14566452D01*
X13456333Y-14556928D01*
X13465857Y-14537881D01*
X13465857Y-14499786D01*
X13456333Y-14480738D01*
X13446809Y-14471214D01*
X13427762Y-14461690D01*
X13703952Y-14575976D02*
X13703952Y-14375976D01*
X13789667Y-14575976D02*
X13789667Y-14471214D01*
X13780143Y-14452167D01*
X13761095Y-14442643D01*
X13732524Y-14442643D01*
X13713476Y-14452167D01*
X13703952Y-14461690D01*
X13913476Y-14575976D02*
X13894428Y-14566452D01*
X13884905Y-14556928D01*
X13875381Y-14537881D01*
X13875381Y-14480738D01*
X13884905Y-14461690D01*
X13894428Y-14452167D01*
X13913476Y-14442643D01*
X13942048Y-14442643D01*
X13961095Y-14452167D01*
X13970619Y-14461690D01*
X13980143Y-14480738D01*
X13980143Y-14537881D01*
X13970619Y-14556928D01*
X13961095Y-14566452D01*
X13942048Y-14575976D01*
X13913476Y-14575976D01*
X14094428Y-14575976D02*
X14075381Y-14566452D01*
X14065857Y-14547405D01*
X14065857Y-14375976D01*
X14246809Y-14566452D02*
X14227762Y-14575976D01*
X14189667Y-14575976D01*
X14170619Y-14566452D01*
X14161095Y-14547405D01*
X14161095Y-14471214D01*
X14170619Y-14452167D01*
X14189667Y-14442643D01*
X14227762Y-14442643D01*
X14246809Y-14452167D01*
X14256333Y-14471214D01*
X14256333Y-14490262D01*
X14161095Y-14509309D01*
X14332524Y-14566452D02*
X14351571Y-14575976D01*
X14389667Y-14575976D01*
X14408714Y-14566452D01*
X14418238Y-14547405D01*
X14418238Y-14537881D01*
X14408714Y-14518833D01*
X14389667Y-14509309D01*
X14361095Y-14509309D01*
X14342048Y-14499786D01*
X14332524Y-14480738D01*
X14332524Y-14471214D01*
X14342048Y-14452167D01*
X14361095Y-14442643D01*
X14389667Y-14442643D01*
X14408714Y-14452167D01*
X14484905Y-14652167D02*
X14494428Y-14642643D01*
X14513476Y-14614071D01*
X14523000Y-14595024D01*
X14532524Y-14566452D01*
X14542048Y-14518833D01*
X14542048Y-14480738D01*
X14532524Y-14433119D01*
X14523000Y-14404548D01*
X14513476Y-14385500D01*
X14494428Y-14356928D01*
X14484905Y-14347405D01*
X14846809Y-14652167D02*
X14837286Y-14642643D01*
X14818238Y-14614071D01*
X14808714Y-14595024D01*
X14799190Y-14566452D01*
X14789667Y-14518833D01*
X14789667Y-14480738D01*
X14799190Y-14433119D01*
X14808714Y-14404548D01*
X14818238Y-14385500D01*
X14837286Y-14356928D01*
X14846809Y-14347405D01*
X14923000Y-14442643D02*
X14923000Y-14575976D01*
X14923000Y-14461690D02*
X14932524Y-14452167D01*
X14951571Y-14442643D01*
X14980143Y-14442643D01*
X14999190Y-14452167D01*
X15008714Y-14471214D01*
X15008714Y-14575976D01*
X15132524Y-14575976D02*
X15113476Y-14566452D01*
X15103952Y-14556928D01*
X15094428Y-14537881D01*
X15094428Y-14480738D01*
X15103952Y-14461690D01*
X15113476Y-14452167D01*
X15132524Y-14442643D01*
X15161095Y-14442643D01*
X15180143Y-14452167D01*
X15189667Y-14461690D01*
X15199190Y-14480738D01*
X15199190Y-14537881D01*
X15189667Y-14556928D01*
X15180143Y-14566452D01*
X15161095Y-14575976D01*
X15132524Y-14575976D01*
X15256333Y-14442643D02*
X15332524Y-14442643D01*
X15284905Y-14375976D02*
X15284905Y-14547405D01*
X15294428Y-14566452D01*
X15313476Y-14575976D01*
X15332524Y-14575976D01*
X15551571Y-14442643D02*
X15551571Y-14642643D01*
X15551571Y-14452167D02*
X15570619Y-14442643D01*
X15608714Y-14442643D01*
X15627762Y-14452167D01*
X15637286Y-14461690D01*
X15646809Y-14480738D01*
X15646809Y-14537881D01*
X15637286Y-14556928D01*
X15627762Y-14566452D01*
X15608714Y-14575976D01*
X15570619Y-14575976D01*
X15551571Y-14566452D01*
X15761095Y-14575976D02*
X15742048Y-14566452D01*
X15732524Y-14547405D01*
X15732524Y-14375976D01*
X15923000Y-14575976D02*
X15923000Y-14471214D01*
X15913476Y-14452167D01*
X15894428Y-14442643D01*
X15856333Y-14442643D01*
X15837286Y-14452167D01*
X15923000Y-14566452D02*
X15903952Y-14575976D01*
X15856333Y-14575976D01*
X15837286Y-14566452D01*
X15827762Y-14547405D01*
X15827762Y-14528357D01*
X15837286Y-14509309D01*
X15856333Y-14499786D01*
X15903952Y-14499786D01*
X15923000Y-14490262D01*
X15989667Y-14442643D02*
X16065857Y-14442643D01*
X16018238Y-14375976D02*
X16018238Y-14547405D01*
X16027762Y-14566452D01*
X16046809Y-14575976D01*
X16065857Y-14575976D01*
X16208714Y-14566452D02*
X16189667Y-14575976D01*
X16151571Y-14575976D01*
X16132524Y-14566452D01*
X16123000Y-14547405D01*
X16123000Y-14471214D01*
X16132524Y-14452167D01*
X16151571Y-14442643D01*
X16189667Y-14442643D01*
X16208714Y-14452167D01*
X16218238Y-14471214D01*
X16218238Y-14490262D01*
X16123000Y-14509309D01*
X16389667Y-14575976D02*
X16389667Y-14375976D01*
X16389667Y-14566452D02*
X16370619Y-14575976D01*
X16332524Y-14575976D01*
X16313476Y-14566452D01*
X16303952Y-14556928D01*
X16294428Y-14537881D01*
X16294428Y-14480738D01*
X16303952Y-14461690D01*
X16313476Y-14452167D01*
X16332524Y-14442643D01*
X16370619Y-14442643D01*
X16389667Y-14452167D01*
X16465857Y-14652167D02*
X16475381Y-14642643D01*
X16494428Y-14614071D01*
X16503952Y-14595024D01*
X16513476Y-14566452D01*
X16523000Y-14518833D01*
X16523000Y-14480738D01*
X16513476Y-14433119D01*
X16503952Y-14404548D01*
X16494428Y-14385500D01*
X16475381Y-14356928D01*
X16465857Y-14347405D01*
X9713000Y-14805500D02*
G75*
G03*
X9713000Y-14805500I-100000J0D01*
G01*
X9951571Y-14695976D02*
X10075381Y-14695976D01*
X10008714Y-14772167D01*
X10037286Y-14772167D01*
X10056333Y-14781690D01*
X10065857Y-14791214D01*
X10075381Y-14810262D01*
X10075381Y-14857881D01*
X10065857Y-14876928D01*
X10056333Y-14886452D01*
X10037286Y-14895976D01*
X9980143Y-14895976D01*
X9961095Y-14886452D01*
X9951571Y-14876928D01*
X10161095Y-14876928D02*
X10170619Y-14886452D01*
X10161095Y-14895976D01*
X10151571Y-14886452D01*
X10161095Y-14876928D01*
X10161095Y-14895976D01*
X10361095Y-14895976D02*
X10246810Y-14895976D01*
X10303952Y-14895976D02*
X10303952Y-14695976D01*
X10284905Y-14724548D01*
X10265857Y-14743595D01*
X10246810Y-14753119D01*
X10484905Y-14695976D02*
X10503952Y-14695976D01*
X10523000Y-14705500D01*
X10532524Y-14715024D01*
X10542048Y-14734071D01*
X10551571Y-14772167D01*
X10551571Y-14819786D01*
X10542048Y-14857881D01*
X10532524Y-14876928D01*
X10523000Y-14886452D01*
X10503952Y-14895976D01*
X10484905Y-14895976D01*
X10465857Y-14886452D01*
X10456333Y-14876928D01*
X10446810Y-14857881D01*
X10437286Y-14819786D01*
X10437286Y-14772167D01*
X10446810Y-14734071D01*
X10456333Y-14715024D01*
X10465857Y-14705500D01*
X10484905Y-14695976D01*
X10675381Y-14695976D02*
X10694429Y-14695976D01*
X10713476Y-14705500D01*
X10723000Y-14715024D01*
X10732524Y-14734071D01*
X10742048Y-14772167D01*
X10742048Y-14819786D01*
X10732524Y-14857881D01*
X10723000Y-14876928D01*
X10713476Y-14886452D01*
X10694429Y-14895976D01*
X10675381Y-14895976D01*
X10656333Y-14886452D01*
X10646810Y-14876928D01*
X10637286Y-14857881D01*
X10627762Y-14819786D01*
X10627762Y-14772167D01*
X10637286Y-14734071D01*
X10646810Y-14715024D01*
X10656333Y-14705500D01*
X10675381Y-14695976D01*
X10827762Y-14895976D02*
X10827762Y-14762643D01*
X10827762Y-14781690D02*
X10837286Y-14772167D01*
X10856333Y-14762643D01*
X10884905Y-14762643D01*
X10903952Y-14772167D01*
X10913476Y-14791214D01*
X10913476Y-14895976D01*
X10913476Y-14791214D02*
X10923000Y-14772167D01*
X10942048Y-14762643D01*
X10970619Y-14762643D01*
X10989667Y-14772167D01*
X10999190Y-14791214D01*
X10999190Y-14895976D01*
X11094429Y-14895976D02*
X11094429Y-14762643D01*
X11094429Y-14781690D02*
X11103952Y-14772167D01*
X11123000Y-14762643D01*
X11151571Y-14762643D01*
X11170619Y-14772167D01*
X11180143Y-14791214D01*
X11180143Y-14895976D01*
X11180143Y-14791214D02*
X11189667Y-14772167D01*
X11208714Y-14762643D01*
X11237286Y-14762643D01*
X11256333Y-14772167D01*
X11265857Y-14791214D01*
X11265857Y-14895976D01*
X11656333Y-14686452D02*
X11484905Y-14943595D01*
X11913476Y-14695976D02*
X11932524Y-14695976D01*
X11951571Y-14705500D01*
X11961095Y-14715024D01*
X11970619Y-14734071D01*
X11980143Y-14772167D01*
X11980143Y-14819786D01*
X11970619Y-14857881D01*
X11961095Y-14876928D01*
X11951571Y-14886452D01*
X11932524Y-14895976D01*
X11913476Y-14895976D01*
X11894428Y-14886452D01*
X11884905Y-14876928D01*
X11875381Y-14857881D01*
X11865857Y-14819786D01*
X11865857Y-14772167D01*
X11875381Y-14734071D01*
X11884905Y-14715024D01*
X11894428Y-14705500D01*
X11913476Y-14695976D01*
X12065857Y-14876928D02*
X12075381Y-14886452D01*
X12065857Y-14895976D01*
X12056333Y-14886452D01*
X12065857Y-14876928D01*
X12065857Y-14895976D01*
X12265857Y-14895976D02*
X12151571Y-14895976D01*
X12208714Y-14895976D02*
X12208714Y-14695976D01*
X12189667Y-14724548D01*
X12170619Y-14743595D01*
X12151571Y-14753119D01*
X12342048Y-14715024D02*
X12351571Y-14705500D01*
X12370619Y-14695976D01*
X12418238Y-14695976D01*
X12437286Y-14705500D01*
X12446809Y-14715024D01*
X12456333Y-14734071D01*
X12456333Y-14753119D01*
X12446809Y-14781690D01*
X12332524Y-14895976D01*
X12456333Y-14895976D01*
X12532524Y-14715024D02*
X12542048Y-14705500D01*
X12561095Y-14695976D01*
X12608714Y-14695976D01*
X12627762Y-14705500D01*
X12637286Y-14715024D01*
X12646809Y-14734071D01*
X12646809Y-14753119D01*
X12637286Y-14781690D01*
X12523000Y-14895976D01*
X12646809Y-14895976D01*
X12770619Y-14695976D02*
X12789667Y-14695976D01*
X12808714Y-14705500D01*
X12818238Y-14715024D01*
X12827762Y-14734071D01*
X12837286Y-14772167D01*
X12837286Y-14819786D01*
X12827762Y-14857881D01*
X12818238Y-14876928D01*
X12808714Y-14886452D01*
X12789667Y-14895976D01*
X12770619Y-14895976D01*
X12751571Y-14886452D01*
X12742048Y-14876928D01*
X12732524Y-14857881D01*
X12723000Y-14819786D01*
X12723000Y-14772167D01*
X12732524Y-14734071D01*
X12742048Y-14715024D01*
X12751571Y-14705500D01*
X12770619Y-14695976D01*
X12913476Y-14695976D02*
X12913476Y-14734071D01*
X12989667Y-14695976D02*
X12989667Y-14734071D01*
X13284905Y-14972167D02*
X13275381Y-14962643D01*
X13256333Y-14934071D01*
X13246809Y-14915024D01*
X13237286Y-14886452D01*
X13227762Y-14838833D01*
X13227762Y-14800738D01*
X13237286Y-14753119D01*
X13246809Y-14724548D01*
X13256333Y-14705500D01*
X13275381Y-14676928D01*
X13284905Y-14667405D01*
X13465857Y-14895976D02*
X13351571Y-14895976D01*
X13408714Y-14895976D02*
X13408714Y-14695976D01*
X13389667Y-14724548D01*
X13370619Y-14743595D01*
X13351571Y-14753119D01*
X13703952Y-14895976D02*
X13703952Y-14695976D01*
X13789667Y-14895976D02*
X13789667Y-14791214D01*
X13780143Y-14772167D01*
X13761095Y-14762643D01*
X13732524Y-14762643D01*
X13713476Y-14772167D01*
X13703952Y-14781690D01*
X13913476Y-14895976D02*
X13894428Y-14886452D01*
X13884905Y-14876928D01*
X13875381Y-14857881D01*
X13875381Y-14800738D01*
X13884905Y-14781690D01*
X13894428Y-14772167D01*
X13913476Y-14762643D01*
X13942048Y-14762643D01*
X13961095Y-14772167D01*
X13970619Y-14781690D01*
X13980143Y-14800738D01*
X13980143Y-14857881D01*
X13970619Y-14876928D01*
X13961095Y-14886452D01*
X13942048Y-14895976D01*
X13913476Y-14895976D01*
X14094428Y-14895976D02*
X14075381Y-14886452D01*
X14065857Y-14867405D01*
X14065857Y-14695976D01*
X14246809Y-14886452D02*
X14227762Y-14895976D01*
X14189667Y-14895976D01*
X14170619Y-14886452D01*
X14161095Y-14867405D01*
X14161095Y-14791214D01*
X14170619Y-14772167D01*
X14189667Y-14762643D01*
X14227762Y-14762643D01*
X14246809Y-14772167D01*
X14256333Y-14791214D01*
X14256333Y-14810262D01*
X14161095Y-14829309D01*
X14323000Y-14972167D02*
X14332524Y-14962643D01*
X14351571Y-14934071D01*
X14361095Y-14915024D01*
X14370619Y-14886452D01*
X14380143Y-14838833D01*
X14380143Y-14800738D01*
X14370619Y-14753119D01*
X14361095Y-14724548D01*
X14351571Y-14705500D01*
X14332524Y-14676928D01*
X14323000Y-14667405D01*
X14684905Y-14972167D02*
X14675381Y-14962643D01*
X14656333Y-14934071D01*
X14646809Y-14915024D01*
X14637286Y-14886452D01*
X14627762Y-14838833D01*
X14627762Y-14800738D01*
X14637286Y-14753119D01*
X14646809Y-14724548D01*
X14656333Y-14705500D01*
X14675381Y-14676928D01*
X14684905Y-14667405D01*
X14761095Y-14762643D02*
X14761095Y-14895976D01*
X14761095Y-14781690D02*
X14770619Y-14772167D01*
X14789667Y-14762643D01*
X14818238Y-14762643D01*
X14837286Y-14772167D01*
X14846809Y-14791214D01*
X14846809Y-14895976D01*
X14970619Y-14895976D02*
X14951571Y-14886452D01*
X14942048Y-14876928D01*
X14932524Y-14857881D01*
X14932524Y-14800738D01*
X14942048Y-14781690D01*
X14951571Y-14772167D01*
X14970619Y-14762643D01*
X14999190Y-14762643D01*
X15018238Y-14772167D01*
X15027762Y-14781690D01*
X15037286Y-14800738D01*
X15037286Y-14857881D01*
X15027762Y-14876928D01*
X15018238Y-14886452D01*
X14999190Y-14895976D01*
X14970619Y-14895976D01*
X15094428Y-14762643D02*
X15170619Y-14762643D01*
X15123000Y-14695976D02*
X15123000Y-14867405D01*
X15132524Y-14886452D01*
X15151571Y-14895976D01*
X15170619Y-14895976D01*
X15389667Y-14762643D02*
X15389667Y-14962643D01*
X15389667Y-14772167D02*
X15408714Y-14762643D01*
X15446809Y-14762643D01*
X15465857Y-14772167D01*
X15475381Y-14781690D01*
X15484905Y-14800738D01*
X15484905Y-14857881D01*
X15475381Y-14876928D01*
X15465857Y-14886452D01*
X15446809Y-14895976D01*
X15408714Y-14895976D01*
X15389667Y-14886452D01*
X15599190Y-14895976D02*
X15580143Y-14886452D01*
X15570619Y-14867405D01*
X15570619Y-14695976D01*
X15761095Y-14895976D02*
X15761095Y-14791214D01*
X15751571Y-14772167D01*
X15732524Y-14762643D01*
X15694428Y-14762643D01*
X15675381Y-14772167D01*
X15761095Y-14886452D02*
X15742048Y-14895976D01*
X15694428Y-14895976D01*
X15675381Y-14886452D01*
X15665857Y-14867405D01*
X15665857Y-14848357D01*
X15675381Y-14829309D01*
X15694428Y-14819786D01*
X15742048Y-14819786D01*
X15761095Y-14810262D01*
X15827762Y-14762643D02*
X15903952Y-14762643D01*
X15856333Y-14695976D02*
X15856333Y-14867405D01*
X15865857Y-14886452D01*
X15884905Y-14895976D01*
X15903952Y-14895976D01*
X16046809Y-14886452D02*
X16027762Y-14895976D01*
X15989667Y-14895976D01*
X15970619Y-14886452D01*
X15961095Y-14867405D01*
X15961095Y-14791214D01*
X15970619Y-14772167D01*
X15989667Y-14762643D01*
X16027762Y-14762643D01*
X16046809Y-14772167D01*
X16056333Y-14791214D01*
X16056333Y-14810262D01*
X15961095Y-14829309D01*
X16227762Y-14895976D02*
X16227762Y-14695976D01*
X16227762Y-14886452D02*
X16208714Y-14895976D01*
X16170619Y-14895976D01*
X16151571Y-14886452D01*
X16142048Y-14876928D01*
X16132524Y-14857881D01*
X16132524Y-14800738D01*
X16142048Y-14781690D01*
X16151571Y-14772167D01*
X16170619Y-14762643D01*
X16208714Y-14762643D01*
X16227762Y-14772167D01*
X16303952Y-14972167D02*
X16313476Y-14962643D01*
X16332524Y-14934071D01*
X16342048Y-14915024D01*
X16351571Y-14886452D01*
X16361095Y-14838833D01*
X16361095Y-14800738D01*
X16351571Y-14753119D01*
X16342048Y-14724548D01*
X16332524Y-14705500D01*
X16313476Y-14676928D01*
X16303952Y-14667405D01*
M02*
